<?xml version="1.0" encoding="utf-8"?>
<!-- Generator: Adobe Illustrator 24.1.2, SVG Export Plug-In . SVG Version: 6.00 Build 0)  -->
<svg version="1.1" id="Layer_1" xmlns="http://www.w3.org/2000/svg" xmlns:xlink="http://www.w3.org/1999/xlink" x="0px" y="0px"
	 viewBox="0 0 1200 800" style="enable-background:new 0 0 1200 800;" xml:space="preserve">
<style type="text/css">
	.st0{fill:url(#SVGID_1_);}
	.st1{fill:url(#SVGID_2_);}
	.st2{fill:url(#SVGID_3_);}
	.st3{fill:url(#SVGID_4_);}
	.st4{opacity:0.38;fill:url(#SVGID_5_);}
	.st5{fill:url(#SVGID_6_);}
	.st6{opacity:0.17;fill:url(#SVGID_7_);}
	.st7{fill:url(#SVGID_8_);}
	.st8{opacity:0.17;fill:url(#SVGID_9_);}
	.st9{fill:url(#SVGID_10_);}
	.st10{opacity:0.19;fill:url(#SVGID_11_);}
	.st11{fill:url(#SVGID_12_);}
	.st12{opacity:0.24;fill:url(#SVGID_13_);}
	.st13{opacity:0.53;fill:url(#SVGID_14_);}
	.st14{opacity:0.53;fill:url(#SVGID_15_);}
	.st15{fill:url(#SVGID_16_);}
	.st16{opacity:0.53;fill:url(#SVGID_17_);}
	.st17{opacity:0.53;fill:url(#SVGID_18_);}
	.st18{opacity:0.53;fill:url(#SVGID_19_);}
	.st19{opacity:0.53;fill:url(#SVGID_20_);}
	.st20{opacity:0.53;fill:url(#SVGID_21_);}
	.st21{opacity:0.53;fill:url(#SVGID_22_);}
	.st22{opacity:0.53;fill:url(#SVGID_23_);}
	.st23{opacity:0.53;fill:url(#SVGID_24_);}
	.st24{opacity:0.53;fill:url(#SVGID_25_);}
	.st25{opacity:0.53;fill:url(#SVGID_26_);}
	.st26{fill:#FFFFFF;}
	.st27{fill:#FFFA4F;}
</style>
<g>
	<linearGradient id="SVGID_1_" gradientUnits="userSpaceOnUse" x1="600.7495" y1="-6.2672" x2="600.7495" y2="406.5192">
		<stop  offset="0" style="stop-color:#00B4B4"/>
		<stop  offset="0.5053" style="stop-color:#B2DACC"/>
		<stop  offset="1" style="stop-color:#F4F4BF"/>
	</linearGradient>
	<rect x="1.5" class="st0" width="1198.5" height="800"/>
	<g>
		<linearGradient id="SVGID_2_" gradientUnits="userSpaceOnUse" x1="911.1152" y1="-87.9613" x2="1005.9966" y2="214.5429">
			<stop  offset="0" style="stop-color:#DBF1F0"/>
			<stop  offset="1" style="stop-color:#DBF1F0;stop-opacity:0"/>
		</linearGradient>
		<path class="st1" d="M1200,113.8v62H768.3c0,0,28.6-22.4,46.2-11.2c0,0,4.7-47.6,29.4-49c24.7-1.4,35.3,30.1,35.3,30.1
			s-11.8-67.9,23.5-76.3c35.3-8.4,52.9,33.6,52.9,33.6s24.7-16.8,47-1.4c22.3,15.4,27,42,27,42s12.9-92.4,69.3-95.2
			c56.4-2.8,64.6,63.7,64.6,63.7S1180.4,104.3,1200,113.8z"/>
		<linearGradient id="SVGID_3_" gradientUnits="userSpaceOnUse" x1="631.7846" y1="204.7865" x2="666.2198" y2="314.5742">
			<stop  offset="0" style="stop-color:#DBF1F0"/>
			<stop  offset="1" style="stop-color:#DBF1F0;stop-opacity:0"/>
		</linearGradient>
		<path class="st2" d="M736.6,278v22.5H579.9c0,0,10.4-8.1,16.8-4.1c0,0,1.7-17.3,10.7-17.8c9-0.5,12.8,10.9,12.8,10.9
			s-4.3-24.7,8.5-27.7c12.8-3.1,19.2,12.2,19.2,12.2s9-6.1,17.1-0.5c8.1,5.6,9.8,15.2,9.8,15.2s4.7-33.5,25.2-34.6
			c20.5-1,23.5,23.1,23.5,23.1S729.5,274.5,736.6,278z"/>
		<linearGradient id="SVGID_4_" gradientUnits="userSpaceOnUse" x1="221.0623" y1="-68.9468" x2="142.4419" y2="225.422">
			<stop  offset="0" style="stop-color:#DBF1F0"/>
			<stop  offset="1" style="stop-color:#DBF1F0;stop-opacity:0"/>
		</linearGradient>
		<path class="st3" d="M336.1,190.5H1.5V62.9c1.3,0,2.7,0,4.1,0.1c56.4,2.8,69.3,95.2,69.3,95.2s4.7-26.6,27-42s47,1.4,47,1.4
			s17.6-42,52.9-33.6c35.2,8.4,23.5,76.3,23.5,76.3s10.6-31.5,35.3-30.1c24.7,1.4,29.4,49,29.4,49
			C307.5,168.1,336.1,190.5,336.1,190.5z"/>
	</g>
</g>
<linearGradient id="SVGID_5_" gradientUnits="userSpaceOnUse" x1="706.5081" y1="663.9114" x2="700.3315" y2="103.8839">
	<stop  offset="0" style="stop-color:#6B8B00"/>
	<stop  offset="1" style="stop-color:#D9E376"/>
</linearGradient>
<path class="st4" d="M1200,319.5v192.4c-84.4,29.7-172.6,36.3-258.6,19c-83-16.6-163.8-55.1-247.4-63.2
	c-142.3-13.8-282.1,60.7-424.7,63.5c-20.9,0.4-42.9-1.2-61.6-13.3V331.8c2.9-4.9,7.5-7.9,15.4-8.4c25.9-1.4,50.7,14.6,76.9,8.6
	c23.1-5.3,43.5-26.1,66.6-31.6c40.8-9.8,81.6,29.1,122.5,19.5c28.1-6.6,50.9-34.9,74.2-58.5c23.3-23.6,51.9-44.3,79.2-33
	c11.3,4.7,21.3,14.5,31.5,22.9c26.9,21.9,72.2,14.5,101.9,26.8c33,13.7,50.7,47.3,83.7,61c18.2,7.6,37,15.2,55.9,12.6
	c34.6-4.8,63.3-42.9,97.7-50.4c39.3-8.6,77.2,24,116.8,28.5C1153.4,332.5,1176.7,325.2,1200,319.5z"/>
<g>
	<g>
		<linearGradient id="SVGID_6_" gradientUnits="userSpaceOnUse" x1="1126.578" y1="858.09" x2="1124.1382" y2="131.1492">
			<stop  offset="0" style="stop-color:#666D42"/>
			<stop  offset="1" style="stop-color:#8D862B"/>
		</linearGradient>
		<path class="st5" d="M1200,196.7v225.6c-29.1,7.4-56.7,19.1-87.7,20.4c-20.1,0.8-40.3-0.7-60.3,1.4c-0.8,0.1-1.6,0.2-2.5,0.3
			c1.6-0.8,3.2-1.8,4.5-3.2c2.5-2.8,3.5-7,4.1-11c2.6-15.8,3.2-33.4,5.9-49.3l-2.5,1.5l9-46.9l14.4-11.8l1.2,15.5l2.9-20.4l15.2-7.3
			l16.8,17.6v-42l13.5-15.6l2,9.8l3.3,16.1l1.3-21.2l0.7-11l12.5-10.7l12.2,8.7l5.2-42.4l25.4-25.9L1200,196.7z"/>
		<linearGradient id="SVGID_7_" gradientUnits="userSpaceOnUse" x1="1150.0492" y1="128.4516" x2="1144.5946" y2="411.4756">
			<stop  offset="0" style="stop-color:#316D17"/>
			<stop  offset="1" style="stop-color:#6B8B00"/>
		</linearGradient>
		<polygon class="st6" points="1200,244.7 1200,370.6 1181.2,406.3 1094.5,406.3 1090.5,385.7 1099.9,351.6 1124.8,346.6 
			1138.7,359.6 1138.7,313.8 1160.3,296 1160.3,319.7 1167,288 1181.2,278.6 		"/>
	</g>
	<g>
		<linearGradient id="SVGID_8_" gradientUnits="userSpaceOnUse" x1="473.7" y1="860.1537" x2="471.2633" y2="134.1263">
			<stop  offset="0" style="stop-color:#666D42"/>
			<stop  offset="1" style="stop-color:#8D862B"/>
		</linearGradient>
		<path class="st7" d="M899.1,481.5l-5.6-46.6h-57.7l-39.1-24.4l-20.5-40l-22.4-11.1l-7.4,51.1L721,350.6l-41.7-10.5l-40.1-43.7
			l1.1-2.4c0,0-3.3-7-5.5-9.1c-2.2-2.2-6.2-10.5-7.3-11.3c-1.1-0.9-11.3-2.2-11.3-2.2l-10.6-32.2l-22.9-4.3l-22.6-24.6l-10.8-4.6
			l-0.8,6.3l-5.4,0.2l-2.3,21.5l-1.6-32.5l-14.3-6.1l-31.9,15l-10.8,13.5l-8.2,2l-3,12.1l-0.6-9.4l-5.1,2.6l-8.1,23.9l-14.8,4.5
			l-12.2,29l-6.9-9.7l-3.7-15.9l-1.2,9l-1.8,13.4l-1.1-17.5l-0.8-13.1l-6.1-3.3l-3.6-12.3h-12.9l-8.7-8.7l-17,2.3l-2.9,22.9
			l-1.4-13.2l-10.9,8.3l-5.1,17.7l-5.8,13.6c0,0-5.2-8.1-12.5-16.6l0,0l-13.4-17l-13.6-6.6l-15.3,3.9l-3.3,11.1l-10.6,4.9l-8.5,24.4
			l-2-5.9l-8.8,1.2l-2.5,12.9v-11.7l-4.5,2.1l-4.5,20.4l-11.5,4c-2.6-0.1-5.4-0.7-8.1-1.8l-18.8-13.9l-12.8-9l-10.8-5.4l-15.3-17.3
			h-16.6l-0.8,7.8l-1.6-9.5l-1.9-11l-4.6-3.3l-4.6-12.2l-5.9-4.1l-5.9,4.2l-8.4,3.9v24.4l-8.9-60L87,195.7L73.2,200l-4.5,8
			l-11.5-7.2v34.4l-13-37.7l-4.9-2.2l-5.5-27.9l-16.9-9l0.6-14.7L1.5,125v419l599.3,19.8l343-20.4L899.1,481.5z"/>
		<linearGradient id="SVGID_9_" gradientUnits="userSpaceOnUse" x1="211.6727" y1="428.0967" x2="210.8386" y2="179.6022">
			<stop  offset="0" style="stop-color:#316D17"/>
			<stop  offset="1" style="stop-color:#6B8B00"/>
		</linearGradient>
		<polygon class="st8" points="421.5,348.1 172.4,428.2 1.5,419.5 1.5,180.3 4.5,186.5 16,187 18.8,205 29.5,239.7 59.8,271 
			64.3,301.7 71.3,271.4 92.2,279.8 103.2,310 131.1,308.1 145.8,314.9 170.8,338.8 231.5,323.8 253.2,329.1 295,328.6 336.1,321.8 
			360.5,314.9 388.4,320.3 419.5,323.8 		"/>
	</g>
</g>
<g>
	<g>
		<linearGradient id="SVGID_10_" gradientUnits="userSpaceOnUse" x1="559.5167" y1="105.8542" x2="596.9095" y2="544.0991">
			<stop  offset="0" style="stop-color:#6B8B00"/>
			<stop  offset="1" style="stop-color:#D9E376"/>
		</linearGradient>
		<path class="st9" d="M1104.8,379.7l0-0.8c-1,0-2.4-0.3-2.4-0.3s1.2-1.7,0.2-3.9c0,0,0.2,2.6-2.5,3.1c-2.8,0.5-0.5-10.1-0.5-10.1
			s-3.5,9.8-3.3,11.4c0,0.3-0.1,0.5-0.2,0.6c-0.3,0-0.5,0-0.8,0c-0.6-0.2-1.3-0.7-1.3-0.7s-0.1-4.9-2.1-7.6c0,0,0.9,5.1-0.6,6.3
			c0-0.2,0.4-1.4-0.4-3.5c0,0,0,2.5-1.5,3.5c-1.5,1.1-1.1-4.9-1.1-4.9s-1.4,2.7-1.1,4.9c0,0-2.4,0.3-1.9-5.8c-0.2,0.4-2,3.9-1.2,5.8
			l-1.7,1.5c0,0,0.7-4.1-1-7.7c0,0,0,6.5-1.9,7c-1.9,0.4-2.3-0.8-2.3-0.8s1.3-4.3,0.2-6c0,0-0.6,6-2.5,6c-1.8,0-1.5-4.9-1.5-5.5
			c-0.2,0.6-1.6,6.1-0.9,6.5c0.7,0.4-2.3-1-2.3-1s1.3-2.2,0.1-4.1c0,0-0.9,5.7-3.1,4.9c-2.2-0.8-2.3-9.9-2.3-9.9s-1.8,9.1-1.2,9.8
			c0.5,0.7-1.5,0.5-1.5,0.5s-1.3-2.5-0.8-4.6c0,0-1.7,1.4-1.4,3.5c0.3,2.1-2.2,0.9-2.2,0.9s1.3-2.4,0.2-4.4c0,0-0.9,2.9-2.7,3.6
			c0,0,2.1-3.7,0.2-6.1c0,0,0.3,5.3-2.7,6.2c-2.8,0.9-2.4-3.7-2.4-4.2c-0.2,0.4-1.6,3.5-1.2,4.7c-0.4-0.8-1.8-3.7-1.2-6.9
			c-0.1,0.4-1.3,4.3-0.3,6.6c0.2,0.4,0.1,0.7,0,0.9c-1.4,0-2.8-0.1-4.2-0.1l0.1-4.9l-1.3,4.2c0,0-1.6-2.1-1.6-6.6
			c0,0-1.3,4.1-0.2,6.6l-2.2,0.1c0,0,0.3-2.6-1-5.1c0,0,0.2,3.1-1.3,5.1c0.1-0.4,0.7-5.5-1.1-8.5c0,0-0.1,6.7-2.5,8.7
			c0,0-1.2-1.6-1-5.4c0,0-1.3,3.1-0.8,5.4c-0.9,0-1.8,0-2.7-0.1c-0.5-1.3-1-3.7-0.5-6.7c0,0-1.5,3.9-1.7,6.7c-0.9,0-1.8-0.1-2.7-0.1
			c0.2-1.3,0.3-3.3-0.6-4.7c0,0,0,2.7-0.8,4.7c-0.8,0-1.5-0.1-2.3-0.1c0.3-0.9,0.5-2.4,0-3.8c0,0-0.5,2.4-1.5,3.8
			c-0.8,0-1.6-0.1-2.4-0.1c-0.2-1.1,0.1-2.6,0.1-2.6s-1,1.2-1.3,2.6c-0.4,0-0.8,0-1.1,0c-0.4-1.2-0.6-2.9,0.1-5.4
			c0,0-1.7,2.7-2.1,5.3c-1.4-0.1-2.8-0.1-4.2-0.2c-0.1-0.5-0.3-1-0.5-1.6c0,0,0,0.7-0.2,1.6c-0.5,0-0.9,0-1.4-0.1
			c-0.1-1.5-0.5-3.3-1.4-4.9c0,0,0,2.6-0.3,4.8c-1,0-2.1-0.1-3.1-0.1c-0.2-1-0.3-1.9-0.3-1.9s-0.1,0.8-0.2,1.9
			c-1.1-0.1-2.2-0.1-3.4-0.1c0-1.2,0.2-2.6,0.9-4.4c0,0-1.4,2-2.2,4.3c-1.1-0.1-2.2-0.1-3.3-0.2c0.3-3,1.6-7.1,1.6-7.1
			s-1.9,3.8-3.2,7c-1.2-0.1-2.4-0.1-3.6-0.2c-0.1-1.4-0.5-3-1.2-4.3c0,0,0.2,2.4-0.2,4.2c-0.3,0-0.6,0-0.8,0c0-0.4-0.1-0.9-0.3-1.5
			c0,0-0.1,0.7-0.4,1.5c-0.8,0-1.6-0.1-2.4-0.1c0-1.4,0.3-3.1,0.3-3.1s-0.9,1.4-1.4,3.1c-0.5,0-1.1-0.1-1.6-0.1
			c-0.2-0.9-0.3-2.3,0.1-4.4c-0.2,0.3-1.6,2.4-1.9,4.3c-0.5,0-1-0.1-1.5-0.1c0.1-1.4,0-3.3-0.6-5.1c0,0-0.3,3.1-1.2,5
			c-1.1-0.1-2.3-0.1-3.4-0.2c0.4-1.2,1.2-3.9,0.6-5.2c0,0-0.8,3.8-2.1,5.1c-0.6,0-1.2-0.1-1.7-0.1c-0.8-1.3-0.3-4.6-0.2-5.1
			c-0.2,0.4-1.3,3.3-1.6,5c-0.7,0-1.4-0.1-2.1-0.1c0.3-0.5,1.3-2.1,0.5-3.9c0,0-0.7,2.5-1.8,3.8c-0.8-0.1-1.7-0.1-2.5-0.2
			c-1.2-2.5-0.6-9.3-0.6-9.3s-2.3,7.4-2.3,9.1c-0.6,0-1.1-0.1-1.7-0.1c-0.3-0.9-0.6-2.6-0.1-4c0,0-1.8,1.1-1.8,3.3
			c0,0.2,0,0.4-0.1,0.5c-0.7-0.1-1.4-0.1-2.1-0.1c0.3-0.5,1.4-2.3,0.6-4.2c0,0-1.2,2.7-3,3.2c0,0,2.5-3.3,0.8-6.1
			c0,0-0.3,5.3-3.4,5.7c-2.9,0.4-2-4.1-1.9-4.5c-0.2,0.3-1.9,3.3-1.7,4.5c-0.3-0.8-1.4-4-0.4-7.1c-0.2,0.4-1.7,4-1,6.5
			c0.2,0.7,0,1-0.4,1.2c-0.8-0.1-1.5-0.1-2.3-0.2c-0.8-0.2-1.5-0.5-1.5-0.5l0.7-5.1l-1.7,4c0,0-1.4-2.3-0.9-6.7c0,0-1.7,3.9-0.9,6.5
			l-2.2-0.3c0,0,0.6-2.6-0.4-5.2c0,0-0.1,3.1-1.8,4.9c0.1-0.4,1.3-5.4-0.2-8.6c0,0-0.8,6.6-3.4,8.2c0,0-1-1.8-0.4-5.5
			c0,0-1.8,3.1-1.3,5.6c0.5,2.5-2.3,0.4-2.3,0.4s-1.5-3.3-0.2-8c0,0-2.9,5.3-2.4,8c0.1,0.3,0.1,0.6,0,0.7c-0.5,0-1-0.1-1.6-0.1
			c-0.8-0.5-1.6-1.2-1.6-1.2s1.6-3.7,0.4-6.3c0,0-0.6,5.3-2.8,6.1c-2.2,0.9-1.2-1.2-1.2-1.2s1.4-2.2,0.8-4.6c0,0-1.5,4.5-3.3,4.3
			c-1.8-0.2-0.5-3.8-0.5-3.8s-2.3,2.2-1.7,4.1c0,0-2.3-2.4-0.3-7.3c0,0-3.7,4.6-2.6,7.6c0.2,0.5,0.2,0.9,0.1,1c-0.5,0-1-0.1-1.5-0.1
			c-1.1-0.5-2.4-1.5-2.5-1.7c-0.3-0.3,0-1.9-0.7-4.4c0,0-0.5,3.4-2.1,4.2c0,0,1.1-4.3-0.5-7.9c0,0-0.7,6.8-2.3,7.5
			c-1.6,0.7-1.7-5.3-1.7-5.3s-1.2,4.9-0.8,5.7c0.4,0.8-2.6-1-2.6-1s-1.4-3,1.1-7.7c0,0-0.7,0.8-1.5,2c-0.4-3-2.3-6.2-2.3-6.2
			c1.7,5.2-0.1,7.8-0.1,7.8s-3.3,1.2-2.8,0.4c0.5-0.7,0.1-5.8,0.1-5.8s-1.1,5.9-2.5,4.8c-1.5-1-1.1-7.9-1.1-7.9
			c-2.2,3.2-1.7,7.7-1.7,7.7c-1.5-1.2-1.4-4.6-1.4-4.6c-1.1,2.4-1,4-1.3,4.2c-0.3,0.2-5.5,2.7-3.9-0.1c1.6-2.8-1.3-8.1-1.3-8.1
			c1.3,5.3-1.4,7.1-1.4,7.1c0.9-1.7-1.1-4.4-1.1-4.4s0.7,3.8-1.1,3.6c-1.8-0.2-2.6-5-2.6-5c-1,2.2,0,4.7,0,4.7s0.7,2.3-1.3,0.9
			c-2-1.3-1.8-6.6-1.8-6.6c-1.5,2.3-0.5,6.3-0.5,6.3s-4.1,2.4-3.2-0.1c0.9-2.5-1.1-8.4-1.1-8.4c0.5,4.9-1.4,7.8-1.4,7.8
			s-3.1,1.4-2.2-0.9c0.9-2.4-0.4-5.8-0.4-5.8c0,3.8-1.3,5.3-1.3,5.3c-2.3-2.1-2.1-8.8-2.1-8.8c-2.1,3-1.5,8.5-1.5,8.5
			c-1.4-2.1-1.1-5.2-1.1-5.2c-1.4,2.4-1.2,5-1.2,5l-2.2-0.2c1.2-2.4,0.1-6.6,0.1-6.6c-0.2,4.4-1.9,6.4-1.9,6.4l-1.1-4.3l-0.1,5.2
			c0,0-5.2,1-4.1-1.4c1.1-2.4,0-6.6,0-6.6c0.6,3.8-1.6,7.1-1.6,7.1c0.8-0.9-0.9-5-0.9-5s0.3,5.2-2.6,4.1c-2.9-1.1-2.4-6.4-2.4-6.4
			c-2,2.3-0.1,6.1-0.1,6.1c-1.8-0.8-2.5-3.8-2.5-3.8c-1.2,2,0,4.4,0,4.4s-2.6,1.1-2.2-1c0.4-2.1-1.2-3.6-1.2-3.6
			c0.4,2.2-1,4.5-1,4.5s-2,0.1-1.5-0.6c0.5-0.6-0.8-9.8-0.8-9.8s-0.6,9-2.8,9.7c-2.2,0.6-2.8-5.2-2.8-5.2c-1.3,1.9-0.1,4.1-0.1,4.1
			s-3.1,1.2-2.4,0.8c0.7-0.4-0.6-6.7-0.6-6.7s0.1,5.6-1.8,5.4c-1.9-0.1-2.2-6.2-2.2-6.2c-1.2,1.6-0.1,6-0.1,6s-0.5,1.2-2.3,0.6
			c-1.9-0.6-1.6-7.1-1.6-7.1c-1.9,3.5-1.4,7.6-1.4,7.6l-1.7-1.6c0.9-2-1-5.9-1-5.9c0.2,6.2-2.2,5.7-2.2,5.7c0.4-2.1-0.9-4.9-0.9-4.9
			s0.1,5.9-1.4,4.8c-1.5-1.1-1.3-3.6-1.3-3.6c-1,2.2-0.6,3.5-0.6,3.5c-1.5-1.3-0.3-6.4-0.3-6.4c-2.2,2.6-2.5,7.5-2.5,7.5
			s-2.5,1.6-2.2-0.1c0.2-1.6-2.7-11.6-2.7-11.6s1.7,10.8-1,10.1s-2.4-3.2-2.4-3.2c-1.1,2.1,0,3.9,0,3.9s-4.5,0.8-3.4-1
			c1.1-1.8,0.1-3.4,0.1-3.4s-3.5,4.9-2.7,3.2c0.8-1.7-0.9-10.8-0.9-10.8s-0.2,11.8-2.9,11.6c-2.6-0.2-2.2-5.2-2.2-5.2
			c-1.6,2-0.1,4.2-0.1,4.2s-3.3,2.4-2.6,0.7c0.8-1.7-0.4-8.1-0.4-8.1s-1,7.9-2.5,7.1c-1.5-0.8-1.2-2.8-1.2-2.8
			c-1.3,2-0.8,3.9-0.8,3.9s-0.1,0-0.3,0.1c-0.5-0.1-0.9-0.1-1.4-0.2c-0.2-0.2-0.2-0.6-0.1-1.1c0.5-2.2-0.6-4.5-0.6-4.5
			c0,2.4-1,4.3-1.8,5.3c-0.3,0-0.7-0.1-1-0.1c0.8-2.4-2.3-8.1-2.3-8.1s1.2,8.6-0.8,7.2c-2-1.4-1.4-5-1.4-5c-1.1,1.5-0.9,3.8-0.6,5.2
			c-0.8-0.1-1.5-0.2-2.3-0.3c-0.1-1.7-0.8-3.9-0.8-3.9c0.1,1.4-0.7,2.7-1.5,3.6c-0.5-0.1-1-0.1-1.5-0.2c0.4-4.9-1.9-8.9-1.9-8.9
			s0.3,6.4-0.3,8.6c-0.4-0.1-0.8-0.1-1.2-0.2c-1-1.7-1.3-4.1-1.3-4.1c-0.5,1.8-0.7,3-0.8,3.8c-0.4-0.1-0.8-0.1-1.1-0.2
			c-0.2-0.2-0.3-0.5-0.5-0.7c0.5-1.5,1.2-4,0.4-6.1c0,0-0.5,1.7-1.4,3.2c-0.2-0.7-0.3-1.3-0.3-1.3c-0.4,0.8-0.6,1.6-0.7,2.5
			c-0.4,0.4-0.8,0.7-1.2,0.9c0,0,0.3-1.6-0.2-4.9c0,0-0.9,3.1-2.4,4.4c-1.5,1.3,0.4-9.2,0.4-9.2s-3.5,4.2-3.1,9.9
			c-0.1,0-0.2,0-0.4,0c-0.8-0.9-2.6-3.2-2.1-5.4c0,0-1.6,3.4-1.4,4.9c-0.9-0.1-1.8-0.2-2.6-0.4c0.3-0.6,1.7-3.9,0.5-6.3
			c0,0,0.1,3.6-2,4.6c-2.1,1,0.2-7.2,0.2-7.2s-3.9,5.1-3.4,7.6c0.1,0.3,0.1,0.5,0,0.7c-0.2,0-0.4,0-0.6-0.1
			c-0.8-0.7-1.9-3.3-1.6-6.3c0,0-1.3,2.1-1.2,4.3c0.2,2.2-1.9,0.9-1.9,0.9s0.7-1.8-0.3-4c0,0,0,2.1-1.6,2.6
			c-1.6,0.5-1.4-7.5-1.4-7.5s-2,6-1.5,7.9c0.5,1.9-2.4-1.2-2.4-1.2s1.8-1.9,0.5-4.1c0,0-0.3,5-2.9,4.7c-2.6-0.3-1.2-12-1.2-12
			s-2.9,8.7-2.3,10.5c0.5,1.9-2.2-3.7-2.2-3.7s-1.2,1.4-0.4,3.3c0.8,2-3.5,0.3-3.5,0.3s1.4-1.6,0.6-3.8c0,0,0,2.6-2.8,2.7
			c-2.8,0.2,0.4-10.1,0.4-10.1s-4.3,9.3-4.3,11c0,0.3-0.1,0.4-0.2,0.5c-0.3,0-0.6-0.1-1-0.1c-0.5-0.3-1-0.8-1-0.8s0.4-4.9-1.4-7.9
			c0,0,0.5,5.2-1.2,6.2c0,0,0.6-1.1-0.1-3.5c0,0-0.2,2.4-1.8,3.3c-1.6,0.8-0.7-5-0.7-5s-1.6,2.5-1.5,4.7c0,0-2.4,0-1.4-6.1
			c0,0-2.4,3.6-1.8,5.7l-1.9,1.3c0,0,1-4-0.4-7.8c0,0-0.6,6.5-2.5,6.7c-1.9,0.2-2.2-1.1-2.2-1.1s1.7-4.1,0.7-5.9c0,0-1.1,5.9-3,5.7
			c-1.9-0.2-1-5.7-1-5.7s-2.2,5.9-1.5,6.4c0.7,0.5-2.2-1.3-2.2-1.3s1.5-2,0.5-4.1c0,0-1.4,5.6-3.5,4.5s-1.5-10.1-1.5-10.1
			s-2.5,8.8-2.1,9.5c0.4,0.7-1.5,0.3-1.5,0.3s-1.1-2.6-0.4-4.6c0,0-1.8,1.2-1.7,3.3c0.1,2.1-2.3,0.6-2.3,0.6s1.5-2.2,0.6-4.4
			c0,0-1.1,2.8-3,3.3c0,0,2.4-3.4,0.7-6.1c0,0-0.2,5.3-3.2,5.8c-3,0.5-2-4.5-2-4.5s-2.1,3.7-1.5,4.8c0,0-1.7-3.7-0.6-7.3
			c0,0-1.7,4-0.9,6.6c0.3,1.1-0.4,1.4-1.3,1.3c-0.3,0-0.5-0.1-0.8-0.1c-1.1-0.2-2.2-0.6-2.2-0.6l0.6-5.1l-1.7,4c0,0-1.4-2.3-1-6.7
			c0,0-1.6,3.9-0.8,6.5l-2.2-0.2c0,0,0.5-2.6-0.5-5.2c0,0-0.1,3.1-1.8,5c0,0,1.3-5.3-0.4-8.6c0,0-0.7,6.7-3.2,8.3
			c0,0-1.1-1.8-0.5-5.5c0,0-1.8,3.2-1.2,5.7c0.1,0.4,0.1,0.6,0,0.8c-0.7-0.1-1.5-0.2-2.2-0.3c0,0-0.1-0.1-0.1-0.1s-1.5-3.3-0.3-8
			c0,0-2.6,5-2.3,7.8c-1-0.1-2-0.2-3.1-0.3c0.2-0.5,1.4-3.8,0.3-6.2c0,0-0.5,4.7-2.3,6c-0.6-0.1-1.2-0.1-1.7-0.2
			c0-0.4,0.2-0.8,0.2-0.8s1.4-2.2,0.7-4.6c0,0-1.4,4.6-3.2,4.4c-1.8-0.1-0.6-3.8-0.6-3.8s-2.3,2.3-1.7,4.2c0,0-2.4-2.3-0.4-7.3
			c0,0-3.2,4.1-2.6,7.1c-1.3-0.1-2.5-0.3-3.8-0.4c-0.1-0.6,0-2-0.6-4.1c0,0-0.3,2.7-1.5,3.9c-0.1,0-0.3,0-0.4,0
			c0.2-1.1,0.7-4.6-0.7-7.5c0,0-0.5,5.7-1.8,7.2c-0.4,0-0.8-0.1-1.3-0.1c-0.8-1.3-0.9-4.8-0.9-4.8s-0.7,3-0.8,4.7
			c-0.9-0.1-1.8-0.2-2.7-0.3c-0.3-0.9-0.8-3.5,1.1-7.4c0,0-3.2,3.7-3.3,7.1c0,0,0,0,0,0c0.2-3.4-2.5-7.5-2.5-7.5
			c1.3,3.8,0.7,6.3,0.3,7.3c-0.9-0.1-1.9-0.2-2.8-0.3c0.1-1.7-0.2-4.5-0.2-4.5s-0.5,2.9-1.3,4.3c-0.6-0.1-1.1-0.1-1.7-0.2
			c-0.9-2.1-0.7-7.1-0.7-7.1c-1.6,2.4-1.7,5.4-1.6,6.9c-0.2,0-0.4,0-0.6-0.1c-0.8-1.5-0.8-3.6-0.8-3.6c-0.7,1.5-0.9,2.7-1,3.5
			c-1.3-0.1-2.5-0.2-3.8-0.3c0.5-2.9-1.9-6.9-1.9-6.9c1,3.8-0.1,5.8-0.8,6.7c-0.1,0-0.2,0-0.3,0c0.3-1.7-1.3-3.9-1.3-3.9
			s0.7,3.8-1,3.7c-1.8-0.2-2.7-4.9-2.7-4.9c-1,2.3,0.1,4.7,0.1,4.7s0,0,0,0c-0.7-0.1-1.5-0.1-2.2-0.2c-1-2-0.9-5.4-0.9-5.4
			c-1,1.6-0.8,4-0.6,5.3c-0.9-0.1-1.9-0.2-2.8-0.2c0.1-2.8-1.5-7.1-1.5-7.1c0.4,3.3-0.3,5.7-0.8,6.9c-0.9-0.1-1.7-0.1-2.6-0.2
			c0.7-2.4-0.6-5.5-0.6-5.5c0.1,3.8-1.2,5.4-1.2,5.4c-2.3-2.1-2.2-8.8-2.2-8.8c-2,3-1.4,8.5-1.4,8.5c-1.5-2.1-1.2-5.2-1.2-5.2
			c-1.4,2.4-1.2,5-1.2,5l-2.2-0.2c1.2-2.4,0-6.6,0-6.6c-0.1,4.4-1.8,6.5-1.8,6.5l-1.2-4.2v4.2c-1.4-0.1-2.7-0.2-4.1-0.3c0,0,0,0,0,0
			c1.1-2.4-0.1-6.6-0.1-6.6c0.5,2.9-0.6,5.5-1.2,6.6c0,0-0.1,0-0.1,0c0.1-1.4-1.1-4.4-1.1-4.4s0.3,3.8-1.5,4.2c-0.3,0-0.7,0-1-0.1
			c0,0,0,0-0.1,0c-3-1-2.5-6.3-2.5-6.3c-2,2.4,0,6.1,0,6.1c-1.8-0.8-2.5-3.7-2.5-3.7c-0.7,1.3-0.5,2.7-0.2,3.6
			c-0.6,0-1.2-0.1-1.9-0.1c0,0,0,0,0,0c0.3-2.1-1.3-3.6-1.3-3.6c0.2,1.3-0.1,2.6-0.5,3.5c-0.6,0-1.2-0.1-1.9-0.1
			c0.1-2.2-1.1-9.2-1.1-9.2s-0.3,6.6-1.8,9c-0.8,0-1.7-0.1-2.5-0.1c-0.9-1.5-1.3-4.2-1.3-4.2c-1.3,1.9,0,4.1,0,4.1s0,0,0,0
			c-0.7,0-1.4-0.1-2.1-0.1c0-1.9-0.9-5.6-0.9-5.6s0.2,5.6-1.7,5.5c-1.9-0.1-2.3-6.1-2.3-6.1c-1.2,1.6,0,6,0,6s0,0,0,0
			c-1.1-0.1-2.1-0.1-3.2-0.2c-1-1.9-0.8-6.2-0.8-6.2c-1.1,2.2-1.3,4.6-1.3,6.1c-0.5,0-1.1,0-1.6-0.1l0,0c0.8-2-1.1-5.9-1.1-5.9
			c0.3,6.2-2.1,5.8-2.1,5.8c0.3-2.1-1-4.9-1-4.9s0.1,4.2-0.7,4.9c-0.2,0-0.3,0-0.5,0c0,0,0,0-0.1,0c-1.5-1.1-1.4-3.6-1.4-3.6
			c-1,2.3-0.5,3.5-0.5,3.5c-1.5-1.3-0.4-6.4-0.4-6.4c-1.4,1.8-2,4.7-2.2,6.3c-0.8,0-1.6-0.1-2.5-0.1c-0.6-3.2-2.8-10.2-2.8-10.2
			s1.9,10.7-0.8,10.1c-2.7-0.6-2.4-3.2-2.4-3.2c-0.6,1.3-0.5,2.4-0.2,3.1c-1,0-2-0.1-3-0.1c0,0,0,0,0,0c1.1-1.8,0-3.4,0-3.4
			s-1.6,2.4-2.4,3.3c-0.1,0-0.2,0-0.3,0c0,0,0,0,0,0c0.7-1.7-1.1-10.8-1.1-10.8s0,8-1.5,10.8c-0.9,0-1.8-0.1-2.7-0.1
			c-0.9-1.5-0.8-4.2-0.8-4.2c-1.6,2,0,4.2,0,4.2s0,0,0,0c-0.8,0-1.6,0-2.4,0c0.3-2.4-0.7-7.3-0.7-7.3s-0.7,6.9-2,7.2
			c0,0-0.1,0-0.1,0c-0.1,0-0.1,0-0.2,0c-1.5-0.7-1.3-2.8-1.3-2.8c-0.7,1-0.8,2.1-0.8,2.8c-0.6,0-1.1,0-1.7,0c0,0,0,0,0,0
			c0.4-2.2-0.6-4.5-0.6-4.5c0,1.8-0.5,3.4-1.1,4.5c-0.5,0-1,0-1.5,0c0.1-2.7-2.6-7.2-2.6-7.2s1,6.3,0,7.2c-0.2,0-0.4,0-0.7,0
			c0,0,0,0,0,0c-2-1.4-1.5-4.9-1.5-4.9c-1,1.5-0.8,3.5-0.6,4.9c-0.7,0-1.5,0-2.2,0c-0.1-1.7-0.9-3.9-0.9-3.9
			c0.1,1.5-0.7,2.9-1.6,3.9c-0.5,0-0.9,0-1.4,0c0.5-5.1-2-9.2-2-9.2s0.5,8.1-0.3,9.2c-0.1,0-0.3,0-0.4,0c0,0,0,0,0,0
			c-1.4-1.5-1.9-4.8-1.9-4.8c-0.8,3.1-0.7,4.8-0.7,4.8c-2.2-1.3-3-5.9-3-5.9c-0.8,1.5-0.8,3.3-0.6,4.8c-1.1-0.9-4.6-4.2-5.4-9
			c0,0-0.2,8,1.4,9.7c0,0-3-0.6-4.1-4.8c0,0-0.9,2-1,3.7c-0.1-1.8-0.7-5.2-2.7-6.4c0,0,1.7,4.6-0.5,6.9c-2.2,2.2-1.5-4.6-1.5-4.6
			l-2.3,6c-0.2,0-0.3,0-0.5,0c-0.7-0.5-2.1-1.8-2.1-4.9c0,0-1.7,1.7-1.3,5c-0.5,0-0.9,0-1.4,0c-0.9-2.4-1.4-6.3,0.5-10.8
			c0,0-4.3,3.8-3.5,8.9c-0.5-1.3-1.4-2.9-2.7-3.6c0,0,1.1,3.5,0,5.8c-0.3,0-0.7,0-1,0c-0.6-1.5-0.8-5.4-0.8-5.4s-1.2,3.3-1.2,5.5
			c-0.2,0-0.4,0-0.6,0c-0.2,0-0.4,0-0.6,0c-0.7-1.1-1.3-2.8-1.2-4.4c0,0-1.4,2.4-1.1,4.6c-0.5,0-1,0-1.6,0.1
			c-0.3-0.3-0.5-0.5-0.5-0.5s-0.8-5.8-3.6-7c0,0,2,5.1,0.3,7.7c-0.4,0-0.7,0-1.1,0c0.1-1.1,0.3-3.7-1.3-5c0,0,0,2.9-3.2,5.2
			c-0.7,0-1.3,0.1-2,0.1c-0.9-1.2-0.6-4.5-0.6-4.5s-1.7,2.9-1.6,4.6c-0.4,0-0.9,0.1-1.3,0.1c-0.8-1.1-1.6-3.1-0.8-5.9
			c0,0-1.7,3.7-1.8,6c0,0,0,0,0,0c-0.2-0.9-0.7-2.3-1.9-3.7c0,0,1,2.1-0.5,3.8c0,0-2.3-1.8-1.3-6.8c0,0-1.7,4.2-1.7,7
			c-0.7,0-1.4,0.1-2.1,0.1c0-1.4-0.2-3.1-1.1-4.2c0,0,0.7,2.5-1.2,4.4c-0.3,0-0.5,0-0.8,0.1l-0.5-8.1c0,0-1.4,4.9-1.6,8.2
			c-0.9,0.1-1.8,0.1-2.7,0.2c-0.3-0.7-0.4-1.5-0.4-2.5c0,0-0.7,1.2-1.1,2.6c-0.1,0-0.2,0-0.3,0c-0.3-1.3-0.8-2.6-1.7-3.2
			c0,0,0.6,1.6-0.5,3.3c-0.6,0-1.2,0.1-1.7,0.1c-0.6-1.2-1-3.5-1-3.5s-0.5,1.8-0.7,3.6c-0.6,0.1-1.3,0.1-1.9,0.1
			c0.1-1.1,0.2-3.6-1.1-6.2c0,0,0.8,4.4-0.7,6.3c-1,0.1-2.1,0.2-3.1,0.2c-0.9-1.1-0.2-3.5-0.2-3.5s-1.4,1.8-1.8,3.7
			c-0.1,0-0.2,0-0.3,0c-0.5-2.1-2.5-4.1-2.5-4.1s1.9,4.1-1.3,4.4c-3.2,0.3-3-6.6-3-6.6c-1.2,3.7,0,6.9,0,6.9s0,0,0,0
			c-0.6,0.1-1.3,0.1-1.9,0.2c-0.4-1.9-1.3-4-1.3-4s0,3.1-0.7,4.2c-0.4,0-0.7,0.1-1.1,0.1c0,0,0,0,0,0c-1.8-1.6-1.3-3.6-1.3-3.6
			c-0.9,0.8-1.2,2.4-1.3,3.9c0,0-0.1,0-0.1,0c-0.6-1.4-1.6-2.7-1.6-2.7c0.3,1.2,0.2,2.2-0.1,2.9c-0.8,0.1-1.7,0.2-2.5,0.3
			c-0.7-3.2-2.8-8.1-2.8-8.1l0.7,8.3c0,0,0,0,0,0c-0.2,0-0.4,0-0.6,0.1c0,0,0,0,0,0c-2.5-1.4-2-4.3-2-4.3c-0.8,1.4-0.7,3.2-0.5,4.6
			c-0.7,0.1-1.4,0.2-2.1,0.2c-0.3-2.8-2.7-6.7-2.7-6.7c1.7,4.8-0.3,7-0.3,7c-1.8-1.4-1.1-3.7-1.1-3.7c-0.9,1.6-1.2,3-1.3,3.9
			c0,0,0,0-0.1,0c-0.4-2.3-2.6-5.6-2.6-5.6c1.1,2.6,0.7,4.6,0.1,5.9c-0.5,0.1-0.9,0.1-1.4,0.2c-0.2-1.7-2.2-4.1-2.2-4.1
			s0.7,2.9,0.1,4.3c-0.8,0.1-1.6,0.2-2.5,0.3c-3.1-1.7-3.5-4.3-3.5-4.3c-1.2,1.5-0.9,3.6-0.7,4.8c-0.4,0.1-0.9,0.1-1.3,0.2
			c-1.6-2.4-0.5-7.3-0.5-7.3c-2.6,1.8-2.5,7.6-2.5,7.6s0,0,0,0c-0.7,0.1-1.3,0.2-2,0.3c-0.3-1.9-1.7-3.7-1.7-3.7
			c0.3,1.4,0,2.8-0.3,4c-0.5,0.1-1,0.1-1.5,0.2c-0.4-2.1-1.8-4.5-1.8-4.5s0.3,2.9,0.1,4.7c-0.5,0.1-1,0.1-1.6,0.2
			c-0.9-2-0.4-4.9-0.4-4.9c-1.2,1-1.9,2.7-2.2,4.1c0-5.1-4.7-8-4.7-8c2.2,3.5,2.5,7,2.1,9.5c-0.5,0.1-1.1,0.1-1.6,0.2
			c-0.4-2.6-1.9-3.6-1.9-3.6c0.2,1.8-0.1,3.1-0.5,3.9c-0.7,0.1-1.3,0.2-2,0.3l-2.5-4.4c0,0,0.8,3.5,0.4,4.7
			c-0.4,0.1-0.8,0.1-1.2,0.2c0,0,0,0,0,0c-2.5-1.8-1.5-6.7-1.5-6.7c-1.8,1.6-1.9,5.1-1.8,6.9c-0.4-1.7-1.5-3.5-1.5-3.5
			c-0.3,2.1-1,3.4-1.8,4.3c-0.4,0.1-0.8,0.1-1.2,0.2c0.6-2.8-0.4-8.7-0.4-8.7c-0.1,4-2.1,7.3-3.4,9.1c-0.7-3.5-2.1-8.3-5.1-11.4
			c0,0,2.5,7.6-0.6,12.5c-0.2,0-0.3,0.1-0.5,0.1c-0.1-1.5-0.5-5.6-2.2-8c0,0,0.2,6.5-2,8.6c-0.8,0.1-1.7,0.3-2.5,0.4
			c-1.8-1.3-0.3-6.6-0.3-6.6s-1.7,3.2-2.2,7c-1,0.2-2,0.3-3,0.5c-1.7-2.7-3.5-7.2-2.8-14c0,0-3.3,9.4-3.1,15
			c-0.4,0.1-0.7,0.1-1.1,0.2c-1.3-2-3-5.3-2.8-8.8c0,0-1.1,2.9-1.5,6c-0.4-1.7-1-3.5-2.3-4.6c0,0,0.1,5.5-1.2,8.8
			c-0.3,0.1-0.7,0.1-1,0.2c-0.5-2.9-2.1-10.3-6.3-12.7c0,0,3.1,8.9-0.5,13.3c-0.3,0.3-0.5,0.6-0.8,0.7c-0.2,0-0.5,0.1-0.7,0.1
			c-2.2-0.6-2.5-10.9-2.5-10.9s-2.5,7.2-2.1,11.7c-1.2,0.2-2.5,0.5-3.7,0.7c-0.5-0.4-0.9-0.8-0.9-0.8s-2.8-3.7-0.9-10.5
			c0,0-4.4,6-4.7,11.7c-0.2-2.8-1.1-7.8-4.6-9.9c0,0,2.4,5.7-0.8,10.3c0,0-0.3-2.6-2.5-6.1c0,0,0.9,4-1.8,8.3
			c-0.3,0.1-0.6,0.1-1,0.2c-2.4-2.9-2.5-6-2.5-6c-1.3,4.1-0.9,6.7-0.9,6.7c-4.2-3.3-3.3-9.6-3.3-9.6c-2.7,3.1-2.4,7.9-2,10.7
			c0,0,0,0,0,0c-1.8-5.2-7.3-9.2-7.3-9.2c3.5,5.8,1.8,10.3,1.8,10.3s0,0,0,0c-1.5,0.3-3,0.6-4.5,1c-1.1-4.4-4.8-9.7-4.8-9.7
			s1.8,7.9,0.8,10.6c-0.7,0.1-1.4,0.3-2.1,0.4c0,0,0,0,0,0c-4.5-3-3.8-12.6-3.8-12.6c-3.3,3.6-3.2,10.9-2.9,14
			c-0.4,0.1-0.7,0.2-1.1,0.2c-2-2.7-3.2-7.7-3.2-7.7c-1,1.5-1.2,3.4-1.1,5.2c-1.2-2.9-3-5.2-3-5.2c1.1,3.2,0.3,7-0.5,9.4
			c-0.4,0.1-0.7,0.2-1.1,0.2c-1.2-5.4-6.7-13.2-6.7-13.2c2.4,6.5,1.7,11.4,0.7,14.6c-0.9,0.2-1.8,0.4-2.7,0.6c-1.4-3.7-4-6.3-4-6.3
			s3.8,6.3,0.2,7.1c-3.6,0.8-5.5-7.7-5.5-7.7c-1.3,3.6,0,9,0,9c-4.8-3.3-4.3-12.3-4.3-12.3c-2.3,4.4-2.2,10.2-1.9,13.7
			c-0.1,0-0.2,0-0.2,0.1c-1.2-2.6-4.1-6.9-8-8.4c0,0,2.2,4.7,1.6,8.5c-0.6,3.8-3.4-5-3.4-5l0.1,7.2c0,0-0.1,0-0.1,0
			c-0.6-0.5-4.1-3.1-4.3-6c0,0-1.5,3.1-0.3,6.2c0,0-1.8,0.3-3.9-5.4c0,0-1.2,4.7-1,7.5c-0.4,0.1-0.7,0.2-1.1,0.3
			c-1.4-1.6-3.5-4.9-4.4-11c0,0-1.9,6.5-0.6,10.6c0,0-3-8-7.3-8c0,0,4,7.5,1.9,10.6c-0.1,0.2-0.2,0.3-0.3,0.4
			c-0.2,0.1-0.4,0.1-0.6,0.2c-1.8-0.5-3.4-8.2-3.4-8.2s0,6.5,0.4,9c-0.4,0.1-0.8,0.2-1.2,0.3c-0.7-0.6-1.5-1.3-1.5-1.3
			s0-4.9-3.2-8.4c0,0,1.8,7.3-1.5,9.5c0,0-3.2,0.7-4.5-4.3c0,0-1.9,1.9-0.9,5.6c1,3.7-3.6,0.9-3.6,0.9s1.1-4.1-2.8-7.4
			c0,0,1.4,4.1-2.3,8.6c0,0,1.6-6.9-5.1-13.5c0,0,2.6,10.5-0.9,15c0,0-0.6-2.8-2.6-6.9c0,0,1.6,6.2-2,9.9c-0.1,0.1-0.1,0.1-0.2,0.2
			c-2.7-2.5-3.1-6.8-3.1-6.8c-0.4,4.8,0,7.6,0,7.6c-4.8-2.3-6-13.2-6-13.2c-3.8,9.3,0,14.8,0,14.8c-4.9-2.3-5.1-6.8-5.1-6.8
			c-2.4,4.9,0,8.1,0,8.1s0,0,0,0c-1.2,0.3-2.4,0.6-3.6,1c0,0,0,0,0,0c-0.3-3.9-2.7-4.7-2.7-4.7c0.4,5.2-2.7,6.1-2.7,6.1
			c-3.8-0.4-4.6-7.9-4.6-7.9c-1.7,4.7,0,9.2,0,9.2s0,0,0,0c-0.8,0.2-1.7,0.5-2.5,0.7c-0.8-2.8-2.3-6.8-2.3-6.8s0.7,4.6,0.4,7.3
			c-0.9,0.2-1.8,0.5-2.7,0.7c-1.8-2.9-1-9.6-1-9.6c-3.9,2.1-3.9,10.9-3.9,10.9c-0.2-4.4-4.2-9.4-4.2-9.4c1,4.7,0.7,8.2,0.2,10.5
			c-0.7,0.2-1.4,0.4-2,0.6c-1.1-2.4-3-5-3-5c0,3.5-0.6,5.2-1,6.1c-0.2,0.1-0.5,0.1-0.7,0.2c-0.2-3.1-2.3-5-2.3-5
			c0.5,1.9-0.3,4.3-1,5.9c-0.5,0.1-1,0.3-1.5,0.4l-1.9-5.3c0,0,0.2,4-0.2,5.9c-0.4,0.1-0.8,0.2-1.2,0.3c0,0,0,0,0,0
			c-1.8-3.1-1.4-8.5-1.4-8.5c-4.1,4.4-4.8,12.7-4.3,13.7l1.4-0.3l0,0V800H1200V378.2C1168.3,379.1,1136.5,379.6,1104.8,379.7z
			 M887.5,368.6c0,0.1,0,0.2,0.1,0.3c-0.1,0-0.1,0-0.2,0C887.4,368.8,887.4,368.7,887.5,368.6z"/>
		<linearGradient id="SVGID_11_" gradientUnits="userSpaceOnUse" x1="573.7292" y1="591.866" x2="661.4023" y2="359.5319">
			<stop  offset="0" style="stop-color:#6B8B00"/>
			<stop  offset="1" style="stop-color:#D9E376"/>
		</linearGradient>
		<path class="st10" d="M1029.6,449l0-0.8c-1,0-2.4-0.3-2.4-0.3s1.2-1.7,0.2-3.9c0,0,0.3,2.6-2.5,3.1c-2.6,0.5-0.8-8.9-0.6-10
			c-0.4,1-3.4,9.7-3.3,11.3c0,0.3-0.1,0.5-0.2,0.6h-0.8c-0.6-0.2-1.3-0.7-1.3-0.7s0-4.9-2.1-7.6c0,0,0.9,5.1-0.6,6.3
			c0-0.2,0.4-1.4-0.4-3.5c0,0.2,0,2.5-1.5,3.5c-1.5,1-1.1-4.9-1.1-4.9s-1.4,2.7-1.1,4.9c0,0-2.4,0.3-1.9-5.8c-0.2,0.4-2,3.9-1.2,5.8
			l-1.7,1.5c0,0,0.7-4.1-1-7.7c0,0.2,0,6.6-1.9,7c-1.9,0.4-2.3-0.8-2.3-0.8s1.3-4.3,0.2-6c0,0-0.6,6-2.5,6c-1.8,0-1.5-4.9-1.5-5.5
			c-0.2,0.6-1.6,6.1-0.9,6.5c0.7,0.5-2.3-1-2.3-1s1.3-2.2,0.1-4.1c0,0-0.9,5.7-3.1,4.9c-2.2-0.8-2.3-9.8-2.3-9.8s-1.8,9.1-1.2,9.8
			c0.5,0.7-1.5,0.5-1.5,0.5s-1.3-2.5-0.8-4.6c0,0-1.7,1.4-1.4,3.5c0.3,2.1-2.2,0.9-2.2,0.9s1.3-2.4,0.2-4.4c0,0-0.9,2.9-2.7,3.6
			c0.2-0.3,2-3.8,0.2-6.1c0,0,0.3,5.3-2.7,6.2c-2.8,0.8-2.4-3.7-2.4-4.2c-0.2,0.3-1.6,3.5-1.2,4.7c-0.4-0.8-1.8-3.7-1.2-6.9
			c-0.2,0.6-1.2,4.3-0.3,6.5c0.2,0.4,0.1,0.7,0,0.9c-1.4,0-2.8-0.1-4.2-0.1l0.1-4.9l-1.3,4.2c0,0-1.6-2.1-1.6-6.6
			c0,0-1.3,4.1-0.2,6.6l-2.2,0.1c0,0,0.3-2.6-1-5.1c0,0,0.2,3.1-1.3,5.1c0-0.4,0.7-5.5-1.1-8.5c0,0-0.1,6.7-2.5,8.7
			c0,0-1.2-1.7-1-5.4c0,0-1.3,3.1-0.8,5.4c-0.9,0-1.8-0.1-2.7-0.1c-0.5-1.3-1-3.7-0.5-6.7c0,0-1.5,3.9-1.7,6.7
			c-0.9,0-1.8-0.1-2.7-0.1c0.2-1.4,0.3-3.3-0.6-4.7c0,0,0,2.7-0.8,4.7c-0.8,0-1.5,0-2.3-0.1c0.3-0.9,0.5-2.4,0-3.8
			c0,0-0.5,2.4-1.5,3.8c-0.8,0-1.6,0-2.4-0.1c-0.2-1,0.1-2.3,0.1-2.6c-0.1,0.2-1,1.3-1.3,2.5c-0.4,0-0.8,0-1.1,0
			c-0.4-1.2-0.6-2.9,0.1-5.4c-0.2,0.3-1.7,2.9-2,5.3c-1.4-0.1-2.8-0.1-4.2-0.2c-0.1-0.5-0.3-1-0.5-1.6c0,0,0,0.7-0.2,1.6
			c-0.4,0-0.9,0-1.4-0.1c-0.1-1.5-0.4-3.3-1.4-4.9c0,0,0,2.6-0.4,4.8c-1-0.1-2.1-0.1-3.1-0.1c-0.2-1-0.3-1.9-0.3-1.9
			s-0.1,0.8-0.2,1.9c-1.1-0.1-2.2-0.1-3.4-0.2c0-1.2,0.3-2.6,0.9-4.4c-0.2,0.2-1.4,2.1-2.2,4.3c-1.1,0-2.2-0.1-3.2-0.2
			c0.3-2.8,1.4-6.6,1.6-7c-0.2,0.4-1.9,4-3.2,7c-1.2-0.1-2.4-0.1-3.6-0.2c-0.1-1.4-0.5-3-1.2-4.3c0,0,0.2,2.4-0.2,4.2
			c-0.3,0-0.6,0-0.8,0c0-0.4-0.1-0.9-0.3-1.5c0,0-0.1,0.7-0.4,1.5c-0.8,0-1.6-0.1-2.4-0.1c0-1.4,0.3-3.1,0.3-3.1s-1,1.4-1.4,3.1
			c-0.5,0-1.1-0.1-1.6-0.1c-0.2-0.9-0.3-2.3,0.1-4.4c-0.2,0.3-1.6,2.4-1.9,4.3c-0.5,0-1-0.1-1.5-0.1c0.1-1.4,0-3.3-0.6-5.1
			c0,0-0.3,3.1-1.2,5c-1.1-0.1-2.3-0.1-3.4-0.2c0.4-1.2,1.2-3.8,0.6-5.2c0,0-0.8,3.8-2.1,5.1c-0.6,0-1.2-0.1-1.7-0.1
			c-0.8-1.3-0.3-4.6-0.2-5.1c-0.2,0.4-1.3,3.3-1.6,5c-0.7,0-1.4-0.1-2.1-0.1c0.3-0.5,1.3-2.1,0.5-3.9c0,0-0.7,2.5-1.8,3.8
			c-0.8-0.1-1.7-0.1-2.5-0.2c-1.2-2.5-0.6-9.4-0.6-9.4s-2.3,7.4-2.3,9.1c-0.6,0-1.2-0.1-1.7-0.1c-0.3-0.9-0.6-2.6-0.1-4
			c0,0-1.8,1.1-1.8,3.3c0,0.2,0,0.4-0.1,0.6c-0.7,0-1.4-0.1-2.1-0.2c0.3-0.5,1.4-2.3,0.6-4.2c0,0-1.2,2.7-3,3.2c0,0,2.5-3.3,0.8-6.1
			c0,0-0.3,5.3-3.4,5.7c-2.9,0.4-2-4.1-1.9-4.5c-0.2,0.3-1.9,3.3-1.7,4.5c-0.3-0.8-1.4-4-0.4-7.1c-0.2,0.4-1.7,4-1,6.5
			c0.2,0.7,0,1-0.4,1.2c-0.8-0.1-1.6-0.1-2.3-0.2c-0.8-0.2-1.5-0.5-1.5-0.5l0.7-5.1l-1.7,4c0,0-1.4-2.3-0.9-6.7c0,0-1.7,3.9-0.9,6.5
			l-2.2-0.3c0,0,0.6-2.6-0.4-5.2c0,0-0.1,3.1-1.8,4.9c0.1-0.4,1.3-5.4-0.2-8.6c0,0-0.8,6.6-3.4,8.2c0,0-1-1.8-0.4-5.5
			c0,0-1.8,3.1-1.3,5.6c0.5,2.5-2.3,0.4-2.3,0.4s-1.5-3.3-0.2-8c0,0-2.9,5.3-2.4,8c0.1,0.3,0.1,0.6,0,0.7c-0.5,0-1-0.1-1.6-0.1
			c-0.8-0.5-1.6-1.2-1.6-1.2s1.6-3.7,0.4-6.3c0,0-0.6,5.3-2.8,6.1c-2.2,0.9-1.1-1.2-1.1-1.2s1.4-2.2,0.8-4.6c0,0-1.5,4.5-3.3,4.3
			c-1.8-0.2-0.5-3.8-0.5-3.8s-2.3,2.2-1.7,4.1c0,0-2.4-2.4-0.3-7.3c0,0-3.7,4.6-2.6,7.6c0.2,0.5,0.2,0.9,0.1,1c-0.5,0-1-0.1-1.4-0.1
			c-1.1-0.5-2.4-1.5-2.6-1.7c-0.3-0.3,0-1.9-0.7-4.4c0,0-0.5,3.4-2.1,4.2c0,0,1.1-4.3-0.5-7.9c0,0-0.7,6.8-2.3,7.5
			c-1.6,0.7-1.7-5.3-1.7-5.3s-1.2,4.9-0.8,5.7c0.4,0.8-2.7-1-2.7-1s-1.4-3,1.1-7.7c0,0-0.7,0.8-1.5,2.1c-0.3-2.9-2.1-5.8-2.3-6.1
			c1.7,5.2-0.2,7.8-0.2,7.8s-3.3,1.2-2.7,0.4c0.5-0.7,0.1-5.8,0.1-5.8s-1.1,5.9-2.5,4.9c-1.5-1-1.1-7.9-1.1-7.9
			c-2.2,3.2-1.7,7.7-1.7,7.7c-1.5-1.2-1.4-4.6-1.4-4.6c-1.1,2.4-1,4-1.3,4.2c-0.3,0.2-5.5,2.7-3.9-0.1c1.6-2.6-1-7.5-1.3-8
			c1.2,5-1.2,6.9-1.4,7.1c0.8-1.8-1.1-4.4-1.1-4.4s0.7,3.8-1.1,3.6c-1.8-0.2-2.6-5-2.6-5c-1,2.2,0,4.7,0,4.7s0.7,2.2-1.3,0.9
			c-2-1.3-1.8-6.6-1.8-6.6c-1.5,2.3-0.5,6.3-0.5,6.3s-4.1,2.4-3.2-0.1c0.9-2.5-1.1-8.4-1.1-8.4c0.5,4.9-1.4,7.8-1.4,7.8
			s-3.1,1.4-2.2-0.9c0.9-2.4-0.4-5.8-0.4-5.8c0,3.8-1.3,5.4-1.3,5.4c-2.3-2.1-2.1-8.8-2.1-8.8c-2.1,3-1.5,8.5-1.5,8.5
			c-1.4-2.1-1.1-5.3-1.1-5.3c-1.4,2.4-1.3,5-1.3,5l-2.2-0.2c1.2-2.4,0.1-6.6,0.1-6.6c-0.2,4.4-1.9,6.4-1.9,6.4l-1.1-4.3l-0.1,5.2
			c0,0-5.2,1-4.1-1.4c1-2.2,0.2-6,0-6.6c0.4,3.3-1.1,6.2-1.5,6.9c0.5-1.2-0.9-4.8-0.9-4.8s0.3,5.2-2.6,4.1c-2.9-1.1-2.4-6.4-2.4-6.4
			c-2,2.2-0.3,5.8-0.1,6.1c-1.8-0.8-2.5-3.8-2.5-3.8c-1.2,2,0,4.4,0,4.4s-2.6,1-2.2-1c0.4-2.1-1.2-3.6-1.2-3.6c0.4,2.2-1,4.5-1,4.5
			s-2,0.1-1.5-0.6c0.5-0.6-0.8-9.8-0.8-9.8s-0.6,9-2.8,9.7c-2.3,0.6-2.9-5.2-2.9-5.2c-1.3,1.9-0.1,4.1-0.1,4.1s-3.1,1.2-2.4,0.8
			c0.8-0.4-0.6-6.7-0.6-6.7s0.1,5.6-1.8,5.4c-1.9-0.2-2.2-6.2-2.2-6.2c-1.2,1.6-0.1,6-0.1,6s-0.4,1.2-2.3,0.6
			c-1.9-0.6-1.6-7.1-1.6-7.1c-1.9,3.5-1.4,7.6-1.4,7.6l-1.7-1.6c0.9-2-0.9-6-0.9-6c0.2,6.2-2.2,5.7-2.2,5.7c0.4-2.1-0.9-4.9-0.9-4.9
			s0.1,5.9-1.4,4.8c-1.5-1.1-1.3-3.6-1.3-3.6c-1,2.2-0.6,3.4-0.6,3.4c-1.5-1.3-0.3-6.4-0.3-6.4c-2.2,2.6-2.5,7.5-2.5,7.5
			s-2.5,1.6-2.2-0.1c0.2-1.6-2.7-11.7-2.7-11.7s1.7,10.8-1,10.1c-2.7-0.7-2.4-3.2-2.4-3.2c-1.1,2.1,0,3.9,0,3.9s-4.5,0.8-3.4-1
			c1.1-1.8,0.1-3.4,0.1-3.4s-3.5,5-2.7,3.2c0.8-1.7-0.9-10.8-0.9-10.8s-0.2,11.8-2.9,11.6c-2.6-0.2-2.2-5.2-2.2-5.2
			c-1.6,2-0.1,4.2-0.1,4.2s-3.3,2.4-2.6,0.7c0.8-1.8-0.4-8.1-0.4-8.1s-1,7.9-2.5,7.1c-1.5-0.8-1.2-2.8-1.2-2.8
			c-1.3,2-0.8,3.9-0.8,3.9s-0.1,0.1-0.3,0.1c-0.4-0.1-0.9-0.1-1.4-0.2c-0.2-0.2-0.2-0.6-0.1-1.1c0.5-2.2-0.5-4.5-0.5-4.5
			c0,2.4-1,4.3-1.8,5.3c-0.4,0-0.7-0.1-1-0.1c0.8-2.4-2.3-8.1-2.3-8.1s1.2,8.6-0.8,7.2c-2-1.4-1.4-5-1.4-5c-1.1,1.5-0.9,3.8-0.6,5.2
			c-0.8-0.1-1.5-0.2-2.3-0.3c-0.1-1.7-0.8-3.9-0.8-3.9c0.1,1.4-0.7,2.7-1.5,3.6c-0.5-0.1-1-0.2-1.5-0.2c0.4-4.9-1.9-8.9-1.9-8.9
			s0.3,6.4-0.3,8.6c-0.4-0.1-0.8-0.1-1.2-0.2c-1-1.7-1.3-4.1-1.3-4.1c-0.5,1.8-0.7,3-0.8,3.8c-0.4-0.1-0.8-0.1-1.1-0.2
			c-0.2-0.2-0.3-0.5-0.5-0.7c0.5-1.5,1.2-4,0.4-6.1c0,0-0.5,1.7-1.4,3.2c-0.2-0.7-0.2-1.3-0.2-1.3c-0.4,0.8-0.6,1.6-0.7,2.5
			c-0.4,0.4-0.8,0.7-1.2,0.9c0,0,0.3-1.6-0.2-4.9c0,0-0.9,3.1-2.5,4.4c-1.5,1.3,0.4-9.2,0.4-9.2s-3.5,4.2-3.1,9.9
			c-0.1,0-0.3,0-0.4-0.1c-0.8-0.9-2.6-3.2-2.1-5.4c0,0-1.6,3.4-1.4,5c-0.9-0.1-1.8-0.2-2.6-0.4c0.3-0.6,1.7-3.9,0.5-6.3
			c0,0,0.1,3.6-2,4.6c-2.1,1,0-6.6,0.2-7.2c-0.4,0.5-3.9,5.1-3.3,7.5c0.1,0.3,0.1,0.6,0,0.7c-0.2,0-0.4-0.1-0.5-0.1
			c-0.8-0.7-1.9-3.3-1.6-6.3c0,0-1.3,2.1-1.2,4.3c0.2,2.2-1.9,0.9-1.9,0.9s0.8-1.8-0.3-4c0,0,0,2.1-1.6,2.6
			c-1.5,0.5-1.5-7.5-1.5-7.5s-2,6-1.5,7.9s-2.4-1.2-2.4-1.2s1.8-1.9,0.5-4.1c0,0-0.3,5-2.9,4.7c-2.6-0.3-1.2-12-1.2-12
			s-2.9,8.7-2.3,10.5c0.5,1.8-2.2-3.7-2.2-3.7s-1.2,1.4-0.4,3.3c0.8,2-3.5,0.3-3.5,0.3s1.4-1.5,0.6-3.8c0,0.1,0,2.6-2.8,2.7
			c-2.8,0.2,0.4-10.1,0.4-10.1s-4.3,9.3-4.3,11c0,0.3-0.1,0.4-0.2,0.5c-0.3-0.1-0.6-0.1-1-0.1c-0.5-0.3-1-0.8-1-0.8s0.4-4.9-1.4-7.8
			c0,0,0.4,5.1-1.2,6.2c0.1-0.2,0.5-1.3-0.1-3.5c0,0-0.2,2.4-1.8,3.3c-1.6,0.9-0.7-5-0.7-5s-1.6,2.5-1.5,4.7c0,0-2.4,0-1.4-6.1
			c0,0-2.4,3.6-1.8,5.7l-1.9,1.3c0,0,1-4-0.4-7.8c0,0-0.6,6.5-2.5,6.7c-1.9,0.2-2.2-1.1-2.2-1.1s1.7-4.1,0.7-5.9c0,0-1.2,5.9-3,5.7
			c-1.8-0.2-1.1-5.1-1-5.7c-0.2,0.6-2.2,5.9-1.5,6.4c0,0,0.1,0.1,0.1,0.1c-0.1,0-2.3-1.4-2.3-1.4s1.5-2,0.5-4.1c0,0-1.4,5.6-3.5,4.5
			c-2.1-1-1.5-10.1-1.5-10.1s-2.5,8.8-2.1,9.5c0.4,0.7-1.5,0.3-1.5,0.3s-1.1-2.6-0.4-4.7c0,0-1.8,1.2-1.7,3.3
			c0.1,2.1-2.3,0.6-2.3,0.6s1.6-2.2,0.6-4.4c0,0-1.1,2.8-3,3.3c0,0,2.4-3.4,0.7-6.1c0,0-0.2,5.3-3.2,5.8c-2.9,0.5-2.1-4-2-4.5
			c-0.2,0.4-2.1,3.7-1.5,4.7c-0.1-0.3-1.6-3.8-0.6-7.2c-0.1,0.4-1.6,4.1-0.9,6.5c0.3,1.1-0.4,1.4-1.3,1.3c-0.3,0-0.5-0.1-0.8-0.1
			c-1.1-0.2-2.2-0.6-2.2-0.6l0.6-5.1l-1.7,4c0,0-1.4-2.3-1-6.7c0,0-1.6,3.9-0.8,6.5l-2.2-0.2c0,0,0.5-2.6-0.5-5.2c0,0,0,3.1-1.8,5
			c0,0,1.3-5.3-0.4-8.6c0,0-0.7,6.7-3.2,8.3c0,0-1.1-1.8-0.5-5.5c0,0-1.8,3.2-1.2,5.7c0.1,0.4,0.1,0.6,0,0.8
			c-0.7-0.1-1.5-0.2-2.2-0.2c0,0-0.1-0.1-0.1-0.1s-1.5-3.3-0.3-8c0,0-2.6,5-2.3,7.8c-1-0.1-2-0.2-3.1-0.3c0.2-0.5,1.4-3.8,0.3-6.2
			c0,0-0.5,4.7-2.3,6c-0.6-0.1-1.2-0.1-1.7-0.2c0-0.4,0.2-0.8,0.2-0.8s1.4-2.2,0.7-4.6c0,0-1.4,4.6-3.2,4.4
			c-1.8-0.1-0.6-3.8-0.6-3.8s-2.3,2.3-1.7,4.2c0,0-2.4-2.3-0.4-7.3c0,0-3.2,4.1-2.6,7.1c-1.3-0.1-2.5-0.3-3.8-0.4
			c-0.1-0.6,0-2-0.7-4.1c0,0-0.3,2.7-1.5,3.9c-0.1,0-0.3,0-0.4,0c0.2-1.1,0.7-4.6-0.7-7.5c0,0-0.5,5.7-1.8,7.2
			c-0.4,0-0.9-0.1-1.3-0.1c-0.8-1.3-0.9-4.8-0.9-4.8s-0.7,3-0.8,4.7c-0.9-0.1-1.8-0.2-2.7-0.3c-0.3-0.9-0.8-3.5,1.1-7.4
			c0,0-3.2,3.7-3.4,7.1c0,0,0,0,0,0c0.2-3.4-2.5-7.5-2.5-7.5c1.3,3.8,0.7,6.2,0.3,7.3c-0.9-0.1-1.9-0.2-2.8-0.3
			c0.1-1.8-0.2-4.5-0.2-4.5s-0.5,3-1.3,4.3c-0.6-0.1-1.1-0.1-1.7-0.2c-0.9-2.1-0.7-7.1-0.7-7.1c-1.6,2.4-1.7,5.4-1.6,6.9
			c-0.2,0-0.4,0-0.6-0.1c-0.8-1.5-0.8-3.7-0.8-3.7c-0.7,1.5-0.9,2.7-1,3.5c-1.2-0.1-2.5-0.2-3.8-0.3c0.5-2.7-1.6-6.5-1.9-6.9
			c1,3.8-0.1,5.8-0.8,6.6c-0.1,0-0.2,0-0.4,0c0.3-1.6-1.1-3.6-1.3-3.8c0.1,0.4,0.6,3.8-1.1,3.6c-1.8-0.2-2.7-4.9-2.7-4.9
			c-1,2.3,0.1,4.7,0.1,4.7c-0.8-0.1-1.5-0.1-2.3-0.2c-1-2-0.9-5.4-0.9-5.4c-1,1.6-0.8,4-0.6,5.3c-0.9-0.1-1.9-0.2-2.8-0.2
			c0.1-2.8-1.5-7.1-1.5-7.1c0.4,3.3-0.3,5.7-0.8,6.9c-0.9-0.1-1.7-0.2-2.6-0.2c0.7-2.4-0.6-5.5-0.6-5.5c0.1,3.8-1.2,5.4-1.2,5.4
			c-2.3-2.1-2.2-8.8-2.2-8.8c-2,3-1.4,8.5-1.4,8.5c-1.5-2.1-1.2-5.2-1.2-5.2c-1.4,2.4-1.2,5-1.2,5l-2.2-0.2c1.2-2.4,0-6.6,0-6.6
			c-0.1,4.4-1.8,6.5-1.8,6.5l-1.2-4.2v4.2c-1.4-0.1-2.7-0.2-4.1-0.3c0.3-0.8,0.4-1.7,0.4-2.6c0-2-0.6-4-0.6-4
			c0.5,2.8-0.6,5.4-1.2,6.6H457c0.1-1.4-1.1-4.4-1.1-4.4s0.3,3.8-1.5,4.2c-0.3,0-0.7,0-1-0.1c0,0,0,0-0.1,0c-2.9-1-2.5-6.3-2.5-6.3
			c-1.9,2.3-0.2,5.8,0,6.1c-1.8-0.8-2.5-3.7-2.5-3.7c-0.7,1.3-0.5,2.7-0.2,3.6c-0.6,0-1.3-0.1-1.9-0.1c0,0,0,0,0,0
			c0.3-2.1-1.3-3.6-1.3-3.6c0.3,1.3-0.1,2.6-0.5,3.5c-0.6,0-1.2-0.1-1.9-0.1c0.1-2.2-1.1-9.2-1.1-9.2s-0.3,6.6-1.8,9
			c-0.8,0-1.7-0.1-2.5-0.1c-0.9-1.5-1.3-4.2-1.3-4.2c-1.2,1.9,0,4.1,0,4.1l0,0c-0.7,0-1.4-0.1-2.1-0.1c0-1.8-0.9-5.6-0.9-5.6
			s0.2,5.6-1.7,5.5c-1.9-0.1-2.3-6.1-2.3-6.1c-1.2,1.6,0,6,0,6s0,0,0,0c-1.1-0.1-2.1-0.1-3.2-0.2c-1-1.9-0.8-6.2-0.8-6.2
			c-1.1,2.2-1.3,4.6-1.3,6.1c-0.5,0-1.1,0-1.6-0.1l0,0c0.8-2-1.1-5.9-1.1-5.9c0.3,6.2-2.1,5.8-2.1,5.8c0.3-2.2-1-4.9-1-4.9
			s0.1,4.2-0.7,4.9c-0.2,0-0.4,0-0.5,0c0,0,0,0,0,0c-1.5-1.1-1.4-3.5-1.4-3.5c-0.9,2.3-0.5,3.5-0.5,3.5c-1.5-1.3-0.4-6.4-0.4-6.4
			c-1.4,1.8-2,4.6-2.2,6.3c-0.8,0-1.6-0.1-2.5-0.1c-0.6-3.1-2.7-9.7-2.8-10.2c0.1,0.7,1.8,10.6-0.8,10.1c-2.7-0.6-2.4-3.2-2.4-3.2
			c-0.6,1.3-0.5,2.4-0.2,3.1c-1,0-2-0.1-3-0.1c0,0,0,0,0,0c1.1-1.8,0-3.4,0-3.4s-1.6,2.4-2.4,3.3h-0.3v0c0.8-1.8-1.1-10.8-1.1-10.8
			s0,8-1.5,10.7c-0.9,0-1.8-0.1-2.7-0.1c-0.9-1.5-0.8-4.2-0.8-4.2c-1.6,2,0,4.2,0,4.2v0c-0.8,0-1.6,0-2.3,0c0.3-2.4-0.7-7.3-0.7-7.3
			s-0.7,6.9-2,7.2c0,0-0.1,0-0.1,0c-0.1,0-0.1,0-0.2,0c-1.5-0.7-1.3-2.8-1.3-2.8c-0.7,1-0.8,2.1-0.8,2.8c-0.6,0-1.1,0-1.7,0v0
			c0.4-2.2-0.6-4.5-0.6-4.5c0,1.8-0.5,3.4-1.2,4.5c-0.5,0-1,0-1.5,0c0.1-2.7-2.6-7.3-2.6-7.3s1,6.3,0,7.2c-0.2,0-0.4,0-0.7,0
			c-1.3-0.9-1.5-2.7-1.5-3.9c0-0.6,0.1-1,0.1-1c-1,1.5-0.8,3.5-0.6,4.9h-2.2c-0.1-1.7-0.9-3.9-0.9-3.9c0.1,1.5-0.7,2.9-1.6,3.9h-1.4
			c0.5-5.1-2-9.2-2-9.2s0.5,8.1-0.3,9.2h-0.4c0,0,0,0,0,0c-1.4-1.5-1.9-4.8-1.9-4.8c-0.8,3.1-0.7,4.8-0.7,4.8c-2.2-1.3-3-5.9-3-5.9
			c-0.8,1.5-0.8,3.3-0.6,4.8c-1.1-0.9-4.6-4.2-5.4-9c0,0-0.2,8,1.4,9.7c0,0-3-0.6-4.1-4.8c0,0-0.9,2-1,3.7c-0.1-1.8-0.7-5.2-2.7-6.4
			c0.1,0.3,1.6,4.7-0.5,6.8c-2.2,2.2-1.5-4.6-1.5-4.6l-2.3,6c-0.2,0-0.3,0-0.5,0c-0.7-0.5-2.1-1.8-2.1-4.9c0,0-1.7,1.7-1.3,5
			c-0.5,0-0.9,0-1.4,0c-0.9-2.4-1.4-6.3,0.4-10.8c0,0-4.3,3.8-3.5,8.9c-0.5-1.3-1.4-2.9-2.7-3.6c0,0,1.1,3.5,0,5.8c-0.3,0-0.7,0-1,0
			c-0.6-1.5-0.8-5.4-0.8-5.4s-1.2,3.3-1.2,5.4c-0.2,0-0.4,0-0.6,0c-0.2,0-0.4,0-0.6,0c-0.7-1.1-1.3-2.8-1.2-4.4c0,0-1.5,2.4-1.1,4.6
			c-0.5,0-1,0.1-1.6,0.1c-0.3-0.3-0.5-0.5-0.5-0.5s-0.8-5.8-3.5-7c0.2,0.4,1.9,5.2,0.3,7.7c-0.4,0-0.7,0-1.1,0c0.2-1,0.3-3.7-1.3-5
			c0,0.1,0,3-3.2,5.2c-0.7,0-1.3,0.1-2,0.1c-0.9-1.2-0.6-4.5-0.6-4.5s-1.7,2.9-1.6,4.6c-0.4,0-0.9,0.1-1.3,0.1
			c-0.8-1.1-1.6-3-0.8-5.8c-0.2,0.4-1.7,3.8-1.7,6c0,0,0,0,0,0c-0.2-0.9-0.7-2.3-1.8-3.6c0.1,0.2,0.9,2.2-0.6,3.8
			c0,0-2.2-1.8-1.3-6.8c-0.2,0.5-1.7,4.3-1.7,7c-0.7,0-1.4,0.1-2.1,0.1c0-1.4-0.2-3.1-1.1-4.2c0,0,0.8,2.5-1.2,4.4
			c-0.3,0-0.5,0-0.8,0.1l-0.5-8.1c0,0-1.4,4.9-1.6,8.2c-0.9,0.1-1.8,0.2-2.7,0.2c-0.3-0.6-0.4-1.5-0.4-2.5c0,0-0.7,1.3-1,2.6
			c-0.1,0-0.2,0-0.4,0c-0.3-1.3-0.8-2.6-1.7-3.1c0.1,0.2,0.5,1.7-0.5,3.3c-0.6,0.1-1.2,0.1-1.7,0.2c-0.6-1.2-1-3.5-1-3.5
			s-0.5,1.8-0.7,3.6c-0.6,0.1-1.3,0.1-1.9,0.2c0.1-1.1,0.2-3.6-1-6.1c0.1,0.5,0.6,4.5-0.7,6.2c-1,0.1-2.1,0.2-3.1,0.2
			c-0.9-1-0.3-3.2-0.3-3.5c-0.1,0.2-1.4,1.9-1.8,3.7c-0.1,0-0.2,0-0.3,0c-0.4-2.1-2.5-4.1-2.5-4.1s1.9,4.1-1.3,4.4
			c-3.2,0.3-3-6.6-3-6.6c-1.2,3.7,0,6.9,0,6.9s0,0,0,0c-0.7,0.1-1.3,0.1-1.9,0.2c-0.4-1.9-1.3-4-1.3-4s0,3.1-0.7,4.2
			c-0.4,0-0.7,0.1-1.1,0.1h0c-1.8-1.6-1.3-3.6-1.3-3.6c-0.9,0.8-1.2,2.5-1.3,3.9c0,0-0.1,0-0.1,0c-0.6-1.4-1.6-2.7-1.6-2.7
			c0.3,1.2,0.2,2.2-0.1,2.9c-0.8,0.1-1.7,0.2-2.5,0.3c-0.7-3.2-2.8-8.1-2.8-8.1l0.7,8.3c0,0,0,0,0,0c-0.2,0-0.4,0-0.6,0.1
			c0,0,0,0,0,0c-2.5-1.4-2-4.3-2-4.3c-0.8,1.4-0.7,3.2-0.5,4.6c-0.7,0.1-1.4,0.2-2.1,0.2c-0.3-2.8-2.7-6.7-2.7-6.7
			c1.7,4.8-0.3,7-0.3,7c-1.8-1.4-1.1-3.7-1.1-3.7c-0.9,1.5-1.2,3-1.3,3.9h-0.1c-0.4-2.3-2.6-5.5-2.6-5.5c1.1,2.6,0.7,4.6,0.1,5.8
			c-0.5,0.1-0.9,0.1-1.4,0.2c-0.2-1.7-2.2-4.1-2.2-4.1s0.7,2.9,0.2,4.3c-0.8,0.1-1.6,0.2-2.5,0.3c-3.1-1.6-3.5-4.3-3.5-4.3
			c-1.2,1.5-0.9,3.6-0.7,4.8c-0.4,0.1-0.9,0.1-1.3,0.2c-1.6-2.4-0.5-7.3-0.5-7.3c-2.6,1.8-2.5,7.6-2.5,7.6c-0.7,0.1-1.3,0.2-2,0.3
			c-0.3-1.9-1.7-3.7-1.7-3.7c0.3,1.4,0,2.8-0.3,4c-0.5,0.1-1,0.1-1.6,0.2c-0.4-2.1-1.8-4.5-1.8-4.5s0.3,2.9,0.1,4.7
			c-0.5,0.1-1.1,0.2-1.6,0.2c-0.9-2-0.4-4.9-0.4-4.9c-1.2,1-1.9,2.7-2.2,4.1c0-5.1-4.7-8-4.7-8c2.2,3.5,2.5,7,2.1,9.5
			c-0.5,0.1-1.1,0.1-1.6,0.2c-0.4-2.6-1.9-3.6-1.9-3.6c0.3,1.8-0.1,3.1-0.5,3.9c-0.7,0.1-1.3,0.2-2,0.3l-2.5-4.4
			c0,0,0.8,3.4,0.4,4.7c-0.4,0.1-0.8,0.1-1.2,0.2c0,0,0,0,0,0c-2.5-1.8-1.5-6.7-1.5-6.7c-1.9,1.6-1.9,5-1.8,6.9
			c-0.4-1.7-1.5-3.5-1.5-3.5c-0.3,2.1-1,3.4-1.8,4.2c-0.4,0.1-0.8,0.1-1.2,0.2c0.6-2.9-0.4-8.7-0.4-8.7c-0.1,4-2.1,7.3-3.4,9
			c-0.7-3.5-2.1-8.3-5-11.4c0,0,2.4,7.6-0.6,12.5c-0.2,0-0.3,0.1-0.5,0.1c-0.1-1.5-0.5-5.6-2.2-7.9c0,0,0.2,6.5-2,8.6
			c-0.8,0.1-1.7,0.3-2.6,0.4c-1.7-1.2-0.5-6.1-0.4-6.6c-0.2,0.4-1.8,3.4-2.2,7c-1,0.2-2,0.3-3,0.5c-1.7-2.7-3.5-7.2-2.8-14
			c0,0-3.3,9.4-3.1,15c-0.4,0.1-0.7,0.1-1.1,0.2c-1.3-2-3.1-5.3-2.8-8.8c0,0-1.1,2.9-1.6,6c-0.4-1.7-1-3.5-2.3-4.6
			c0,0,0.1,5.5-1.2,8.8c-0.3,0.1-0.7,0.1-1,0.2c-0.5-3-2.1-10.4-6.3-12.7c0,0,3.1,8.9-0.5,13.3c-0.3,0.3-0.5,0.6-0.8,0.7
			c-0.2,0-0.5,0.1-0.7,0.1c-2.2-0.6-2.5-10.9-2.5-10.9s-2.5,7.2-2.1,11.7c-1.2,0.2-2.5,0.5-3.7,0.7c-0.5-0.4-0.9-0.8-0.9-0.8
			s-2.8-3.7-0.9-10.5c0,0-4.4,6-4.7,11.7c-0.2-2.8-1.1-7.8-4.6-9.8c0.2,0.4,2.3,5.9-0.8,10.3c0,0-0.3-2.6-2.6-6.1c0,0,0.9,4-1.8,8.3
			c-0.3,0.1-0.6,0.1-0.9,0.2c-2.4-2.9-2.5-6-2.5-6c-1.3,4.1-0.9,6.7-0.9,6.7c-4.2-3.3-3.4-9.6-3.4-9.6c-2.7,3-2.4,7.9-2,10.7
			c0,0,0,0,0,0c-1.8-5.2-7.3-9.2-7.3-9.2c3.5,5.8,1.8,10.3,1.8,10.3l0,0c-1.5,0.3-3,0.6-4.5,1c-1.1-4.4-4.8-9.7-4.8-9.7
			s1.8,7.9,0.8,10.6c-0.7,0.1-1.4,0.3-2.1,0.4c-3.4-2.2-3.8-8.2-3.8-11c0-1,0-1.5,0-1.5c-3.3,3.6-3.2,10.9-2.9,14.1
			c-0.4,0.1-0.7,0.2-1.1,0.2c-2-2.7-3.2-7.7-3.2-7.7c-1,1.5-1.2,3.4-1.1,5.2c-1.1-2.7-2.7-4.9-3-5.2c1.1,3.2,0.3,7-0.5,9.4
			c-0.4,0.1-0.7,0.2-1.1,0.2c-1.2-5.2-6.4-12.7-6.7-13.2c2.3,6.5,1.7,11.4,0.7,14.6c-0.9,0.2-1.8,0.4-2.7,0.6c-1.3-3.5-3.7-6-4-6.2
			c0.3,0.5,3.6,6.3,0.2,7.1c-3.6,0.8-5.5-7.7-5.5-7.7c-1.2,3.4-0.1,8.5,0,9c-4.8-3.3-4.3-12.2-4.3-12.2c-2.3,4.4-2.2,10.2-1.9,13.7
			c-0.1,0-0.2,0-0.2,0.1c-1.2-2.6-4.1-7-8-8.4c0,0,2.3,4.7,1.6,8.5c-0.6,3.8-3.4-5-3.4-5l0.1,7.2c0,0-0.1,0-0.1,0
			c-0.6-0.5-4.1-3.1-4.3-6.1c0,0-1.5,3.1-0.3,6.2c0,0-1.8,0.3-3.9-5.4c0,0-1.2,4.7-1,7.5c-0.4,0.1-0.7,0.2-1.1,0.2
			c-1.4-1.6-3.5-4.9-4.4-11c0,0-1.9,6.4-0.6,10.5c-0.4-0.9-3.2-7.9-7.2-7.9c0,0,4,7.5,1.9,10.6c-0.1,0.2-0.2,0.3-0.3,0.4
			c-0.2,0.1-0.4,0.1-0.7,0.2c-1.8-0.5-3.4-8.2-3.4-8.2s0,6.5,0.4,9c-0.4,0.1-0.8,0.2-1.2,0.3c-0.8-0.6-1.5-1.3-1.5-1.3
			s0-4.9-3.2-8.3c0,0,1.8,7.3-1.5,9.5c0,0-3.2,0.7-4.6-4.2c0,0-1.9,1.8-0.8,5.6s-3.6,0.9-3.6,0.9s1.1-4.1-2.8-7.4c0,0,1,2.9-0.9,6.5
			v356h1123.3V447.5C1093,448.4,1061.3,449,1029.6,449z M812.1,438.2c0-0.1,0.1-0.2,0.1-0.3c0,0.1,0,0.2,0.1,0.3
			C812.2,438.3,812.2,438.2,812.1,438.2z"/>
	</g>
	<g>
		<g>
			<linearGradient id="SVGID_12_" gradientUnits="userSpaceOnUse" x1="748.6364" y1="762.1946" x2="715.1807" y2="282.107">
				<stop  offset="0" style="stop-color:#6B8B00"/>
				<stop  offset="1" style="stop-color:#D9E376"/>
			</linearGradient>
			<path class="st11" d="M1200,344.5v451.4H286.6c-13.6-30.3-25.4-72-21.3-105c2.4-19.2,10.1-35.5,26-44.9
				c24.6-14.5,63.9-8.5,90.5-12.4c33.5-4.9,67-10.7,100.4-17.5c84.7-17.2,168.8-40.6,251.9-69.9c2.8-1,5.6-1.9,8.4-3
				c1.6-4.2,4.2-9.9,7.9-13.8l-1.2,11.5c0,0,0,0,0,0l4.3-7l2.2,4.6c0,0,0,0,0,0c0.2-0.4,1.4-3.4,0-10.7c0,0,4.4,3.1,6.5,8.3h0
				l1.7-8.3l2.3,6.8h0c0-0.4,0.8-11,4.9-15.4c0,0-0.5,9.5,2.3,12.8c0,0,0,0,0,0l1.8-6.6l2.9,4.8c0,0,0,0,0,0
				c0.3-0.4,3.5-6.2,1.5-10.9c0,0,3.1,3,4.9,8.5c0,0,0-5.7,2.7-8.7c0,0-0.3,3.7,1.8,7c0.5-0.2,1-0.4,1.5-0.6l0.2-6.4l2.6,5.3v-3.9
				l1.1,3.5c0.6-0.2,1.2-0.5,1.8-0.7c0.5-0.7,0.8-1.9,0.4-4.2c0,0,1.5,0.8,2.9,2.9c1.5-0.6,2.9-1.1,4.4-1.7c0-0.1-0.6-7.3,1.3-11.7
				c0,0,0.5,7.4,3,9.9c0.6-0.2,1.2-0.5,1.8-0.7c0.3-2-0.3-5.4-0.3-5.4l2.7,4.4c0,0,0,0,0,0c0.1-0.2,2.4-4.4,1.1-8.2
				c0,0,1.7,2.1,2.8,6.6c1.6-0.6,3.1-1.2,4.6-1.9c0-0.1-0.1-3.9,1.2-7.2c0,0,0.8,4.2,2.3,5.8c0.2-0.1,0.4-0.2,0.7-0.3l0.7-4.2
				l1.7,3.2c0-0.1,1.7-3.8,1.3-7.5c0,0,2.3,2.4,2.6,5.8c0,0,0,0,0,0l1.8-4.3l1.3,3c0,0,0,0,0,0c0.2-0.4,2.8-5.7,1.5-9.6
				c0,0,2.5,3.6,2.4,8c1.2-0.5,2.3-1,3.5-1.4c0-0.1-0.1-2.5,0.8-5.1c0,0,0.2,0.7,0.5,1.5c0.3,0.9,0.8,1.8,1.4,2.5
				c0-0.1-0.7-7.2,1.4-10c0,0,0.5,5,3.3,8c0.8-0.3,1.6-0.7,2.4-1c0-0.2,0.9-4.5,0-6.9c0,0,3.5,2.4,3.6,5.4l0,0l1.8-4.2l1.2,3l0,0
				c0.1-0.2,0.9-2.9,0-6.2c0,0,3.1,1.3,3.1,4.8c0,0,0,0,0,0l1.5-4.8l0.9,3.8l0.8-7.7l2.2,6.4c0,0,0.7-4.7,3.5-7.6
				c-0.1,0.3-1.6,4.1,0,6c0,0,0.1-0.2,0.3-0.5c0.9-1.4,2.9-5.8,0.8-10.8c0.3,0.6,2.9,5.8,2.9,9.5c0,0,0,0,0,0l1.5-4.3v3.6
				c0,0,0,0,0,0c0.1-0.1,3.1-3.4,2.1-7.1c0.1,0.3,1.3,2.8,1.3,5.4v0.2l1.2-3.8l1.5,2.6c0,0-0.1-6.8,2.6-8.9c0,0-0.7,4.6,1.2,7.2
				c0.2-0.1,0.5-0.2,0.7-0.3V482l1,2.7c0-0.1,2.3-3.6,1.4-6.4c0.1,0.1,0.5,0.7,0.8,1.5c0.4,0.9,0.9,2.2,0.9,3.5l1-3.2l1.2,2.2
				c0,0-0.4-6,1.7-7.8c0,0-0.4,5.1,1.6,6.4c0.5-0.2,0.9-0.4,1.4-0.6c0.7-1.4,0.7-4.2,0.7-4.2s1.3,1.4,1.6,3.2
				c0.7-0.3,1.3-0.6,1.9-0.9c0,0,0.6-3-0.9-5.8c0,0,2.2,1.3,2.3,5.1c0.8-0.4,1.7-0.8,2.5-1.2c0,0-1.6-4.6,0-9.1c0,0,0.7,5.8,3,7.7
				c0.4-0.2,0.7-0.3,1-0.5c0-1.5-1-4.7-1-4.7s2.2,2.1,2.6,4.1c1.3-0.6,2.5-1.2,3.8-1.7c0.8-1.9,0.8-4.7-1.5-8.1c0,0,3.7,3.5,4.2,6.9
				c0.1-0.1,0.2-0.1,0.4-0.2l0.9-3.4l1.5,2.3V464l2.5,4.5c0,0-0.6-5,1.8-7.6c0,0-0.8,3.2,2.5,5.6c0.8-0.4,1.5-0.7,2.3-1
				c0.2-1.6-0.2-3.8-0.2-3.8l1.8,3c0,0,2.3-2.3,1.1-6.8c0,0,1.6,1.6,1.9,5.4c0.9-0.4,1.7-0.8,2.6-1.2v-5.1c0,0,2.1,1.8,1.9,4.2
				c0,0,0,0,0,0c0,0,2.2-3.5,1.1-7c0.2,0.3,1.6,2.7,1.9,5.6c1-0.5,1.9-0.9,2.9-1.4c0,0-0.9-3.6,0.6-5.7c0,0,0.5,3.1,2.1,4.5
				c0.7-0.3,1.4-0.6,2.1-1l-1.4-4.3c0,0,2.8,1.7,2.9,3.7c0.3-0.2,0.7-0.3,1-0.5c0.6-1.4,1-4.1-1-6.8c0,0,3.5,2.3,4.1,5.4
				c0.3-0.1,0.5-0.2,0.8-0.4l1.3-2.9l1.4,1.7c0.2-0.1,0.4-0.2,0.7-0.3v-3.5l1.7,2.7c0,0,0.3-3.4,1.8-5.7c0,0,0,0,0,0.1
				c0,0.5,0.1,2.3,1.6,4c0.3-0.1,0.6-0.3,0.9-0.4c0.2-1.7-0.7-6.2-2.6-7.5c0.4,0.3,4.1,2.8,5,6.3c0.6-0.3,1.2-0.6,1.9-0.9
				c0.3-1.8,0.4-3.8-0.1-4.7c0.2,0.2,1.8,1.6,2.4,3.6c0.8-0.4,1.7-0.8,2.5-1.2c-2.1-3.9-1.6-10.1-1.6-10.1c0.7,4.6,3.2,7.3,4.8,8.6
				c0.3-0.1,0.6-0.3,0.9-0.4l-1.6-5c0.2,0.4,2.1,3.2,3.4,4.1c0.4-0.2,0.7-0.3,1.1-0.5c0-0.1,0-0.1,0-0.2c0.2-3.4-4.6-6.2-4.6-6.2
				c3.9-1.1,6.2,3.8,6.6,4.6l-1.4-3.8l4,3.4c0.1-0.1,0.3-0.1,0.4-0.2c-1.9-3.4-1.8-8.6-1.8-8.6c1.5,5.8,4.9,6.5,4.9,6.5
				c-2.2-2.2-1.4-7.2-1.4-7.2s1.9,7.7,3.7,5c1.8-2.7-2.3-9.5-2.3-9.5c3.2,2,5,6.7,5,6.7l-0.3-5.3l2.3,5.3c0,0,1.4,0.8,2.6,1.2
				c0.4-0.2,0.9-0.4,1.4-0.6c-0.2-0.4-0.6-1.1-1.4-2c-4.6-5.5-3.9-11.5-3.9-11.5c1.2,7.2,6,10,6,10l-1.3-4.2l4.1,3.5
				c-2.3-3.4-1.2-9.6-1.2-9.6c0,5.2,3.5,7.9,3.5,7.9c-0.9-3.4,0.8-7.4,0.8-7.4s1.2,11.1,3,6.5c1.9-4.6-4.1-11.9-4.1-11.9
				c4.3,0.5,6.1,8.2,6.1,8.2s1.7,1.6,3.1,3.2c-0.3-0.6-0.7-1.2-1.2-2c-2.9-4.7-1.4-10.9-1.4-10.9c0,6.9,3.8,9.2,3.8,9.2
				c-0.7-4.1,1.5-7.8,1.5-7.8s0,7.3,2.1,5.7c2-1.5,0-7.7-0.1-8.2c2.1,2.6,2.1,5.3,2.1,5.4c0,0-1.6,7.2,1.2,1.6
				c2.8-5.6-2.7-15.1-2.7-15.1c8.1,4.2,6.9,12.7,6.9,12.7c3.6-3.7,2.1-10.1,2.1-10.1c3.4,4.6,2.5,8,2.5,8s12.1,2.6,6.4-1.6
				c-5.7-4.2-6.4-12.5-6.4-12.5c1.8,4.7,9.1,9.8,13.1,12.2c0.7-2.8,1.6-8.3-1.2-13.1c0,0,5.2,6.4,5.8,11.6c1.4-0.6,2.8-1.2,4.2-1.8
				l-1.6-7.3c0,0,0.7,0.7,1.6,1.8c0.9,1.1,2.1,2.6,3.1,4.2c0.4-0.2,0.8-0.3,1.2-0.5c0.4-2.4-0.5-8.2-3.1-10c0,0,6.1,2.1,6.8,8.4
				c0.8-0.4,1.7-0.7,2.6-1.1v0c0,0-1.1-3.6,0-7.3c0,0,0.2,4.3,2.4,6.3c1.3-0.5,2.5-1.1,3.8-1.6c-0.2-0.3-0.4-0.6-0.4-0.6
				s-1.6-3.7-1.4-8.9c0,0,1.5,6.2,3.9,8.6c1.2-0.5,2.3-1,3.5-1.5c0-2.2-1-5.2-1-5.2s2.5,1.8,3.5,4.2c0.4-0.2,0.7-0.3,1.1-0.4
				c0.4-2.1,0.5-5.7-1.8-9.7c0,0,4.9,4.2,5.1,8.4c1.3-0.5,2.6-1,3.9-1.6v0c0,0-2.3-1.8-1.4-5.9c0,0,1.3,3.6,4.3,4.8
				c0,0-4.1-9.3-1.3-13.2c0,0,2.3,8.6,4.6,11.9c0.9-0.4,1.9-0.8,2.9-1.1c0-2.2-0.7-5.2-0.7-5.2s2.5,0.4,3,4.3c0,0,1.7-3.1,1.2-7
				c0,0,2.9,2.6,3.2,5.3c1.7-0.7,3.5-1.4,5.2-2c-1-1.8-2.4-5.4-0.8-8.6c0,0-0.2,5.8,3.9,7.4c0,0-1.1-3.9,0-6c0,0,0.2,0.7,0.8,1.6
				c0.6,0.9,1.5,2.1,2.9,3c0.7-0.2,1.3-0.5,1.9-0.7c0.6-1.5,0.5-4.3,0.5-4.3s1,1.7,1.7,3.4c1.2-0.5,2.4-0.9,3.6-1.4c0,0,0,0,0,0
				s1.3-7-1.9-11.1c0.3,0.2,5.8,4.2,6.5,9.4c0.3-0.1,0.7-0.2,1-0.4c0.7-2.3,1.3-5.5,0.3-7.8c0,0,2.9,3.3,3.3,6.6
				c1.1-0.4,2.3-0.8,3.4-1.2c0,0,0,0,0,0s-2.8-2.6-2.2-5.5c0,0,2.3,5.5,5.2,4.5c2.7-1,1.1-7,0.9-7.7c0.3,0.5,2.2,3.9,3,6.4
				c1.6-0.6,3.2-1.1,4.8-1.7c0.8-2.2,1.2-5.7-1.2-9.3c0,0,4.6,2.6,4.2,8.2c0,0,3.2-5.4-1.8-15.2c0.4,0.4,6.3,7.9,5.4,13.9
				c0,0,0,0,0,0c1.3-0.4,2.6-0.9,3.8-1.3c-0.6-1.8-1.7-5.5-0.8-8.6c0,0,1.6,5.4,3.7,7.7c0,0-0.5-2.9,0-6.4c0,0,0.7,3.8,2.4,5.7
				c0.8-0.3,1.6-0.5,2.5-0.8c0.4-2.6,0-7.2,0-7.2s2.5,3.3,3.1,6.2c0.3-0.1,0.6-0.2,0.8-0.3c0.5-2.1,0.8-5.7-1.4-10.4
				c0,0,4.1,4.5,5.1,8.3c0.1-2.4,0.7-6,3.5-8.3c0,0-0.8,5.1,1.7,7.7c1.4-0.4,2.8-0.9,4.2-1.3c0,0,0,0,0,0l0.1-6.4l2.1,5.8
				c0.4-0.1,0.8-0.2,1.1-0.3c0.9-2,1.9-6-0.8-11.8c0,0,5.1,5.6,4.7,10.7c0,0,2.9-3.7,1.7-8.4c0.2,0.4,2.5,4,1.7,7.5c0,0,0,0,0,0
				c1.3-0.4,2.6-0.8,4-1.1c0,0,0,0,0,0S1197.3,348.2,1200,344.5z"/>
			<linearGradient id="SVGID_13_" gradientUnits="userSpaceOnUse" x1="820.6871" y1="924.9832" x2="670.2745" y2="574.9572">
				<stop  offset="0" style="stop-color:#6B8B00"/>
				<stop  offset="1" style="stop-color:#D9E376"/>
			</linearGradient>
			<path class="st12" d="M1200,387.8V800H156.8c-3.2-40.2,5-77,35.4-94.9c19.9-11.7,47-13.5,73.2-14.1c17.3-0.4,34.2-0.4,48.4-2.5
				c45-6.6,90-14.4,134.8-23.4c113.8-23.1,226.8-54.5,338.4-94c3.8-1.3,7.5-2.6,11.2-4c2.1-5.6,5.6-13.3,10.6-18.6l-1.7,15.4
				c0,0,0,0,0,0l5.8-9.4l2.9,6.1c0,0,0,0,0.1,0c0.2-0.5,1.8-4.6,0-14.4c0,0,5.9,4.2,8.7,11.2h0l2.3-11.2l3.2,9.2h0
				c0-0.5,1.1-14.8,6.6-20.7c0,0-0.7,12.8,3.1,17.1c0,0,0,0,0,0l2.5-8.9l3.9,6.4c0,0,0,0,0,0c0.4-0.6,4.7-8.3,2-14.7
				c0,0,4.1,4,6.6,11.4c0,0,0-7.7,3.6-11.7c0,0-0.3,5,2.4,9.4c0.7-0.3,1.3-0.5,1.9-0.8l0.3-8.6l3.5,7.1v-5.3l1.5,4.7
				c0.8-0.3,1.6-0.6,2.5-1c0.7-0.9,1.1-2.5,0.6-5.6c0,0,2,1.1,3.9,3.8c2-0.8,3.9-1.5,5.9-2.3c0-0.1-0.8-9.8,1.8-15.7
				c0,0,0.7,10,4.1,13.3c0.8-0.3,1.6-0.6,2.5-1c0.4-2.6-0.4-7.3-0.4-7.3l3.6,6c0,0,0,0,0,0c0.2-0.3,3.3-5.9,1.5-11
				c0,0,2.3,2.8,3.8,8.9c2.1-0.9,4.2-1.7,6.2-2.5c0-0.2-0.1-5.2,1.6-9.7c0,0,1.1,5.6,3.1,7.8c0.3-0.1,0.6-0.2,0.9-0.3l0.9-5.6
				l2.3,4.3c0-0.1,2.3-5.1,1.8-10.1c0,0,3.1,3.2,3.5,7.8c0,0,0,0,0,0l2.4-5.8l1.7,4c0,0,0,0,0,0c0.3-0.6,3.8-7.6,2.1-12.9
				c0,0,3.4,4.9,3.2,10.7c1.6-0.6,3.1-1.3,4.7-1.9c0-0.2-0.2-3.3,1.1-6.9c0,0,0.2,0.9,0.7,2.1c0.4,1.1,1.1,2.5,1.9,3.3
				c0-0.2-1-9.7,1.9-13.4c0,0,0.6,6.7,4.4,10.7c1.1-0.5,2.2-0.9,3.3-1.4c0-0.2,1.2-6,0-9.3c0,0,4.7,3.2,4.8,7.2l0,0l2.4-5.7l1.6,4
				l0,0c0.1-0.3,1.2-3.8,0-8.3c0,0,4.1,1.7,4.1,6.5c0,0,0,0,0,0l2-6.5l1.2,5.1l1.1-10.3l2.9,8.6c0,0,0.9-6.3,4.8-10.2
				c-0.2,0.4-2.2,5.5,0,8.1c0,0,0.2-0.2,0.4-0.7c1.2-1.9,3.9-7.7,1.1-14.6c0.4,0.9,3.9,7.9,3.9,12.8c0,0,0,0,0,0.1l2-5.7v4.8
				c0,0,0,0,0,0c0.1-0.2,4.2-4.5,2.8-9.5c0.2,0.4,1.8,3.8,1.8,7.2v0.3l1.6-5.1l2,3.5c0,0-0.1-9.1,3.4-11.9c0,0-0.9,6.2,1.6,9.7
				c0.3-0.1,0.6-0.3,1-0.4v-4.2l1.3,3.6c0-0.1,3.1-4.9,1.9-8.6c0.1,0.2,0.6,0.9,1.2,2.1c0.6,1.3,1.2,3,1.2,4.7l1.4-4.3l1.6,2.9
				c0-0.1-0.6-8.1,2.3-10.6c0,0-0.6,6.9,2.1,8.6c0.6-0.3,1.2-0.6,1.9-0.8c0.9-1.9,1-5.7,1-5.7s1.7,1.9,2.1,4.3
				c0.9-0.4,1.7-0.8,2.6-1.2c0,0,0.8-4-1.2-7.8c0,0,3,1.8,3.1,6.9c1.1-0.5,2.3-1,3.4-1.6c0-0.1-2.2-6.2,0-12.2c0,0,0.9,7.8,4.1,10.3
				c0.5-0.2,0.9-0.4,1.4-0.6c0-2.1-1.4-6.4-1.4-6.4s2.9,2.8,3.4,5.4c1.7-0.8,3.4-1.6,5-2.3c1-2.6,1-6.3-2-10.9c0,0,5,4.7,5.7,9.2
				c0.2-0.1,0.3-0.2,0.5-0.2l1.3-4.5l2,3v-7.5l3.3,5.9c-0.1-0.5-0.7-6.8,2.4-10.1c0,0-1.1,4.3,3.3,7.6c1-0.5,2-0.9,3-1.4
				c0.3-2.1-0.2-5.1-0.2-5.1l2.5,4c0,0,3.1-3.1,1.4-9.1c0,0,2.2,2.2,2.5,7.3c1.2-0.5,2.3-1.1,3.5-1.6v-6.8c0,0,2.8,2.4,2.6,5.6
				c0,0,0,0,0,0c0,0,2.9-4.7,1.5-9.3c0.2,0.4,2.1,3.7,2.5,7.5c1.3-0.6,2.6-1.2,3.9-1.8c0,0-1.3-4.8,0.8-7.7c0,0,0.7,4.1,2.8,6
				c1-0.4,1.9-0.9,2.8-1.3l-1.9-5.8c0,0,3.8,2.3,3.9,4.9c0.4-0.2,0.9-0.4,1.4-0.6c0.8-1.9,1.3-5.5-1.4-9.2c0,0,4.7,3.2,5.5,7.3
				c0.3-0.2,0.7-0.3,1-0.5l1.7-3.9l1.9,2.2c0.3-0.1,0.6-0.3,0.9-0.4v-4.7l2.3,3.7c0,0,0.4-4.5,2.4-7.7c0,0,0,0.1,0,0.2
				c0,0.6,0.1,3.1,2.1,5.4c0.4-0.2,0.8-0.3,1.2-0.5c0.3-2.3-0.9-8.3-3.4-10.1c0.6,0.4,5.5,3.8,6.7,8.5c0.8-0.4,1.7-0.8,2.5-1.2
				c0.4-2.3,0.6-5.1-0.2-6.3c0.3,0.2,2.5,2.1,3.2,4.9c1.1-0.5,2.2-1,3.4-1.6c-2.8-5.2-2.2-13.5-2.2-13.5c1,6.2,4.3,9.9,6.4,11.6
				c0.4-0.2,0.8-0.4,1.2-0.5l-2.1-6.6c0.3,0.5,2.9,4.3,4.6,5.5c0.5-0.2,1-0.5,1.5-0.7c0-0.1,0-0.2,0-0.3c0.2-4.6-6.2-8.3-6.2-8.3
				c4.9-1.4,8,4.4,8.7,6l-1.8-4.9l5.4,4.6c0.2-0.1,0.4-0.2,0.5-0.2c-2.5-4.5-2.4-11.6-2.4-11.6c2,7.7,6.6,8.7,6.6,8.7
				c-2.9-3-1.8-9.6-1.8-9.6s2.6,10.3,5,6.6c2.4-3.7-3-12.8-3-12.8c4.3,2.7,6.8,9,6.8,9l-0.4-7.1l3.1,7.2c0,0,1.9,1.1,3.5,1.6
				c0.6-0.3,1.2-0.6,1.8-0.8c-0.3-0.6-0.8-1.4-1.9-2.7c-6.2-7.4-5.2-15.4-5.2-15.4c1.5,9.3,7.7,13.2,8.1,13.5l-1.8-5.6l5.4,4.7
				c-3.1-4.5-1.5-12.9-1.5-12.9c0,6.9,4.8,10.6,4.8,10.6c-1.2-4.6,1.1-9.9,1.1-9.9s1.6,14.9,4.1,8.7c2.5-6.1-5.5-16-5.5-16
				c5.7,0.7,8.2,11,8.2,11s2.3,2.2,4.1,4.3c-0.4-0.7-0.9-1.6-1.6-2.6c-3.9-6.3-1.9-14.6-1.9-14.6c0,9.2,5,12.4,5,12.4
				c-0.9-5.4,1.9-10.5,1.9-10.5s0,9.9,2.8,7.7c2.6-2.1,0.1-10.3-0.2-11c2.8,3.5,2.9,7.1,2.9,7.3c0,0-2.2,9.6,1.6,2.1
				c3.7-7.3-3.2-19.7-3.5-20.3c10.8,5.7,9.3,17,9.3,17c4.8-5,2.8-13.6,2.8-13.6c4.6,6.2,3.4,10.7,3.4,10.7s16.2,3.4,8.6-2.2
				c-7.6-5.6-8.6-16.8-8.6-16.8C1189.3,379.3,1195,384.2,1200,387.8z"/>
		</g>
		<g>
			<linearGradient id="SVGID_14_" gradientUnits="userSpaceOnUse" x1="1187.6775" y1="509.7398" x2="1185.8159" y2="483.3391">
				<stop  offset="0" style="stop-color:#6B8B00"/>
				<stop  offset="1" style="stop-color:#D9E376"/>
			</linearGradient>
			<path class="st13" d="M1200,510.4V540c-4.9-18-13.1-36.8-26.3-54.4C1173.7,485.5,1186,494.6,1200,510.4z"/>
			<linearGradient id="SVGID_15_" gradientUnits="userSpaceOnUse" x1="1163.9784" y1="618.0911" x2="1159.6827" y2="557.1702">
				<stop  offset="0" style="stop-color:#6B8B00"/>
				<stop  offset="1" style="stop-color:#D9E376"/>
			</linearGradient>
			<path class="st14" d="M1189.6,571.6c0.5,1.4,6.6,16.4,10.4,32.8v82.9l-49.2,1.9v-7.9c0,0-30-63.6-25.1-101.9
				c0,0,17.2,68.8,37.9,77.2c-0.7-0.9-23.6-29.9-24.6-64.6c0,0,22.2,58.8,36.6,62.5c0,0,11.3-53.6-18.6-94c0,0,34.8,22.9,36.6,91
				C1193.5,651.5,1198.8,598.4,1189.6,571.6z"/>
		</g>
	</g>
	<g>
		<g>
			<linearGradient id="SVGID_16_" gradientUnits="userSpaceOnUse" x1="208.9195" y1="670.4406" x2="1089.4607" y2="541.957">
				<stop  offset="0" style="stop-color:#6B8B00"/>
				<stop  offset="1" style="stop-color:#D9E376"/>
			</linearGradient>
			<path class="st15" d="M1200,658v142H1.5V443.5C4,449.4,2.2,454,2,454.3c5.8-2.5,3.3-18.4,3.1-19.4c6.6,10.7,2,19.3,2,19.3
				s5.7,7.3,3.8-0.6c-1.9-7.7,5.2-16.4,5.6-16.8c-3.1,9.3,0,15,0,15l5.6,3.4c-5.4-14.2,2.3-32.1,2.3-32.1S19.9,452,26,450
				c5.9-1.9,3.6-15.4,3.5-16.1c5.4,9.3,1.6,15.4,1.6,15.4s-4.2,6.9,2.2,2.3c6.4-4.6,2.1-21.2,2.1-21.2c7,6.8,5.1,19.8,5.1,19.8
				s13.3,8.2,6.8,0.9c-6.5-7.3-1.4-17.8-1.4-17.8c-0.3,12.5,3.3,15.8,3.3,15.8s2.3,5.5,3.7,8c0.3,0,0.6-0.1,0.9-0.1
				c-0.1-0.7-0.4-1.8-0.8-3.2c-3.5-12.6,4.3-21.3,4.3-21.3s-4.9,18.7,1.6,15.4c6.5-3.3,7.5-17.2,7.5-17.2C69.6,442.8,65,451,65,451
				s4.2,2.6,7.2,3.1c0.8-0.1,1.6-0.2,2.4-0.4c0.7-0.6,0.8-2-0.1-4.4c-3.8-9.9,1.2-27,1.2-27c-1.1,15.2,5.8,22.7,5.8,22.7
				s3.6,3.8,6.6,6.7c0.4-0.1,0.9-0.1,1.4-0.2c-4.2-7.8,1.2-20.3,1.2-20.3s-0.9,22.7,8.1,17.1c9-5.6,5.1-31.5,5.1-31.5
				c8.5,10.2,4.4,27.3,4.4,27.3s-1.2,3-0.9,4.9c1.6-0.2,3.2-0.5,4.8-0.7c4.1-5.3,5.3-20.5,5.3-20.5c3.4,9.5,1.6,16.5,0.3,19.7
				c2.5-0.3,4.9-0.7,7.4-1c-2.2-9.2,3.3-18.4,3.3-18.4c-2.6,9.2,1.9,17.7,1.9,17.7l0.1,0.1c1.9-0.2,3.8-0.5,5.7-0.7
				c-3.2-14.1,3.9-26.6,3.9-26.6c-2.3,12.9,0.3,20.9,3.7,25.7c2.4-0.3,4.8-0.6,7.3-0.9c0.3-3.7,1.6-7.4,1.6-7.4s0.7,3.8,1.8,7.1
				c1.8-0.2,3.6-0.4,5.4-0.6c1.5-4.5,2.5-10.6,2.5-10.6c1.5,3.3,1.7,7.3,1.6,10.1c2.2-0.2,4.4-0.5,6.6-0.7
				c-0.8-13.6-11-34.8-11-34.8c7.1,5.1,11.2,15.4,13.5,24.3c0-6.7,0.9-16,5.8-20.4c0,0-3.1,22.7,6.4,29.3c0,0-1.3-10,3.7-17
				c0,0-2.1,7.9,3.8,13.5c5.9,5.6,6.6-9.8,6.6-9.8s2.8,7.4,3.4,11.9c1.5-0.1,2.9-0.2,4.4-0.3c1-1,1.7-1.8,1.7-1.8s4.3-5.7-1.2-18.8
				c0,0,7.3,8.6,4.9,20.2c1.7-0.1,3.5-0.3,5.2-0.4l0.5-9.4c0,0,3.1,5.4,3.9,9.1c1-0.1,2-0.1,3-0.2c-0.1-3.2,0.1-10.2,3.8-14.9
				c-0.1,0.6-1.9,7.8,0.1,14.6c0.2,0,0.5,0,0.7,0c-0.4-5.4-0.7-17.5,5.5-23.7c0,0-3.8,14.7-1,23.4c1.5-0.1,3.1-0.2,4.6-0.2
				l-0.2-11.2c0,0,2.3,5.8,3.3,11c1.6-0.1,3.2-0.2,4.7-0.2c0.7-5.7,1.2-16.7-4.6-22.1c1.7,1.4,11.6,9.9,10.4,21.9
				c0.9,0,1.9-0.1,2.8-0.1c1.5-2.3,3-6.1,3.1-12.2c0,0,2.1,6.7,1.8,12c1.6-0.1,3.1-0.1,4.7-0.1c0-2,0.3-4.2,0.9-6.1
				c0,0,0.2,3.1,1.1,6l2.3-0.1c0.1-3.9,0.7-9.7,3.6-12.5c0,0-0.8,6.8-0.1,12.4c1.7,0,3.4-0.1,5.1-0.1c0-2.6,0.5-6.4,3-9.5
				c0,0-0.6,5.4,0.9,9.5c2.1,0,4.3-0.1,6.4-0.1c0.2-1.9,0-3.6,0-3.6s1.1,1.4,1.9,3.6h0.9c0.4-4.2,1.9-12.2,7.4-15.6
				c0,0-4.3,9-1.7,15.6h1.6c0-2.7,0.4-6.6,1.8-8.4c0,0,0.2,5.1,1.4,8.4c1.3,0,2.6,0,3.9,0.1c0.5-2.7,0.4-6.5,0.4-6.5s1.6,3.3,2,6.5
				c0.7,0,1.4,0,2.1,0c0.6-1.6,1.1-3.6,0.8-6c0,0,1.4,3.1,2,6c1.7,0,3.5,0.1,5.2,0.1c0.6-3.1,1.2-9.5-1.5-14.1c0,0,4.8,5.8,5.6,11.8
				c0.4-2.7,1.4-6,3.9-7.5c0,0-2.3,6.1-1,10.1c0.9,0,1.9,0.1,2.9,0.1c0-2.2-0.5-5-0.5-5l2.6,5.1c0.2,0,0.4,0,0.6,0
				c-0.4-2.8-0.6-8.3,2.7-10.3c0,0-0.9,6.5,3.2,10.5c0,0,0,0,0,0c0.8,0,1.7,0.1,2.6,0.1c1.6-2.1,1.7-8.7,1.7-8.7s2.5,5.1,3,8.9
				c1.5,0.1,3.1,0.2,4.6,0.3c1-1.9,2.2-5.4,1.6-10.8c0,0,5.2,4.8,3.1,11c0,0,0,0,0,0c1.5,0.1,3,0.2,4.5,0.3c0,0,0,0,0,0l0.9-7.2
				l1.8,7.4c0.1,0,0.2,0,0.3,0c0.1-2.1,0.7-6.9,4.5-8.7c0,0-1.9,5.4-1.2,9c0.7,0.1,1.4,0.1,2.1,0.2c0.6-1.6,1.1-3.9,0.9-6.6
				c0,0,1.9,3.5,2.8,7c1.7,0.2,3.5,0.3,5.2,0.5c0,0,0,0,0,0s-1.7-6.7,3.4-11.2c0,0-1.1,8.3,1.3,11.7c0,0,0,0,0,0
				c0.5,0,1.1,0.1,1.6,0.2c1-1.6,1.2-6.7,1.2-6.7s2,3.9,1.6,7c1.1,0.1,2.1,0.2,3.2,0.4c0.3-0.6,2-5.1,1.5-8.9c0,0,2.5,5.3,2.2,9.3
				c1.3,0.2,2.7,0.3,4,0.5c-0.4-1.8-0.6-4.5,0.6-7.5c0,0,1.1,5.2,3.1,8c1.2,0.2,2.3,0.3,3.5,0.5c0.4-2.2-0.6-6.3-0.7-6.8
				c0.2,0.3,2.9,3.4,2.7,7.1c1.2,0.2,2.4,0.3,3.6,0.5c-0.3-3.4,0.1-7.7,2.7-10.1c0,0-0.7,7.2,0.8,10.6c0.9,0.1,1.8,0.3,2.7,0.4
				c0.8-2.2,0.8-6.5,0.8-6.5s2.2,4.1,2.5,7c2.3,0.3,4.7,0.7,7,1c0.8-1.7,1.6-3.9,1.9-6.3c0,0,2.3,3,1.4,6.8c0,0,0,0,0,0
				c1,0.2,2,0.3,3,0.5c0-1.4,0.4-3.6,2-6c0,0-1,3.4,0.4,6.4c0.4,0.1,0.7,0.1,1,0.2c-0.1-2.6-0.1-8.1,1.8-11.7c0,0-0.8,7.2,1.4,12.2
				c3-2.6,4.5-10.5,4.5-10.5c1.3,4.8,0,10.1,0,10.1c2,0.3,3.8-5.8,3.8-5.8c0.7,3.6-1.6,6.4-1.6,6.4s0.1,0.5,0.3,1.2
				c0.6,0.1,1.3,0.3,1.9,0.4c0.4-5.3,3.1-9.5,3.8-10.5c-2.8,4.8-1.4,9.5-0.7,11.1c0.1,0,0.1,0,0.2,0c-0.5-3.2,1.6-6.2,1.6-6.2
				c-1,4,1.1,6.4,1.1,6.4c0.1-4.6,2.9-7,2.9-7c-1.3,2.8-0.7,5.8-0.7,5.8s0.2,1.2,0.6,2.2c0.6,0.1,1.2,0.2,1.9,0.4
				c0.2-0.2,0.3-0.5,0.5-0.9c1.9-4.3,0.6-10.6,0.5-11.1c2.6,3.2,1.9,11.5,1.9,11.5c1.7-1.3,2.2-7.9,2.2-7.9c0.8,3.9,0.2,7.3-0.4,9.5
				c1,0.2,1.9,0.4,2.9,0.6c-0.7-7.7,3.3-11.4,3.3-11.4c-3.4,6.4-0.4,10.1-0.4,10.1l0.6-4.7l0.8,5.2l2.2,2.3c0.1,0,0.2,0.1,0.4,0.1
				c0.3-6.6,4.3-10.9,4.3-10.9c-2.9,4.4-1.7,10.4-1.7,10.4s0.2,0.5,0.6,1.3c0.8,0.2,1.5,0.4,2.2,0.6c-0.3-6.2,4.5-13.6,4.5-13.6
				s-2.1,12-0.3,14.7c0.5,0.1,1,0.2,1.4,0.4c0.1,0,0.1,0,0.2-0.1c4.3-2.4,4.4-15.6,4.4-15.6c2,7.5,0.8,13.1-0.7,16.7
				c0.5,0.1,0.9,0.2,1.4,0.3c1,0.2,1.9,0.5,2.9,0.8c-0.1-6.4,2.2-11.3,2.2-11.3c-1.7,5,0.1,9.7,1.4,12.3c0.3,0.1,0.5,0.2,0.8,0.2
				c-0.3-1.1-0.4-2.2-0.4-3.2c0-7.8,6.8-15.6,7.2-16.1c-4.8,9.6-1.3,19.3-1.3,19.3l3.3-10.2c0,0-0.9,13.8,2.4,9.9
				c3.3-3.9,0-13.3,0-13.3c5.6,3.6,4,12.4,3.8,13.9l1.7-6.3l2.3,11.5c0,0,0.1,0,0.1,0c-0.2-6.9,5.3-14.2,5.6-14.6
				c-3.3,8.8,0.1,14,0.1,14c-0.7-5.5,4.8-10.4,4.8-10.4s-4.6,11.7,0,10.7c4.6-1,5.8-14.3,5.8-14.3c2,6.2,0.2,13.9,0,14.5l4.4-6.7
				l-2,9.4c0,0,0.7,2,1.6,3.8c0.9,0.3,1.9,0.6,2.8,1c0.1-0.8,0.1-1.8,0-3.2c-0.6-12.1,5.3-18.4,5.7-18.7c-5,10.2-1.7,19.8-1.7,19.8
				l2.2-6.8l1.7,9.4c0.2-6.8,6.8-12.6,7.2-13c-4.6,6.2-2.8,14.1-2.8,14.1c1.9-5,7.3-7.7,7.6-7.8c-0.3,0.5-5.2,9.2-4.4,11.5
				c0.5,0.2,0.9,0.3,1.4,0.5c0.3-0.1,0.5-0.2,0.8-0.3c6.3-3.1,5.8-19.5,5.8-19.5c4.7,6,0,17.7,0,17.7s0.3,2.1,0.5,4.6
				c0.2,0.1,0.4,0.1,0.6,0.2c0-0.3,0-0.6,0.1-1c0.6-9.1,7.6-14.5,8.1-14.8c-6.1,8.3-3.7,15.9-3.7,15.9c2.8-5.7,8.7-7.6,8.7-7.6
				s-6.6,8.9-2.6,9.5c3.9,0.7,7.2-10,7.2-10c0.2,6-2.3,9.3-2.3,9.3s-2.3,1.8-3.3,3c0.7,0.3,1.4,0.5,2.1,0.8c0.3-0.1,0.7-0.2,1.1-0.4
				c8.4-3.1,10.4-21.6,10.4-21.6c5.9,15.4-3.1,24.1-3.1,24.1c7.7,0.1,11.6-9.5,11.6-9.5c0,9.9-4.2,12.8-4.2,12.8s0.2,0.3,0.5,0.8
				c2.7,1,5.4,2.1,8.2,3.1c-1.8-11.3,4-20.8,4-20.8c-2.8,11,3.5,20.3,3.5,20.3l0.6-0.2c1.8-7.1,7.4-12,7.7-12.2
				c-0.3,0.8-7.9,19.2,0,16.1c8.1-3.2,7.9-13.8,7.9-13.8c2.5,10.6-5.2,17.2-5.2,17.2s1.1,0.6,3,1.8c1.1,0.4,2.1,0.8,3.2,1.2
				c1.6-9.8,10.4-16.8,10.4-16.8c-5,6.5-4.8,14.1-3.7,19.4c0.9,0.4,1.9,0.7,2.8,1.1c1.8-6.3,7.2-9.9,7.5-10.2c-0.2,0.5-3,8.7-3,11.9
				c0.5,0.2,1,0.4,1.5,0.6c3.1-3,6.2-14.8,6.2-14.8c0.6,4.8-0.9,14.3-1.3,16.8c0.1,0,0.3,0.1,0.4,0.2c5.1-5.2,4.8-25.6,4.8-25.6
				c5.1,7.8,2.9,19.7,1.2,25.9c2.3-5.4,6.6-10.9,6.6-10.9c-2.3,4.7-2,10.7-0.9,15.2c1.2,0.5,2.5,1,3.7,1.5
				c0.4-9.8,10.4-20.1,11-20.7c-7.8,9.8-4.6,19.7-2.6,24c0.4,0.1,0.7,0.3,1.1,0.4c0.1-7.2,6-13.6,6.4-14c-0.2,0.6-6.2,15.6,0,12.8
				c6.4-2.9,5.7-15,5.7-15c5,11,0,20.2,0,20.2c8.5-3.9,9.4-19.6,9.4-19.6c5.6,9.7,1,21.7,0.1,23.8c0.1,0,0.1,0.1,0.2,0.1
				c6.7-5.7,5.8-32.8,5.8-32.8c9.4,11.2,3.9,29.7,2.3,34.2c5.5-13.9,13.2-19.9,13.7-20.2c-6.7,10.6-4.6,21.2-3.2,25.7
				c0.3,0.1,0.5,0.2,0.8,0.3c0.2-6.9,5.2-14.8,5.2-14.8s0.2,10.9,1.9,17.4c2,0.7,4,1.4,5.9,2.1c3.7-6.6-1.1-20.7-1.3-21.3
				c7.9,7.1,7.1,23.1,7.1,23.1c2.7-14.7,13.6-23.5,15-24.6c-11,9.7-7.9,24.8-7.1,27.7c0.1,0,0.2,0.1,0.3,0.1
				c3-13.3,15.4-13.9,15.4-13.9s-6.2,9.6-8.2,16.4c3.6,1.2,7.2,2.5,10.7,3.7c10.8-7.8,7.5-25.9,7.3-26.8c6.5,7.4,6.5,19.2,5.8,25.8
				c2.9-11.4,14.1-25,14.8-25.8c-9.3,16.2-5.2,31.9-4.3,34.8c0.1,0,0.1,0.1,0.2,0.1c0.7-8.7,9.9-19.2,10.3-19.7
				c-0.3,0.9-7,22.8,0,18.4c7.1-4.5,8.7-20.7,8.7-20.7c5.5,14,0,23.5,0,23.5c10.2-6.7,12.4-31.4,12.4-31.4c8,21.8-3.8,37-3.8,37
				l-1.1,1.5c1.8,0.6,3.6,1.2,5.4,1.7c2.2-2,11.6-11.6,10.1-25.4c0,0,5.7,13.6,0.2,25.8l6.1-8.8v9.7c0,0,6.3-3.3,6.3-15.8
				c0,0,4.3,15,0.7,21.7c0.4,0.1,0.8,0.2,1.2,0.4l6-2.2c0,0-3.6-25.3,12.1-36.2c0,0-11.7,26.1-3.7,39c0,0-0.6-13.6,7.1-19.5
				c0,0-3.2,13.9,3.4,21.9l3.5-15.7l4,17.8l2.2-11.3c0,0,3.1,10.8,6.6,13.7c0,0,6.5-4.2,5.9-16.5c0,0,4.9,16.3-0.8,22.4
				c0.2,0,0.4,0.1,0.6,0.2c3.5-1,15.7-6.1,14.5-25.9c0,0,5.8,20,0.1,28.2c0.4-0.1,6.5-2.7,8.7-11.9c0,0,3.9,10.9,0.1,16.1
				c1.1,0.3,2.1,0.6,3.2,0.9c2.8-1.3,6.1-3.1,6.1-3.1s-4.6-17.5,6.2-26c0,0-5.1,22.2,3.1,30.2c0,0-3.4-11.3,1.4-17.4
				c0,0,1.2,12.3,7.5,17.8c6.4,5.6,7.3-10.7,7.3-10.7s5.3,11.1,4.1,18.3c0.2,0.1,0.4,0.1,0.7,0.2c2.3-1.6,8.8-7.2,8.3-17.8
				c0,0,3.3,13.1,1.2,20.2c0,0,0.1,0,0.1,0l5.2-9.7v9.5l4.3-17.3l1.7,20c0,0,2.4-9.8,6.3-14.3c0,0-1.2,11.6,2.8,16.3
				c0,0,8-7.5,3.1-30.2c0.4,0.7,7.9,13.9,5.8,28c-0.1,0.7-0.2,1.4-0.4,2.2c0,0,7.7-8.5,6.3-20.4c0,0,4.9,11.9,0.2,20.4l6.1,2.3
				c0,0,0.6-11.5,7.1-16.3c0,0-4,10.5-1.7,16.3c0,0,1.1-7.2,4.4-11c-0.6,1.3,0.1,9.5,1.5,13.8c2.7-0.7,8.3-3.2,8.3-10.5
				c0,0,1.4,9.4-0.8,14.5c1.2,0.2,2.3,0.5,3.5,0.7c1.1-0.7,2-1.3,2-1.3s9.3-10.4,2.8-27c0.5,0.6,11.7,13.9,4.8,28.6
				c-0.3,0.6-0.5,1.1-0.7,1.6c1.4,0.3,2.8,0.6,4.2,0.9c0.4-0.5,0.7-0.8,0.7-0.8s-0.9-12.4,5.8-18c0,0-1.9,14,3.5,19.1
				c0,0-1.2-7.3,1.7-12.4c0,0,1.1,11.1,5.8,13.9c4.7,2.7,4.1-11.2,4.1-11.2s3.9,9.1,2.4,14.2c0.2,0,0.3,0.1,0.4,0.1
				c1.7-2.2,5-8.6,2.1-21.7c0,0,8.2,10,6.6,20.5c0.8-2.6,2.6-6.6,6.9-8.2c0,0-3,6.5-1.2,12.2c1.9,0.3,3.7,0.7,5.6,1
				c1.6-3.6,2.6-9.2,2.6-9.2s2.2,6.4,1.7,10c0.1,0,0.3,0,0.4,0.1c1.7-2.1,6.5-9.5,0.8-21.6c0.5,0.5,8.7,8.6,7,22.6
				c3.7-4.1,11.2-15.2,7.2-35.7c0.4,1,9.3,23,3.5,37.9c0,0,0.1,0,0.1,0c0.9-0.3,8.7-2.8,9.6-13.5c0,0,2.2,7.9,1.3,15.4
				c2.6,0.4,5.2,0.9,7.8,1.3c0-0.1-2.5-18.1,7.2-23.7c0,0-0.8,17,3.7,25.4c2.7,0.4,5.3,0.9,8,1.3c-0.2-3.9-1-10.4,3.1-17
				c0,0,0.6,15.7,9.4,18.9l1.9,0.3c6.4-0.7,3.6-20.5,3.4-21.7c0.5,0.9,6.9,13.2,6.5,23.1c1.5,0.2,3,0.4,4.5,0.6
				c3.5-4.2,7-12.5,4.7-28.3c0,0,8.5,18.7,5.7,29.8c2.3,0.3,4.6,0.6,6.9,0.9c-0.2-6.7,0.8-16.6,6.8-21.3c0,0-3.6,12.5,1.9,22.5
				C1195.7,657.4,1197.8,657.7,1200,658z"/>
			<linearGradient id="SVGID_17_" gradientUnits="userSpaceOnUse" x1="118.3397" y1="1260.6604" x2="576.6239" y2="616.4064">
				<stop  offset="0" style="stop-color:#6B8B00"/>
				<stop  offset="1" style="stop-color:#D9E376"/>
			</linearGradient>
			<path class="st16" d="M1104.4,800H1.5V529.4c0.4,1.5,0.7,3,1,4.5c2.5-0.1,5-0.3,7.5-0.4c1.2-9.1,1.9-27-7.6-35.4
				c1.1,0.8,18.9,14.9,16.8,35c1.5-0.1,2.9-0.1,4.4-0.2c2.4-3.7,4.8-9.6,4.8-19.4c0,0,3.3,10.6,2.9,19c2.5-0.1,5-0.1,7.5-0.2
				c0.1-3.1,0.5-6.6,1.5-9.7c0,0,0.3,5,1.7,9.6c1.2,0,2.5-0.1,3.7-0.1c0.1-6.2,1.2-15.4,5.7-19.9c0,0-1.3,10.9-0.2,19.8
				c2.7-0.1,5.4-0.1,8.1-0.1c0-4.2,0.8-10.2,4.7-15.1c0,0-1,8.5,1.5,15c3.4,0,6.8-0.1,10.2-0.1c0.3-3,0.1-5.8,0.1-5.8
				s1.8,2.3,3.1,5.8h1.4c0.7-6.7,3-19.4,11.8-24.7c-0.3,0.7-6.6,14.6-2.7,24.8h2.6c0-4.3,0.6-10.5,2.8-13.4c0,0,0.3,8,2.2,13.4
				c2.1,0,4.2,0.1,6.2,0.1c0.8-4.4,0.6-10.3,0.6-10.3s2.5,5.2,3.2,10.4c1.1,0,2.2,0,3.4,0.1c1-2.5,1.8-5.7,1.3-9.5
				c0,0,2.2,5,3.1,9.6c2.8,0.1,5.5,0.2,8.3,0.2c0.9-4.9,2-15.1-2.4-22.4c0.5,0.6,7.7,9.4,8.8,18.7c0.7-4.3,2.3-9.5,6.1-12
				c0,0-3.7,9.7-1.6,16c1.5,0.1,3,0.1,4.5,0.2c0-3.2-0.8-7.4-0.8-7.9l4,8.1c0.3,0,0.6,0,0.9,0c-0.6-4.4-1-13.2,4.3-16.3
				c0,0-1.5,10.2,5.1,16.7c0,0,0,0,0,0.1c1.3,0.1,2.7,0.1,4.1,0.2c2.6-3.4,2.7-13.8,2.7-13.8s3.9,8.1,4.7,14.2
				c2.4,0.1,4.9,0.3,7.4,0.4c1.6-3,3.5-8.6,2.6-17.1c0,0,8.2,7.6,4.8,17.5c0,0,0,0,0,0c2.4,0.2,4.7,0.3,7.1,0.5c0,0,0,0,0,0
				l1.5-11.5l2.9,11.8c0.1,0,0.3,0,0.4,0c0.1-3.3,1.1-11,7.2-13.8c0,0-3,8.6-1.9,14.2c1.1,0.1,2.3,0.2,3.4,0.3
				c0.9-2.5,1.8-6.2,1.4-10.6c0,0,3,5.5,4.4,11c2.7,0.2,5.5,0.5,8.2,0.8c0,0,0-0.1,0-0.1s-2.8-10.7,5.3-17.8c0,0-1.8,13.3,2.1,18.6
				c0,0,0,0,0,0.1c0.8,0.1,1.7,0.2,2.5,0.2c1.6-2.6,1.9-10.6,1.9-10.6s3.2,6.2,2.5,11.1c1.7,0.2,3.4,0.4,5.1,0.6
				c0.4-1,3.1-8,2.3-14.1c0,0,4,8.3,3.4,14.7c2.1,0.2,4.3,0.5,6.3,0.7c-0.6-2.8-0.9-7.2,1-12c0,0,1.7,8.2,4.9,12.7
				c1.8,0.2,3.7,0.5,5.5,0.7c0.6-3.5-0.9-10.1-1.1-10.8c0.4,0.4,4.6,5.4,4.3,11.2c1.9,0.2,3.8,0.5,5.7,0.7c-0.4-5.4,0.1-12.2,4.3-16
				c0,0-1.1,11.4,1.3,16.8c1.4,0.2,2.9,0.5,4.3,0.7c1.2-3.5,1.3-10.3,1.3-10.3s3.5,6.5,3.9,11.1c3.7,0.5,7.4,1.1,11.1,1.7
				c1.2-2.7,2.5-6.3,3-10c0,0,3.6,4.9,2.3,10.8c0,0,0,0,0,0.1c1.6,0.3,3.2,0.5,4.8,0.8c0-2.3,0.6-5.7,3.1-9.5
				c-0.1,0.4-1.6,5.6,0.6,10.1c0.6,0.1,1.1,0.2,1.6,0.3c-0.2-4.2-0.2-12.9,2.9-18.5c0,0-1.2,11.4,2.2,19.4
				c4.8-4.1,7.2-16.6,7.2-16.6c2.1,7.6,0,16,0,16c3.2,0.4,6-9.3,6-9.3c1,5.7-2.5,10.1-2.5,10.1s0.2,0.8,0.5,1.9c1,0.2,2,0.4,3.1,0.6
				c0.7-8.9,5.5-16.1,6.1-16.9c-4.7,7.6-2.3,15.3-1.3,17.9c0.1,0,0.2,0.1,0.3,0.1c-0.8-5.1,2.6-9.8,2.6-9.8
				c-1.6,6.3,1.8,10.1,1.8,10.1c0.2-7.4,4.6-11.1,4.6-11.1c-2.1,4.4-1.2,9.2-1.2,9.2s0.3,1.9,0.9,3.4c1,0.2,2,0.4,3,0.6
				c0.3-0.4,0.5-0.8,0.8-1.4c3.1-6.9,0.9-16.9,0.7-17.6c4.2,5.1,3,18.3,3,18.3c2.6-2.1,3.5-12.6,3.5-12.6c1.3,6.2,0.4,11.7-0.7,15
				c1.5,0.3,3.1,0.7,4.6,1c-1.1-12.2,5.3-18.2,5.3-18.2c-5.5,10.1-0.7,16-0.7,16l1-7.4l1.2,8.2l3.5,3.6c0.2,0.1,0.4,0.1,0.6,0.2
				c0.4-9.8,6.1-16.4,6.8-17.2c-4.5,7-2.6,16.4-2.6,16.4s0.4,0.9,1,2c1.2,0.3,2.4,0.6,3.6,0.9c-0.5-9.8,7.1-21.7,7.1-21.7
				s-3.3,19.1-0.4,23.3c0.8,0.2,1.5,0.4,2.3,0.6c0.1,0,0.2-0.1,0.3-0.1c6.9-3.8,7.1-24.8,7.1-24.8c3.1,12,1.3,20.8-1.1,26.5
				c0.7,0.2,1.5,0.4,2.2,0.6c1.6,0.4,3.1,0.8,4.6,1.2c-0.1-9.6,3-17,3.4-17.8c-2.7,7.8,0.1,15.4,2.3,19.4c0.4,0.1,0.9,0.2,1.3,0.4
				c-0.4-1.8-0.6-3.5-0.6-5.1c0-12.4,10.7-24.8,11.4-25.6c-7.6,15.3-2.1,30.6-2.1,30.6l5.2-16.1c0,0-1.4,21.9,3.8,15.7
				c5.1-6.1,0.2-20.5,0-21.1c8.9,5.7,6.4,19.8,5.9,22l2.7-10l3.6,18.2c0,0,0.1,0,0.2,0.1c-0.3-10.9,8.4-22.5,8.9-23.2
				c-5.3,14,0.1,22.3,0.1,22.3c-1-8.4,7.1-16.1,7.6-16.5c-0.3,0.7-7.1,18.6,0,17c7.3-1.7,9.2-22.8,9.2-22.8c3.2,9.9,0.3,22.1,0,23.1
				l7-10.6l-3.1,14.9c0,0,1.2,3.2,2.5,6.1c1.5,0.5,3,1,4.5,1.5c0.1-1.2,0.1-2.9,0-5c-1-19.3,8.5-29.2,9-29.8
				c-8,16.1-2.8,31.4-2.8,31.4l3.5-10.7l2.8,14.9c0.4-10.8,10.8-20.1,11.4-20.7c-7.3,9.9-4.5,22.3-4.5,22.3c3-8,11.6-12.2,12.1-12.4
				c-0.5,0.8-8.3,14.6-7,18.3c0.8,0.2,1.5,0.5,2.2,0.8c0.4-0.1,0.8-0.2,1.3-0.5c10.1-5,9.2-31,9.2-31c7.4,9.5,0,28.2,0,28.2
				s0.4,3.3,0.9,7.4c0.3,0.1,0.6,0.2,0.9,0.3c0.1-0.5,0.1-1,0.1-1.5c1-14.4,12.1-23,12.8-23.5c-9.7,13.2-5.9,25.2-5.9,25.2
				c4.4-8.9,13.4-11.9,13.9-12c-0.5,0.6-10.2,14.1-4.2,15.1c6.3,1,11.5-15.9,11.5-15.9c0.3,9.5-3.7,14.8-3.7,14.8s-3.6,2.8-5.2,4.8
				c1.1,0.4,2.3,0.8,3.4,1.2c0.5-0.2,1.1-0.4,1.8-0.6c13.3-5,16.5-34.3,16.5-34.3c9.4,24.4-4.9,38.3-4.9,38.3
				c12.2,0.2,18.4-15.1,18.4-15.1c0,15.7-6.6,20.3-6.6,20.3s0.3,0.5,0.9,1.2c4.3,1.7,8.7,3.3,13,5c-2.7-17.4,5.8-32.3,6.3-33.1
				c-4.5,17.4,5.6,32.2,5.6,32.2l1-0.3c2.9-11.3,11.7-19,12.3-19.4c-0.5,1.2-12.6,30.6,0,25.5c12.9-5.1,12.5-21.8,12.5-21.8
				c4,16.9-8.2,27.3-8.2,27.3s1.8,0.9,4.7,2.8c1.7,0.7,3.4,1.3,5.1,2c2.5-15.5,16.6-26.7,16.6-26.7c-8,10.4-7.7,22.4-5.9,30.9
				c1.5,0.6,2.9,1.2,4.4,1.7c2.8-10.1,11.5-15.8,12-16.1c-0.3,0.8-4.7,13.9-4.8,19c0.8,0.3,1.7,0.6,2.5,1c4.9-4.9,9.9-23.6,9.9-23.6
				c1,7.7-1.4,22.7-2.1,26.7c0.2,0.1,0.5,0.1,0.7,0.2c8.2-8.2,7.6-40.7,7.6-40.7c8.1,12.4,4.6,31.4,2,41.1
				c3.5-8.4,10.1-16.7,10.5-17.2c-3.6,7.5-3.1,17-1.4,24.1c2,0.8,4,1.5,5.9,2.3c0.7-15.6,16.5-31.9,17.5-32.9
				c-12.3,15.5-7.3,31.3-4.1,38.1c0.6,0.2,1.2,0.5,1.7,0.7c0.1-11.4,9.6-21.5,10.2-22.2c-0.4,1-9.9,24.8,0,20.4
				c10.1-4.5,9.1-23.8,9.1-23.8c7.9,17.5,0,32.2,0,32.2c13.5-6.2,14.9-31.2,14.9-31.2c8.8,15.4,1.6,34.5,0.2,37.7
				c0.1,0,0.2,0.1,0.3,0.1c10.6-9,9.2-52.1,9.2-52.1c15.3,18.2,5.7,48.3,3.4,54.8c8.7-22.4,21.1-32,21.9-32.5
				c-10.7,16.8-7.3,33.6-5.1,40.8c0.4,0.2,0.8,0.3,1.2,0.5c0.3-11,8.3-23.5,8.3-23.5s0.3,17.4,3,27.6c1.3,0.5,2.7,1,4,1.4
				c1.2,0.4,2.4,0.9,3.6,1.3c0.6,0.2,1.2,0.5,1.8,0.7c5.8-10.6-1.7-32.9-2-33.9c12.6,11.4,11.2,36.6,11.2,36.6
				c4.3-24.2,22.8-38.3,24-39.1c-17.7,15.3-12.6,39.5-11.5,44.2c0.1,0.1,0.3,0.1,0.4,0.2c4.8-21.1,24.4-22,24.4-22
				s-9.9,15.2-13,26.1c5.7,2,11.4,4,17.1,5.9c17.1-12.3,11.9-41.1,11.6-42.6c10.3,11.7,10.3,30.5,9.3,41c2.3-8.9,7.6-18.5,12.7-26.3
				c1.3-1.9,2.5-3.7,3.7-5.4l0,0c3.7-5.3,6.7-8.9,7.1-9.4c-14.8,25.7-8.3,50.7-6.9,55.2c0.1,0.1,0.2,0.1,0.3,0.1
				c1.1-13.8,15.7-30.5,16.4-31.4c-0.4,1.4-11,36.3,0,29.3c11.3-7.1,13.8-32.9,13.8-32.9c8.5,21.8,0.4,36.8,0,37.4
				c1.4-0.9,2.7-2.1,3.9-3.4c12.8-13.8,15.8-46.5,15.8-46.5c12.7,34.7-6,58.7-6,58.7l-1.7,2.5c2.9,0.9,5.8,1.8,8.6,2.7
				c3.5-3.2,18.4-18.4,16-40.3c0,0,9.1,21.6,0.3,41l9.7-14v15.4c0,0,10-5.2,10-25.1c0,0,3.6,12.5,3.4,23.5c-0.1,4.1-0.8,8.1-2.3,11
				c0.6,0.2,1.3,0.4,1.9,0.6l9.6-3.5c0,0-3.1-21.9,5.3-40.3c3-6.5,7.4-12.6,13.9-17.1c0,0-18.6,41.5-5.9,62c0,0-0.9-21.5,11.3-31
				c0,0-5.1,22,5.4,34.9l5.5-24.9l6.4,28.2l3.5-17.9c0,0,4.9,17.2,10.6,21.8c0,0,10.3-6.7,9.3-26.1c0,0,7.8,25.8-1.3,35.5
				c0.3,0.1,0.6,0.2,0.9,0.2c5.5-1.6,24.9-9.6,23-41.1c0,0,9.3,31.7,0.2,44.7c0.6-0.2,10.3-4.2,13.9-18.9c0,0,6.1,17.3,0.2,25.5
				c1.7,0.5,3.4,0.9,5,1.4c4.5-2,9.7-4.9,9.7-4.9s-7.3-27.8,9.9-41.3c0,0-8.1,35.2,5,48c0,0-5.4-17.9,2.3-27.6c0,0,1.8,19.5,12,28.4
				C1104,799.7,1104.2,799.9,1104.4,800z"/>
		</g>
		<g>
			<linearGradient id="SVGID_18_" gradientUnits="userSpaceOnUse" x1="22.4037" y1="624.1025" x2="18.0537" y2="562.4107">
				<stop  offset="0" style="stop-color:#6B8B00"/>
				<stop  offset="1" style="stop-color:#D9E376"/>
			</linearGradient>
			<path class="st17" d="M44.3,563.7c-0.6,1.4-27.8,69-42.8,134.5v-54.1C12.1,612.8,26.3,581.3,44.3,563.7z"/>
			<linearGradient id="SVGID_19_" gradientUnits="userSpaceOnUse" x1="22.4106" y1="718.4752" x2="18.1216" y2="657.6502">
				<stop  offset="0" style="stop-color:#6B8B00"/>
				<stop  offset="1" style="stop-color:#D9E376"/>
			</linearGradient>
			<path class="st18" d="M44.3,658.9c-0.6,1.4-35.4,84-42.8,132.7v-52.3C7.7,711.5,20,679.6,44.3,658.9z"/>
			<linearGradient id="SVGID_20_" gradientUnits="userSpaceOnUse" x1="25.8556" y1="769.0396" x2="23.9481" y2="741.9885">
				<stop  offset="0" style="stop-color:#6B8B00"/>
				<stop  offset="1" style="stop-color:#D9E376"/>
			</linearGradient>
			<path class="st19" d="M39.1,742.3c0,0,2.4,31.2-0.5,57.7H12.9C21.9,784.8,33.6,762.5,39.1,742.3z"/>
			<linearGradient id="SVGID_21_" gradientUnits="userSpaceOnUse" x1="80.9171" y1="735.2031" x2="76.9545" y2="679.0063">
				<stop  offset="0" style="stop-color:#6B8B00"/>
				<stop  offset="1" style="stop-color:#D9E376"/>
			</linearGradient>
			<path class="st20" d="M100.5,800H56.1c18.5-23.1,42.3-63.2,46.7-119.9C102.8,680.1,121,750.3,100.5,800z"/>
			<linearGradient id="SVGID_22_" gradientUnits="userSpaceOnUse" x1="153.9123" y1="696.8433" x2="147.6808" y2="608.4697">
				<stop  offset="0" style="stop-color:#6B8B00"/>
				<stop  offset="1" style="stop-color:#D9E376"/>
			</linearGradient>
			<path class="st21" d="M207.6,703.7c0,0-31.4,47.3-40.7,96.3h-59c20.1-25.4,50.3-82.1,41.8-187.2c0,0,22.9,68.7,0.7,174.2
				C159.5,760.2,176.6,724.8,207.6,703.7z"/>
			<linearGradient id="SVGID_23_" gradientUnits="userSpaceOnUse" x1="195.8083" y1="772.5839" x2="194.1401" y2="748.9264">
				<stop  offset="0" style="stop-color:#6B8B00"/>
				<stop  offset="1" style="stop-color:#D9E376"/>
			</linearGradient>
			<path class="st22" d="M216.6,748.6c-0.4,0.9-10.8,25.4-14.5,51.4h-26.8C184.6,782.3,199.2,759.3,216.6,748.6z"/>
			<linearGradient id="SVGID_24_" gradientUnits="userSpaceOnUse" x1="249.1049" y1="756.0913" x2="246.4344" y2="718.218">
				<stop  offset="0" style="stop-color:#6B8B00"/>
				<stop  offset="1" style="stop-color:#D9E376"/>
			</linearGradient>
			<path class="st23" d="M230.9,800c17.7-34.4,36.9-81.4,36.9-81.4s-2.1,45.5-8.9,81.4H230.9z"/>
			<linearGradient id="SVGID_25_" gradientUnits="userSpaceOnUse" x1="297.4986" y1="754.3228" x2="294.7018" y2="714.6583">
				<stop  offset="0" style="stop-color:#6B8B00"/>
				<stop  offset="1" style="stop-color:#D9E376"/>
			</linearGradient>
			<path class="st24" d="M302.3,716.2c0,0,14.6,46.4,9.9,83.8h-25.4C295.3,782.3,301.9,755.8,302.3,716.2z"/>
			<linearGradient id="SVGID_26_" gradientUnits="userSpaceOnUse" x1="332.992" y1="776.1306" x2="331.5202" y2="755.2577">
				<stop  offset="0" style="stop-color:#6B8B00"/>
				<stop  offset="1" style="stop-color:#D9E376"/>
			</linearGradient>
			<path class="st25" d="M343.1,800h-18.3c6.6-12.2,11.9-27.3,11.3-44C336.1,756,346.4,777.6,343.1,800z"/>
		</g>
	</g>
</g>
<g>
	<g>
		<g>
			<path class="st26" d="M968.2,552c0,0-8.1,8.5-5.7,10.4s7.9-8.6,7.9-8.6s3.7,8.6,5.7,7.5c2-1.1-3.1-8.5-3.1-8.5s9,3.2,9.6,0.7
				c0.6-2.5-9.5-2.9-9.5-2.9s7.4-4.4,6.8-6.2c-0.6-1.8-8.7,4.4-8.7,4.4s-0.3-4.9-1.9-5.5c-1.6-0.6-0.5,6.1-0.5,6.1s-9.2-0.9-8.9,1.9
				C960.1,553.9,968.2,552,968.2,552z"/>
			<path class="st27" d="M1053.7,440.2c0,0-8.1,8.5-5.7,10.4c2.4,1.9,7.9-8.6,7.9-8.6s3.7,8.6,5.7,7.5c2-1.1-3.1-8.5-3.1-8.5
				s9,3.2,9.6,0.7c0.6-2.5-9.5-2.9-9.5-2.9s7.4-4.4,6.8-6.2c-0.6-1.8-8.7,4.4-8.7,4.4s-0.3-4.9-1.9-5.5c-1.6-0.6-0.5,6.1-0.5,6.1
				s-9.2-0.9-8.9,1.9C1045.6,442,1053.7,440.2,1053.7,440.2z"/>
			<path class="st26" d="M1127.8,540.9c0,0-10.2,4.2-8.6,7.1c1.7,2.9,10.1-4.4,10.1-4.4s0.7,9.6,2.9,9.5c2.2-0.1-0.2-9.3-0.2-9.3
				s7.3,7,8.6,4.9c1.3-2-7.9-7-7.9-7s8.2-0.8,8.3-2.7c0-1.9-9.4,0.2-9.4,0.2s1.3-4.7,0-6c-1.3-1.3-2.4,5.4-2.4,5.4s-8.3-5-8.9-2.3
				C1119.7,539,1127.8,540.9,1127.8,540.9z"/>
		</g>
		<g>
			<path class="st26" d="M342.3,660.5c0,0-21.2,12.7-16.9,18.4c4.3,5.6,20.8-13.1,20.8-13.1s3.9,20.6,8.6,19.7
				c4.7-0.9-2.8-20.1-2.8-20.1s17.7,12.6,20,7.7c2.4-4.9-18.9-12.5-18.9-12.5s17.7-4.6,17.3-8.8c-0.4-4.2-20.4,3.7-20.4,3.7
				s1.6-10.6-1.6-13s-3.9,12.6-3.9,12.6s-19.2-8-19.8-1.9C324.2,659.2,342.3,660.5,342.3,660.5z"/>
			<path class="st26" d="M104.3,584.2c0,0-17.9,6.4-15.2,11.4c2.7,5.1,17.7-6.7,17.7-6.7s0.7,16.6,4.4,16.7
				c3.8,0.1,0.2-16.1,0.2-16.1s12.2,12.7,14.6,9.3c2.4-3.4-13.2-12.8-13.2-12.8s14.2-0.6,14.4-4c0.2-3.3-16.3-0.5-16.3-0.5
				s2.4-8,0.3-10.4c-2.2-2.4-4.5,9.1-4.5,9.1s-14-9.3-15.2-4.7C90.5,580.2,104.3,584.2,104.3,584.2z"/>
			<path class="st26" d="M515,630.4c0,0-13.3,4.7-11.3,8.5c2,3.7,13.1-5,13.1-5s0.5,12.3,3.3,12.3c2.8,0,0.1-11.9,0.1-11.9
				s9.1,9.4,10.8,6.8c1.8-2.5-9.7-9.4-9.7-9.4s10.5-0.5,10.7-2.9c0.1-2.5-12-0.3-12-0.3s1.8-5.9,0.2-7.7s-3.3,6.7-3.3,6.7
				s-10.3-6.9-11.2-3.5C504.8,627.4,515,630.4,515,630.4z"/>
			<path class="st26" d="M329.2,479.9c0,0-10.7,3.8-9.1,6.9c1.6,3,10.6-4,10.6-4s0.4,10,2.6,10c2.3,0,0.1-9.6,0.1-9.6
				s7.3,7.6,8.8,5.5c1.4-2-7.9-7.6-7.9-7.6s8.5-0.4,8.6-2.4c0.1-2-9.7-0.3-9.7-0.3s1.5-4.8,0.2-6.2c-1.3-1.4-2.7,5.4-2.7,5.4
				s-8.4-5.6-9.1-2.8S329.2,479.9,329.2,479.9z"/>
			<path class="st26" d="M642.1,456.3c0,0-3.8,3.1-2.9,4.1c1,1,3.7-3.2,3.7-3.2s1.2,3.9,2.1,3.5c0.9-0.3-1-3.8-1-3.8s3.7,1.9,4,0.9
				c0.3-1-3.9-1.8-3.9-1.8s3.3-1.4,3.1-2.2c-0.2-0.8-3.9,1.4-3.9,1.4s0.1-2.1-0.6-2.5c-0.7-0.4-0.5,2.5-0.5,2.5s-3.9-0.9-3.9,0.3
				C638.6,456.7,642.1,456.3,642.1,456.3z"/>
			<path class="st26" d="M752,409.5c0,0-4.5,1.2-3.9,2.5s4.5-1.3,4.5-1.3s-0.1,4.1,0.8,4.2c0.9,0.1,0.3-4,0.3-4s2.8,3.4,3.5,2.6
				c0.6-0.8-3-3.4-3-3.4s3.5,0.2,3.6-0.7c0.1-0.8-4-0.5-4-0.5s0.7-1.9,0.2-2.6c-0.5-0.6-1.3,2.1-1.3,2.1s-3.3-2.6-3.7-1.5
				C748.6,408.2,752,409.5,752,409.5z"/>
			<path class="st26" d="M641.3,547.9c0,0-13.3,4.7-11.3,8.5c2,3.7,13.1-5,13.1-5s0.5,12.3,3.3,12.3c2.8,0,0.1-11.9,0.1-11.9
				s9.1,9.4,10.8,6.8c1.8-2.5-9.7-9.4-9.7-9.4s10.5-0.5,10.7-2.9c0.1-2.5-12-0.3-12-0.3s1.8-5.9,0.2-7.7c-1.6-1.8-3.3,6.7-3.3,6.7
				s-10.3-6.9-11.2-3.5C631.1,544.9,641.3,547.9,641.3,547.9z"/>
			<path class="st26" d="M504.4,758.1c0,0-10.6,10.6-7.5,13.1c3.1,2.5,10.3-10.7,10.3-10.7s4.5,11.1,7.1,9.8c2.6-1.3-3.8-11-3.8-11
				s11.4,4.3,12.2,1.2c0.8-3.1-12.1-4.1-12.1-4.1s9.5-5.4,8.8-7.7c-0.7-2.3-11.2,5.4-11.2,5.4s-0.3-6.3-2.4-7.1
				c-2-0.9-0.8,7.8-0.8,7.8s-11.8-1.4-11.4,2.1C494,760.3,504.4,758.1,504.4,758.1z"/>
			<path class="st26" d="M993.1,687.7c0,0-15.2,15.2-10.8,18.8c4.4,3.6,14.8-15.4,14.8-15.4s6.5,15.9,10.2,14
				c3.7-1.8-5.5-15.8-5.5-15.8s16.4,6.2,17.6,1.7c1.1-4.5-17.4-5.8-17.4-5.8s13.7-7.8,12.7-11.1c-1-3.3-16,7.7-16,7.7
				s-0.4-9-3.4-10.3c-2.9-1.2-1.2,11.1-1.2,11.1s-16.9-2.1-16.5,3C978.2,690.8,993.1,687.7,993.1,687.7z"/>
		</g>
	</g>
	<path class="st27" d="M744.3,494.6c0,0-1.4-4.4-2.9-3.4c-1.4,1,1.9,3.7,1.9,3.7s-3.6-1-3.9,0.8c-0.3,1.8,4.3,0,4.3,0s0.1,4.3,2,3.7
		c1.8-0.6-1.2-3.8-1.2-3.8s4.1,0.1,3.7-1.3C747.8,492.7,745.2,494,744.3,494.6z"/>
	<g>
		<path class="st27" d="M1073.9,577.4c0,0-5.1-4.9-6.5-2c-1.3,2.8,5.3,3.3,5.3,3.3s-5.9,2.1-5,5c0.8,2.9,6-4.2,6-4.2
			s3.2,5.9,5.3,3.2c2.2-2.7-4.3-4.3-4.3-4.3s5.9-4,4.4-5.6C1077.7,571.2,1074.8,575.6,1073.9,577.4z"/>
		<path class="st27" d="M839.9,768.8c0,0-11.7-11-14.7-4.6c-3,6.5,12,7.5,12,7.5s-13.3,4.8-11.5,11.5c1.9,6.6,13.7-9.6,13.7-9.6
			s7.2,13.4,12.2,7.3c4.9-6.1-9.8-9.7-9.8-9.7s13.4-9,9.9-12.8S841.8,764.6,839.9,768.8z"/>
		<path class="st27" d="M314.3,614.7c0,0-6.3-12.9-10.3-9c-4,3.9,7.4,10.3,7.4,10.3s-11.7-1.2-11.9,4.7c-0.3,5.8,13.2-2.4,13.2-2.4
			s2.1,13.2,7.6,10.2c5.4-2.9-5.1-11.2-5.1-11.2s12.8-2,11.1-6.3C324.5,606.8,316.9,612.2,314.3,614.7z"/>
		<path class="st27" d="M648.5,706.3c0,0,7.3-9.2,10-5c2.7,4.2-7.9,6.7-7.9,6.7s9.8,1.8,9.1,6.7s-10.5-5.1-10.5-5.1s-4,10.4-8,6.7
			c-4-3.7,6.1-8.1,6.1-8.1s-10.2-4.7-8.1-7.8C641.4,697.3,646.8,703.5,648.5,706.3z"/>
		<path class="st27" d="M396.1,493.7c0,0-4.9-6.7-6.9-3.9c-2,2.8,5.3,5,5.3,5s-6.9,0.9-6.5,4.4c0.4,3.5,7.5-3.2,7.5-3.2
			s2.5,7.4,5.4,4.9c2.9-2.5-4-5.9-4-5.9s7.3-2.9,5.9-5.2C401.4,487.7,397.4,491.8,396.1,493.7z"/>
	</g>
</g>
</svg>
