<svg xmlns="http://www.w3.org/2000/svg" xmlns:xlink="http://www.w3.org/1999/xlink" viewBox="0 0 254.70474 205.02141"><defs><style>.cls-1{fill:none;}.cls-2{fill:#231f20;}.cls-3{fill:#f2efe8;}.cls-14,.cls-17,.cls-26,.cls-3{mix-blend-mode:multiply;}.cls-4{fill:#3e2508;mix-blend-mode:screen;}.cls-5{isolation:isolate;}.cls-6{fill:#845e40;}.cls-7{fill:#a37b60;}.cls-8{opacity:0.09;fill:url(#_10_dpi_20_);}.cls-9{fill:#bc8867;}.cls-10{fill:#9aaa57;}.cls-11{fill:url(#New_Pattern_6);}.cls-12{clip-path:url(#clip-path);}.cls-13{fill:#8ea164;}.cls-14{fill:#eae8e5;}.cls-15{fill:#996d4f;}.cls-16{fill:#81b06e;}.cls-17{fill:#f1f2f2;}.cls-18{fill:#7c250b;}.cls-19{fill:#fbbe68;}.cls-20{fill:#7f8182;}.cls-21{fill:#eaaa5e;}.cls-22{fill:#c54327;}.cls-23{fill:#d8503a;}.cls-24{fill:#603913;}.cls-25{fill:#892a1c;}.cls-27{fill:#e9e5d9;}.cls-28{fill:#ccc;}.cls-29{fill:#93b8c7;}.cls-30{fill:#f6f1f0;}.cls-31{fill:#b2ac60;}.cls-32{fill:#bfbb68;}</style><pattern id="_10_dpi_20_" data-name="10 dpi 20%" width="28.79977" height="28.80075" patternTransform="translate(-27.9841 23.95172) scale(1.15055 1.07368)" patternUnits="userSpaceOnUse" viewBox="0 0 28.8 28.801"><rect class="cls-1" width="28.79977" height="28.80075"/><path class="cls-2" d="M28.79977,30.2402a1.43946,1.43946,0,1,0-1.4404-1.43945A1.43953,1.43953,0,0,0,28.79977,30.2402Z"/><path class="cls-2" d="M14.39937,30.2402A1.43946,1.43946,0,1,0,12.96,28.80075,1.44038,1.44038,0,0,0,14.39937,30.2402Z"/><path class="cls-2" d="M28.79977,15.8418a1.44045,1.44045,0,1,0-1.4404-1.4414A1.4412,1.4412,0,0,0,28.79977,15.8418Z"/><path class="cls-2" d="M14.39937,15.8418A1.44045,1.44045,0,1,0,12.96,14.4004,1.44206,1.44206,0,0,0,14.39937,15.8418Z"/><path class="cls-2" d="M7.19922,23.041a1.44044,1.44044,0,1,0-1.43945-1.43945A1.44039,1.44039,0,0,0,7.19922,23.041Z"/><path class="cls-2" d="M21.59957,23.041a1.44044,1.44044,0,1,0-1.4404-1.43945A1.44038,1.44038,0,0,0,21.59957,23.041Z"/><path class="cls-2" d="M7.19922,8.6406A1.44045,1.44045,0,1,0,5.75977,7.2011,1.44038,1.44038,0,0,0,7.19922,8.6406Z"/><path class="cls-2" d="M21.59957,8.6406a1.44045,1.44045,0,1,0-1.4404-1.4395A1.44037,1.44037,0,0,0,21.59957,8.6406Z"/><path class="cls-2" d="M0,30.2402a1.43953,1.43953,0,0,0,1.43945-1.43945A1.43954,1.43954,0,0,0,0,27.36129a1.43975,1.43975,0,0,0-1.44043,1.43946A1.43974,1.43974,0,0,0,0,30.2402Z"/><path class="cls-2" d="M0,15.8418a1.44121,1.44121,0,0,0,1.43945-1.4414A1.43953,1.43953,0,0,0,0,12.9609a1.43974,1.43974,0,0,0-1.44043,1.4395A1.44142,1.44142,0,0,0,0,15.8418Z"/><path class="cls-2" d="M28.79977,1.4394A1.4395,1.4395,0,0,0,30.23927,0a1.43952,1.43952,0,0,0-1.4395-1.4395A1.43971,1.43971,0,0,0,27.35937,0,1.43969,1.43969,0,0,0,28.79977,1.4394Z"/><path class="cls-2" d="M14.39937,1.4394A1.44035,1.44035,0,0,0,15.83987,0a1.44037,1.44037,0,0,0-1.4405-1.4395A1.43886,1.43886,0,0,0,12.96,0,1.43884,1.43884,0,0,0,14.39937,1.4394Z"/><path class="cls-2" d="M0,1.4394A1.4395,1.4395,0,0,0,1.43945,0,1.43953,1.43953,0,0,0,0-1.4395,1.43974,1.43974,0,0,0-1.44043,0,1.43971,1.43971,0,0,0,0,1.4394Z"/></pattern><pattern id="New_Pattern_6" data-name="New Pattern 6" width="24.125" height="24.125" patternTransform="translate(-10.50617 -12.20401) scale(1.15055 1.07368)" patternUnits="userSpaceOnUse" viewBox="0 0 24.125 24.125"><rect class="cls-1" width="24.125" height="24.125"/><rect class="cls-3" x="2.125" y="0.5417" width="5.44596" height="1.3411"/><rect class="cls-4" x="3.59044" y="19.724" width="5.44596" height="1.3411"/><rect class="cls-4" x="1.70833" y="14.6667" width="1.70264" height="1.3411"/><rect class="cls-3" x="20.1875" y="1.7084" width="1.7026" height="1.3411"/><rect class="cls-3" y="9.1459" width="1.70264" height="1.3411"/><rect class="cls-3" x="16.3548" y="17.0417" width="3.5799" height="1.3411"/><circle class="cls-3" cx="18.3333" cy="10.2084" r="0.75"/><circle class="cls-4" cx="5.59798" cy="9.8164" r="0.75"/><path class="cls-3" d="M11.4384,15.625a.75.75,0,1,1-.75-.75A.75.75,0,0,1,11.4384,15.625Z"/><circle class="cls-3" cx="14.0833" cy="23.5834" r="0.75"/><circle class="cls-3" cx="14.0833" cy="-0.5416" r="0.75"/></pattern><clipPath id="clip-path" transform="translate(-20 -23)"><path id="SVGID" class="cls-1" d="M272.07352,154.49759c3.49215,1.88148,3.51064,4.93182.041,6.81341L176.434,213.19907a14.7793,14.7793,0,0,1-12.60482.00011L22.65709,137.13949c-3.49227-1.88148-3.51065-4.93181-.04113-6.8134L118.29654,78.4379a14.78,14.78,0,0,1,12.605,0Z"/></clipPath></defs><g class="cls-5"><g id="Layer_1" data-name="Layer 1"><path class="cls-6" d="M20.02581,138.646c-.00375,1.24085.87389,2.48362,2.63128,3.43049l141.17206,76.05969a14.7793,14.7793,0,0,0,12.60482-.00011l95.68056-51.88819c1.72368-.93472,2.5865-2.15785,2.59015-3.38291l-.02568,8.47415c-.00377,1.225-.86659,2.44819-2.59015,3.38292L176.4083,226.61026a14.77959,14.77959,0,0,1-12.605,0L22.63129,150.55057c-1.75739-.94676-2.635-2.18953-2.63128-3.43038Z" transform="translate(-20 -23)"/><path class="cls-7" d="M20.02581,133.70912c-.00375,1.24084.87389,2.48362,2.63128,3.43037l141.17206,76.05969a14.7793,14.7793,0,0,0,12.60482-.00011l95.68056-51.88819c1.72368-.9346,2.5865-2.15785,2.59015-3.38291l-.02568,8.47415c-.00377,1.22506-.86659,2.44819-2.59015,3.38292L176.4083,221.67322a14.7792,14.7792,0,0,1-12.605,0L22.63129,145.61365c-1.75739-.94688-2.635-2.18965-2.63128-3.4305Z" transform="translate(-20 -23)"/><path class="cls-8" d="M20.02581,133.70912c-.00375,1.24084.87389,2.48362,2.63128,3.43037l141.17206,76.05969a14.7793,14.7793,0,0,0,12.60482-.00011l95.68056-51.88819c1.72368-.9346,2.5865-2.15785,2.59015-3.38291l-.02568,8.47415c-.00377,1.22506-.86659,2.44819-2.59015,3.38292L176.4083,221.67322a14.7792,14.7792,0,0,1-12.605,0L22.63129,145.61365c-1.75739-.94688-2.635-2.18965-2.63128-3.4305Z" transform="translate(-20 -23)"/><path class="cls-9" d="M22.65709,137.13949l141.17206,76.05969a14.7793,14.7793,0,0,0,12.60482-.00011l95.68056-51.88819c1.6267-.88214,2.47674-2.02148,2.57153-3.17648l-.00706,2.30876c-.00377,1.22506-.86659,2.44819-2.59015,3.38291L176.4083,215.71426a14.77959,14.77959,0,0,1-12.605.00011L22.63129,139.65468c-1.66114-.895-2.52615-2.05452-2.61376-3.2269l.00828-2.71866C20.02206,134.95,20.8997,136.19274,22.65709,137.13949Z" transform="translate(-20 -23)"/><path class="cls-10" d="M272.07352,154.49759c3.49215,1.88148,3.51064,4.93182.041,6.81341L176.434,213.19907a14.7793,14.7793,0,0,1-12.60482.00011L22.65709,137.13949c-3.49227-1.88148-3.51065-4.93181-.04113-6.8134L118.29654,78.4379a14.78,14.78,0,0,1,12.605,0Z" transform="translate(-20 -23)"/><path class="cls-11" d="M272.07352,154.49759c3.49215,1.88148,3.51064,4.93182.041,6.81341L176.434,213.19907a14.7793,14.7793,0,0,1-12.60482.00011L22.65709,137.13949c-3.49227-1.88148-3.51065-4.93181-.04113-6.8134L118.29654,78.4379a14.78,14.78,0,0,1,12.605,0Z" transform="translate(-20 -23)"/><g class="cls-12"><polygon class="cls-13" points="81.953 80.949 81.963 84.205 84.735 85.708 84.726 82.452 81.953 80.949"/></g><path class="cls-14" d="M168.51787,227.94149a12.67831,12.67831,0,0,1-4.71452-1.33123L22.63129,150.55057c-1.75739-.94676-2.635-2.18953-2.63128-3.43038l.01448-4.76842c-.00338-.0562-.0146-.1123-.01448-.16862l.0258-8.474c-.00375,1.24084.87389,2.48362,2.63128,3.43037l141.17206,76.05969a12.66216,12.66216,0,0,0,4.68872,1.32919Z" transform="translate(-20 -23)"/><path class="cls-15" d="M52.73955,105.43106V128.44s-.72252.39015-1.29026.69843V105.43106Z" transform="translate(-20 -23)"/><path class="cls-6" d="M51.44929,105.43106v23.70732c-.573-.30828-1.2904-.69843-1.2904-.69843V105.43106Z" transform="translate(-20 -23)"/><path class="cls-16" d="M57.69743,111.08049a6.56024,6.56024,0,0,1-4.54454,3.31309,6.66685,6.66685,0,0,1-6.39075-2.518c-3.63548.45691-6.85762-1.61033-7.52685-4.37339a5.73352,5.73352,0,0,1,2.27233-5.6986,7.07724,7.07724,0,0,1-2.69832-8.08412,7.64948,7.64948,0,0,1,4.54453-4.10837,7.53787,7.53787,0,0,1,5.68064-5.16856,8.08615,8.08615,0,0,1,7.81088,2.518A5.734,5.734,0,0,1,61.816,90.67127a5.41076,5.41076,0,0,1-1.13622,5.036A4.63094,4.63094,0,0,1,62.526,99.81569a4.5301,4.5301,0,0,1-2.98232,3.57821,4.33337,4.33337,0,0,1,2.41433,2.65054C62.3662,107.97622,60.68449,110.33835,57.69743,111.08049Z" transform="translate(-20 -23)"/><path class="cls-17" d="M62.52608,99.81557a4.63142,4.63142,0,0,0-1.84621-4.10825,5.41118,5.41118,0,0,0,1.1361-5.036,5.734,5.734,0,0,0-4.97062-3.71073,7.73936,7.73936,0,0,0-2.571-1.93428A18.509,18.509,0,0,1,57.279,95.29389c0,8.91017-5.91,16.16119-13.28731,16.44052a7.898,7.898,0,0,0,2.7706.14114,6.66652,6.66652,0,0,0,6.39062,2.518,6.56,6.56,0,0,0,4.54454-3.3132c2.98706-.742,4.66877-3.10416,4.26054-5.03594a4.33337,4.33337,0,0,0-2.41433-2.65054A4.53045,4.53045,0,0,0,62.52608,99.81557Z" transform="translate(-20 -23)"/><polygon class="cls-18" points="30.481 72.113 122.178 22.385 176.262 0 84.565 49.728 30.481 72.113"/><polygon class="cls-19" points="106.202 30.318 124.542 20.373 124.231 122.539 105.892 132.485 106.202 30.318"/><polygon class="cls-20" points="91.217 22.244 109.556 12.299 124.542 20.373 106.202 30.318 91.217 22.244"/><polygon class="cls-21" points="106.202 30.318 105.892 132.485 90.907 124.411 91.217 22.244 106.202 30.318"/><polygon class="cls-22" points="108.456 22.379 126.796 12.433 126.768 21.572 108.429 31.518 108.456 22.379"/><polygon class="cls-23" points="89.027 11.911 107.366 1.965 126.796 12.433 108.456 22.379 89.027 11.911"/><polygon class="cls-24" points="95.813 12.005 107.562 5.633 120.009 12.339 108.26 18.711 95.813 12.005"/><polygon class="cls-25" points="95.813 12.005 107.562 5.633 120.009 12.339 108.26 18.711 95.813 12.005"/><polygon class="cls-25" points="108.456 22.379 108.429 31.518 88.999 21.05 89.027 11.911 108.456 22.379"/><polygon class="cls-22" points="107.562 18.334 107.562 5.633 95.813 12.005 107.562 18.334"/><polygon class="cls-21" points="132.039 126.776 131.893 175.151 36.631 123.827 36.778 75.452 132.039 126.776"/><polygon class="cls-19" points="132.039 126.776 223.736 77.048 223.589 125.423 131.893 175.151 132.039 126.776"/><polygon class="cls-21" points="84.542 57.424 132.065 126.754 36.778 75.452 84.542 57.424"/><g class="cls-26"><polygon class="cls-27" points="79.022 59.507 90.038 65.442 89.222 64.252 79.841 59.198 79.022 59.507"/><polygon class="cls-27" points="113.62 99.845 55.34 68.446 54.521 68.755 114.435 101.035 113.62 99.845"/><polygon class="cls-27" points="101.421 82.049 67.59 63.822 66.772 64.131 102.236 83.238 101.421 82.049"/><polygon class="cls-27" points="125.819 117.642 43.089 73.07 42.27 73.379 126.634 118.831 125.819 117.642"/><polygon class="cls-27" points="132.219 143.538 36.728 92.091 36.725 92.839 132.045 144.195 132.22 144.289 223.683 94.689 223.685 93.935 132.219 143.538"/><polygon class="cls-27" points="132.219 165.987 36.66 114.503 36.657 115.251 132.045 166.643 132.22 166.738 223.614 117.174 223.617 116.421 132.219 165.987"/><polygon class="cls-27" points="132.219 132.314 36.762 80.885 36.759 81.633 132.045 132.971 132.22 133.066 223.717 83.447 223.719 82.693 132.219 132.314"/><polygon class="cls-27" points="132.219 154.762 36.694 103.297 36.691 104.045 132.045 155.419 132.22 155.514 223.649 105.931 223.651 105.178 132.219 154.762"/></g><polygon class="cls-28" points="84.542 57.424 176.238 7.696 223.761 77.026 132.065 126.754 84.542 57.424"/><polygon class="cls-22" points="84.565 49.728 176.262 0 230.731 80.817 139.034 130.544 84.565 49.728"/><polygon class="cls-25" points="84.565 49.728 139.034 130.544 132.065 126.754 84.542 57.424 36.745 75.398 30.481 72.113 84.565 49.728"/><polygon class="cls-29" points="81.687 76.36 81.673 81.045 77.586 78.843 77.601 74.158 81.687 76.36"/><polygon class="cls-29" points="81.67 81.998 81.656 86.692 77.569 84.491 77.583 79.796 81.67 81.998"/><g class="cls-5"><polygon class="cls-29" points="86.588 84.648 86.574 89.342 82.487 87.14 82.501 82.446 86.588 84.648"/><polygon class="cls-29" points="86.605 79.01 86.591 83.695 82.504 81.493 82.518 76.808 86.605 79.01"/><path class="cls-30" d="M96.77275,95.74853l10.66577,5.74641-.03723,12.24756L96.73552,107.996Zm9.80077,16.59336.01436-4.69416-4.087-2.20191-.01424,4.69416,4.08691,2.20191m-4.91748-2.64951.01424-4.69417-4.08691-2.20191-.01436,4.69417,4.087,2.20191m4.93463-2.99765.01424-4.68531L102.518,99.80751l-.01423,4.68531,4.0869,2.20191m-4.9176-2.64952.01424-4.6853L97.6004,97.158l-.01423,4.6853,4.0869,2.20191" transform="translate(-20 -23)"/></g><polygon class="cls-29" points="174.54 122.698 174.56 129.12 168.961 132.137 168.941 125.715 174.54 122.698"/><polygon class="cls-29" points="174.563 130.421 174.583 136.843 168.984 139.86 168.965 133.437 174.563 130.421"/><polygon class="cls-29" points="167.803 126.328 167.823 132.75 162.232 135.762 162.213 129.34 167.803 126.328"/><polygon class="cls-29" points="167.827 134.051 167.846 140.473 162.256 143.485 162.236 137.063 167.827 134.051"/><path class="cls-30" d="M181.07086,151.64358l14.60313-7.86781.051,16.76356-14.60326,7.86781Zm13.48857.4769-.01947-6.42213-5.59875,3.01639.01959,6.42224,5.59863-3.0165m.02348,7.72258-.01947-6.422-5.59875,3.01638.01947,6.42213,5.59875-3.0165m-6.76016-4.09293-.01959-6.42224-5.59036,3.012.01947,6.42224,5.59048-3.012m.02336,7.72258-.01947-6.42212-5.59035,3.012.01946,6.42212,5.59036-3.012" transform="translate(-20 -23)"/><polygon class="cls-29" points="110.702 125.773 110.683 132.195 105.092 129.183 105.112 122.761 110.702 125.773"/><polygon class="cls-29" points="110.679 133.495 110.659 139.917 105.069 136.905 105.088 130.483 110.679 133.495"/><polygon class="cls-29" points="103.974 122.147 103.954 128.57 98.356 125.553 98.375 119.131 103.974 122.147"/><path class="cls-30" d="M117.24111,140.20845l14.60326,7.86781-.051,16.76345-14.60314-7.86781Zm6.7132,11.361.01947-6.42212-5.59863-3.01639-.01959,6.42213,5.59875,3.01638m-.02349,7.72258.01959-6.42212-5.59875-3.0165-.01946,6.42224,5.59862,3.01638m6.752-4.09747.01947-6.42212-5.59035-3.012-.01959,6.42213,5.59047,3.01195m-.02348,7.72259.01947-6.42213-5.59036-3.012-.01959,6.42213,5.59048,3.012" transform="translate(-20 -23)"/><polygon class="cls-29" points="103.95 129.87 103.931 136.292 98.332 133.276 98.352 126.854 103.95 129.87"/><path class="cls-22" d="M89.95367,125.45309l18.78985,10.12342-.11986,39.45044L89.83382,164.90352Zm17.64924,26.78173.04818-15.82827-16.60524-8.9464-.048,15.82827,16.6051,8.9464m-.063,20.78064.04806-15.8193-16.60525-8.9464-.04806,15.8193,16.60525,8.9464" transform="translate(-20 -23)"/><polygon class="cls-25" points="87.588 134.196 87.54 150.015 70.935 141.069 70.983 125.25 87.588 134.196"/><polygon class="cls-25" points="87.651 113.407 87.603 129.235 70.998 120.288 71.046 104.46 87.651 113.407"/><polygon class="cls-29" points="57.599 104.897 57.579 111.319 51.989 108.307 52.009 101.885 57.599 104.897"/><path class="cls-30" d="M64.16119,111.61042l14.60325,7.86781-.051,16.76344-14.60314-7.8678Zm6.71331,11.36109.01947-6.42212-5.59875-3.0165-.01959,6.42212,5.59887,3.0165m-.02348,7.72258.01947-6.42224-5.59875-3.01649-.01947,6.42223,5.59875,3.0165m6.75189-4.09747.01947-6.42223-5.59045-3.012-.01947,6.42224,5.59045,3.01195m-.02349,7.72247.01947-6.42212-5.59035-3.012-.01959,6.42212,5.59047,3.012" transform="translate(-20 -23)"/><polygon class="cls-29" points="57.622 97.174 57.603 103.597 52.013 100.585 52.032 94.163 57.622 97.174"/><polygon class="cls-29" points="50.894 93.549 50.875 99.972 45.276 96.955 45.295 90.533 50.894 93.549"/><polygon class="cls-29" points="50.871 101.272 50.851 107.694 45.252 104.678 45.272 98.256 50.871 101.272"/><polygon class="cls-18" points="106.179 38.006 91.217 41.574 89.402 45.855 91.355 46.046 106.179 38.006"/><polygon class="cls-29" points="194.599 119.626 194.619 126.048 189.02 129.065 189 122.643 194.599 119.626"/><path class="cls-30" d="M207.83494,137.22386l14.60325-7.86781.05087,16.76345-14.60314,7.86781Zm6.76028,4.1019-.01947-6.42213L208.977,137.92l.01959,6.42224,5.59863-3.0165m.02349,7.72258-.01947-6.422-5.59875,3.01638.01947,6.42213,5.59875-3.0165m6.705-11.3477-.01959-6.42212-5.59036,3.012.01947,6.42212,5.59048-3.012m.02336,7.72259-.01947-6.422-5.59035,3.012.01947,6.422,5.59035-3.012" transform="translate(-20 -23)"/><polygon class="cls-29" points="201.328 116.001 201.347 122.423 195.757 125.435 195.737 119.013 201.328 116.001"/><polygon class="cls-29" points="201.304 108.279 201.324 114.701 195.733 117.713 195.714 111.29 201.304 108.279"/><polygon class="cls-29" points="194.576 111.904 194.595 118.326 188.997 121.342 188.977 114.92 194.576 111.904"/><path class="cls-15" d="M210.09315,165.22089v23.009s-.72264.39015-1.29039.69832V165.22089Z" transform="translate(-20 -23)"/><path class="cls-6" d="M208.80276,165.22089v23.70732c-.57286-.30817-1.29039-.69832-1.29039-.69832v-23.009Z" transform="translate(-20 -23)"/><path class="cls-16" d="M215.051,170.87032a6.56061,6.56061,0,0,1-4.54454,3.3132,6.667,6.667,0,0,1-6.39075-2.518c-3.6356.45681-6.85763-1.61032-7.52685-4.37339a5.73335,5.73335,0,0,1,2.2722-5.6986,7.07736,7.07736,0,0,1-2.69832-8.08423,7.65064,7.65064,0,0,1,4.54454-4.10837,7.538,7.538,0,0,1,5.68076-5.16844,8.08575,8.08575,0,0,1,7.81085,2.51791,5.73412,5.73412,0,0,1,4.97053,3.71084,5.411,5.411,0,0,1-1.13611,5.03605,4.6315,4.6315,0,0,1,1.84622,4.10826,4.53,4.53,0,0,1-2.98232,3.57821,4.334,4.334,0,0,1,2.41421,2.65054C219.71967,167.76605,218.038,170.12829,215.051,170.87032Z" transform="translate(-20 -23)"/><path class="cls-17" d="M219.87956,159.60552a4.63177,4.63177,0,0,0-1.84622-4.10837,5.41063,5.41063,0,0,0,1.13611-5.03594,5.73412,5.73412,0,0,0-4.97053-3.71084,7.74329,7.74329,0,0,0-2.57093-1.93428,18.50978,18.50978,0,0,1,3.00447,10.26763c0,8.91029-5.91,16.16131-13.2872,16.44052a7.8944,7.8944,0,0,0,2.77048.14125,6.667,6.667,0,0,0,6.39075,2.518,6.56061,6.56061,0,0,0,4.54454-3.3132c2.98694-.742,4.66864-3.10427,4.26042-5.036a4.33369,4.33369,0,0,0-2.41421-2.65054A4.53,4.53,0,0,0,219.87956,159.60552Z" transform="translate(-20 -23)"/><path class="cls-15" d="M249.06247,132.89385V163.935s-.97489.5263-1.74085.94222V132.89385Z" transform="translate(-20 -23)"/><path class="cls-6" d="M247.32162,132.89385v31.98333c-.77289-.41592-1.74084-.94222-1.74084-.94222V132.89385Z" transform="translate(-20 -23)"/><path class="cls-31" d="M264.59631,130.25841c1.81859-2.3401,1.32471-4.65737-1.31509-6.16982.72045-2.81143-.686-4.77592-3.74524-5.23056-.48719-2.85481-2.59234-4.16741-5.60507-3.495-1.62087-2.46341-4.10394-2.92441-6.6116-1.22722-2.50765-1.69719-4.99085-1.23619-6.61159,1.22722-3.01274-.67242-5.11788.64018-5.60508,3.495-3.05922.45464-4.46581,2.41913-3.74524,5.23056-2.63979,1.51245-3.13368,3.82972-1.31509,6.16982-1.81859,2.3401-1.3247,4.65726,1.31509,6.16982-.72057,2.81144.686,4.77592,3.74524,5.23056.4872,2.85481,2.59234,4.1673,5.60508,3.495,1.62074,2.46341,4.10394,2.9243,6.61159,1.22722,2.50766,1.69708,4.99073,1.23619,6.6116-1.22722,3.01273.67231,5.11788-.64018,5.60507-3.495,3.05922-.45464,4.46569-2.41912,3.74524-5.23056C265.921,134.91567,266.4149,132.59851,264.59631,130.25841Z" transform="translate(-20 -23)"/><path class="cls-32" d="M263.28122,124.08859c.72057-2.81155-.68614-4.77592-3.74524-5.23056-.48719-2.85481-2.59234-4.16741-5.60507-3.495-1.62075-2.46341-4.10394-2.92441-6.6116-1.22722-2.50765-1.69719-4.99085-1.23619-6.61159,1.22722-3.01274-.67242-5.11788.64018-5.60508,3.495-3.05922.45464-4.46581,2.419-3.74524,5.23056-2.63979,1.51245-3.13368,3.82972-1.31509,6.16982-1.81859,2.3401-1.3247,4.65726,1.31509,6.16982-.72057,2.81144.686,4.77592,3.74524,5.23056.01229.07244.0303.13944.04466.20984a7.268,7.268,0,0,0,1.74935-.18633c1.76615,2.68426,4.4719,3.18659,7.20441,1.33724,2.73252,1.84935,5.43826,1.347,7.20441-1.33724,3.28286.73272,5.57673-.69753,6.10761-3.80827,3.33347-.49552,4.86613-2.636,4.08094-5.69951,2.87658-1.64814,3.41476-4.17309,1.43312-6.723a6.49331,6.49331,0,0,0,.71352-1.13888C263.52433,124.23665,263.4074,124.16092,263.28122,124.08859Z" transform="translate(-20 -23)"/></g></g></svg>