<?xml version="1.0" encoding="utf-8"?>
<!-- Generator: Adobe Illustrator 24.1.2, SVG Export Plug-In . SVG Version: 6.00 Build 0)  -->
<svg version="1.1" id="Layer_1" xmlns="http://www.w3.org/2000/svg" xmlns:xlink="http://www.w3.org/1999/xlink" x="0px" y="0px"
	 viewBox="0 0 1400 800" style="enable-background:new 0 0 1400 800;" xml:space="preserve">
<style type="text/css">
	.st0{clip-path:url(#SVGID_1_);fill:url(#SVGID_2_);}
	.st1{clip-path:url(#SVGID_1_);fill:url(#SVGID_3_);}
	.st2{clip-path:url(#SVGID_1_);fill:url(#SVGID_4_);}
	.st3{clip-path:url(#SVGID_1_);fill:url(#SVGID_5_);}
	.st4{clip-path:url(#SVGID_1_);fill:url(#SVGID_6_);}
	.st5{clip-path:url(#SVGID_1_);fill:#C95946;}
	.st6{clip-path:url(#SVGID_1_);}
	.st7{fill:url(#SVGID_7_);}
	.st8{fill:url(#SVGID_8_);}
	.st9{fill:#E88B57;}
	.st10{opacity:0.3;}
	.st11{fill:#A33746;}
	.st12{opacity:0.5;fill:#BC9C8B;}
	.st13{opacity:0.2;fill:#8E0A2F;}
	.st14{clip-path:url(#SVGID_1_);fill:url(#SVGID_9_);}
	.st15{fill:url(#SVGID_10_);}
	.st16{fill:#842B31;}
	.st17{fill:url(#SVGID_11_);}
	.st18{fill:url(#SVGID_12_);}
	.st19{fill:url(#SVGID_13_);}
	.st20{fill:#CC6340;}
	.st21{fill:#963531;}
	.st22{fill:url(#SVGID_14_);}
	.st23{fill:url(#SVGID_15_);}
	.st24{fill:#7A2B31;}
	.st25{clip-path:url(#SVGID_1_);fill:#B34240;}
	.st26{opacity:0.5;clip-path:url(#SVGID_1_);fill:#D18C90;}
	.st27{clip-path:url(#SVGID_1_);fill:#722631;}
	.st28{fill:#722631;}
	.st29{fill:url(#SVGID_16_);}
	.st30{fill:url(#SVGID_17_);}
	.st31{fill:url(#SVGID_18_);}
	.st32{fill:url(#SVGID_19_);}
	.st33{fill:#561A31;}
	.st34{fill:#C95946;}
	.st35{fill:url(#SVGID_20_);}
	.st36{fill:url(#SVGID_21_);}
	.st37{opacity:0.5;fill:#A77A9F;}
	.st38{fill:#843031;}
	.st39{fill:#933F39;}
	.st40{fill:#792C31;}
	.st41{fill:#A04731;}
	.st42{fill:#943A32;}
	.st43{fill:url(#SVGID_22_);}
	.st44{fill:url(#SVGID_23_);}
	.st45{fill:#EC7F46;}
	.st46{fill:#8C2B31;}
	.st47{fill:url(#SVGID_24_);}
	.st48{fill:#9B3431;}
	.st49{fill:#662631;}
	.st50{fill:#721839;}
	.st51{fill:#334A5C;}
	.st52{fill:#BF244F;}
	.st53{fill:#9A134F;}
	.st54{fill:#B2404C;}
	.st55{fill:#A53139;}
	.st56{fill:#90244F;}
	.st57{fill:#6B1543;}
	.st58{fill:#9E2F4C;}
	.st59{fill:#B32968;}
	.st60{fill:#33636E;}
	.st61{fill:#BF3B66;}
	.st62{fill:#DA722C;}
	.st63{fill:#B5481B;}
	.st64{fill:#DA9261;}
	.st65{fill:#456B7D;}
	.st66{fill:#FF932C;}
	.st67{fill:#E35448;}
	.st68{fill:#A77A9F;}
	.st69{fill:url(#SVGID_25_);}
	.st70{fill:url(#SVGID_26_);}
	.st71{clip-path:url(#SVGID_1_);fill:url(#SVGID_27_);}
	.st72{clip-path:url(#SVGID_1_);fill:#FFB31B;}
	.st73{clip-path:url(#SVGID_1_);fill:#EB8C20;}
	.st74{clip-path:url(#SVGID_1_);fill:url(#SVGID_28_);}
	.st75{clip-path:url(#SVGID_1_);fill:#BDF1FF;}
	.st76{clip-path:url(#SVGID_1_);fill:url(#SVGID_29_);}
	.st77{opacity:0.5;clip-path:url(#SVGID_1_);fill:#C27590;}
	.st78{opacity:0.5;fill:#C27590;}
	.st79{fill:url(#SVGID_30_);}
	.st80{fill:#F7B495;}
	.st81{fill:url(#SVGID_31_);}
	.st82{fill:#F28C04;}
	.st83{fill:#CE5920;}
	.st84{fill:url(#SVGID_32_);}
	.st85{fill:#792731;}
	.st86{opacity:0.5;clip-path:url(#SVGID_1_);fill:url(#SVGID_33_);}
	.st87{opacity:0.5;clip-path:url(#SVGID_1_);fill:url(#SVGID_34_);}
	.st88{opacity:0.5;clip-path:url(#SVGID_1_);fill:url(#SVGID_35_);}
	.st89{fill:#F7CC9F;}
	.st90{clip-path:url(#SVGID_1_);fill:#F7EFA4;}
	.st91{clip-path:url(#SVGID_1_);fill:#F7B495;}
	.st92{fill:#AC4231;}
	.st93{fill:#A83C31;}
	.st94{fill:#401A31;}
	.st95{opacity:0.5;}
	.st96{opacity:0.2;fill:#722631;}
	.st97{opacity:0.2;fill:url(#SVGID_36_);}
	.st98{fill:#D15729;}
</style>
<g>
	<defs>
		<rect id="SVGID_38_" width="1400" height="800"/>
	</defs>
	<clipPath id="SVGID_1_">
		<use xlink:href="#SVGID_38_"  style="overflow:visible;"/>
	</clipPath>
	<linearGradient id="SVGID_2_" gradientUnits="userSpaceOnUse" x1="0" y1="86.0291" x2="1400" y2="86.0291">
		<stop  offset="0" style="stop-color:#AB482C"/>
		<stop  offset="1" style="stop-color:#892A36"/>
	</linearGradient>
	<polygon class="st0" points="0,132.7 450.3,172.1 1400,40.2 1400,0 0,0 	"/>
	<linearGradient id="SVGID_3_" gradientUnits="userSpaceOnUse" x1="225.1667" y1="523.1748" x2="225.1667" y2="132.6666">
		<stop  offset="3.952570e-03" style="stop-color:#ED8652"/>
		<stop  offset="1" style="stop-color:#FBBD6D"/>
	</linearGradient>
	<polygon class="st1" points="0,132.7 0,523.2 437.7,523.2 450.3,172.1 	"/>
	<linearGradient id="SVGID_4_" gradientUnits="userSpaceOnUse" x1="589.9366" y1="5.6855" x2="1411.6975" y2="695.2248">
		<stop  offset="0" style="stop-color:#52A2D4"/>
		<stop  offset="0.996" style="stop-color:#1D72C2"/>
	</linearGradient>
	<polygon class="st2" points="1400,40.2 450.3,172.1 437.7,523.2 1400,709.2 	"/>
	<linearGradient id="SVGID_5_" gradientUnits="userSpaceOnUse" x1="0" y1="108.5994" x2="1400" y2="108.5994">
		<stop  offset="3.952570e-03" style="stop-color:#C86D52"/>
		<stop  offset="1" style="stop-color:#E0792F"/>
	</linearGradient>
	<polygon class="st3" points="1400,40.2 450.3,172.1 0,132.7 0,144.7 449.6,177 1400,65 	"/>
	<linearGradient id="SVGID_6_" gradientUnits="userSpaceOnUse" x1="0" y1="122.3333" x2="1400" y2="122.3333">
		<stop  offset="0" style="stop-color:#A24821"/>
		<stop  offset="1" style="stop-color:#7F1825"/>
	</linearGradient>
	<polygon class="st4" points="0,147.5 450.3,179.7 1400,73.5 1400,65 449.6,177 0,144.7 	"/>
	<polygon class="st5" points="449.6,177 450.3,172.1 0,129.7 0,144.7 	"/>
	<g class="st6">
		<linearGradient id="SVGID_7_" gradientUnits="userSpaceOnUse" x1="700" y1="800" x2="700" y2="523.1748">
			<stop  offset="0" style="stop-color:#AA4936"/>
			<stop  offset="1" style="stop-color:#FF9240"/>
		</linearGradient>
		<polygon class="st7" points="0,523.2 437.7,523.2 1400,709.2 1400,800 0,800 		"/>
		<linearGradient id="SVGID_8_" gradientUnits="userSpaceOnUse" x1="0" y1="630.3333" x2="1400" y2="630.3333">
			<stop  offset="0" style="stop-color:#A23730"/>
			<stop  offset="1" style="stop-color:#7F1825"/>
		</linearGradient>
		<polygon class="st8" points="1400,744 437.7,528.5 0,529.7 0,516.7 437.7,523.2 1400,709.2 		"/>
		<polygon class="st9" points="1400,709.2 437.7,523.2 0,516.7 0,512.7 437.8,520 1400,701.3 		"/>
		<g class="st10">
			<g>
				<polygon class="st11" points="1355.5,800.5 386,529.1 386.3,528.2 1355.8,799.5 				"/>
			</g>
			<g>
				<polygon class="st11" points="1111.6,800.5 311.3,529.3 311.7,528.4 1112,799.5 				"/>
			</g>
			<g>
				<polygon class="st11" points="944.8,800.5 251.8,529.4 252.2,528.5 945.2,799.5 				"/>
			</g>
			<g>
				<polygon class="st11" points="754.5,800.4 213.2,529.5 213.8,528.7 755.1,799.6 				"/>
			</g>
			<g>
				<polygon class="st11" points="586.5,800.4 173.5,529.4 174.2,528.6 587.2,799.6 				"/>
			</g>
			<g>
				<polygon class="st11" points="437.3,800.4 123.2,529.7 124.1,529 438.1,799.6 				"/>
			</g>
			<g>
				<polygon class="st11" points="311,800.3 75.4,529.3 76.3,528.7 312,799.7 				"/>
			</g>
			<g>
				<polygon class="st11" points="181.5,800.2 25.1,529.8 26.2,529.4 182.5,799.8 				"/>
			</g>
			<g>
				<polygon class="st11" points="75.3,800.1 -0.6,571.1 0.6,570.9 76.4,799.9 				"/>
			</g>
			<g>
				<rect x="40.5" y="692.9" class="st11" width="79.8" height="1"/>
			</g>
			<g>
				<rect x="218.8" y="692.9" class="st11" width="95.2" height="1"/>
			</g>
			<g>
				<rect x="203.7" y="597.9" class="st11" width="75.8" height="1"/>
			</g>
			<g>
				<rect x="632.5" y="738.3" class="st11" width="155.9" height="1"/>
			</g>
			<g>
				<rect x="617.2" y="631.9" class="st11" width="139.7" height="1"/>
			</g>
		</g>
		<polygon class="st12" points="213.5,599.8 450.3,800 580.2,800 282,599.8 		"/>
		<polygon class="st12" points="216.6,528.8 632.5,734 779.5,735.3 254.3,529.9 		"/>
		<polygon class="st13" points="794.4,642.9 721.5,642.9 819,682.5 672.9,633 625.7,633 1134,800 1349.1,800 		"/>
		<polygon class="st13" points="127.8,588.7 151.7,588.7 210.7,645.7 205.5,637.1 223.2,637.1 260.2,676 292.2,674.6 311.5,691.2 
			217.8,692.2 		"/>
		<polygon class="st13" points="710.5,777.8 888.2,777.8 945,800 758,800 		"/>
		<polygon class="st13" points="412.3,685.5 296.6,609.6 322.6,609.6 354.5,630.3 306.5,594.8 340.1,592.5 539.4,692.2 511,693.4 
			386.2,630.3 472,682.2 		"/>
		<polygon class="st13" points="75.8,800 48.8,718.2 75.8,718.2 89.2,738.8 82.1,693.4 117.4,693.4 177.3,800 		"/>
	</g>
	<linearGradient id="SVGID_9_" gradientUnits="userSpaceOnUse" x1="222.0556" y1="425.1667" x2="269.1313" y2="425.1667">
		<stop  offset="0" style="stop-color:#AB482C"/>
		<stop  offset="1" style="stop-color:#A73C3B"/>
	</linearGradient>
	<polygon class="st14" points="222.1,426 225.2,425.2 269.1,424.3 269.1,425.6 	"/>
	<g class="st6">
		<linearGradient id="SVGID_10_" gradientUnits="userSpaceOnUse" x1="160.8168" y1="529.8788" x2="160.8168" y2="250">
			<stop  offset="3.952570e-03" style="stop-color:#C86D52"/>
			<stop  offset="1" style="stop-color:#E0792F"/>
		</linearGradient>
		<path class="st15" d="M51.3,529.8l9-215.9C79.8,234.6,236,219.1,268,325l2.3,204.9L51.3,529.8z"/>
		<path class="st16" d="M225.2,327.9c0,0-8.9-86.9-104.8-71.5C119.4,255.5,232,220,268,325l1.1,99.3l1.2,105.6l-45.1-9.9V327.9z"/>
		<linearGradient id="SVGID_11_" gradientUnits="userSpaceOnUse" x1="160.8168" y1="529.8788" x2="160.8168" y2="472.989">
			<stop  offset="0" style="stop-color:#BA5943"/>
			<stop  offset="1" style="stop-color:#B04947"/>
		</linearGradient>
		<polygon class="st17" points="53.7,473 225.2,477 225.2,520 270.3,529.9 51.3,529.8 		"/>
		<linearGradient id="SVGID_12_" gradientUnits="userSpaceOnUse" x1="269.2111" y1="476.4522" x2="440.9657" y2="476.4522">
			<stop  offset="0" style="stop-color:#AB482C"/>
			<stop  offset="1" style="stop-color:#A73C3B"/>
		</linearGradient>
		<polygon class="st18" points="269.2,432.9 441,432.9 437.8,520 270.2,517.2 		"/>
		<linearGradient id="SVGID_13_" gradientUnits="userSpaceOnUse" x1="269.1246" y1="429.0387" x2="446.0313" y2="429.0387">
			<stop  offset="0" style="stop-color:#A23730"/>
			<stop  offset="1" style="stop-color:#7F1825"/>
		</linearGradient>
		<polygon class="st19" points="269.1,425.2 269.2,432.9 441,432.9 446,426 		"/>
		<polygon class="st20" points="280.7,511.5 424.7,511.5 426.6,441.5 280.7,441.5 		"/>
		<polygon class="st9" points="424.7,511.5 419.3,507.9 285.3,509.2 280.7,511.5 		"/>
		<polygon class="st21" points="426.6,441.5 423.4,443 419.3,507.9 424.7,511.5 		"/>
		<polygon class="st16" points="280.7,441.5 284.1,443.8 423.4,443 426.6,441.5 		"/>
		<polygon class="st21" points="280.7,511.5 285.3,509.2 284.1,443.8 280.7,441.5 		"/>
		<linearGradient id="SVGID_14_" gradientUnits="userSpaceOnUse" x1="0" y1="470.8527" x2="55.5189" y2="470.8527">
			<stop  offset="0" style="stop-color:#AB482C"/>
			<stop  offset="1" style="stop-color:#A73C3B"/>
		</linearGradient>
		<polygon class="st22" points="55.5,429 0,429 0,512.7 52,512.7 		"/>
		<linearGradient id="SVGID_15_" gradientUnits="userSpaceOnUse" x1="0" y1="425.0194" x2="59.111" y2="425.0194">
			<stop  offset="0" style="stop-color:#A23730"/>
			<stop  offset="1" style="stop-color:#7F1825"/>
		</linearGradient>
		<polygon class="st23" points="55.5,429 59.1,421 0,421 0,429 		"/>
		<polygon class="st9" points="59.1,421 57,419.8 0,419 0,421 		"/>
		<polygon class="st20" points="0,441.8 42.2,441.8 39.5,504.2 -0.6,504.2 		"/>
		<polygon class="st9" points="39.5,504.2 35.6,501.4 0,501.4 -0.6,504.2 		"/>
		<polygon class="st21" points="42.2,441.8 39.5,443.3 35.6,501.4 39.5,504.2 		"/>
		<polygon class="st16" points="0,441.8 0,443 39.5,443.3 42.2,441.8 		"/>
		<polygon class="st24" points="269.2,432.9 225.2,432.9 222.1,426 269.1,425.2 		"/>
		<polygon class="st9" points="269.1,424.3 446,424.3 446,426 269.1,425.6 		"/>
	</g>
	<path class="st25" d="M269.1,424.3L269.1,424.3l-44,0.8v-97.2c0,0-8.9-86.9-104.8-71.5C119.4,255.5,232,220,268,325L269.1,424.3z"
		/>
	<polygon class="st26" points="-0.6,715.2 836.6,725.1 677,657 561.9,633.7 504.8,613.7 490,608.4 652.9,610.9 396.9,530.1 
		1400,752.3 1400,800 0,800 	"/>
	<polygon class="st27" points="419.3,512.7 420.3,443.6 418.3,439 415.5,514.9 	"/>
	<g class="st6">
		<polygon class="st16" points="1400,490.8 472.7,424.3 472.7,169 1400,40.2 		"/>
		<polygon class="st28" points="401.1,528.6 413.2,168.6 477.9,169 472.7,541.8 		"/>
		<linearGradient id="SVGID_16_" gradientUnits="userSpaceOnUse" x1="401.0844" y1="584.1667" x2="1400" y2="584.1667">
			<stop  offset="0" style="stop-color:#AB482C"/>
			<stop  offset="1" style="stop-color:#892A36"/>
		</linearGradient>
		<polygon class="st29" points="1400,504.2 404.6,424.3 401.1,528.6 1400,744 		"/>
		<linearGradient id="SVGID_17_" gradientUnits="userSpaceOnUse" x1="902.3027" y1="504.206" x2="902.3027" y2="424.3334">
			<stop  offset="3.952570e-03" style="stop-color:#C86D52"/>
			<stop  offset="1" style="stop-color:#E0792F"/>
		</linearGradient>
		<polygon class="st30" points="1400,504.2 404.6,424.3 472.7,424.3 1400,490.8 		"/>
		<linearGradient id="SVGID_18_" gradientUnits="userSpaceOnUse" x1="466.8295" y1="392.5109" x2="356.462" y2="201.3488">
			<stop  offset="0" style="stop-color:#AB482C"/>
			<stop  offset="1" style="stop-color:#AE4F36"/>
		</linearGradient>
		<polygon class="st31" points="404.6,424.3 413.2,168.6 417.1,166.8 410.8,424.8 		"/>
		<linearGradient id="SVGID_19_" gradientUnits="userSpaceOnUse" x1="413.2424" y1="112.4327" x2="1400" y2="112.4327">
			<stop  offset="0" style="stop-color:#AB482C"/>
			<stop  offset="1" style="stop-color:#892A36"/>
		</linearGradient>
		<polygon class="st32" points="413.2,168.6 413.2,184.7 1400,73.5 1400,40.2 		"/>
		<polygon class="st16" points="413.2,177 408.3,168.1 1400,30 1400,52 		"/>
		<polygon class="st33" points="417.1,184.2 481.2,193.1 1400,101 1400,73.5 		"/>
		<polygon class="st34" points="408.3,168.1 408.3,165.5 1400,20.7 1400,30 		"/>
		<linearGradient id="SVGID_20_" gradientUnits="userSpaceOnUse" x1="407.1667" y1="330.5" x2="1400" y2="330.5">
			<stop  offset="0" style="stop-color:#AB482C"/>
			<stop  offset="1" style="stop-color:#892A36"/>
		</linearGradient>
		<polygon class="st35" points="407.2,344 1400,334.5 1400,317 407.5,339.7 		"/>
		<linearGradient id="SVGID_21_" gradientUnits="userSpaceOnUse" x1="410.3237" y1="217.9226" x2="1400" y2="217.9226">
			<stop  offset="0" style="stop-color:#AB482C"/>
			<stop  offset="1" style="stop-color:#892A36"/>
		</linearGradient>
		<polygon class="st36" points="410.9,258.8 1400,188 1400,177 410.3,255 		"/>
		<polygon class="st37" points="1057.1,325.1 1054.4,335.2 1063.9,335.2 1063.9,325.3 		"/>
		<polygon class="st37" points="1056.3,463.9 1052.2,476.5 1064.4,476.5 1064.4,464.3 		"/>
		<polygon class="st37" points="1054.9,198.7 1049.8,208.7 1063.9,209.5 1063.8,199.2 		"/>
		<polygon class="st38" points="1120.2,481.8 1113.4,88.3 1079.6,92.6 1083.5,478.8 		"/>
		<polygon class="st28" points="1120.2,481.8 1251.5,480.2 1251.5,115.9 1113.7,105.8 		"/>
		<polygon class="st37" points="1113.7,105.8 1256.8,141.3 1400,133.3 1400,101 1251.5,115.9 		"/>
		<polygon class="st39" points="1125.3,323.3 1125.3,334.5 1400,334.5 1400,317 		"/>
		<polygon class="st39" points="1400,196 1125.3,209.5 1125.3,198.7 1400,177 		"/>
		<polygon class="st37" points="1125.3,209.5 1251.5,229.3 1400,225.1 1400,196 		"/>
		<polygon class="st37" points="1125.3,334.5 1251.5,366.3 1400,367.8 1400,334.5 		"/>
		<polygon class="st40" points="1099.9,494 1099.9,661.6 1400,716.5 1400,516.7 		"/>
		<polygon class="st38" points="1400,545.5 1125.3,520 1125.3,643.2 1400,683.6 		"/>
		<polygon class="st34" points="1125.3,643.2 1112,653.7 1400,701.3 1400,683.6 		"/>
		<polygon class="st28" points="1112,653.7 1108.9,506.8 1125.3,520 1125.3,643.2 		"/>
		<polygon class="st33" points="1108.9,506.8 1400,528.2 1400,548.3 1125.3,520 		"/>
		<polygon class="st41" points="1400,516.7 1099.9,494 1108.9,506.8 1400,530.5 		"/>
		<polygon class="st42" points="1085.3,655.7 1400,716.5 1400,739.3 1094.5,678.1 		"/>
		<polygon class="st28" points="1400,752.3 1096.2,683.6 1094.5,678.1 1400,739.3 		"/>
		<polygon class="st42" points="401.3,522.6 396.9,529 797.4,618 797.4,602.5 		"/>
		<polygon class="st28" points="396.9,529 396.9,530.1 796.7,622.7 797.4,618 		"/>
		<polygon class="st40" points="417.1,436 779.5,469.7 779.5,589.2 413.4,517.2 		"/>
		<polygon class="st38" points="777,480.4 420.3,443.6 419.3,512.7 779.5,575.8 		"/>
		<polygon class="st33" points="420.3,443.6 418.3,439 779.5,473.8 779.5,481 		"/>
		<polygon class="st34" points="419.3,512.7 415.5,514.9 779.5,581.3 779.5,575.8 		"/>
		<polygon class="st37" points="412.8,344 475.1,370.5 779.5,372.5 779.5,340.4 		"/>
		<polygon class="st33" points="412.8,344 472.7,355.2 779.5,355.2 779.5,340.4 		"/>
		<polygon class="st37" points="410.9,258.8 476.3,284.3 779.5,273.3 779.5,232.4 		"/>
		<polygon class="st33" points="651.2,157.9 662.3,174.9 662.3,235.1 626.5,237.9 626.5,160.8 		"/>
		<polygon class="st33" points="414.9,258.6 476.6,265.5 779.5,250 779.5,232.4 		"/>
		<g>
			<polygon class="st28" points="1085.3,664.3 950.4,664.7 946.8,71 1079.6,92.6 			"/>
			<linearGradient id="SVGID_22_" gradientUnits="userSpaceOnUse" x1="836.5855" y1="661.5874" x2="836.5855" y2="72">
				<stop  offset="0" style="stop-color:#C25136"/>
				<stop  offset="1" style="stop-color:#E0761B"/>
			</linearGradient>
			<polygon class="st43" points="893.7,661.6 779.5,630.3 779.5,101 893.7,72 			"/>
			<polygon class="st16" points="1079.6,92.6 1098.4,72 951.6,49.3 888.6,49.3 761.8,89.7 779.5,101 893.7,72 946.8,71 			"/>
			<polygon class="st33" points="946.8,71 951.6,49.3 1098.4,72 1079.6,92.6 			"/>
			<linearGradient id="SVGID_23_" gradientUnits="userSpaceOnUse" x1="761.8333" y1="66.9166" x2="888.611" y2="66.9166">
				<stop  offset="0" style="stop-color:#C25136"/>
				<stop  offset="1" style="stop-color:#E0761B"/>
			</linearGradient>
			<polygon class="st44" points="761.8,89.7 761.8,86 887.3,44.2 888.6,49.3 			"/>
			<polygon class="st45" points="779.5,630.3 766.9,642.9 889,683.5 956.1,683.6 1094.5,678.1 1079.6,655.8 950.4,661.6 
				893.7,661.6 			"/>
			<polygon class="st16" points="766.9,642.9 766.9,646.3 889,691.3 889,683.5 			"/>
			<polygon class="st16" points="950.4,661.6 956.1,685 1094.5,678.1 1085.3,655.7 			"/>
			<polygon class="st33" points="956.1,691.3 1096.2,683.6 1094.5,678.1 956.1,685 			"/>
			<polygon class="st38" points="893.7,72 946.8,71 950.4,661.6 893.7,661.6 			"/>
			<polygon class="st46" points="1098.4,72 1098.4,64.7 954.7,42.7 951.6,49.3 			"/>
			<polygon class="st28" points="893.7,72 888.6,49.3 951.6,49.3 946.8,71 			"/>
			<linearGradient id="SVGID_24_" gradientUnits="userSpaceOnUse" x1="887.25" y1="46.0184" x2="954.7223" y2="46.0184">
				<stop  offset="0" style="stop-color:#A84436"/>
				<stop  offset="1" style="stop-color:#B5502C"/>
			</linearGradient>
			<polygon class="st47" points="954.7,42.7 887.3,44.2 888.6,49.3 951.6,49.3 			"/>
			<polygon class="st48" points="893.7,661.6 889,683.5 956.1,685 950.4,661.6 			"/>
			<polygon class="st28" points="889,683.5 889,691.3 956.1,691.3 956.1,685 			"/>
			<polygon class="st28" points="789.4,627.3 889,652.7 881.2,120 856.6,88.3 801.5,103.5 789.4,136.9 			"/>
			<polygon class="st38" points="859.9,92.6 806.9,106.7 795.3,137 797.4,625.8 789.4,627.3 789.4,136.9 801.5,103.5 856.6,88.3 			
				"/>
			<polygon class="st34" points="889,652.7 889,645.7 797.4,625.8 789.4,627.3 			"/>
			<polygon class="st38" points="795.7,211.8 882.4,202 882.3,193.1 795.7,204.5 			"/>
			<polygon class="st33" points="956.1,652.7 1075.1,647.5 1068.7,133.5 1050,101 975.9,89.7 956.1,117.3 			"/>
			<polygon class="st49" points="956.1,648.3 1064.8,643.2 1063.7,134.8 1044.9,103.5 973.8,92.6 975.9,89.7 1050,101 1068.7,133.5 
				1075.1,647.5 956.1,652.7 			"/>
			<polygon class="st48" points="1064.8,643.2 1075.1,647.5 956.1,652.7 956.1,648.3 			"/>
			<polygon class="st37" points="987.4,629.4 987.4,112.4 1044.9,103.4 973.8,92.5 956.1,117.3 956.1,629.3 			"/>
			<polygon class="st48" points="956.1,629.4 987.4,629.4 1064.8,643.2 956.1,648.3 			"/>
			<polygon class="st28" points="1063.8,199.2 956.1,193.7 956.1,203.5 1063.9,209.5 			"/>
			<polygon class="st28" points="1063.9,325.3 956.1,323.2 956.1,335 1063.9,335.2 			"/>
			<polygon class="st28" points="1064.4,464.3 956.1,464.3 956.1,476.5 1064.4,476.5 			"/>
			<polygon class="st34" points="797.4,625.8 888.6,625.8 889,645.7 			"/>
			<polygon class="st37" points="806.9,106.7 859.9,142 888.6,625.8 881.2,120 859.9,92.6 			"/>
			<polygon class="st38" points="884.2,323.2 796.1,326.5 796.1,335.2 884.2,335.2 			"/>
			<polygon class="st38" points="886.3,465.1 796.7,464.3 796.7,473.8 886.3,475.1 			"/>
			<polygon class="st37" points="795.7,211.8 882.4,225.1 882.4,202 			"/>
			<polygon class="st50" points="1000.5,238.7 956.1,243.7 956.1,323.2 997.5,324 			"/>
			<polygon class="st37" points="796.1,335.2 884.8,361 884.2,335.2 			"/>
			<polygon class="st37" points="796.7,473.8 886.9,507.9 886.3,475.1 			"/>
			<polygon class="st37" points="1064.4,476.5 956.1,511.5 956.1,476.5 			"/>
			<polygon class="st37" points="1063.9,335.2 956.1,361 956.1,335 			"/>
			<polygon class="st37" points="1063.9,209.5 956.1,229.3 956.1,203.5 			"/>
			<polygon class="st48" points="1064.4,464.3 956.1,459 956.1,464.3 			"/>
			<polygon class="st51" points="956.1,121.2 1030.9,131 1030.9,197.5 956.1,193.7 			"/>
			<polygon class="st52" points="1063.9,325.3 997.5,324 1000.5,238.7 1063.9,241 			"/>
			<polygon class="st52" points="978.8,323.2 1000.5,249 989.7,243.7 963.3,314.3 			"/>
			<polygon class="st51" points="956.1,366.3 1015.6,367.8 1018.9,462.1 956.1,461.6 			"/>
			<polygon class="st53" points="1032.8,373.4 1016,379.7 1044.9,463.3 1063.1,457.5 			"/>
			<polygon class="st53" points="1063.1,535 1000.5,535 1000.5,645.7 1064.8,643.2 			"/>
			<polygon class="st54" points="956.1,544 1000.5,542.7 1000.5,645.7 956.1,648.3 			"/>
			<polygon class="st55" points="981.2,461.6 981.2,366.9 993.6,367.8 993.6,462.1 			"/>
			<polygon class="st56" points="989.7,243.7 956.1,243.7 956.1,317 963.3,314.3 			"/>
			<polygon class="st57" points="963.3,314.3 956.1,314.3 956.1,323.2 978.8,323.2 			"/>
			<polygon class="st50" points="1016,379.7 1018.9,462.1 1044.9,463.3 			"/>
			<polygon class="st56" points="1032.6,239.8 1032.6,324.6 1050.1,325 1049.8,240.5 			"/>
			<polygon class="st58" points="1000.5,542.7 956.1,535 956.1,544 			"/>
			<polygon class="st59" points="1063.1,535 971.4,523.2 956.1,523.2 956.1,535 1000.5,542.7 1000.5,535 			"/>
			<polygon class="st50" points="1000.5,535 956.1,528.2 956.1,535 1000.5,542.7 			"/>
			<polygon class="st50" points="1000.5,542.7 1000.5,645.7 1004.8,535.4 1000.5,535 			"/>
			<polygon class="st51" points="824.7,523.2 887.1,520.1 888.6,631.9 825.8,631.9 			"/>
			<polygon class="st60" points="796.7,464.3 797.4,370.5 843.2,367.8 847.8,464.8 			"/>
			<polygon class="st51" points="843.2,367.8 884.2,367.8 886.3,465.1 847.8,464.8 			"/>
			<polygon class="st60" points="859.9,464.8 843.8,379.7 856.3,374.7 878.8,460 			"/>
			<polygon class="st61" points="796.1,326.5 796.7,231.2 861.3,225.1 859.9,324 			"/>
			<polygon class="st60" points="881.2,120 820.6,133.3 817.7,201.6 882.3,193.1 			"/>
			<polygon class="st60" points="801.9,137 801.9,203.5 817.7,201.6 813.9,134.3 			"/>
			<polygon class="st56" points="861.3,225.1 882.4,225.1 884.2,323.2 859.9,324 			"/>
			<polygon class="st60" points="806.9,230.2 809.8,326 827.7,325.3 828.7,228.2 			"/>
			<polygon class="st51" points="813.9,134.3 820.5,136.5 817.8,199.6 			"/>
			<polygon class="st60" points="797.4,520 824.7,523.2 825.8,631.9 797.4,625.8 			"/>
			<polygon class="st62" points="850.8,523.1 825.6,615.4 841.8,632.1 857.3,575.8 859.9,635.7 889,645.7 887.1,522.7 			"/>
			<polygon class="st63" points="841.8,632.1 859.8,631.9 857.3,575.8 			"/>
			<polygon class="st64" points="850.8,523.1 859.9,532.9 887.3,532.9 887.1,522.7 			"/>
			<polygon class="st54" points="993.5,126.1 997.5,195.8 1010,196.4 1010,128.2 			"/>
			<polygon class="st54" points="1032.6,535.4 1032.6,644.4 1064.8,643.2 1063.1,535 			"/>
			<polygon class="st65" points="797.4,520 887,516.7 887.1,520.1 824.7,523.2 			"/>
			<polygon class="st64" points="887.1,517.3 812.2,520 825.6,522 887,519.3 			"/>
			<polygon class="st62" points="797.4,370.5 809.3,369.8 812.2,464.3 796.7,464.3 			"/>
			<polygon class="st62" points="853.4,126.1 872.1,122 872.1,194.4 857.5,196.3 			"/>
			<polygon class="st66" points="797.3,388 797.3,403.5 810.4,403.5 809.9,388 			"/>
			<polygon class="st66" points="811.3,434.8 846.3,433.7 847.3,454.3 811.9,454.3 			"/>
			<polygon class="st66" points="848.1,402.3 849.6,410.5 864.8,406.6 863,400 			"/>
			<polygon class="st66" points="809.2,305.2 809.6,318.8 827.8,317 827.8,305.2 			"/>
			<polygon class="st66" points="828.7,245.5 861.3,242.8 860.9,255.8 828.4,258.3 			"/>
			<polygon class="st67" points="984,258.8 981.2,266.4 993.6,272.6 996,264.5 			"/>
			<polygon class="st67" points="998,310.5 1032.6,312 1032.6,321.5 997.5,318.8 			"/>
			<rect x="1032.6" y="254.5" class="st67" width="17.5" height="6.7"/>
			<polygon class="st67" points="1038.3,444 1043.4,459 1061,451.5 1056.5,439 			"/>
			<polygon class="st67" points="1010,143 1030.9,146.3 1030.7,159.3 1010,156 			"/>
			<polygon class="st67" points="996.7,182.5 956.1,179.7 956.1,187.8 996.7,190 			"/>
			<polygon class="st66" points="828.7,603.9 831.4,594.2 848.6,607.3 845.7,618 			"/>
			<polygon class="st66" points="797.4,539.5 797.4,558.5 825.1,563.4 824.7,542.5 			"/>
			<polygon class="st66" points="801.9,160.9 801.9,168.1 815.7,164.5 815.3,159.2 			"/>
			<polygon class="st66" points="818.4,184.7 856.4,178.1 857.5,196.3 817.7,201.6 			"/>
			<polygon class="st66" points="853.9,134.5 854.4,142.5 872.1,138.5 872.1,132.5 			"/>
			<polygon class="st66" points="859.8,547 859.8,559.6 887.7,561 887.5,547.4 			"/>
		</g>
		<polygon class="st63" points="1307.7,229.3 1318.9,232.7 1307.7,233.3 		"/>
		<polygon class="st68" points="1209,709.2 1136.7,59.1 1098.4,64.7 1064.4,83.9 1085.3,678.6 		"/>
		<polygon class="st51" points="1290.7,121.2 1301.6,126.5 1290.7,127.5 		"/>
		<g>
			<polygon class="st51" points="1322.9,232.4 1372,235.5 1372,317.6 1322.9,318.8 			"/>
			<polygon class="st60" points="1136.7,323 1136.7,242.8 1322.9,232.4 1322.9,318.8 			"/>
			<polygon class="st53" points="1372,317.6 1400,317 1400,232.4 1372,232.4 			"/>
			<polygon class="st53" points="1182.6,322 1182.6,232.4 1236.1,229.3 1234,320.8 			"/>
			<polygon class="st50" points="1236.1,229.3 1282,231.3 1282,234.7 1243.7,236.8 1241.3,320.5 1234,320.8 			"/>
			<polygon class="st62" points="1294.4,319.4 1295.4,229.3 1307.7,229.3 1308.7,319.1 			"/>
			<polygon class="st63" points="1307.7,233.3 1308.7,319.1 1313.3,318.8 1311.9,233.1 			"/>
			<polygon class="st63" points="1336,243.7 1372,246 1372,317.6 1348.4,317 			"/>
			<polygon class="st62" points="1348.4,317 1322.9,249 1336,243.7 1365.2,311.3 			"/>
			<polygon class="st51" points="1265.4,319.9 1262.6,235.8 1265.4,235.8 1266.9,319.9 			"/>
			<polygon class="st50" points="1209,321.3 1216.1,321.3 1216.1,230.5 1209,230.5 			"/>
			<polygon class="st51" points="1164.3,241.2 1166,322.3 1182.6,322 1182.6,241.2 			"/>
			<polygon class="st66" points="1136.7,274.4 1165,272.6 1165.4,292 1136.7,292 			"/>
			<polygon class="st66" points="1341.9,299.7 1358.4,295.5 1362.3,304.6 1345,307.9 			"/>
			<polygon class="st66" points="1295.2,250.3 1307.7,250.3 1307.7,236.8 1295.3,237.8 			"/>
			<polygon class="st66" points="1234.6,295.5 1216.1,295.5 1216.1,312.3 1234.2,312.3 			"/>
			<rect x="1372" y="241" class="st66" width="28" height="10.7"/>
		</g>
		<g>
			<polygon class="st51" points="588.6,282.5 619.2,284.4 619.2,335.5 588.6,336.2 			"/>
			<polygon class="st60" points="472.7,338.8 472.7,288.9 588.6,282.5 588.6,336.2 			"/>
			<polygon class="st53" points="619.2,335.5 636.6,335.1 636.6,282.5 619.2,282.5 			"/>
			<polygon class="st53" points="501.3,338.2 501.3,282.5 534.6,280.5 533.3,337.4 			"/>
			<polygon class="st50" points="534.6,280.5 563.2,281.7 563.2,283.9 539.3,285.2 537.8,337.3 533.3,337.4 			"/>
			<polygon class="st62" points="570.9,336.6 571.5,280.5 579.1,280.5 579.8,336.4 			"/>
			<polygon class="st63" points="579.1,283 579.8,336.4 582.6,336.2 581.8,282.8 			"/>
			<polygon class="st63" points="596.8,289.5 619.2,290.9 619.2,335.5 604.6,336.1 			"/>
			<polygon class="st62" points="604.6,336.1 588.6,292.8 596.8,289.5 615.2,332.2 			"/>
			<polygon class="st51" points="552.8,336.9 551.1,284.5 552.8,284.5 553.7,336.9 			"/>
			<polygon class="st50" points="517.7,337.8 522.1,337.7 522.1,281.3 517.7,281.3 			"/>
			<polygon class="st51" points="489.9,287.9 491,338.4 501.3,338.2 501.3,287.9 			"/>
			<polygon class="st66" points="472.7,308.6 490.3,307.5 490.6,319.5 472.7,319.5 			"/>
			<polygon class="st66" points="600.4,324.3 610.7,321.7 613.1,327.4 602.4,329.5 			"/>
			<polygon class="st66" points="571.4,293.6 579.1,293.6 579.1,285.2 571.5,285.8 			"/>
			<polygon class="st66" points="533.7,321.7 522.1,321.7 522.1,332.2 533.4,332.2 			"/>
			<rect x="619.2" y="287.8" class="st66" width="17.4" height="6.6"/>
			<polygon class="st60" points="472.7,293.6 465.1,290.1 439.5,334.3 448.6,338.8 			"/>
			<polygon class="st51" points="448.6,338.8 472.7,338.8 472.7,293.6 			"/>
			<polygon class="st66" points="443,328.4 452.1,332.2 456.3,324.3 447.4,320.7 			"/>
		</g>
		<g>
			<polygon class="st51" points="754.9,279 779.9,281.2 779.9,332.2 754.9,332.7 			"/>
			<polygon class="st60" points="639,335.4 639,285.4 754.9,279 754.9,332.7 			"/>
			<polygon class="st53" points="667.5,334.7 667.5,279 700.8,277.1 699.6,334 			"/>
			<polygon class="st50" points="700.8,277.1 729.4,278.3 729.4,280.4 705.6,281.7 704.1,333.8 699.6,334 			"/>
			<polygon class="st62" points="737.1,333.1 737.8,277.1 745.4,277.1 746,333 			"/>
			<polygon class="st63" points="745.4,279.5 746,333 748.9,332.7 748,279.4 			"/>
			<polygon class="st51" points="719.1,333.4 717.3,281.1 719.1,281.1 720,333.4 			"/>
			<polygon class="st50" points="684,334.3 688.4,334.3 688.4,277.8 684,277.8 			"/>
			<polygon class="st51" points="656.2,284.5 657.2,335 667.5,334.7 667.5,283.8 			"/>
			<polygon class="st66" points="639,305.1 656.6,304 656.8,316.1 639,316.1 			"/>
			<polygon class="st66" points="737.6,290.1 745.4,290.1 745.4,281.7 737.7,282.4 			"/>
			<polygon class="st66" points="699.9,318.2 688.4,318.2 688.4,328.7 699.7,328.7 			"/>
		</g>
		<g>
			<polygon class="st54" points="1136.7,481 1136.7,395.7 1400,395.7 1400,498 			"/>
			<polygon class="st60" points="1199.9,391 1199.9,485.1 1294.4,491.2 1291.4,391.6 			"/>
			<polygon class="st53" points="1372,391 1376.7,496.5 1400,498 1400,391 			"/>
			<polygon class="st51" points="1294.4,491.2 1294.4,395.7 1337.4,395.7 1337.4,391 1291.4,391.6 			"/>
			<polygon class="st55" points="1158.5,395.7 1158.5,482.4 1188.2,484.3 1185,395.7 			"/>
			<polygon class="st62" points="1349.1,494.7 1349.1,395.7 1372.2,395.7 1376.7,496.5 			"/>
			<polygon class="st53" points="1329.4,395.7 1329.4,493.4 1316.9,492.6 1316.4,395.7 			"/>
			<polygon class="st51" points="1229.8,391 1229.8,478.6 1231.8,391 			"/>
			<polygon class="st51" points="1262.6,489.1 1263.5,391 1265.4,489.3 			"/>
			<polygon class="st53" points="1229.8,391 1230.8,487.1 1265.4,489.3 1263.5,391 			"/>
			<polygon class="st66" points="1230.8,482.6 1265.4,484.3 1265,470.6 1230.8,469.6 			"/>
			<polygon class="st66" points="1329.4,409.8 1316.5,409.8 1316.6,418.4 1329.4,418.4 			"/>
			<polygon class="st66" points="1158.5,414.2 1158.5,421.5 1186.1,424.3 1186.1,414.2 			"/>
			<polygon class="st66" points="1400,412 1372.9,412 1373.2,418.4 1400,419.2 			"/>
			<rect x="1199.9" y="420.9" class="st66" width="29.9" height="4.9"/>
			<polygon class="st66" points="1294.4,476.5 1316.8,477 1316.9,488 1294.4,487 			"/>
		</g>
		<g>
			<polygon class="st54" points="557.6,431.8 557.6,371.2 744.8,371.2 744.8,443.9 			"/>
			<polygon class="st53" points="724.9,367.8 728.2,442.8 744.8,443.9 744.8,367.8 			"/>
			<polygon class="st62" points="708.6,441.5 708.6,371.2 725,371.2 728.2,442.8 			"/>
			<polygon class="st53" points="694.6,371.2 694.6,440.6 685.7,440.1 685.4,371.2 			"/>
			<polygon class="st66" points="694.6,381.1 685.4,381.1 685.5,387.3 694.6,387.3 			"/>
			<polygon class="st66" points="744.8,382.7 725.5,382.7 725.7,387.3 744.8,387.9 			"/>
			<polygon class="st54" points="465.1,427.6 465.1,372.5 635.1,372.5 635.1,438.5 			"/>
			<polygon class="st60" points="505.9,369.4 505.9,430.2 566.9,434.1 565,369.8 			"/>
			<polygon class="st51" points="566.9,434.1 566.9,372.5 594.7,372.5 594.7,369.4 565,369.8 			"/>
			<polygon class="st55" points="479.1,372.5 479.1,428.5 498.3,429.7 496.3,372.5 			"/>
			<polygon class="st62" points="602.2,436.4 602.2,372.5 617.2,372.5 620.1,437.6 			"/>
			<polygon class="st53" points="589.6,372.5 589.6,435.6 581.5,435.1 581.2,372.5 			"/>
			<polygon class="st51" points="525.2,369.4 525.2,426 526.5,369.4 			"/>
			<polygon class="st51" points="546.4,432.8 547,369.4 548.2,432.9 			"/>
			<polygon class="st53" points="525.2,369.4 525.9,431.5 548.2,432.9 547,369.4 			"/>
			<polygon class="st66" points="525.9,428.6 548.2,429.7 548,420.9 525.9,420.2 			"/>
			<polygon class="st66" points="589.6,381.5 581.2,381.5 581.2,387.1 589.6,387.1 			"/>
			<polygon class="st66" points="479.1,384.4 479.1,389.1 497,391 497,384.4 			"/>
			<rect x="505.9" y="388.7" class="st66" width="19.3" height="3.1"/>
			<polygon class="st60" points="729.9,375.6 729.9,443.5 779.5,446.7 779.5,375.9 			"/>
			<rect x="729.9" y="397.2" class="st66" width="21.6" height="3.5"/>
			<polygon class="st66" points="566.9,424.6 581.4,425 581.5,432.1 566.9,431.4 			"/>
			<polygon class="st53" points="751.5,375.6 751.9,444.9 767.1,445.6 766.7,375.8 			"/>
			<polygon class="st60" points="658.7,371.2 662,438.5 678.2,439.8 676.3,371.2 			"/>
		</g>
		<g>
			<polygon class="st62" points="1400,117.7 1136.7,141.3 1136.7,197.8 1400,177 			"/>
			<polygon class="st53" points="1347.5,117.3 1347.5,181.1 1400,177 1400,112.4 			"/>
			<polygon class="st60" points="1164.3,195.8 1164.3,134.3 1212.6,128.3 1212.6,191.8 			"/>
			<polygon class="st51" points="1212.6,128.3 1236.1,132.4 1216.1,134.2 1212.6,191.8 			"/>
			<polygon class="st60" points="1282,186.3 1282,122.3 1290.7,121.2 1290.7,185.6 			"/>
			<polygon class="st54" points="1310.5,125.7 1310.5,184.1 1347.5,181.1 1347.5,122.4 			"/>
			<polygon class="st53" points="1247.2,189.1 1247.2,131.4 1258,130.4 1258,188.2 			"/>
			<polygon class="st54" points="1229.8,190.5 1229.8,133 1216.1,134.2 1212.6,191.8 			"/>
			<polygon class="st66" points="1164.3,184.1 1212.6,181.1 1212.6,186.3 1164.3,189.1 			"/>
			<polygon class="st66" points="1347.5,127.5 1400,122.4 1400,127.5 1347.5,130.4 			"/>
			<polygon class="st66" points="1229.8,143 1247.2,141.3 1247.2,145.3 1229.8,146.8 			"/>
			<polygon class="st66" points="1282,177 1282,181.1 1290.7,181.1 1290.7,175.5 			"/>
			<polygon class="st66" points="1310.5,137.2 1347.5,134.3 1347.5,138.2 1310.5,141.3 			"/>
			<polygon class="st66" points="1136.7,147 1164.3,145 1164.3,149.9 1136.7,151.4 			"/>
		</g>
		<g>
			<polygon class="st62" points="779.5,180.3 577.6,198.5 577.6,241.8 779.5,225.8 			"/>
			<polygon class="st53" points="739.2,180.1 739.2,229 779.5,225.8 779.5,176.3 			"/>
			<polygon class="st60" points="598.7,240.2 598.7,193.1 635.7,188.5 635.7,237.2 			"/>
			<polygon class="st51" points="635.7,188.5 653.8,191.6 638.5,193 635.7,237.2 			"/>
			<polygon class="st60" points="689,233 689,183.9 695.7,183 695.7,232.4 			"/>
			<polygon class="st54" points="710.9,186.5 710.9,231.2 739.2,229 739.2,183.9 			"/>
			<polygon class="st53" points="662.3,235.1 662.3,190.8 670.6,190.1 670.6,234.4 			"/>
			<polygon class="st54" points="649,236.2 649,192 638.5,193 635.7,237.2 			"/>
			<polygon class="st66" points="739.2,187.8 779.5,183.9 779.5,187.8 739.2,190.1 			"/>
			<polygon class="st66" points="649,199.7 662.3,198.5 662.3,201.5 649,202.6 			"/>
			<polygon class="st66" points="689,225.8 689,229 695.7,229 695.7,224.7 			"/>
			<polygon class="st66" points="710.9,195.3 739.2,193.1 739.2,196 710.9,198.5 			"/>
			<polygon class="st66" points="577.6,202.8 598.7,201.3 598.7,205 577.6,206.2 			"/>
			<polygon class="st53" points="615.2,191 615.2,238.9 626.5,237.9 626.5,189.6 			"/>
			<polygon class="st53" points="577.6,200.6 433.2,214.2 430.6,253.4 577.6,241.8 			"/>
			<polygon class="st62" points="489.9,248.7 490.6,206.2 449.7,210.7 448.6,252 			"/>
			<polygon class="st54" points="490.6,206.2 503.4,207.6 495.6,208.3 494.4,248.4 489.9,248.7 			"/>
			<polygon class="st60" points="513.1,206.7 513.1,246.9 551.1,243.9 552.4,202.6 			"/>
			<polygon class="st60" points="460.6,209.5 460.6,251 476.3,249.8 476.3,208 			"/>
			<polygon class="st66" points="551.4,235.1 577.6,233 577.6,237.2 551.4,238.9 			"/>
			<polygon class="st66" points="460.6,217.9 460.6,224.8 476.3,223.7 476.3,216.5 			"/>
			<polygon class="st62" points="523.4,205.7 524.6,246 513.1,246.9 513.1,206.7 			"/>
			<polygon class="st66" points="513.1,241.8 524.5,241 524.3,235.9 513.1,237 			"/>
			<polygon class="st66" points="523.5,211.1 552.2,208 552.2,210.4 523.6,212.7 			"/>
		</g>
		<linearGradient id="SVGID_25_" gradientUnits="userSpaceOnUse" x1="597.5348" y1="582.2454" x2="597.5348" y2="146.3334">
			<stop  offset="0" style="stop-color:#892A36"/>
			<stop  offset="1" style="stop-color:#AB482C"/>
		</linearGradient>
		<polygon class="st69" points="574.2,573.5 585.4,150.9 620.9,146.3 617.2,582.2 		"/>
		<polygon class="st28" points="620.9,146.3 626.1,149 625.7,583.1 617.2,582.2 		"/>
		<polygon class="st28" points="606,580 594.7,580 603.9,143.8 610.7,147.6 		"/>
		<linearGradient id="SVGID_26_" gradientUnits="userSpaceOnUse" x1="597.2819" y1="579.9658" x2="597.2819" y2="143.7638">
			<stop  offset="0" style="stop-color:#983436"/>
			<stop  offset="1" style="stop-color:#C75F2C"/>
		</linearGradient>
		<polygon class="st70" points="603.9,143.8 597.5,149.4 590.7,576.8 594.7,580 		"/>
		<polygon class="st33" points="625.8,442.1 662,438.5 658.7,369.8 635.9,371.7 667.5,371.2 668.4,355.2 626.1,341.9 		"/>
		<polygon class="st33" points="625.8,335.5 626.1,243.3 666.4,255.8 665.7,283.9 639,285.4 639,335.4 		"/>
	</g>
	<linearGradient id="SVGID_27_" gradientUnits="userSpaceOnUse" x1="-0.5617" y1="65.2145" x2="951.611" y2="65.2145">
		<stop  offset="0" style="stop-color:#C75C2C"/>
		<stop  offset="1" style="stop-color:#9B3736"/>
	</linearGradient>
	<polygon class="st71" points="-0.6,73.5 396.9,130.4 951.6,0 839.2,0 394.3,117.7 -0.6,49.3 	"/>
	<polygon class="st72" points="839.2,0 761.8,0 394.3,112.4 0.3,20.7 -0.6,49.3 394.3,117.7 	"/>
	<polygon class="st73" points="394.3,117.7 394.3,112.4 761.8,0 839.2,0 	"/>
	<linearGradient id="SVGID_28_" gradientUnits="userSpaceOnUse" x1="96.4444" y1="33.4339" x2="275.3333" y2="33.4339">
		<stop  offset="0" style="stop-color:#C75C2C"/>
		<stop  offset="1" style="stop-color:#B24936"/>
	</linearGradient>
	<polygon class="st74" points="96.4,58.8 144.1,66.9 275.3,0 193.7,0 	"/>
	<polygon class="st73" points="96.4,58.8 96.4,43.1 160.8,0 193.7,0 	"/>
	<polygon class="st75" points="275.3,0 159.9,58.8 394.3,112.4 761.8,0 	"/>
	<polygon class="st75" points="0.3,20.7 96.4,43.1 160.8,0 0,0 	"/>
	<linearGradient id="SVGID_29_" gradientUnits="userSpaceOnUse" x1="348.5417" y1="29.4167" x2="610.7313" y2="29.4167">
		<stop  offset="0" style="stop-color:#C75C2C"/>
		<stop  offset="1" style="stop-color:#B24936"/>
	</linearGradient>
	<polygon class="st76" points="348.5,0 596.2,58.8 610.7,56.2 389.7,0 	"/>
	<polygon class="st72" points="610.7,56.2 610.7,46.2 434.4,0 389.7,0 	"/>
	<polygon class="st77" points="-0.6,212.8 413.2,184.7 779.5,195.8 779.5,122 893.7,94.6 946.9,103.5 1080.1,146.3 1400,137.5 
		1400,30 1098.4,64.7 954.7,42.7 887.3,44.2 761.8,86 779.5,101 779.5,129.7 413.2,177 0,147.5 	"/>
	<g class="st6">
		<polygon class="st78" points="288.8,246.9 285.3,249 283,404 380.6,404 380.6,253.4 		"/>
		<linearGradient id="SVGID_30_" gradientUnits="userSpaceOnUse" x1="291.6667" y1="321.2042" x2="392" y2="321.2042">
			<stop  offset="0" style="stop-color:#AB482C"/>
			<stop  offset="1" style="stop-color:#A73C3B"/>
		</linearGradient>
		<polygon class="st79" points="291.7,243.5 291.7,398.9 392,398.9 392,246.9 		"/>
		<polygon class="st38" points="291.7,243.5 288.8,246.9 288.8,396.5 291.7,398.9 		"/>
		<polygon class="st80" points="300.2,252 377.7,254.7 377.7,391.3 300.2,390.3 		"/>
		<polygon class="st9" points="296.1,396.2 389.7,396.2 377.7,391.3 300.2,390.3 		"/>
		<polygon class="st28" points="300.2,252 294.4,245.5 389.1,249.9 377.7,256.2 		"/>
		<polygon class="st78" points="377.7,256.2 306.7,262.4 300.2,388.7 300.2,252 		"/>
	</g>
	<g class="st6">
		<polygon class="st33" points="650.9,233.4 643.1,231.2 500,612.8 511.9,614.3 		"/>
		<linearGradient id="SVGID_31_" gradientUnits="userSpaceOnUse" x1="566.5338" y1="612.8344" x2="566.5338" y2="231.2396">
			<stop  offset="0" style="stop-color:#C25136"/>
			<stop  offset="1" style="stop-color:#E0761B"/>
		</linearGradient>
		<polygon class="st81" points="643.1,231.2 636.7,231.2 490,608.4 500,612.8 		"/>
		<polygon class="st82" points="527.7,572.6 518.7,572.6 568.4,583.5 569.3,581 		"/>
		<polygon class="st83" points="518.7,572.6 515.4,582.2 564.3,595 568.4,583.5 		"/>
		<polygon class="st82" points="548.3,517.4 539.3,517.7 589.4,527.1 590.2,524.5 		"/>
		<polygon class="st83" points="539.3,517.7 536.4,527.4 585.7,538.7 589.4,527.1 		"/>
		<polygon class="st82" points="565.7,470.4 556.8,471.2 607.4,477.7 608,475.2 		"/>
		<polygon class="st83" points="556.8,471.2 554.5,481.1 604.7,489.5 607.4,477.7 		"/>
		<polygon class="st82" points="581.2,424.3 572.2,425.1 623.3,428 623.8,426.9 		"/>
		<polygon class="st83" points="572.2,425.1 571,435.1 621.7,440 623.3,428 		"/>
		<polygon class="st83" points="589.4,381.9 586.3,391.9 640.2,393.2 640.6,382.7 		"/>
		<polygon class="st83" points="604.2,341.1 600.4,351.1 655,352.4 655.4,340.4 		"/>
		<polygon class="st83" points="618.3,301.8 615.2,311.8 669.4,312.2 669.6,300.2 		"/>
		<polygon class="st83" points="632.8,262.4 629.6,272.6 684.2,271.3 683.9,259.3 		"/>
		<polygon class="st33" points="704.9,228.3 696.5,226.2 561.9,633.7 574.5,634.9 		"/>
		
			<linearGradient id="SVGID_32_" gradientUnits="userSpaceOnUse" x1="622.9055" y1="630.2749" x2="622.9055" y2="227.7527" gradientTransform="matrix(0.9994 -3.480000e-02 3.480000e-02 0.9994 -13.5866 23.044)">
			<stop  offset="0" style="stop-color:#C25136"/>
			<stop  offset="1" style="stop-color:#E0761B"/>
		</linearGradient>
		<polygon class="st84" points="696.5,226.2 689.8,226.4 551.1,629.3 561.9,633.7 		"/>
		<polygon class="st85" points="615.2,311.8 620.9,315.7 659.2,315.2 660.5,311.4 		"/>
		<polygon class="st85" points="630.2,272.6 635.6,275.4 673.3,274.4 674.8,270 		"/>
		<polygon class="st85" points="600.4,351.1 606.5,355.2 645.3,355.7 646.9,351.1 		"/>
		<polygon class="st85" points="586.3,391.9 592.1,394.5 631.4,396 632.4,393 		"/>
	</g>
	<linearGradient id="SVGID_33_" gradientUnits="userSpaceOnUse" x1="206.8987" y1="640.4648" x2="206.8987" y2="58.8334">
		<stop  offset="0" style="stop-color:#000000"/>
		<stop  offset="1" style="stop-color:#C75C2C"/>
	</linearGradient>
	<polygon class="st86" points="159.9,58.8 19.5,640.5 355.1,640.5 394.3,112.4 	"/>
	<linearGradient id="SVGID_34_" gradientUnits="userSpaceOnUse" x1="440.0383" y1="652.6666" x2="440.0383" y2="-9.094947e-13">
		<stop  offset="0" style="stop-color:#000000"/>
		<stop  offset="1" style="stop-color:#C75C2C"/>
	</linearGradient>
	<polygon class="st87" points="348.5,0 579.9,55 579.1,648.3 300.2,652.7 	"/>
	<linearGradient id="SVGID_35_" gradientUnits="userSpaceOnUse" x1="194.1903" y1="597.8536" x2="194.1903" y2="-9.094947e-13">
		<stop  offset="0" style="stop-color:#000000"/>
		<stop  offset="1" style="stop-color:#C75C2C"/>
	</linearGradient>
	<polygon class="st88" points="275.3,0 196.4,40.2 113,587.8 203.7,597.9 	"/>
	<g class="st6">
		<path class="st89" d="M325.3,78c0,0.9-0.9,1.7-1.9,1.7c-1.1,0-1.9-0.7-1.9-1.7c0-0.9,0.9-1.7,1.9-1.7
			C324.4,76.3,325.3,77,325.3,78z"/>
		<path class="st89" d="M277.3,179.7c0,0.9-0.9,1.7-1.9,1.7c-1.1,0-1.9-0.7-1.9-1.7c0-0.9,0.9-1.7,1.9-1.7
			C276.4,178,277.3,178.8,277.3,179.7z"/>
		<path class="st89" d="M327.9,139.9c0,0.6-0.6,1.1-1.3,1.1c-0.7,0-1.3-0.5-1.3-1.1c0-0.6,0.6-1.1,1.3-1.1
			C327.3,138.8,327.9,139.3,327.9,139.9z"/>
		<ellipse class="st89" cx="309.4" cy="201.3" rx="1.3" ry="1.1"/>
		<ellipse class="st89" cx="260.8" cy="73.5" rx="1.3" ry="1.1"/>
		<ellipse class="st89" cx="362.4" cy="146.3" rx="1.3" ry="1.1"/>
		<ellipse class="st89" cx="216.6" cy="126.8" rx="1.3" ry="1.1"/>
		<ellipse class="st89" cx="351.7" cy="124.1" rx="3.1" ry="2.7"/>
		<path class="st89" d="M201.6,117.7c0,1.5-1.4,2.7-3.1,2.7c-1.7,0-3.1-1.2-3.1-2.7c0-1.5,1.4-2.7,3.1-2.7
			C200.2,115,201.6,116.2,201.6,117.7z"/>
		<path class="st89" d="M321.4,181.3c0,1.2-1.2,2.2-2.6,2.2c-1.4,0-2.6-1-2.6-2.2s1.2-2.2,2.6-2.2
			C320.2,179.1,321.4,180.1,321.4,181.3z"/>
		<path class="st89" d="M224.7,121.4c0,1.2-1.2,2.2-2.6,2.2s-2.6-1-2.6-2.2s1.2-2.2,2.6-2.2S224.7,120.2,224.7,121.4z"/>
		<path class="st89" d="M247,217.9c0,1.2-1.2,2.2-2.6,2.2c-1.4,0-2.6-1-2.6-2.2c0-1.2,1.2-2.2,2.6-2.2
			C245.9,215.7,247,216.7,247,217.9z"/>
		<path class="st89" d="M280.5,146.3c0,2.5-2.3,4.5-5.2,4.5c-2.9,0-5.2-2-5.2-4.5c0-2.5,2.3-4.5,5.2-4.5
			C278.2,141.9,280.5,143.9,280.5,146.3z"/>
		<path class="st89" d="M321.4,135.5c0,1.2-1.2,2.2-2.6,2.2c-1.4,0-2.6-1-2.6-2.2s1.2-2.2,2.6-2.2
			C320.2,133.3,321.4,134.3,321.4,135.5z"/>
		<path class="st89" d="M249.6,197.9c0,1.2-1.2,2.2-2.6,2.2c-1.4,0-2.6-1-2.6-2.2c0-1.2,1.2-2.2,2.6-2.2
			C248.5,195.7,249.6,196.7,249.6,197.9z"/>
		<path class="st89" d="M259.5,141.9c0,1.2-1.2,2.2-2.6,2.2s-2.6-1-2.6-2.2s1.2-2.2,2.6-2.2S259.5,140.7,259.5,141.9z"/>
		<path class="st89" d="M307.6,227c-0.2,0.6-1,0.9-1.6,0.7s-1-0.8-0.8-1.4c0.2-0.6,1-0.9,1.6-0.7C307.5,225.8,307.8,226.4,307.6,227
			z"/>
		<path class="st89" d="M348.8,212.1c-0.2,0.4-0.6,0.6-1.1,0.4c-0.4-0.1-0.7-0.6-0.5-0.9c0.2-0.4,0.6-0.6,1.1-0.4
			C348.7,211.3,348.9,211.8,348.8,212.1z"/>
		<path class="st89" d="M369.1,222.8c-0.2,0.4-0.6,0.6-1.1,0.4c-0.4-0.1-0.7-0.6-0.5-0.9c0.2-0.4,0.6-0.6,1.1-0.4
			C369,222,369.2,222.4,369.1,222.8z"/>
		<path class="st89" d="M334.2,236.3c-0.3,0.8-1.3,1.1-2.2,0.9c-0.9-0.3-1.3-1.1-1-1.9c0.3-0.8,1.3-1.1,2.2-0.9
			C334.1,234.7,334.5,235.5,334.2,236.3z"/>
		<path class="st89" d="M318.1,207.2c-0.6,1.5-2.6,2.3-4.3,1.8c-1.8-0.5-2.7-2.2-2-3.7c0.6-1.5,2.6-2.3,4.3-1.8
			C317.8,204,318.7,205.7,318.1,207.2z"/>
		<path class="st89" d="M345.9,208.2c-0.3,0.8-1.3,1.1-2.2,0.9c-0.9-0.3-1.3-1.1-1-1.9c0.3-0.8,1.3-1.1,2.2-0.9
			C345.8,206.6,346.2,207.5,345.9,208.2z"/>
		<path class="st89" d="M306.3,200.5c-0.3,0.8-1.3,1.1-2.2,0.9c-0.9-0.3-1.3-1.1-1-1.9c0.3-0.8,1.3-1.1,2.2-0.9
			C306.2,198.9,306.7,199.8,306.3,200.5z"/>
		<path class="st89" d="M187.5,133c-0.3,0.8-1.3,1.1-2.2,0.9c-0.9-0.3-1.3-1.1-1-1.9c0.3-0.8,1.3-1.1,2.2-0.9
			C187.3,131.4,187.8,132.3,187.5,133z"/>
	</g>
	<polygon class="st90" points="197.5,602.9 0.2,606.1 0.7,554 140.2,552.8 	"/>
	<polygon class="st90" points="280.7,678.5 -0.6,683.5 0.2,610.9 203.1,607.7 	"/>
	<polygon class="st90" points="443.6,598.9 215.4,602.6 151.6,552.8 322.8,551.3 	"/>
	<polygon class="st90" points="630.2,672.3 312,678 221.7,607.5 456.1,603.8 456.1,603.8 	"/>
	<polygon class="st91" points="0.2,606.1 0.2,610.9 -0.6,606.1 	"/>
	<g class="st6">
		<polygon class="st38" points="45.5,742.8 54.9,0 164.5,0 163.2,742.8 		"/>
		<polygon class="st28" points="45.5,742.8 35.6,693.9 39.5,0 54.9,0 		"/>
		<polygon class="st48" points="163.3,720.6 173.5,744 45.2,746.7 45.5,720.3 		"/>
		<polygon class="st28" points="173.5,744 173.5,752 45.2,752 45.5,742.8 		"/>
		<polygon class="st38" points="35.6,693.9 25.1,705.3 45.2,746.7 45.5,720.3 		"/>
		<polygon class="st33" points="25.1,705.3 25.1,709.2 45.2,752 45.5,742.8 		"/>
		<polygon class="st28" points="164.5,445.9 175,425.9 46.1,424.3 49.7,445.9 		"/>
		<polygon class="st33" points="49.7,445.9 37,438.5 29.6,420 46.1,424.3 		"/>
		<polygon class="st48" points="175,425.9 163.8,420 51.3,419 46.1,424.3 		"/>
		<polygon class="st38" points="29.6,420 37.1,416.3 51.3,419 46.1,424.3 		"/>
		<polygon class="st28" points="55.5,709.2 155.2,709.2 155.2,456.8 59.1,457 		"/>
		<polygon class="st92" points="64.2,696 140.1,696 144.7,464.3 68.3,464.3 		"/>
		<polygon class="st48" points="57.8,705.3 64.2,696 140.1,696 151.6,705.3 		"/>
		<polygon class="st33" points="68.3,464.3 61.4,459.1 151.1,459.1 144.7,464.3 		"/>
		<polygon class="st93" points="59.1,457 61.4,459.1 151.1,459.1 155.2,456.8 		"/>
		<polygon class="st33" points="40.4,705.3 45.5,454.7 37,450.7 32.7,450.7 32.3,689.7 		"/>
		<polygon class="st28" points="39.6,457.9 37.9,691.4 36.6,688.8 38.1,456.8 		"/>
		<polygon class="st94" points="36.6,688.8 33.3,689.8 34.3,452.6 38.1,456.8 		"/>
		<polygon class="st93" points="45.5,454.7 41.6,457.2 32.7,450.7 37,448.9 		"/>
		<polygon class="st48" points="33.3,689.8 38.9,697.8 37.9,691.4 36.6,688.8 		"/>
		<g class="st95">
			<g>
				<path class="st28" d="M50.3,296.3l-1.2-1.1c1-0.8,103.2-84.7,112.8-177.6l1.7,0.1C154,211.2,51.3,295.5,50.3,296.3z"/>
			</g>
			<g>
				<path class="st28" d="M50.5,361.1l-1.7-0.3C49.2,359.5,85,232.1,164,221.1l0.3,1.5C86.4,233.5,50.9,359.8,50.5,361.1z"/>
			</g>
			<g>
				<path class="st28" d="M164.7,420l-1.8-0.1c0.1-1.4,5.4-144.6-27.6-146.5c-33.6-2-77,90.7-83.1,145.6l-1.7-0.1
					c6.2-56.2,48.8-147,83.8-147c0.4,0,0.8,0,1.2,0C170.1,274,164.9,414.1,164.7,420z"/>
			</g>
			<g>
				<path class="st28" d="M73.5,420.4l-1.7-0.2c0.5-2.9,13.1-72.1,51.3-79.1c6.2-1.1,11.7,0,16.2,3.4c20.8,15.4,16.9,72.1,16.8,74.5
					l-1.7-0.1c0-0.6,4-58.3-16.2-73.2c-4.1-3.1-9.1-4.1-14.7-3.1C86.4,349.3,73.6,419.7,73.5,420.4z"/>
			</g>
			<g>
				<path class="st28" d="M51.6,270.7l-0.2-1.5c0.4,0,45.2-5,68.1-63.3C142.6,147.3,162.8,8.6,163,7.2l1.7,0.2
					c-0.2,1.4-20.4,140.2-43.5,199C97.9,265.6,52,270.7,51.6,270.7z"/>
			</g>
			<g>
				<path class="st28" d="M55.9,246.4c-2.6,0-4.1-0.2-4.2-0.2l0.3-1.5c0.3,0,27.2,3.3,43.8-18.9C112,204,122.5,140,120,133.6
					c-1.7,1.7-5.9,10.8-9.9,19.5c-8,17.7-19.1,41.9-29.1,50.7c-16.7,14.7-28.4,14.8-28.9,14.8l0-1.5l0,0c0.1,0,11.5-0.2,27.6-14.4
					c9.8-8.6,20.7-32.7,28.7-50.2c6.8-14.9,9.3-20.1,11.2-20.6c0.4-0.1,0.8-0.1,1.1,0.1c0.4,0.2,0.7,0.6,0.8,1.3
					c2.3,8.8-8.1,71.4-24.5,93.3C84,244.3,64.4,246.4,55.9,246.4z"/>
			</g>
			<g>
				<path class="st28" d="M52.8,169.7C52.8,169.7,52.8,169.7,52.8,169.7l-0.1-1.5c0.3,0,25.5-0.1,54.5-38.9
					C136.5,90.2,154.5,0.8,154.7-0.1l1.7,0.3c-0.2,0.9-18.2,90.6-47.7,129.9C79.7,168.9,54.8,169.7,52.8,169.7z"/>
			</g>
			<g>
				<path class="st28" d="M53.6,122.7l-0.5-1.4c0.3-0.1,30.4-7.3,50.3-33.2c20-26.1,33.3-87.6,33.4-88.2l1.7,0.3
					c-0.1,0.6-13.5,62.5-33.7,88.8C84.6,115.3,53.9,122.7,53.6,122.7z"/>
			</g>
			<g>
				<path class="st28" d="M87.7,76c-0.4,0-0.9,0-1.3-0.1c-25.1-2.8-15-73-14.6-76l1.7,0.2c-0.1,0.7-10.3,71.8,13.1,74.3
					c2.6,0.3,5.1-0.4,7.5-2c18.1-12.2,26.1-71.9,26.1-72.5l1.7,0.2c-0.3,2.5-8.1,60.9-26.8,73.5C92.7,75.2,90.2,76,87.7,76z"/>
			</g>
			<g>
				<path class="st28" d="M95.5,34.2c-1.7,0-3.2-0.6-4.5-1.8C83.5,25.7,85.5,1,85.6-0.1l1.7,0.1c0,0.3-2,25.1,4.9,31.3
					c1,0.9,2.1,1.2,3.3,1.3c9.1-0.1,15.1-23.7,16.7-32.8l1.7,0.2C113.7,1.5,107.9,34.1,95.5,34.2C95.5,34.2,95.5,34.2,95.5,34.2z"/>
			</g>
		</g>
		<polygon class="st96" points="38,265.5 51.8,310.7 164.1,365.2 164.4,420.3 49.7,419.7 37.1,416.3 		"/>
		<linearGradient id="SVGID_36_" gradientUnits="userSpaceOnUse" x1="107.8554" y1="329.4544" x2="107.8554" y2="0">
			<stop  offset="0" style="stop-color:#000000"/>
			<stop  offset="1" style="stop-color:#D45C00"/>
		</linearGradient>
		<polygon class="st97" points="54.9,0 120.3,320 145.1,329.5 160.8,0 		"/>
		<polygon class="st98" points="113,742.8 98.9,720.4 163.3,720.6 173.5,744 		"/>
		<polygon class="st98" points="105,419.5 114.1,425 175,425.9 163.8,420 		"/>
		<polygon class="st98" points="98.9,743.3 86.3,720.4 80.4,720.4 89.6,743.3 		"/>
	</g>
</g>
</svg>
