<?xml version="1.0" encoding="utf-8"?>
<!-- Generator: Adobe Illustrator 24.1.2, SVG Export Plug-In . SVG Version: 6.00 Build 0)  -->
<svg version="1.1" id="Layer_1" xmlns="http://www.w3.org/2000/svg" xmlns:xlink="http://www.w3.org/1999/xlink" x="0px" y="0px"
	 viewBox="0 0 600 600" style="enable-background:new 0 0 600 600;" xml:space="preserve">
<style type="text/css">
	.st0{display:none;}
	.st1{display:inline;fill:#FFFFFF;}
	.st2{fill:#5E3430;}
	.st3{fill:#492523;}
</style>
<g id="background" class="st0">
	<rect class="st1" width="600" height="600"/>
</g>
<g id="objects">
	<g>
		<g>
			<path class="st2" d="M94.7,564.5c-14.2,0-25.8-7.1-25.8-15.9s11.6-15.9,25.8-15.9c0.2,0,0.3,0,0.5,0c4.2-8,16.5-13.8,30.9-13.8
				c0.2,0,0.3,0,0.5,0c3.6-6.1,13.1-10.4,24.2-10.4c4.5,0,8.8,0.7,12.4,2c4.6-1.7,9.9-2.7,15.6-2.7c1.3,0,2.5,0.1,3.8,0.1
				c5.9-5.1,15.5-8.5,26.4-8.5c2.7-2.9,7.8-4.9,13.6-4.9c3.3,0,6.3,0.6,8.9,1.7c6.8-4.4,16.3-7.2,27-7.2c2.2,0,4.4,0.1,6.6,0.4
				c8-6.5,20.6-10.7,34.9-10.7s26.9,4.2,34.9,10.7c2.1-0.2,4.3-0.4,6.6-0.4c10.7,0,20.3,2.8,27,7.2c2.5-1,5.6-1.7,8.9-1.7
				c5.8,0,10.9,2,13.6,4.9c10.9,0,20.5,3.3,26.4,8.5c1.2-0.1,2.5-0.1,3.8-0.1c5.7,0,11,1,15.6,2.7c3.7-1.2,7.9-2,12.4-2
				c11.1,0,20.6,4.3,24.2,10.4c0.2,0,0.3,0,0.5,0c14.4,0,26.7,5.8,30.9,13.8c0.2,0,0.3,0,0.5,0c14.2,0,25.8,7.1,25.8,15.9
				s-11.7,15.9-26,15.9H94.7z"/>
			<path class="st3" d="M142.9,529.3c0,0,18,0.6,22-11.1c0,0,1.4,5.1-1.3,8.8C160.8,530.9,153.7,533.4,142.9,529.3z"/>
			<path class="st3" d="M458.4,532.4c0,0-23,0.8-28.1-14.2c0,0-1.8,6.4,1.7,11.2C435.5,534.4,444.6,537.7,458.4,532.4z"/>
			<path class="st3" d="M290.8,550.6c0,0-23,0.8-28.1-14.2c0,0-1.8,6.4,1.7,11.2C267.9,552.5,277,555.8,290.8,550.6z"/>
			<path class="st3" d="M258.5,514.2c0,0,23,0.8,28.1-14.2c0,0,1.8,6.4-1.7,11.2C281.4,516.2,272.3,519.4,258.5,514.2z"/>
			<path class="st3" d="M404.9,524.6c-6.7,2.5-12.2,3-16.5,2.2c-2.3,1.5-5.4,2.3-8.6,2.7c-8.1,0.8-17.4-1.9-17.4-1.9
				c8.9,0.3,15-1.4,19.4-3.5c-1-0.7-1.7-1.5-2.4-2.3c-3.4-4.6-1.6-10.9-1.6-10.9c1.6,4.7,5,7.8,8.9,9.8c1.6,0.9,3.4,1.5,5.1,2
				C398.5,524.7,404.9,524.6,404.9,524.6z"/>
			<path class="st3" d="M195.2,519.7c6.7,2.5,12.2,3,16.5,2.2c2.3,1.5,5.4,2.3,8.6,2.7c8.1,0.8,17.4-1.9,17.4-1.9
				c-8.9,0.3-15.1-1.4-19.4-3.5c0.9-0.7,1.7-1.5,2.4-2.3c3.4-4.6,1.6-10.9,1.6-10.9c-1.6,4.7-5,7.8-8.9,9.8c-1.6,0.9-3.4,1.5-5.1,2
				C201.6,519.9,195.2,519.7,195.2,519.7z"/>
			<path class="st3" d="M117.8,564.5c36.8,0,47.5-12.3,47.5-12.3s7.9,12.3,53.6,12.3H117.8z"/>
			<path class="st3" d="M405.5,564.5c36.8,0,47.5-12.3,47.5-12.3s4.2,12.3,49.9,12.3H405.5z"/>
		</g>
	</g>
</g>
</svg>
