<?xml version="1.0" encoding="utf-8"?>
<!-- Generator: Adobe Illustrator 24.1.2, SVG Export Plug-In . SVG Version: 6.00 Build 0)  -->
<svg version="1.1" id="Layer_1" xmlns="http://www.w3.org/2000/svg" xmlns:xlink="http://www.w3.org/1999/xlink" x="0px" y="0px"
	 viewBox="0 0 600 600" style="enable-background:new 0 0 600 600;" xml:space="preserve">
<style type="text/css">
	.st0{display:none;}
	.st1{display:inline;fill:#FFFFFF;}
	.st2{fill:#8BBC4A;}
	.st3{fill:#9CD83D;}
	.st4{fill:#98C939;}
	.st5{fill:#5E3430;}
	.st6{fill:#492523;}
</style>
<g id="background" class="st0">
	<rect class="st1" width="600" height="600"/>
</g>
<g id="objects">
	<g>
		<g>
			<path class="st2" d="M300,430.6c-2.3,0-4.2-1.9-4.2-4.2V287.4c0-53.5,29.5-101.9,77-126.4c2.1-1.1,4.6-0.3,5.7,1.8
				c1.1,2.1,0.3,4.6-1.8,5.7c-44.7,23.1-72.5,68.6-72.5,118.9v138.9C304.2,428.7,302.3,430.6,300,430.6z"/>
			<g>
				<path class="st3" d="M522,93.7c-43.8,35.4-36.7,76.7-84.6,116.7c-28.6,24-64.5,17.2-86.6-12.9c-3.1-4.2-5.8-8.7-8-13.4
					c-1.2-2.5-2.3-5.1-3.3-7.7c-9.9-27-5.6-57.7,18-75C419.6,55.9,522,93.7,522,93.7z"/>
				<path class="st4" d="M355.2,177c0,0-6.1-36,6.4-52.3c0,0-6.8,30.3,3.9,43.8L355.2,177z"/>
				<path class="st4" d="M374,160.3c0,0-2.9-36.4,10.9-51.6c0,0-9.4,29.6,0.1,44L374,160.3z"/>
				<path class="st4" d="M395.6,149c0,0,4.1-36.2,20.5-48.6c0,0-14.8,27.2-8.3,43.2L395.6,149z"/>
				<path class="st4" d="M355.6,176.9c0,0,28.8,22.4,49.1,19.2c0,0-29.9-8.4-36.7-24.2L355.6,176.9z"/>
				<path class="st4" d="M374.7,163.9c0,0,30.6,19.8,50.6,14.8c0,0-30.5-5.8-38.7-20.9L374.7,163.9z"/>
				<path class="st4" d="M397.4,151.1c0,0,33.8,13.6,52.5,4.9c0,0-31,0.1-41.9-13.2L397.4,151.1z"/>
				<path class="st4" d="M423.7,130.4c0,0,3.1-28.1,15.9-37.7c0,0-11.5,21.1-6.4,33.5L423.7,130.4z"/>
				<path class="st4" d="M425.1,132.1c0,0,26.2,10.6,40.7,3.8c0,0-24.1,0.1-32.5-10.2L425.1,132.1z"/>
				<path class="st4" d="M452.6,119.1c0,0,2.3-20.3,11.5-27.2c0,0-8.3,15.3-4.6,24.2L452.6,119.1z"/>
				<path class="st4" d="M453.6,120.3c0,0,18.9,7.6,29.4,2.8c0,0-17.4,0.1-23.5-7.4L453.6,120.3z"/>
				<path class="st2" d="M478.2,110.4c-41.6,17.2-108.6,59-132.2,79.9c-1.2-2-2.2-4-3.2-6.1c-0.3-0.5-0.5-1.1-0.8-1.6
					c10.2-10.2,81.7-57.8,134.8-75.3C478.8,106.5,480.2,109.6,478.2,110.4z"/>
			</g>
			<path class="st2" d="M300,342.7c-2.3,0-4.2-1.9-4.2-4.2c0-50.3-27.8-95.9-72.5-118.9c-2.1-1.1-2.9-3.6-1.8-5.7
				c1.1-2.1,3.6-2.9,5.7-1.8c47.5,24.5,77,73,77,126.4C304.2,340.8,302.3,342.7,300,342.7z"/>
			<g>
				<path class="st3" d="M78,144.8c43.8,35.4,36.7,76.7,84.6,116.7c28.6,24,64.5,17.2,86.6-12.9c3.1-4.2,5.8-8.7,8-13.4
					c1.2-2.5,2.3-5.1,3.3-7.7c9.9-27,5.6-57.7-18-75C180.4,107,78,144.8,78,144.8z"/>
				<path class="st4" d="M244.8,228.1c0,0,6.1-36-6.4-52.3c0,0,6.8,30.3-3.9,43.8L244.8,228.1z"/>
				<path class="st4" d="M226,211.4c0,0,2.9-36.4-10.9-51.6c0,0,9.4,29.6-0.1,44L226,211.4z"/>
				<path class="st4" d="M204.4,200c0,0-4.1-36.2-20.5-48.6c0,0,14.8,27.2,8.3,43.2L204.4,200z"/>
				<path class="st4" d="M244.4,227.9c0,0-28.8,22.4-49.1,19.2c0,0,29.9-8.4,36.7-24.2L244.4,227.9z"/>
				<path class="st4" d="M225.3,214.9c0,0-30.6,19.8-50.6,14.8c0,0,30.5-5.8,38.7-20.9L225.3,214.9z"/>
				<path class="st4" d="M202.6,202.1c0,0-33.8,13.6-52.5,4.9c0,0,31,0.1,41.9-13.2L202.6,202.1z"/>
				<path class="st4" d="M176.3,181.5c0,0-3.1-28.1-15.9-37.7c0,0,11.5,21.1,6.4,33.5L176.3,181.5z"/>
				<path class="st4" d="M174.9,183.1c0,0-26.2,10.6-40.7,3.8c0,0,24.1,0.1,32.5-10.2L174.9,183.1z"/>
				<path class="st4" d="M147.4,170.2c0,0-2.3-20.3-11.5-27.2c0,0,8.3,15.3,4.6,24.2L147.4,170.2z"/>
				<path class="st4" d="M146.4,171.3c0,0-18.9,7.6-29.4,2.8c0,0,17.4,0.1,23.5-7.4L146.4,171.3z"/>
				<path class="st2" d="M121.8,161.4c41.6,17.2,108.6,59,132.2,79.9c1.2-2,2.2-4,3.2-6.1c0.3-0.5,0.5-1.1,0.8-1.6
					c-10.2-10.2-81.7-57.8-134.8-75.3C121.2,157.6,119.8,160.6,121.8,161.4z"/>
			</g>
		</g>
		<g>
			<path class="st5" d="M94.8,549C80.6,549,69,537.5,69,523.2s11.6-25.8,25.8-25.8c0.2,0,0.3,0,0.5,0c4.2-13,16.5-22.4,30.9-22.4
				c0.2,0,0.3,0,0.5,0c3.6-9.8,13.1-16.8,24.2-16.8c4.5,0,8.8,1.2,12.4,3.2c4.6-2.7,9.9-4.3,15.6-4.3c1.3,0,2.5,0.1,3.8,0.2
				c5.9-8.3,15.5-13.7,26.4-13.7c2.7-4.7,7.8-7.9,13.6-7.9c3.3,0,6.3,1,8.9,2.7c6.8-7.2,16.3-11.7,27-11.7c2.2,0,4.4,0.2,6.6,0.6
				c8-10.6,20.6-17.4,34.9-17.4s26.9,6.8,34.9,17.4c2.1-0.4,4.3-0.6,6.6-0.6c10.7,0,20.3,4.5,27,11.7c2.5-1.7,5.6-2.7,8.9-2.7
				c5.8,0,10.9,3.2,13.6,7.9c10.9,0,20.5,5.4,26.4,13.7c1.2-0.2,2.5-0.2,3.8-0.2c5.7,0,11,1.6,15.6,4.3c3.7-2,7.9-3.2,12.4-3.2
				c11.1,0,20.6,7,24.2,16.8c0.2,0,0.3,0,0.5,0c14.4,0,26.7,9.4,30.9,22.4c0.2,0,0.3,0,0.5,0c14.2,0,25.8,11.5,25.8,25.8
				S519.5,549,505.2,549H94.8z"/>
			<path class="st6" d="M143,492c0,0,18,1,22-18c0,0,1.4,8.2-1.3,14.3C160.9,494.5,153.8,498.6,143,492z"/>
			<path class="st6" d="M458.5,497c0,0-23,1.3-28.1-23c0,0-1.8,10.4,1.7,18.2C435.6,500.2,444.7,505.5,458.5,497z"/>
			<path class="st6" d="M290.9,526.4c0,0-23,1.3-28.1-23c0,0-1.8,10.4,1.7,18.2C268,529.6,277.1,534.9,290.9,526.4z"/>
			<path class="st6" d="M258.6,467.5c0,0,23,1.3,28.1-23c0,0,1.8,10.4-1.7,18.2C281.5,470.7,272.4,476,258.6,467.5z"/>
			<path class="st6" d="M405,484.3c-6.7,4.1-12.2,4.9-16.5,3.6c-2.3,2.4-5.4,3.8-8.6,4.3c-8.1,1.3-17.4-3-17.4-3
				c8.9,0.5,15-2.2,19.4-5.7c-1-1.1-1.7-2.5-2.4-3.8c-3.4-7.5-1.6-17.6-1.6-17.6c1.6,7.6,5,12.6,8.9,15.9c1.6,1.4,3.4,2.5,5.1,3.3
				C398.6,484.6,405,484.3,405,484.3z"/>
			<path class="st6" d="M195.3,476.5c6.7,4.1,12.2,4.9,16.5,3.6c2.3,2.4,5.4,3.8,8.6,4.3c8.1,1.3,17.4-3,17.4-3
				c-8.9,0.5-15.1-2.2-19.4-5.7c0.9-1.1,1.7-2.5,2.4-3.8c3.4-7.5,1.6-17.6,1.6-17.6c-1.6,7.6-5,12.6-8.9,15.9
				c-1.6,1.4-3.4,2.5-5.1,3.3C201.7,476.8,195.3,476.5,195.3,476.5z"/>
			<path class="st6" d="M117.9,549c36.8,0,47.5-20,47.5-20s7.9,20,53.6,20H117.9z"/>
			<path class="st6" d="M405.6,549c36.8,0,47.5-20,47.5-20s4.2,20,49.9,20H405.6z"/>
		</g>
	</g>
</g>
</svg>
