<?xml version="1.0" encoding="utf-8"?>
<!-- Generator: Adobe Illustrator 24.1.2, SVG Export Plug-In . SVG Version: 6.00 Build 0)  -->
<svg version="1.1" id="Layer_1" xmlns="http://www.w3.org/2000/svg" xmlns:xlink="http://www.w3.org/1999/xlink" x="0px" y="0px"
	 viewBox="0 0 180 180" style="enable-background:new 0 0 180 180;" xml:space="preserve">
<style type="text/css">
	.st0{fill:#456E1F;}
	.st1{fill:#6B9043;}
	.st2{fill:#5A8536;}
	.st3{fill:#7DA950;}
	.st4{fill:#CC8D54;}
	.st5{fill:#F7DECD;}
	.st6{fill:#BA7135;}
</style>
<g>
	<g>
		<g>
			<g>
				<g>
					<path class="st0" d="M103.2,68.3c9.6,9.8,17.4,4,17.4,4"/>
				</g>
			</g>
			<g>
				<g>
					<g>
						<path class="st1" d="M108.5,50.4c7.4,7.5,13.5,3.1,13.5,3.1s2.2-2.6,5.3-7.4"/>
					</g>
				</g>
			</g>
		</g>
		<g>
			<g>
				<g>
					<path class="st0" d="M75.5,78.9"/>
				</g>
			</g>
			<g>
				<g>
					<g>
						<path class="st1" d="M76.3,58.8"/>
					</g>
				</g>
			</g>
		</g>
		<g>
			<g>
				<g>
					<path class="st2" d="M93.7,61c19.6-4.7,19.6-4.7,19.6-4.7"/>
				</g>
			</g>
			<g>
				<g>
					<g>
						<path class="st3" d="M99.5,52.2c7.3,2.7,10.8-1.7,10.8-1.7"/>
					</g>
				</g>
			</g>
		</g>
		<g>
			<g>
				<g>
					<line class="st2" x1="56.7" y1="71.2" x2="64.9" y2="61.4"/>
				</g>
			</g>
			<g>
				<g>
					<g>
						<path class="st3" d="M57.6,48.8"/>
					</g>
				</g>
			</g>
		</g>
	</g>
	<g>
		<g>
			<g>
				<polygon class="st4" points="150.1,46.6 148.6,58.9 135,170 52.6,170 50.2,150.2 50.2,150.1 37.5,46.6 				"/>
			</g>
		</g>
		<g>
			<g>
				<path class="st5" d="M148.6,58.9L135,170H52.6l-2.4-19.8l0-0.1c17.3,10.3,73.9,11.8,78.6-27.9c5.3-44.9-18.3-53.3-18.3-53.3
					L148.6,58.9z"/>
			</g>
		</g>
		<g>
			<g>
				<polyline class="st6" points="155.6,43 152.6,71.2 35,71.2 33.7,58.7 33.6,58 32,43 				"/>
			</g>
		</g>
		<g>
			<g>
				<path class="st5" d="M155.6,43l-3,28.2H35l-1.3-12.5c17.1,13,109.4,7.9,109.9-1.6c0.3-6.3-5.3-11.2-9.6-14.1H155.6z"/>
			</g>
		</g>
	</g>
</g>
</svg>
