<?xml version="1.0" encoding="utf-8"?>
<!-- Generator: Adobe Illustrator 24.1.2, SVG Export Plug-In . SVG Version: 6.00 Build 0)  -->
<svg version="1.1" id="Layer_1" xmlns="http://www.w3.org/2000/svg" xmlns:xlink="http://www.w3.org/1999/xlink" x="0px" y="0px"
	 viewBox="0 0 600 600" style="enable-background:new 0 0 600 600;" xml:space="preserve">
<style type="text/css">
	.st0{display:none;}
	.st1{display:inline;fill:#FFFFFF;}
	.st2{fill:#5E3430;}
	.st3{fill:#492523;}
	.st4{fill:#2C7053;}
	.st5{fill:none;stroke:#3A3506;stroke-width:0.75;stroke-linecap:round;stroke-linejoin:round;stroke-miterlimit:10;}
	.st6{fill:#248069;}
</style>
<g id="background" class="st0">
	<rect class="st1" width="600" height="600"/>
</g>
<g id="objects">
	<g>
		<g>
			<path class="st2" d="M94.7,564.5c-14.2,0-25.8-7.1-25.8-15.9s11.6-15.9,25.8-15.9c0.2,0,0.3,0,0.5,0c4.2-8,16.5-13.8,30.9-13.8
				c0.2,0,0.3,0,0.5,0c3.6-6.1,13.1-10.4,24.2-10.4c4.5,0,8.8,0.7,12.4,2c4.6-1.7,9.9-2.7,15.6-2.7c1.3,0,2.5,0.1,3.8,0.1
				c5.9-5.1,15.5-8.5,26.4-8.5c2.7-2.9,7.8-4.9,13.6-4.9c3.3,0,6.3,0.6,8.9,1.7c6.8-4.4,16.3-7.2,27-7.2c2.2,0,4.4,0.1,6.6,0.4
				c8-6.5,20.6-10.7,34.9-10.7s26.9,4.2,34.9,10.7c2.1-0.2,4.3-0.4,6.6-0.4c10.7,0,20.3,2.8,27,7.2c2.5-1,5.6-1.7,8.9-1.7
				c5.8,0,10.9,2,13.6,4.9c10.9,0,20.5,3.3,26.4,8.5c1.2-0.1,2.5-0.1,3.8-0.1c5.7,0,11,1,15.6,2.7c3.7-1.2,7.9-2,12.4-2
				c11.1,0,20.6,4.3,24.2,10.4c0.2,0,0.3,0,0.5,0c14.4,0,26.7,5.8,30.9,13.8c0.2,0,0.3,0,0.5,0c14.2,0,25.8,7.1,25.8,15.9
				s-11.7,15.9-26,15.9H94.7z"/>
			<path class="st3" d="M142.9,529.3c0,0,18,0.6,22-11.1c0,0,1.4,5.1-1.3,8.8C160.8,530.9,153.7,533.4,142.9,529.3z"/>
			<path class="st3" d="M458.4,532.4c0,0-23,0.8-28.1-14.2c0,0-1.8,6.4,1.7,11.2C435.5,534.4,444.6,537.7,458.4,532.4z"/>
			<path class="st3" d="M290.8,550.6c0,0-23,0.8-28.1-14.2c0,0-1.8,6.4,1.7,11.2C267.9,552.5,277,555.8,290.8,550.6z"/>
			<path class="st3" d="M258.5,514.2c0,0,23,0.8,28.1-14.2c0,0,1.8,6.4-1.7,11.2C281.4,516.2,272.3,519.4,258.5,514.2z"/>
			<path class="st3" d="M404.9,524.6c-6.7,2.5-12.2,3-16.5,2.2c-2.3,1.5-5.4,2.3-8.6,2.7c-8.1,0.8-17.4-1.9-17.4-1.9
				c8.9,0.3,15-1.4,19.4-3.5c-1-0.7-1.7-1.5-2.4-2.3c-3.4-4.6-1.6-10.9-1.6-10.9c1.6,4.7,5,7.8,8.9,9.8c1.6,0.9,3.4,1.5,5.1,2
				C398.5,524.7,404.9,524.6,404.9,524.6z"/>
			<path class="st3" d="M195.2,519.7c6.7,2.5,12.2,3,16.5,2.2c2.3,1.5,5.4,2.3,8.6,2.7c8.1,0.8,17.4-1.9,17.4-1.9
				c-8.9,0.3-15.1-1.4-19.4-3.5c0.9-0.7,1.7-1.5,2.4-2.3c3.4-4.6,1.6-10.9,1.6-10.9c-1.6,4.7-5,7.8-8.9,9.8c-1.6,0.9-3.4,1.5-5.1,2
				C201.6,519.9,195.2,519.7,195.2,519.7z"/>
			<path class="st3" d="M117.8,564.5c36.8,0,47.5-12.3,47.5-12.3s7.9,12.3,53.6,12.3H117.8z"/>
			<path class="st3" d="M405.5,564.5c36.8,0,47.5-12.3,47.5-12.3s4.2,12.3,49.9,12.3H405.5z"/>
		</g>
	</g>
	<g>
		<g>
			<path class="st4" d="M374.9,284.5c0,0,18.7-9,46.6,11.6c27.9,20.6,77.5,16.5,83.6-13.6C511.2,252.5,425.2,199,374.9,284.5z"/>
			<path class="st4" d="M360.9,346c0,0,14.6-57.4-26.6-96s-76.3-14.4-69.1,26.2C272.5,316.8,357.2,290.4,360.9,346z"/>
			<path class="st4" d="M349.1,447.6c0,0,12.1-73.6-35.3-101.6s-85.7,21.8-49.6,50.8S342.2,407.6,349.1,447.6z"/>
			<path class="st4" d="M382.4,257.3c0,0,42.7-36.3,48.8-70.8c6.1-34.5-39.9-54-56.3-9.1C358.5,222.3,382.4,257.3,382.4,257.3z"/>
			<path class="st4" d="M350.5,425.8c0,0,15.3-40,56.5-38.8s66.6-11.4,63-49.3C466.3,299.8,348.6,318,350.5,425.8z"/>
			<path class="st5" d="M470,337.7c0,0-103.6,6.8-121.4,97.4"/>
			<path class="st5" d="M253.5,356.3c0,0,88.8,5.7,94.7,87.1"/>
			<path class="st5" d="M503.3,288.3c0,0-69.4-55.3-128.4-3.7"/>
			<path class="st5" d="M267.4,248.9c0,0,98.2,15.5,93.4,97.1"/>
			<path class="st5" d="M414,153l-27.6,91c-52.1,170.8-37.2,270.2-37.2,270.2"/>
		</g>
		<g>
			<path class="st6" d="M241.4,268c0,0-20.1-9.6-50,12.5c-29.9,22.1-83.1,17.7-89.6-14.6C95.3,233.7,187.5,176.3,241.4,268z"/>
			<path class="st6" d="M249.6,297.8c0,0-15.7-61.6,28.5-103c44.2-41.4,81.8-15.4,74,28.1C344.3,266.4,253.5,238.2,249.6,297.8z"/>
			<path class="st6" d="M269,442.8c0,0-12.9-78.9,37.9-108.9c50.8-30,91.8,23.4,53.1,54.5C321.4,419.4,276.5,399.9,269,442.8z"/>
			<path class="st6" d="M199.8,132c0,0-45.8-38.9-52.3-75.9c-6.5-37,42.8-57.9,60.4-9.8C225.5,94.4,199.8,132,199.8,132z"/>
			<path class="st6" d="M267.6,419.4c0,0-16.4-42.9-60.5-41.6c-44.2,1.3-71.4-12.2-67.5-52.9C143.4,284.3,269.6,303.8,267.6,419.4z"
				/>
			<path class="st5" d="M139.5,325c0,0,111.1,7.3,130.1,104.4"/>
			<path class="st5" d="M371.6,344.9c0,0-95.2,6.1-101.6,93.4"/>
			<path class="st5" d="M103.8,272c0,0,74.4-59.3,137.7-4"/>
			<path class="st6" d="M221.3,194.2c0,0-8.6-13.6-35.3-11.6c-26.7,2-57.5-21.2-49.1-43.3C145.4,117.1,223.6,117.5,221.3,194.2z"/>
			<path class="st5" d="M135.8,143.7c0,0,68.1-7.6,85.5,50.4"/>
			<path class="st5" d="M348.4,194.9c0,0-103.7,11.9-98.5,99.4"/>
			<path class="st6" d="M229.3,224.7c0,0-24.6-45,1.6-86.2c26.2-41.2,60.9-28.4,63.5,7.1C297.1,181.2,220.4,177.4,229.3,224.7z"/>
			<path class="st5" d="M286.7,123.3c0,0-79,34.1-57.4,101.5"/>
			<path class="st5" d="M171.5,18.7L199.5,127l29.6,97.6C285,407.7,269,514.2,269,514.2"/>
		</g>
	</g>
</g>
</svg>
