<?xml version="1.0" encoding="utf-8"?>
<!-- Generator: Adobe Illustrator 24.1.2, SVG Export Plug-In . SVG Version: 6.00 Build 0)  -->
<svg version="1.1" id="Layer_1" xmlns="http://www.w3.org/2000/svg" xmlns:xlink="http://www.w3.org/1999/xlink" x="0px" y="0px"
	 viewBox="0 0 571.2 600" style="enable-background:new 0 0 571.2 600;" xml:space="preserve">
<style type="text/css">
	.st0{fill:#FFFFFF;}
	.st1{fill:#E5E5E5;}
	.st2{fill:#F4836F;}
	.st3{fill:#FBD8D1;}
	.st4{fill:#686864;}
</style>
<g>
	<g id="Layer_1_1_">
		<path class="st0" d="M449.5,496.1c0,55.3-52.7,72-117.6,72s-117.6-16.7-117.6-72c0-55.3,44.1-128.3,124.7-128.3
			C404,367.8,449.5,440.7,449.5,496.1z"/>
		<path class="st1" d="M309.3,133.5c13.6,27.7-34.9,79.5-108.4,115.6c-73.5,36.1-144.1,43-157.7,15.3
			c-13.6-27.7,34.9-79.5,108.4-115.6C225.1,112.6,295.7,105.8,309.3,133.5z"/>
		<path class="st0" d="M571.2,247.4c0,83.1-97.7,131.9-218.1,131.9c-120.5,0-218.1-48.8-218.1-131.9c0-83.1,97.7-199.1,218.1-199.1
			C473.5,48.4,571.2,164.3,571.2,247.4z"/>
		<circle class="st0" cx="193.1" cy="492.4" r="31"/>
		<path class="st0" d="M289.1,161c-7.1,30-77.5,39.1-157.2,20.2C52.3,162.4-6.5,122.7,0.6,92.6c7.1-30,77.5-39.1,157.2-20.2
			C237.4,91.3,296.3,131,289.1,161z"/>
		<path class="st2" d="M274.7,157.6c-4.2,17.6-52.9,21.2-108.9,7.9c-56-13.3-98-38.3-93.8-56c4.2-17.6,52.9-21.2,108.9-7.9
			C236.9,114.9,278.9,140,274.7,157.6z"/>
		<path class="st3" d="M449.9,280.1c0,8.5-31.7,15.4-70.8,15.4c-39.1,0-70.8-6.9-70.8-15.4c0-8.5,31.7-15.4,70.8-15.4
			C418.2,264.7,449.9,271.6,449.9,280.1z"/>
		<path class="st4" d="M516.3,251.1c-8.2,0-14.9-6.7-14.9-14.9c0-18.5-15.1-33.6-33.6-33.6c-18.5,0-33.5,15-33.6,33.6
			c0,8.2-6.7,14.9-14.9,14.9s-14.9-6.7-14.9-14.9c0-35,28.4-63.4,63.4-63.4c35,0,63.4,28.4,63.4,63.4
			C531.2,244.4,524.5,251.1,516.3,251.1z"/>
	</g>
</g>
</svg>
