<?xml version="1.0" encoding="utf-8"?>
<!-- Generator: Adobe Illustrator 24.1.2, SVG Export Plug-In . SVG Version: 6.00 Build 0)  -->
<svg version="1.1" id="Layer_1" xmlns="http://www.w3.org/2000/svg" xmlns:xlink="http://www.w3.org/1999/xlink" x="0px" y="0px"
	 viewBox="0 0 800 800" style="enable-background:new 0 0 800 800;" xml:space="preserve">
<style type="text/css">
	.st0{fill:#FFFFFF;}
	.st1{opacity:0.6;fill:url(#SVGID_1_);}
	.st2{fill:#F4836F;}
	.st3{fill:#686864;}
	.st4{fill:#FBD8D1;}
</style>
<path class="st0" d="M78,381.1c0,0-24.6,25.1-35.2,9.3c-7.7-11.5,16.4-27.6,42.3-35c-11.9-19.5-14.7-44.4,1-48.3
	c21.7-5.4,16.8,26.1,16.8,26.1"/>
<path class="st0" d="M549.1,533.1c0,0-4.8,31.5,16.8,26.1c15.7-3.9,12.8-28.8,1-48.3c25.8-7.4,50-23.5,42.3-35
	c-10.6-15.8-35.2,9.3-35.2,9.3"/>
<radialGradient id="SVGID_1_" cx="-1213.7043" cy="304.6343" r="73.1954" gradientTransform="matrix(-2.9973 0 0 0.7478 -3344.4917 517.4457)" gradientUnits="userSpaceOnUse">
	<stop  offset="0" style="stop-color:#231F20"/>
	<stop  offset="1" style="stop-color:#FFFFFF"/>
</radialGradient>
<ellipse class="st1" cx="293.3" cy="745.3" rx="219.4" ry="54.7"/>
<path class="st0" d="M138.1,655c0,52.7,63.6,68.6,142,68.6c78.4,0,142-15.9,142-68.6c0-52.7-53.2-122.1-150.6-122.1
	C193.1,532.9,138.1,602.3,138.1,655z"/>
<path class="st0" d="M794.7,182.2c-21.8-23.9-104.5-6.3-184.8,39.3C529.7,267,482.3,323.3,504.1,347.1
	c21.8,23.9,104.5,6.3,184.8-39.3C769.1,262.3,816.5,206,794.7,182.2"/>
<path class="st2" d="M518.6,338.9c12.8,14,68.9-0.6,125.2-32.6c56.4-32,91.7-69.3,78.9-83.3c-12.8-14-68.9,0.6-125.2,32.6
	C541.1,287.6,505.8,324.9,518.6,338.9z"/>
<g>
	<path class="st0" d="M273,276.7c-36.5,6.1-82.6-50.8-103.1-127.1c-20.4-76.3-7.5-143,29-149.1c36.5-6.1,82.6,50.8,103.1,127.1
		C322.5,203.8,309.5,270.6,273,276.7z"/>
	<path class="st2" d="M271.9,263.6c-21.4,3.6-50.4-37-64.8-90.6c-14.4-53.6-8.7-99.9,12.8-103.5c21.4-3.6,50.4,37,64.8,90.6
		C299,213.7,293.3,260.1,271.9,263.6z"/>
</g>
<path class="st0" d="M80.2,356.4c-36.2,73.8,52.5,150.6,188.2,192c135.7,41.4,266.9,31.6,303.1-42.1
	c36.2-73.8-23.2-210.3-158.9-251.7C277,213.3,116.5,282.7,80.2,356.4z"/>
<path class="st0" d="M410.3,651.5c0,16.3,16.8,29.5,37.5,29.5c20.7,0,37.5-13.2,37.5-29.5c0-16.3-16.8-29.5-37.5-29.5
	C427,622,410.3,635.2,410.3,651.5z"/>
<g>
	<path class="st3" d="M251.8,433.3c-2.2,0-4.4-0.3-6.5-1l-127.7-39c-9.3-2.8-13.9-11-10.3-18.3c3.6-7.3,14-10.9,23.3-8.1l127.7,39
		c9.3,2.8,13.9,11,10.3,18.3C265.8,429.8,259,433.3,251.8,433.3z"/>
</g>
<g>
	<path class="st3" d="M521.1,515.4c-2.2,0-4.4-0.3-6.5-1l-127.7-39c-9.3-2.8-13.9-11-10.3-18.3c3.6-7.3,14-10.9,23.3-8.1l127.7,39
		c9.3,2.8,13.9,11,10.3,18.3C535.1,512,528.3,515.4,521.1,515.4z"/>
</g>
<path class="st4" d="M0.3,415.2c-3.7,7.6,29,24.6,73,38c44,13.4,82.7,18.2,86.4,10.6c3.7-7.6-29-24.6-73-38
	C42.7,412.4,4,407.7,0.3,415.2z"/>
<path class="st4" d="M418.4,542.8c-3.7,7.6,29,24.6,73,38c44,13.4,82.7,18.2,86.4,10.6c3.7-7.6-29-24.6-73-38
	C460.8,540,422.1,535.2,418.4,542.8z"/>
</svg>
