<svg xmlns="http://www.w3.org/2000/svg" xmlns:xlink="http://www.w3.org/1999/xlink" viewBox="0 0 571.18765 600"><defs><style>.cls-1{isolation:isolate;}.cls-2{opacity:0.6;mix-blend-mode:multiply;fill:url(#radial-gradient);}.cls-3{fill:#fff;}.cls-4{fill:#e5e5e5;}.cls-5{fill:#f4836f;}.cls-6{fill:#fbd8d1;}.cls-7{fill:#686864;}</style><radialGradient id="radial-gradient" cx="1263.01897" cy="503.79095" r="181.66708" gradientTransform="translate(-942.07709 383.0484) scale(1 0.3165)" gradientUnits="userSpaceOnUse"><stop offset="0" stop-color="#231f20"/><stop offset="1" stop-color="#fff"/></radialGradient></defs><g class="cls-1"><g id="Layer_1" data-name="Layer 1"><ellipse class="cls-2" cx="320.94181" cy="542.4983" rx="181.65396" ry="57.5017"/><path class="cls-3" d="M552.3022,447.69693c0,55.32026-52.65414,72.03-117.60909,72.03S317.084,503.01719,317.084,447.69693c0-55.3205,44.074-128.29811,124.71814-128.29811C506.75712,319.39882,552.3022,392.37643,552.3022,447.69693Z" transform="translate(-102.78609)"/><path class="cls-4" d="M412.10585,85.14737c13.62543,27.70877-34.90594,79.464-108.3926,115.59746-73.48666,36.13377-144.10964,42.9641-157.73383,15.2531C132.359,188.29163,180.88561,136.53646,254.3745,100.4027,327.86489,64.27142,398.48415,57.43885,412.10585,85.14737Z" transform="translate(-102.78609)"/><path class="cls-3" d="M673.97374,199.05313c0,83.07768-97.66138,131.8756-218.1319,131.8756-120.468,0-218.1272-48.79792-218.1272-131.8756C237.71464,115.978,335.37379,0,455.84184,0,576.31236,0,673.97374,115.978,673.97374,199.05313Z" transform="translate(-102.78609)"/><circle class="cls-3" cx="295.88312" cy="444.01514" r="31.02088" transform="translate(-114.99153 8.3803) rotate(-1.58989)"/><path class="cls-3" d="M391.92782,112.68166c-7.11973,30.04529-77.49055,39.09076-157.17018,20.20707C155.07106,114.00256,96.247,74.335,103.37049,44.28747,110.48923,14.24691,180.85881,5.199,260.54563,24.08512,340.22626,42.97378,399.05251,82.63886,391.92782,112.68166Z" transform="translate(-102.78609)"/><path class="cls-5" d="M377.50395,109.264c-4.1811,17.63552-52.945,21.17677-108.91877,7.909-55.976-13.26555-97.96666-38.32012-93.78333-55.95067,4.17737-17.63552,52.945-21.179,108.91629-7.91123C339.69412,66.57641,381.68132,91.62874,377.50395,109.264Z" transform="translate(-102.78609)"/><path class="cls-6" d="M552.6658,231.78389c0,8.51955-31.69206,15.42981-70.78654,15.42981-39.09424,0-70.789-6.91026-70.789-15.42981,0-8.522,31.69478-15.4298,70.789-15.4298C520.97374,216.35409,552.6658,223.26186,552.6658,231.78389Z" transform="translate(-102.78609)"/><path class="cls-7" d="M619.07145,202.69366A14.89238,14.89238,0,0,1,604.17973,187.802a33.58455,33.58455,0,0,0-67.16909,0,14.89172,14.89172,0,0,1-29.78344,0,63.368,63.368,0,0,1,126.736,0A14.89238,14.89238,0,0,1,619.07145,202.69366Z" transform="translate(-102.78609)"/></g></g></svg>