<svg xmlns="http://www.w3.org/2000/svg" xmlns:xlink="http://www.w3.org/1999/xlink" viewBox="0 0 392.07466 600"><defs><radialGradient id="radial-gradient" cx="-1377.25722" cy="549.45449" r="136.00609" gradientTransform="matrix(-1, 0, 0, 0.3165, -1051.4746, 383.0484)" gradientUnits="userSpaceOnUse"><stop offset="0" stop-color="#231f20"/><stop offset="1" stop-color="#fff"/></radialGradient></defs><g style="isolation:isolate"><g id="Layer_1" data-name="Layer 1"><path d="M189.787,556.95205c0,23.77369,60.887,43.048,135.99567,43.048s135.99549-19.27426,135.99549-43.048c0-23.7763-60.88682-43.05056-135.99549-43.05056S189.787,533.17575,189.787,556.95205Z" transform="translate(-138.43571 0)" opacity="0.6" fill="url(#radial-gradient)" style="mix-blend-mode:multiply"/><path d="M229.52531,485.97713c0,41.4156,39.41961,53.92538,88.04823,53.92538S405.622,527.39273,405.622,485.97713c0-41.41578-32.99627-96.05152-93.37044-96.05152C263.6229,389.92561,229.52531,444.56135,229.52531,485.97713Z" transform="translate(-138.43571 0)" fill="#fff"/><ellipse cx="438.56947" cy="128.14147" rx="111.00844" ry="41.85549" transform="translate(-126.51389 291.65048) rotate(-37.25623)" fill="#e5e5e5"/><path d="M138.43571,299.83048c0,62.19437,73.11435,98.72795,163.30481,98.72795,90.1886,0,163.30128-36.53358,163.30128-98.72795,0-62.19531-73.11268-149.02239-163.30128-149.02239C211.55006,150.80809,138.43571,237.63517,138.43571,299.83048Z" transform="translate(-138.43571 0)" fill="#fff"/><path d="M226.77715,323.40349a47.495,47.495,0,0,1-47.4411-47.44092,11.14871,11.14871,0,0,1,22.29742,0,25.14313,25.14313,0,1,0,50.28625,0,11.14871,11.14871,0,0,1,22.29742,0A47.49415,47.49415,0,0,1,226.77715,323.40349Z" transform="translate(-138.43571 0)" fill="#686864"/><path d="M398.27013,483.22173A23.22379,23.22379,0,1,0,421.494,459.99618,23.22357,23.22357,0,0,0,398.27013,483.22173Z" transform="translate(-138.43571 0)" fill="#fff"/><path d="M324.50247,218.30554c22.70026,4.36955,50.49678-40.8931,62.08456-101.095C398.17574,57.00861,389.1674,4.661,366.46714.29141,343.7706-4.077,315.97408,41.1845,304.38351,101.38735,292.7974,161.59019,301.80314,213.93692,324.50247,218.30554Z" transform="translate(-138.43571 0)" fill="#fff"/><path d="M326.601,207.40544c13.32345,2.565,30.72435-29.63921,38.86347-71.92775,8.14209-42.29115,3.93958-78.65433-9.38387-81.21816-13.32364-2.564-30.72436,29.64-38.86459,71.9285C309.076,168.47842,313.27758,204.8405,326.601,207.40544Z" transform="translate(-138.43571 0)" fill="#f4836f"/><path d="M229.2531,324.33348c0,6.37818,23.72631,11.55062,52.99446,11.55062s52.99632-5.17244,52.99632-11.55062c0-6.37911-23.72817-11.55062-52.99632-11.55062S229.2531,317.95437,229.2531,324.33348Z" transform="translate(-138.43571 0)" fill="#fbd8d1"/></g></g></svg>