<svg xmlns="http://www.w3.org/2000/svg" xmlns:xlink="http://www.w3.org/1999/xlink" viewBox="0 0 469.83425 596"><defs><style>.cls-1{isolation:isolate;}.cls-2{fill:#fff;}.cls-3{opacity:0.6;mix-blend-mode:multiply;fill:url(#radial-gradient);}.cls-4{fill:#f4836f;}.cls-5{fill:#fbd8d1;}.cls-6{fill:#686864;}</style><radialGradient id="radial-gradient" cx="704.5978" cy="553.45772" r="128.84459" gradientTransform="translate(-374.9414 383.0484) scale(1 0.3165)" gradientUnits="userSpaceOnUse"><stop offset="0" stop-color="#231f20"/><stop offset="1" stop-color="#fff"/></radialGradient></defs><g class="cls-1"><g id="Layer_1" data-name="Layer 1"><path class="cls-2" d="M456.12137,286.90045s14.43115,18.71339,20.68332,6.91914c4.52868-8.53843-9.64723-20.55781-24.82016-26.045,6.97142-14.55,8.65-33.05688-.56734-35.97067-12.72773-4.02595-9.89385,19.437-9.89385,19.437" transform="translate(-32.08918 -3)"/><path class="cls-2" d="M179.463,400.15335s2.8337,23.463-9.893,19.437c-9.21755-2.912-7.54052-21.42088-.5691-35.97244-15.17293-5.48363-29.34726-17.50126-24.8184-26.0432,6.25129-11.79425,20.68332,6.9209,20.68332,6.9209" transform="translate(-32.08918 -3)"/><path class="cls-3" d="M458.49176,558.21777C458.49176,580.74041,400.81082,599,329.65684,599,258.502,599,200.821,580.74041,200.821,558.21777s57.681-40.78224,128.83581-40.78224c71.154,0,128.83492,18.25959,128.83492,40.78224" transform="translate(-32.08918 -3)"/><path class="cls-2" d="M420.84688,490.97972c0,39.23512-37.34493,51.086-83.414,51.086-46.06643,0-83.41153-11.85092-83.41153-51.086,0-39.23495,31.25875-90.99483,88.45421-90.99483,46.06731,0,78.37131,51.75988,78.37131,90.99483" transform="translate(-32.08918 -3)"/><path class="cls-2" d="M35.19972,138.73075c12.79462-17.77129,61.37772-4.669,108.51528,29.2647,47.133,33.9335,74.97273,75.85024,62.17706,93.62153-12.7955,17.7748-61.37948,4.67232-108.51352-29.26119-47.13474-33.93367-74.97361-75.85375-62.17882-93.625" transform="translate(-32.08918 -3)"/><path class="cls-4" d="M197.35715,255.47324c-7.50954,10.43443-40.43915-.43321-73.54937-24.27272-33.11109-23.836-53.86395-51.61888-46.35529-62.05,7.51043-10.43108,40.4418.43673,73.55113,24.27272C184.11454,217.26278,204.86757,245.04567,197.35715,255.47324Z" transform="translate(-32.08918 -3)"/><path class="cls-2" d="M385.07054,3.33156c-21.426-4.52868-48.5324,37.86509-60.54334,94.68913-12.01164,56.82422-4.37994,106.56242,17.04429,111.09039,21.42669,4.528,48.53311-37.86667,60.54581-94.68913C414.12718,57.59861,406.49653,7.85953,385.07054,3.33156" transform="translate(-32.08918 -3)"/><path class="cls-4" d="M372.80014,54.85169c-12.57652-2.65767-29.61025,27.54649-38.049,67.46583-8.43774,39.9123-5.08317,74.43039,7.49247,77.08455,12.57634,2.661,29.61112-27.54227,38.04886-67.46161,8.4388-39.91564,5.08229-74.43039-7.49229-77.08877" transform="translate(-32.08918 -3)"/><path class="cls-2" d="M454.79587,268.53788c21.26528,54.94688-30.83927,112.2249-110.52129,143.06065-79.682,30.83593-156.76744,23.55769-178.0336-31.39271-21.26509-54.95039,13.64307-156.6583,93.32421-187.49423C339.24721,161.87565,433.53166,213.58748,454.79587,268.53788Z" transform="translate(-32.08918 -3)"/><path class="cls-2" d="M260.98609,488.37027a22.00142,22.00142,0,1,1-22.00195-22.00353A22.00081,22.00081,0,0,1,260.98609,488.37027Z" transform="translate(-32.08918 -3)"/><path class="cls-5" d="M501.75459,312.35572c2.18063,5.63854-17.0149,18.318-42.87433,28.32612-25.8575,10.00826-48.58909,13.54942-50.76973,7.91441-2.18134-5.63484,17.01331-18.31786,42.87169-28.32612C476.84166,310.262,499.57219,306.72088,501.75459,312.35572Z" transform="translate(-32.08918 -3)"/><path class="cls-5" d="M256.18651,407.3904c2.18063,5.63836-17.01314,18.318-42.87169,28.32612-25.85926,10.00826-48.59,13.54942-50.77131,7.9144-2.18152-5.635,17.014-18.31785,42.87239-28.32611C231.27446,405.30006,254.00428,401.75538,256.18651,407.3904Z" transform="translate(-32.08918 -3)"/><path class="cls-6" d="M236.31291,371.284a45.04316,45.04316,0,0,1-41.35045-27.34969,10.5618,10.5618,0,0,1,19.4337-8.27878A23.81909,23.81909,0,0,0,258.221,316.98a10.56172,10.56172,0,0,1,19.43352-8.27878,44.99645,44.99645,0,0,1-41.34165,62.5828Z" transform="translate(-32.08918 -3)"/><path class="cls-6" d="M365.89825,314.15737a45.05408,45.05408,0,0,1-41.352-27.34969,10.56176,10.56176,0,0,1,19.43352-8.279,23.81915,23.81915,0,0,0,43.82576-18.67379,10.56173,10.56173,0,0,1,19.43353-8.27878,44.99665,44.99665,0,0,1-41.34077,62.58122Z" transform="translate(-32.08918 -3)"/></g></g></svg>