<svg xmlns="http://www.w3.org/2000/svg" xmlns:xlink="http://www.w3.org/1999/xlink" viewBox="0 0 472.9875 600"><defs><style>.cls-1{isolation:isolate;}.cls-2{fill:#fff;}.cls-3{opacity:0.6;mix-blend-mode:multiply;fill:url(#radial-gradient);}.cls-4{fill:#f4836f;}.cls-5{fill:#fbd8d1;}.cls-6{fill:#686864;}</style><radialGradient id="radial-gradient" cx="802.69089" cy="555.75248" r="129.70932" gradientTransform="translate(-503.12658 383.0484) scale(1 0.3165)" gradientUnits="userSpaceOnUse"><stop offset="0" stop-color="#231f20"/><stop offset="1" stop-color="#fff"/></radialGradient></defs><g class="cls-1"><g id="Layer_1" data-name="Layer 1"><path class="cls-2" d="M276.54808,399.81881s2.85272,23.62045-9.95936,19.56749c-9.27941-2.93158-7.59113-21.56465-.57292-36.21386-15.27477-5.52044-29.54422-17.61872-24.985-26.218,6.29325-11.8734,20.82214,6.96736,20.82214,6.96736" transform="translate(-128.18518 0)"/><ellipse class="cls-3" cx="299.56454" cy="558.94406" rx="129.70025" ry="41.05594"/><path class="cls-2" d="M519.552,491.25475c0,39.49844-37.59556,51.42891-83.97382,51.42891-46.37559,0-83.97133-11.93047-83.97133-51.42891,0-39.49827,31.46854-91.60553,89.04786-91.60553C487.03118,399.64922,519.552,451.75648,519.552,491.25475Z" transform="translate(-128.18518 0)"/><path class="cls-2" d="M303.15452,260.35266c-12.88137,17.8941-61.79142,4.70368-109.24179-29.45756-47.45109-34.16142-75.4768-76.36285-62.59613-94.2534,12.88048-17.89056,61.78964-4.70031,109.24356,29.46111C288.00947,200.26405,316.03607,242.4621,303.15452,260.35266Z" transform="translate(-128.18518 0)"/><path class="cls-4" d="M294.56233,254.16769c-7.55994,10.50446-40.71056-.43611-74.043-24.43562-33.33332-23.996-54.22545-51.96532-46.6664-62.46641,7.56083-10.5011,40.71322.43965,74.04477,24.43562C281.23085,215.70078,302.12316,243.67014,294.56233,254.16769Z" transform="translate(-128.18518 0)"/><path class="cls-2" d="M483.53554.33378C461.96576-4.22529,434.67742,38.453,422.58587,95.65841c-12.09226,57.20559-4.40933,107.27761,17.15868,111.836,21.5705,4.55836,48.85884-38.12081,60.95216-95.32463,12.09048-57.2047,4.40862-107.2776-17.16117-111.836" transform="translate(-128.18518 0)"/><path class="cls-4" d="M440.42114,197.7202c12.66074,2.67888,29.80986-27.72711,38.30422-67.91437,8.49544-40.18353,5.1164-74.92992-7.54257-77.60614-12.66092-2.67551-29.809,27.73136-38.3044,67.91862C424.384,160.29848,427.7611,195.04824,440.42114,197.7202Z" transform="translate(-128.18518 0)"/><path class="cls-2" d="M553.72883,267.32c21.408,55.31565-31.04625,112.97809-111.26305,144.02079-80.21679,31.04289-157.81957,23.7158-179.22845-31.6034-21.40782-55.31919,13.73464-157.7097,93.95055-188.75258C437.40467,159.94193,532.3219,212.00082,553.72883,267.32Z" transform="translate(-128.18518 0)"/><path class="cls-2" d="M358.61831,488.62779a22.14908,22.14908,0,1,1-22.14961-22.15121A22.14847,22.14847,0,0,1,358.61831,488.62779Z" transform="translate(-128.18518 0)"/><path class="cls-5" d="M601.0027,311.43193c2.19528,5.67638-17.12909,18.441-43.16207,28.51623-26.031,10.07543-48.91519,13.64036-51.11047,7.96753-2.196-5.67266,17.1275-18.4408,43.15942-28.51623C575.92257,309.3242,598.80566,305.75927,601.0027,311.43193Z" transform="translate(-128.18518 0)"/><path class="cls-5" d="M353.78651,407.10443c2.19528,5.6762-17.12731,18.441-43.15941,28.51622C284.59429,445.69609,261.711,449.261,259.515,443.58818c-2.19616-5.67284,17.1282-18.44079,43.16013-28.51623C328.70727,405.00006,351.58965,401.43159,353.78651,407.10443Z" transform="translate(-128.18518 0)"/><path class="cls-6" d="M333.77954,370.75571a45.34547,45.34547,0,0,1-41.628-27.53325,10.63269,10.63269,0,0,1,19.56413-8.33434,23.97895,23.97895,0,0,0,44.119-18.80089,10.63261,10.63261,0,0,1,19.56395-8.33435,45.29847,45.29847,0,0,1-41.61911,63.00283Z" transform="translate(-128.18518 0)"/><path class="cls-6" d="M464.23457,313.24567A45.3564,45.3564,0,0,1,422.605,285.71243a10.63264,10.63264,0,0,1,19.564-8.33453,23.979,23.979,0,0,0,44.11989-18.79911,10.63261,10.63261,0,0,1,19.56395-8.33435,45.29862,45.29862,0,0,1-41.61823,63.00123Z" transform="translate(-128.18518 0)"/></g></g></svg>