<svg xmlns="http://www.w3.org/2000/svg" xmlns:xlink="http://www.w3.org/1999/xlink" viewBox="0 0 359.92829 512.40056"><defs><radialGradient id="radial-gradient" cx="302.10311" cy="480.09028" r="117.99798" gradientTransform="translate(-141 323.10296) scale(1 0.3165)" gradientUnits="userSpaceOnUse"><stop offset="0" stop-color="#231f20"/><stop offset="1" stop-color="#fff"/></radialGradient></defs><g style="isolation:isolate"><g id="Layer_1" data-name="Layer 1"><ellipse cx="161.10331" cy="475.05153" rx="117.98973" ry="37.34903" opacity="0.6" fill="url(#radial-gradient)" style="mix-blend-mode:multiply"/><path d="M385.61684,473.42088c0,35.93216-34.20109,46.78544-76.39109,46.78544-42.18935,0-76.39044-10.85328-76.39044-46.78544s28.62646-83.3331,81.00781-83.3331C356.03231,390.08778,385.61684,437.48872,385.61684,473.42088Z" transform="translate(-141 -59.94544)" fill="#fff"/><path d="M254.34518,223.74126c-16.80272,10.94936-53.96588-16.29877-83.00794-60.86129-29.04142-44.56252-38.96274-89.56578-22.16-100.51514,16.80174-10.94935,53.96587,16.29878,83.00794,60.86291C261.225,167.78864,271.14708,212.79191,254.34518,223.74126Z" transform="translate(-141 -59.94544)" fill="#fff"/><path d="M249.0862,215.67288c-9.86151,6.42791-34.39407-13.74053-54.79481-45.041-20.4-31.30367-28.94293-61.89254-19.08141-68.31884,9.86231-6.42646,34.39551,13.73892,54.79626,45.041C250.40538,178.65933,258.94852,209.24659,249.0862,215.67288Z" transform="translate(-141 -59.94544)" fill="#f4836f"/><path d="M387.58312,223.74126c16.80352,10.94936,53.96668-16.29877,83.00794-60.86129,29.04142-44.56252,38.96274-89.56578,22.16-100.51514-16.80175-10.94935-53.96652,16.29878-83.00714,60.86291C380.70253,167.78864,370.78137,212.79191,387.58312,223.74126Z" transform="translate(-141 -59.94544)" fill="#fff"/><path d="M391.36461,215.67288c9.86313,6.42791,34.39632-13.74053,54.79562-45.041,20.40139-31.30367,28.94373-61.89254,19.08222-68.31884-9.86232-6.42646-34.39487,13.73892-54.79643,45.041C390.04688,178.65933,381.5031,209.24659,391.36461,215.67288Z" transform="translate(-141 -59.94544)" fill="#f4836f"/><path d="M464.645,311.92c0,53.9612-63.43387,85.65677-141.68193,85.65677-78.24871,0-141.67936-31.69557-141.67936-85.65677,0-53.95943,63.43065-129.2904,141.67936-129.2904C401.21113,182.6296,464.645,257.96057,464.645,311.92Z" transform="translate(-141 -59.94544)" fill="#fff"/><path d="M186.76773,328.19056s-5.73825,20.87067-15.129,13.04314c-6.80111-5.66748,1.04286-20.773,11.99931-30.6864-10.95645-9.912-18.80042-25.01747-11.99931-30.685,9.39078-7.82591,15.129,13.04315,15.129,13.04315" transform="translate(-141 -59.94544)" fill="#fff"/><path d="M460.543,328.19056s5.73922,20.87067,15.12919,13.04314c6.80176-5.66748-1.04141-20.773-11.99867-30.6864,10.95726-9.912,18.80043-25.01747,11.99867-30.685-9.39-7.82591-15.12919,13.04315-15.12919,13.04315" transform="translate(-141 -59.94544)" fill="#fff"/><circle cx="78.06402" cy="411.08405" r="20.1492" fill="#fff"/><path d="M158.394,363.356c0,5.53529,20.58485,10.02208,45.97923,10.02208,25.39212,0,45.97778-4.48679,45.97778-10.02208,0-5.53207-20.58566-10.02047-45.97778-10.02047C178.97889,353.33554,158.394,357.82394,158.394,363.356Z" transform="translate(-141 -59.94544)" fill="#fbd8d1"/><path d="M399.54245,363.356c0,5.53529,20.58405,10.02208,45.97778,10.02208,25.39357,0,45.97939-4.48679,45.97939-10.02208,0-5.53207-20.58582-10.02047-45.97939-10.02047C420.1265,353.33554,399.54245,357.82394,399.54245,363.356Z" transform="translate(-141 -59.94544)" fill="#fbd8d1"/><path d="M265.02451,331.87291a33.854,33.854,0,1,1,33.854-33.854A33.89255,33.89255,0,0,1,265.02451,331.87291Zm0-48.36288a14.50887,14.50887,0,1,0,14.50886,14.50887A14.52524,14.52524,0,0,0,265.02451,283.51Z" transform="translate(-141 -59.94544)" fill="#686864"/><path d="M270.81322,298.0189a5.78872,5.78872,0,1,1-5.78871-5.79033A5.78888,5.78888,0,0,1,270.81322,298.0189Z" transform="translate(-141 -59.94544)" fill="#686864"/><path d="M379.02289,331.87291a33.854,33.854,0,1,1,33.854-33.854A33.89254,33.89254,0,0,1,379.02289,331.87291Zm0-48.36288a14.50887,14.50887,0,1,0,14.50886,14.50887A14.52523,14.52523,0,0,0,379.02289,283.51Z" transform="translate(-141 -59.94544)" fill="#686864"/><path d="M384.8116,298.0189a5.7888,5.7888,0,1,1-5.78871-5.79033A5.78887,5.78887,0,0,1,384.8116,298.0189Z" transform="translate(-141 -59.94544)" fill="#686864"/></g></g></svg>