<?xml version="1.0" encoding="utf-8"?>
<!-- Generator: Adobe Illustrator 24.1.2, SVG Export Plug-In . SVG Version: 6.00 Build 0)  -->
<svg version="1.1" xmlns="http://www.w3.org/2000/svg" xmlns:xlink="http://www.w3.org/1999/xlink" x="0px" y="0px"
	 viewBox="0 0 600 600" style="enable-background:new 0 0 600 600;" xml:space="preserve">
<style type="text/css">
	.st0{display:none;}
	.st1{display:inline;fill:#FFFFFF;}
	.st2{fill:#5E3430;}
	.st3{fill:#492523;}
	.st4{fill:#4A9658;}
</style>
<g id="Layer_2">
</g>
<g id="Layer_1">
	<g id="background" class="st0">
		<rect class="st1" width="600" height="600"/>
	</g>
	<g id="objects">
		<g>
			<g>
				<path class="st2" d="M94.8,549C80.6,549,69,537.5,69,523.2s11.6-25.8,25.8-25.8c0.2,0,0.3,0,0.5,0c4.2-13,16.5-22.4,30.9-22.4
					c0.2,0,0.3,0,0.5,0c3.6-9.8,13.1-16.8,24.2-16.8c4.5,0,8.8,1.2,12.4,3.2c4.6-2.7,9.9-4.3,15.6-4.3c1.3,0,2.5,0.1,3.8,0.2
					c5.9-8.3,15.5-13.7,26.4-13.7c2.7-4.7,7.8-7.9,13.6-7.9c3.3,0,6.3,1,8.9,2.7c6.8-7.2,16.3-11.7,27-11.7c2.2,0,4.4,0.2,6.6,0.6
					c8-10.6,20.6-17.4,34.9-17.4s26.9,6.8,34.9,17.4c2.1-0.4,4.3-0.6,6.6-0.6c10.7,0,20.3,4.5,27,11.7c2.5-1.7,5.6-2.7,8.9-2.7
					c5.8,0,10.9,3.2,13.6,7.9c10.9,0,20.5,5.4,26.4,13.7c1.2-0.2,2.5-0.2,3.8-0.2c5.7,0,11,1.6,15.6,4.3c3.7-2,7.9-3.2,12.4-3.2
					c11.1,0,20.6,7,24.2,16.8c0.2,0,0.3,0,0.5,0c14.4,0,26.7,9.4,30.9,22.4c0.2,0,0.3,0,0.5,0c14.2,0,25.8,11.5,25.8,25.8
					s-11.7,25.8-26,25.8H94.8z"/>
				<path class="st3" d="M143,492c0,0,18,1,22-18c0,0,1.4,8.2-1.3,14.3C160.9,494.5,153.8,498.6,143,492z"/>
				<path class="st3" d="M458.5,497c0,0-23,1.3-28.1-23c0,0-1.8,10.4,1.7,18.2C435.6,500.2,444.7,505.5,458.5,497z"/>
				<path class="st3" d="M290.9,526.4c0,0-23,1.3-28.1-23c0,0-1.8,10.4,1.7,18.2C268,529.6,277.1,534.9,290.9,526.4z"/>
				<path class="st3" d="M258.6,467.5c0,0,23,1.3,28.1-23c0,0,1.8,10.4-1.7,18.2C281.5,470.7,272.4,476,258.6,467.5z"/>
				<path class="st3" d="M405,484.3c-6.7,4.1-12.2,4.9-16.5,3.6c-2.3,2.4-5.4,3.8-8.6,4.3c-8.1,1.3-17.4-3-17.4-3
					c8.9,0.5,15-2.2,19.4-5.7c-1-1.1-1.7-2.5-2.4-3.8c-3.4-7.5-1.6-17.6-1.6-17.6c1.6,7.6,5,12.6,8.9,15.9c1.6,1.4,3.4,2.5,5.1,3.3
					C398.6,484.6,405,484.3,405,484.3z"/>
				<path class="st3" d="M195.3,476.5c6.7,4.1,12.2,4.9,16.5,3.6c2.3,2.4,5.4,3.8,8.6,4.3c8.1,1.3,17.4-3,17.4-3
					c-8.9,0.5-15.1-2.2-19.4-5.7c0.9-1.1,1.7-2.5,2.4-3.8c3.4-7.5,1.6-17.6,1.6-17.6c-1.6,7.6-5,12.6-8.9,15.9
					c-1.6,1.4-3.4,2.5-5.1,3.3C201.7,476.8,195.3,476.5,195.3,476.5z"/>
				<path class="st3" d="M117.9,549c36.8,0,47.5-20,47.5-20s7.9,20,53.6,20H117.9z"/>
				<path class="st3" d="M405.6,549c36.8,0,47.5-20,47.5-20s4.2,20,49.9,20H405.6z"/>
			</g>
		</g>
	</g>
	<path class="st4" d="M353,406.3c-6.9-12-45-3.2-70.5,18.3c-16.2,13.7-34.2,38.4-28.5,49c6.2,11.4,39.2,5.1,62.2-10.6
		C339.1,447.4,359.4,417.5,353,406.3z"/>
</g>
</svg>
