<svg id="Layer_1" data-name="Layer 1" xmlns="http://www.w3.org/2000/svg" viewBox="0 0 753.33351 603.4551"><defs><style>.cls-1,.cls-11,.cls-13{fill:#7c5438;}.cls-13,.cls-2,.cls-5,.cls-8{opacity:0.5;}.cls-3,.cls-5{fill:#ce9f38;}.cls-4{fill:#e5ae41;}.cls-6{fill:#c6bc93;}.cls-7,.cls-8{fill:#968f71;}.cls-9{fill:#c68655;}.cls-10{fill:#da9859;}.cls-11{opacity:0.7;}.cls-12{fill:#f7a969;}</style></defs><path class="cls-1" d="M84.04113,157.53006a21.95435,21.95435,0,1,1,21.9541-21.9546A21.97952,21.97952,0,0,1,84.04113,157.53006Zm0-36.8647a14.91015,14.91015,0,1,0,14.9102,14.9101A14.92706,14.92706,0,0,0,84.04113,120.66536Z" transform="translate(-27.16083 2.14134)"/><g class="cls-2"><path class="cls-3" d="M84.276,155.182a19.8411,19.8411,0,1,1,19.8408-19.8413A19.8633,19.8633,0,0,1,84.276,155.182Zm0-37.334a17.4929,17.4929,0,1,0,17.4927,17.4927A17.51263,17.51263,0,0,0,84.276,117.848Z" transform="translate(-27.16083 2.14134)"/></g><path class="cls-4" d="M76.13933,118.58766a4.34477,4.34477,0,0,0-3.0166.4341l-1.1743.7046c-1.7559,2.6973-4.4302,4.3916-5.8701,7.5015a17.95709,17.95709,0,0,0-1.4141,5.1723c-.2534,1.9956.1821,4.5889,1.9424,2.1187,1.8769-2.6343,1.5439-6.832,3.4052-9.6206C71.23063,123.07206,76.51673,120.65846,76.13933,118.58766Z" transform="translate(-27.16083 2.14134)"/><path class="cls-4" d="M102.66713,137.84746c-1.768-.415-3.0307,7.1094-4.4204,8.8813-2.581,3.2911-5.36179,4.419-9.1572,5.4009l-.70459.2344c-1.86821.0698-1.65331,1.3662-.001,1.6431.86089.144,2.65139-.6773,3.47069-1.0039a18.12433,18.12433,0,0,0,5.5108-3.6455C100.10953,146.84206,104.28283,141.931,102.66713,137.84746Z" transform="translate(-27.16083 2.14134)"/><rect class="cls-1" x="52.53611" y="158.732" width="8.688" height="17.1406"/><polygon class="cls-5" points="53.71 160.845 53.828 175.168 57.467 175.755 56.763 162.841 53.71 160.845"/><path class="cls-6" d="M91.733,74.638c-.0127.0288-.0297.0567-.042.0855C91.71894,74.80006,91.72773,74.73756,91.733,74.638Z" transform="translate(-27.16083 2.14134)"/><path class="cls-6" d="M111.71943,47.75716c-2.8994.2304-15.732,7.7485-23.48049,16.4365-2.14891,2.4097.01119,7.5566-2.34771,9.6269l5.86971.4698a2.21756,2.21756,0,0,0-.02791.3476c1.7832-4.1142,7.7041-7.686,10.8872-10.6211,3.2979-3.0405,8.1602-3.3452,13.7955-8.0415C119.46794,51.04426,114.99483,47.49686,111.71943,47.75716Z" transform="translate(-27.16083 2.14134)"/><path class="cls-6" d="M77.62463,82.33186c.0225.0215.0489.0405.07131.0625C77.70033,82.47536,77.66813,82.42116,77.62463,82.33186Z" transform="translate(-27.16083 2.14134)"/><path class="cls-6" d="M48.72283,65.39826c2.7593-.9209,17.5088.9848,28.03611,5.9541,2.92039,1.3784,2.94289,6.9599,5.92339,7.9443l-5.2198,2.7261a2.22468,2.22468,0,0,1,.1621.3091c-3.25-3.0904-10.09569-4.0645-14.1723-5.5225-4.2237-1.5102-8.81839.1094-15.8408-2.0112C42.87513,71.452,45.60613,66.43826,48.72283,65.39826Z" transform="translate(-27.16083 2.14134)"/><rect class="cls-6" x="48.334" width="13.1489" height="135.2476" rx="5.6353"/><path class="cls-7" d="M80.47033,16.40406c2.9322-1.8457,5.8384-3.9536,7.62161-6.9956a1.17474,1.17474,0,0,0-2.02731-1.185c-1.5781,2.6919-4.1875,4.5215-6.7793,6.1533-1.2778.8042-.1006,2.8369,1.185,2.0273Z" transform="translate(-27.16083 2.14134)"/><path class="cls-7" d="M80.47033,25.48316c2.4869-1.7661,4.9864-3.4575,6.6827-6.0561.83-1.2725-1.2037-2.4478-2.0274-1.1851-1.4624,2.2408-3.6982,3.6924-5.8403,5.2139-1.2236.8691-.0527,2.9067,1.185,2.0273Z" transform="translate(-27.16083 2.14134)"/><path class="cls-7" d="M80.78333,35.81476a21.05648,21.05648,0,0,0,6.3697-5.7432c.89691-1.2231-1.14209-2.3926-2.0274-1.1855a18.24433,18.24433,0,0,1-5.5273,4.9013,1.17478,1.17478,0,0,0,1.185,2.0274Z" transform="translate(-27.16083 2.14134)"/><path class="cls-7" d="M80.47033,45.51986c2.7388-1.7129,5.3374-3.5205,6.9957-6.3692a1.17478,1.17478,0,0,0-2.0274-1.185c-1.4536,2.497-3.7573,4.0283-6.1533,5.5268-1.2803.8008-.103,2.833,1.185,2.0274Z" transform="translate(-27.16083 2.14134)"/><path class="cls-7" d="M80.47033,55.22536a17.258,17.258,0,0,0,6.6827-6.0566c.8222-1.2774-1.2115-2.4536-2.0274-1.1851a14.90623,14.90623,0,0,1-5.8403,5.2144c-1.3472.6924-.1592,2.7182,1.185,2.0273Z" transform="translate(-27.16083 2.14134)"/><path class="cls-7" d="M80.78333,64.93046a23.40364,23.40364,0,0,0,6.0567-5.4302c.89991-1.2207-1.1392-2.3896-2.0279-1.185a20.17369,20.17369,0,0,1-5.2138,4.5879c-1.251.8379-.0772,2.8725,1.185,2.0273Z" transform="translate(-27.16083 2.14134)"/><path class="cls-7" d="M81.64713,74.45246c1.9922-1.9766,4.103-3.8281,5.9482-5.9483.9893-1.1367-.6645-2.8046-1.6601-1.6606-1.8452,2.1206-3.9566,3.9722-5.94829,5.9487a1.17455,1.17455,0,0,0,1.66019,1.6602Z" transform="translate(-27.16083 2.14134)"/><path class="cls-7" d="M81.72233,83.40216a16.095,16.095,0,0,0,5.4307-5.4307c.851-1.2578-1.18409-2.4311-2.0274-1.185a13.593,13.593,0,0,1-4.5884,4.5879c-1.33829.7094-.1518,2.7358,1.1851,2.0278Z" transform="translate(-27.16083 2.14134)"/><path class="cls-7" d="M82.03583,92.79426c2.372-1.0913,3.9394-3.2359,5.5595-5.1929.95761-1.1567-.6938-2.8276-1.6601-1.6602-1.4912,1.8013-2.9009,3.8213-5.0845,4.8257-1.3745.6319-.1806,2.6553,1.1851,2.0274Z" transform="translate(-27.16083 2.14134)"/><path class="cls-7" d="M81.64713,101.68976a33.09009,33.09009,0,0,0,5.5059-5.8731c.8916-1.2275-1.147-2.3969-2.0274-1.185a30.754,30.754,0,0,1-5.13869,5.3979c-1.16011.9761.50979,2.6284,1.66019,1.6602Z" transform="translate(-27.16083 2.14134)"/><path class="cls-7" d="M80.818,110.13166c3.1157.8037,5.2676-3.4634,6.648-5.5488.8383-1.2667-1.1958-2.4415-2.0274-1.1851-.6421.9697-1.2524,1.9653-1.9726,2.8799-.37209.4726-1.3003,1.7763-2.024,1.5898a1.175,1.175,0,0,0-.624,2.2642Z" transform="translate(-27.16083 2.14134)"/><path class="cls-7" d="M82.34883,120.971c2.09711-1.1211,3.3164-3.2236,4.9336-4.8798,1.0581-1.0835-.6011-2.7452-1.6602-1.6602-1.4585,1.4936-2.5742,3.5054-4.4585,4.5122-1.3359.7139-.1499,2.7412,1.1851,2.0278Z" transform="translate(-27.16083 2.14134)"/><path class="cls-7" d="M82.66183,129.42366a10.61077,10.61077,0,0,0,4.1782-3.5518,1.17552,1.17552,0,0,0-.4214-1.6064,1.20234,1.20234,0,0,0-1.6065.4214,8.29162,8.29162,0,0,1-3.3354,2.7094,1.17583,1.17583,0,0,0-.4214,1.6065,1.204,1.204,0,0,0,1.6065.4209Z" transform="translate(-27.16083 2.14134)"/><path class="cls-7" d="M80.39473,8.08086a52.19861,52.19861,0,0,0,5.1928-6.186c.8882-1.2305-1.1504-2.4004-2.0273-1.1851a48.27414,48.27414,0,0,1-4.8257,5.7105,1.1747,1.1747,0,0,0,1.6602,1.6606Z" transform="translate(-27.16083 2.14134)"/><path class="cls-6" d="M92.46453,71.70736c-2.9111-.7037-6.2495.1054-8.9214,1.3574a14.729,14.729,0,0,0-3.5166,2.2236,15.4811,15.4811,0,0,0-2.1187,2.0542l-1.4091.2349c-3.0552-.1802-8.251,2.6391-8.9219,5.6362a8.4148,8.4148,0,0,0,5.1597,9.4492c3.5952,1.3316,8.4043-.3462,11.98041-1.0493,4.35209-.8555,7.542-2.6919,9.91409-6.5224C97.20573,80.93436,98.70233,73.21466,92.46453,71.70736Z" transform="translate(-27.16083 2.14134)"/><path class="cls-8" d="M95.985,73.91286c-2.4048,1.024-4.7002,4.146-6.3252,5.4854a43.30716,43.30716,0,0,1-14.3872,7.5713,28.81442,28.81442,0,0,1-6.9585,1.3969,8.26169,8.26169,0,0,0,4.4224,4.0616c3.5952,1.3315,8.4043-.3462,11.98041-1.0494,4.35209-.8554,7.542-2.6918,9.91409-6.5224C96.49963,81.83866,97.79753,76.94606,95.985,73.91286Z" transform="translate(-27.16083 2.14134)"/><path class="cls-7" d="M91.60073,71.36066a26.65623,26.65623,0,0,0,3.6406-8.2637,1.175,1.175,0,0,0-2.2641-.6245,24.66346,24.66346,0,0,1-3.4038,7.7031c-.8833,1.2339,1.1548,2.4048,2.0273,1.1851Z" transform="translate(-27.16083 2.14134)"/><path class="cls-7" d="M98.88,66.43a57.724,57.724,0,0,0,3.0523-6.8096c.5991-1.3735-1.42339-2.5698-2.02739-1.185a57.671,57.671,0,0,1-3.05271,6.8091A1.17509,1.17509,0,0,0,98.88,66.43Z" transform="translate(-27.16083 2.14134)"/><path class="cls-7" d="M106.86343,60.79426a26.36366,26.36366,0,0,0,2.7012-7.0894c.3144-1.477-1.94869-2.105-2.2642-.6245a24.11255,24.11255,0,0,1-2.4648,6.5288c-.72369,1.3306,1.3037,2.5156,2.0278,1.1851Z" transform="translate(-27.16083 2.14134)"/><path class="cls-7" d="M112.96794,57.97686c.72749-1.7129,1.38619-3.4531,2.11329-5.166.5849-1.3765-1.437-2.5747-2.0274-1.1851-.7275,1.7129-1.3857,3.4536-2.1132,5.166-.5845,1.377,1.4375,2.5747,2.02731,1.1851Z" transform="translate(-27.16083 2.14134)"/><path class="cls-7" d="M50.275,73.93246a15.63279,15.63279,0,0,1-1.9946-5.355c-.2192-1.4937-2.4819-.856-2.2642.6245a17.46593,17.46593,0,0,0,2.2315,5.9155,1.17474,1.17474,0,0,0,2.0273-1.185Z" transform="translate(-27.16083 2.14134)"/><path class="cls-7" d="M55.441,73.69756a11.60634,11.60634,0,0,1-1.99509-4.4155c-.25191-1.4908-2.51461-.8565-2.26411.624a13.25142,13.25142,0,0,0,2.2314,4.9766c.8296,1.2583,2.8638.0835,2.0278-1.1851Z" transform="translate(-27.16083 2.14134)"/><path class="cls-7" d="M62.77113,74.39926c-1.6513-1.4385-3.6133-2.9395-3.8828-5.2749-.17139-1.4859-2.521-1.5025-2.3481,0,.3564,3.0898,2.334,4.9868,4.5703,6.935,1.1362.9898,2.8042-.6636,1.6606-1.6601Z" transform="translate(-27.16083 2.14134)"/><path class="cls-7" d="M70.15933,77.57746c-.06-1.9561-.895-3.6397-1.4512-5.4776a1.17493,1.17493,0,0,0-2.2641.6241c.4868,1.6093,1.31491,3.144,1.3672,4.8535.0459,1.5107,2.394,1.5151,2.3481,0Z" transform="translate(-27.16083 2.14134)"/><path class="cls-7" d="M75.28283,77.26546c-.4887-1.481-.9204-2.9805-1.4086-4.4615-.4722-1.4306-2.7398-.8178-2.2642.6241.4883,1.4814.91991,2.9804,1.4087,4.4614.4717,1.4311,2.7397.8179,2.2641-.624Z" transform="translate(-27.16083 2.14134)"/><path class="cls-1" d="M727.46642,157.53006a21.95435,21.95435,0,1,1,21.95409-21.9546A21.9796,21.9796,0,0,1,727.46642,157.53006Zm0-36.8647a14.91015,14.91015,0,1,0,14.91019,14.9101A14.92706,14.92706,0,0,0,727.46642,120.66536Z" transform="translate(-27.16083 2.14134)"/><g class="cls-2"><path class="cls-3" d="M727.70082,155.182a19.8411,19.8411,0,1,1,19.84129-19.8413A19.86319,19.86319,0,0,1,727.70082,155.182Zm0-37.334a17.4929,17.4929,0,1,0,17.49319,17.4927A17.51278,17.51278,0,0,0,727.70082,117.848Z" transform="translate(-27.16083 2.14134)"/></g><path class="cls-4" d="M719.56462,118.58766a4.34477,4.34477,0,0,0-3.0166.4341l-1.1743.7046c-1.7559,2.6973-4.4302,4.3916-5.8702,7.5015a17.94729,17.94729,0,0,0-1.414,5.1723c-.2534,1.9956.1821,4.5889,1.94242,2.1187,1.87688-2.6343,1.54388-6.832,3.40518-9.6206C714.65594,123.07206,719.942,120.659,719.56462,118.58766Z" transform="translate(-27.16083 2.14134)"/><path class="cls-4" d="M746.09241,137.84746c-1.7681-.415-3.0307,7.1094-4.4204,8.8813-2.581,3.2911-5.36179,4.419-9.15719,5.4009l-.7046.2344c-1.8682.0698-1.65328,1.3662-.001,1.6431.8613.144,2.6514-.6773,3.47072-1.0039a18.12507,18.12507,0,0,0,5.51117-3.6455C743.53481,146.84206,747.70861,141.931,746.09241,137.84746Z" transform="translate(-27.16083 2.14134)"/><rect class="cls-1" x="695.96138" y="158.732" width="8.688" height="17.1411"/><polygon class="cls-5" points="697.136 160.845 697.253 175.168 700.893 175.755 700.188 162.841 697.136 160.845"/><path class="cls-6" d="M736.89662,74.638c-.0122.0288-.0293.0567-.0415.0855C736.88294,74.80006,736.89122,74.73756,736.89662,74.638Z" transform="translate(-27.16083 2.14134)"/><path class="cls-6" d="M756.88341,47.75716c-2.8994.2304-15.7319,7.7485-23.48039,16.4365-2.1495,2.4097.0112,7.5566-2.3482,9.6269l5.87012.4698a2.27129,2.27129,0,0,0-.02832.3476c1.78369-4.1142,7.70459-7.686,10.88769-10.6211,3.2974-3.0405,8.1602-3.3452,13.7954-8.0415C764.632,51.04476,760.15881,47.49686,756.88341,47.75716Z" transform="translate(-27.16083 2.14134)"/><path class="cls-6" d="M722.78822,82.33186c.023.0215.0493.0405.0718.0625C722.86442,82.47536,722.83222,82.42116,722.78822,82.33186Z" transform="translate(-27.16083 2.14134)"/><path class="cls-6" d="M693.88682,65.39826c2.7593-.9209,17.5088.9853,28.0362,5.9541,2.91992,1.3784,2.94292,6.9604,5.9233,7.9443l-5.2197,2.7261a2.22636,2.22636,0,0,1,.1616.3091c-3.2495-3.0904-10.0952-4.0645-14.1719-5.5225-4.2236-1.5102-8.8183.1094-15.8408-2.0112C688.03872,71.452,690.77022,66.43826,693.88682,65.39826Z" transform="translate(-27.16083 2.14134)"/><rect class="cls-6" x="693.49798" width="13.1489" height="135.2476" rx="5.6353"/><path class="cls-7" d="M725.63442,16.40406c2.9321-1.8457,5.8384-3.9536,7.6216-6.9956a1.17478,1.17478,0,0,0-2.0274-1.185c-1.5781,2.6919-4.1875,4.5215-6.77968,6.1533-1.27742.8042-.10012,2.8369,1.18548,2.0273Z" transform="translate(-27.16083 2.14134)"/><path class="cls-7" d="M725.63442,25.48366c2.4868-1.7666,4.9863-3.458,6.6826-6.0566.8301-1.2725-1.2036-2.4478-2.0278-1.1851-1.4624,2.2408-3.6978,3.6924-5.84028,5.2139-1.22322.8691-.05232,2.9067,1.18548,2.0278Z" transform="translate(-27.16083 2.14134)"/><path class="cls-7" d="M725.94742,35.81476a21.04961,21.04961,0,0,0,6.3696-5.7432c.897-1.2231-1.14208-2.3926-2.0278-1.185a18.24059,18.24059,0,0,1-5.5269,4.9008,1.17481,1.17481,0,0,0,1.1851,2.0274Z" transform="translate(-27.16083 2.14134)"/><path class="cls-7" d="M725.63442,45.52036c2.7388-1.7134,5.3374-3.521,6.9956-6.3697a1.17474,1.17474,0,0,0-2.0273-1.185c-1.4536,2.497-3.7574,4.0283-6.15378,5.5268-1.27982.8008-.10262,2.833,1.18548,2.0279Z" transform="translate(-27.16083 2.14134)"/><path class="cls-7" d="M725.63442,55.22536a17.2584,17.2584,0,0,0,6.6826-6.0566c.8218-1.2774-1.2114-2.4536-2.0278-1.1851a14.90082,14.90082,0,0,1-5.84028,5.2144c-1.34672.6924-.15872,2.7187,1.18548,2.0273Z" transform="translate(-27.16083 2.14134)"/><path class="cls-7" d="M725.94742,64.93046a23.39946,23.39946,0,0,0,6.0561-5.4302c.90042-1.2202-1.1391-2.3896-2.0273-1.185a20.17429,20.17429,0,0,1-5.2139,4.5879c-1.2509.8379-.0771,2.8725,1.1851,2.0273Z" transform="translate(-27.16083 2.14134)"/><path class="cls-7" d="M726.81122,74.45246c1.99172-1.9766,4.103-3.8281,5.9482-5.9483.9893-1.1367-.66448-2.8046-1.6601-1.6606-1.8453,2.1206-3.9566,3.9722-5.9488,5.9487a1.17474,1.17474,0,0,0,1.6607,1.6602Z" transform="translate(-27.16083 2.14134)"/><path class="cls-7" d="M726.88642,83.40216a16.09921,16.09921,0,0,0,5.4306-5.4307c.8511-1.2578-1.18408-2.4311-2.0278-1.185a13.59243,13.59243,0,0,1-4.5879,4.5879c-1.33838.7094-.1519,2.7358,1.1851,2.0278Z" transform="translate(-27.16083 2.14134)"/><path class="cls-7" d="M727.19982,92.79426c2.37212-1.0913,3.9395-3.2359,5.5596-5.1929.95752-1.1567-.6938-2.8276-1.6601-1.6602-1.4913,1.8013-2.90138,3.8213-5.085,4.8257-1.374.6319-.1802,2.6553,1.1855,2.0274Z" transform="translate(-27.16083 2.14134)"/><path class="cls-7" d="M726.81122,101.68976a33.08588,33.08588,0,0,0,5.5058-5.8731c.8916-1.227-1.1469-2.3969-2.0278-1.185a30.74233,30.74233,0,0,1-5.1387,5.3979c-1.15958.9761.5103,2.6284,1.6607,1.6602Z" transform="translate(-27.16083 2.14134)"/><path class="cls-7" d="M725.98212,110.13166c3.1157.8037,5.2675-3.4634,6.6479-5.5488.8384-1.2667-1.1958-2.4415-2.0273-1.1851-.6421.9697-1.2525,1.9658-1.9727,2.8799-.37208.4726-1.3003,1.7763-2.0239,1.5898a1.175,1.175,0,0,0-.624,2.2642Z" transform="translate(-27.16083 2.14134)"/><path class="cls-7" d="M727.51282,120.971c2.0967-1.1211,3.3159-3.2236,4.9336-4.8798,1.0581-1.0835-.6011-2.7452-1.6606-1.6602-1.458,1.4936-2.5742,3.5054-4.458,4.5122-1.336.7139-.14988,2.7412,1.185,2.0278Z" transform="translate(-27.16083 2.14134)"/><path class="cls-7" d="M727.82582,129.42366a10.60588,10.60588,0,0,0,4.1777-3.5518,1.17489,1.17489,0,0,0-.4208-1.6064,1.20232,1.20232,0,0,0-1.6065.4214,8.29229,8.29229,0,0,1-3.3354,2.7094,1.17541,1.17541,0,0,0-.4214,1.6065,1.20372,1.20372,0,0,0,1.6064.4209Z" transform="translate(-27.16083 2.14134)"/><path class="cls-7" d="M725.55872,8.08086a52.19944,52.19944,0,0,0,5.1929-6.186c.8877-1.2305-1.1504-2.4004-2.0278-1.1851a48.231,48.231,0,0,1-4.8252,5.7105,1.17466,1.17466,0,0,0,1.6601,1.6606Z" transform="translate(-27.16083 2.14134)"/><path class="cls-6" d="M737.62852,71.70736c-2.9111-.7037-6.2495.1054-8.9213,1.3574a14.72678,14.72678,0,0,0-3.5166,2.2236,15.5161,15.5161,0,0,0-2.1192,2.0542l-1.4087.2349c-3.0551-.1802-8.2509,2.6391-8.92178,5.6362a8.41457,8.41457,0,0,0,5.15958,9.4492c3.5952,1.3316,8.4043-.3462,11.9805-1.0493,4.352-.8555,7.542-2.6919,9.91409-6.5224C742.36981,80.93436,743.86631,73.21466,737.62852,71.70736Z" transform="translate(-27.16083 2.14134)"/><path class="cls-8" d="M741.14861,73.91286c-2.4043,1.024-4.69967,4.146-6.32467,5.4854a43.30841,43.30841,0,0,1-14.38722,7.5713,28.81538,28.81538,0,0,1-6.9585,1.3969,8.26181,8.26181,0,0,0,4.4223,4.0616c3.5952,1.3315,8.4043-.3462,11.9805-1.0494,4.352-.8554,7.542-2.6918,9.91409-6.5224C741.66371,81.83916,742.96161,76.94606,741.14861,73.91286Z" transform="translate(-27.16083 2.14134)"/><path class="cls-7" d="M736.76482,71.36066a26.65667,26.65667,0,0,0,3.64059-8.2637,1.175,1.175,0,0,0-2.26419-.6245,24.65886,24.65886,0,0,1-3.4038,7.7031c-.8833,1.2339,1.1548,2.4048,2.0274,1.1851Z" transform="translate(-27.16083 2.14134)"/><path class="cls-7" d="M744.04361,66.43a57.60848,57.60848,0,0,0,3.0527-6.8096c.5991-1.3735-1.4233-2.5698-2.0273-1.185a57.665,57.665,0,0,1-3.0528,6.8091,1.17492,1.17492,0,0,0,2.0274,1.1855Z" transform="translate(-27.16083 2.14134)"/><path class="cls-7" d="M752.027,60.79426a26.3337,26.3337,0,0,0,2.7012-7.0894c.3149-1.477-1.94827-2.105-2.2642-.6245a24.0951,24.0951,0,0,1-2.4644,6.5288c-.7236,1.3306,1.3038,2.5156,2.0274,1.1851Z" transform="translate(-27.16083 2.14134)"/><path class="cls-7" d="M758.132,57.97686c.7275-1.7124,1.3862-3.4531,2.1132-5.166.585-1.3765-1.437-2.5747-2.02727-1.1851-.72753,1.7129-1.38623,3.4536-2.11333,5.166-.5844,1.377,1.4375,2.5747,2.0274,1.1851Z" transform="translate(-27.16083 2.14134)"/><path class="cls-7" d="M695.43912,73.93246a15.62049,15.62049,0,0,1-1.9946-5.355c-.2198-1.4937-2.482-.856-2.2642.6245a17.46384,17.46384,0,0,0,2.2315,5.9155,1.17475,1.17475,0,0,0,2.0273-1.185Z" transform="translate(-27.16083 2.14134)"/><path class="cls-7" d="M700.60512,73.69756a11.60348,11.60348,0,0,1-1.9951-4.4155c-.252-1.4908-2.5147-.8565-2.2642.624a13.25,13.25,0,0,0,2.2315,4.9766c.82962,1.2583,2.8637.0835,2.0278-1.1851Z" transform="translate(-27.16083 2.14134)"/><path class="cls-7" d="M707.93522,74.39926c-1.6514-1.4385-3.6138-2.9395-3.8828-5.2749-.1714-1.4859-2.521-1.5025-2.3482,0,.3565,3.0898,2.3335,4.9868,4.5703,6.935,1.1363.9898,2.8042-.6636,1.6607-1.6601Z" transform="translate(-27.16083 2.14134)"/><path class="cls-7" d="M715.32294,77.57746c-.05962-1.9561-.895-3.6397-1.45072-5.4776a1.175,1.175,0,0,0-2.2642.6241c.48692,1.6093,1.315,3.1445,1.3672,4.8535.0459,1.5107,2.3941,1.5151,2.34772,0Z" transform="translate(-27.16083 2.14134)"/><path class="cls-7" d="M720.44694,77.26546c-.48882-1.481-.92042-2.98-1.40922-4.4615-.4717-1.4306-2.7397-.8178-2.2641.6241.4887,1.4814.9204,2.9804,1.4091,4.4614.4717,1.4311,2.7398.8179,2.26422-.624Z" transform="translate(-27.16083 2.14134)"/><rect class="cls-9" x="36.6587" y="556.1299" width="713.27051" height="47.1397"/><path class="cls-10" d="M63.82,563.71126c6.1494-.1548,12.4726-.1631,15.4682-.0733,22.0615.6646,43.562,1.8262,65.669,2.2066,28.1582.4843,56.0332.0005,84.6826-.001,16.6196-.001,32.49311-.249,49.021.3247,18.0244.626,35.4272,1.8408,53.688,1.8872,33.64939.0855,68.247.6353,101.73579,1.5879,30.0762.855,58.9688,1.917,88.92632,3.3906,19.82268.9746,43.11618.4009,62.00728,2.3447-.9131,4.19-41.5762,6.2779-52.2896,6.9771-23.2236,1.5156-46.4184,1.8184-70.3359,1.8184-42.13278,0-84.0449-1.9302-126.11669-1.896-42.0478.0337-78.918-4.6285-120.96-4.6285-33.7929,0-69.5966,6.8003-102.6533,9.1407-13.9189.9853-30.4077-4.084-47.2583-3.9536l-.8496,8.5566c28.24511-2.2134,44.5215,4.1221,80.4448-2.2173,31.1597-5.499,68.05231,10.294,98.73731,8.834,20.03809-.9531,40.09819-2.3525,61.04009-1.7554,23.2148.6616,46.59179,2.2574,69.789,2.773,44.5821.9912,91.88092-.9707,139.3448-1.5088,19.915-.2256,42.8574-2.2417,63.6406-2.8433,25.0801-.726,51.792.2447,77.16552.2447,29.15428,0,57.95748-.438,86.88327.6157,12.1538.4424,23.4204,1.709,35.49033,2.0752v-20.2139c-36.62893-.3394-73.90292.6123-109.93272,2.1148-35.4277,1.478-65.1704,6.4575-98.5327,9.7895-36.3803,3.6333-73.0268,3.5825-110.4048,3.0903-36.9668-.4873-74.1098.5533-111.22938-.0703-21.01181-.353-51.00591-2.0547-71.25831.0703,0,0-90.0542-2.7031-83.3218-5.1631,21.6562-7.913,94.7544-1.666,102.8677-1.666,16.91941,0,38.8867,1.666,55.80659,1.666,35.6953,0,65.0874,1.6973,101.3061,2.3184,32.8282.563,69.2491,2.4482,99.5923-2.1245,15.2085-2.292,31.2481-4.751,46.8516-6.6382,15.7075-1.9004,30.1387-2.9009,45.8823-4.5112,25.2427-2.583,47.4111-4.523,73.938-5.3804,18.95852-.6128,38.89752-1.4932,58.43512-1.1963v-5.1762c-2.1587.0141-3.8872.017-4.7198.0424-30.31343.9322-61.17432,1.2495-91.5498,1.8423-37.91892.7403-75.25682,4.0845-113.24512,2.2134-17.7265-.8731-35.00288-2.8731-52.5913-4.0308-23.0371-1.5171-45.916-1.2729-69.3999-1.2729-18.9263,0-37.8506-.0054-56.623.3149-11.1285.19-24.3521.4302-35.13768-.3149l-37.09381.3164a5.29922,5.29922,0,0,0-1.6377-.9004c11.1319.1523,21.4307-1.0063,32.87451-.9961q17.283.01545,34.16508.3159c33.4511.5542,65.7431-1.709,99.5664-1.2641,38.1211.5009,73.2661,5.373,112.03852,5.373,18.82078,0,34.43068-1.6304,52.66308-2.5371,20.9956-1.0439,43.2784.0391,64.42392-.6162,19.01308-.5889,37.57417-.9448,56.88377-1.2554,1.478-.0234,5.15423-.1943,9.38283-.3193v-4.6182H63.82Z" transform="translate(-27.16083 2.14134)"/><rect class="cls-9" x="36.5913" y="188.9121" width="713.27001" height="138.7564"/><path class="cls-10" d="M772.52024,272.53736c-9.74913,1.3931-32.38583,2.5655-38.16362,6.1495,4.0141,1.6621,26.65089-1.5694,42.66552-2.5025v-4.1499C775.30094,272.21316,773.68764,272.37036,772.52024,272.53736Z" transform="translate(-27.16083 2.14134)"/><path class="cls-10" d="M63.75213,200.60866v22.6851c6.17481.0947,12.0947.2305,16.6841.1382,15.3994-.3086,29.0595-1.8164,43.9262-2.8877,32.6582-2.3526,65.0093-2.0445,98.5904-2.0239,34.3549.0209,68.4555-3.7222,103.4707-3.6836,35.476.039,69.66059,1.8896,105.206,3.1836,21.8882.7963,44.2495.5,66.378.5,10.4609,0,43.79542-.3638,47.9228-4.8399-15.9136-.8696-32.2573-1.7441-48.44238-2.1392-27.97072-.6826-55.73442-1.3193-83.42872-2.4121-33.8335-1.3344-68.2461-.6728-102.27779-1.2505-27.9058-.4736-55.39749-3.1303-83.189-3.2744-19.3164-.0996-37.8594,1.6455-57.1582,1.6372-16.1982-.0068-32.3037-.187-48.2407-.8281C103.44594,204.619,82.87423,203.05256,63.75213,200.60866Z" transform="translate(-27.16083 2.14134)"/><path class="cls-10" d="M126.28683,280.23316c17.1777.7168,34.43111-1.1367,51.7636-1.1367,13.6397,0,27.3999-.2241,41.0254,0,39.6514.6509,78.417,6.3609,118.0625,6.958,18.59961.2798,35.96929,1.0996,53.71049,2.4766,14.6089,1.1343,31.8037.2266,45.7309,2.0845-.4746,5.3789-53.1601-.0645-61.3681-.5689-26.2364-1.6113-53.81839-.7827-80.21879-1.9248-32.9805-1.4263-66.977-4.3559-100.395-3.7031-29.1431.5688-56.7324,2.1733-86.0952,1.6357-15.083-.2763-29.9063.0796-44.7505.4043v17.1846c4.2475.0815,8.4009.1704,11.8032.0122,18.291-.8516,35.6431-3.9604,52.9253-6.0513,65.3184-7.9018,127.3135,9.4107,194.0386,5.21,34.72019-2.1856,71.51071-2.2266,107.37549-1.6157,34.59222.5888,65.0048-3.9932,98.5903-5.3115,40.2476-1.5801,75.0947,4.9208,114.2085,6.5375,17.1245.7081,35.4839.5225,52.6611.8296,24.2632.4341,47.043,2.6568,71.54839.2876,3.4345-.332,6.791-.6919,10.11913-1.0395v-7.3291c-4.5.5347-8.95753,1.164-13.02493,1.5112-12.7007,1.085-24.811,1.9683-37.57279,2.4688-27.2231,1.0678-56.4736-1.3267-82.7827-4.605-28.48478-3.5493-53.4946-4.8101-83.1616-4.8101-30.1631,0-58.3174-.5493-87.36418-3.9917-38.67192-4.583-74.05472-9.976-113.20812-11.9692a385.997,385.997,0,0,0,52.1524-4.4028c30.979-4.6431,59.8769-7.3345,93.001-5.8428,34.4126,1.5498,69.8584,5.5683,104.7109,3.8076,34.291-1.7329,68.0811-6.3184,102.1992-8.6167,21.6338-1.457,43.15379-2.6167,65.05082-1.9697v-13.5957c-3.981-.0367-7.74073-.0777-11.0952-.0786-33.44532-.0137-67.38972.7294-100.76322-.0816-43.0591-1.0473-85.042-2.9741-128.1645-.6572-20.794,1.1172-41.3858,3.3296-62.3965,3.6235-22.8272.3189-45.6343-.334-68.42578-.4184-41.83692-.1543-82.70511-4.0318-124.70611-3.1924-36.6855.7329-71.2827,4.8169-107.3755,6.7627-26.2602,1.4155-53.0581.1396-79.0083,1.6274-10.7236.6153-20.6928,1.1743-31.3349,1.3091V276.034C84.775,276.07056,105.66813,279.37286,126.28683,280.23316Zm149.3774-22.8295c17.15771.3632,34.1899,1.228,51.7358,1.228,6.607,0,18.62749-.8819,24.40339.3999,8.8388,1.9609,2.6884,4.4263-4.8267,5.7622-14.16069,2.5166-35.20609,1.064-50.81349,1.6142-16.4277.5796-29.61229.793-44.90229-.8183l-2.92871-.4092c-8.7828-2.0244-6.9366-5.3442,1.0268-6.958C256.255,256.82456,267.75653,257.23616,275.66423,257.40366Zm-76.1108,13.4057c-15.8228-4.2954-13.5582-10.2915,1.7036-14.3247,25.6323-6.7744,63.8413-6.9551,93.71291-6.3574,7.32949.147,16.10489.2558,23.64449.7275,7.1479.4473,20.5937,2.2066,6.833,3.2744-7.1997.5586-15.4292-.9682-22.4512-1.228-7.8579-.29-16.5215-.1641-24.40329,0-14.64011.3057-32.45411.3657-46.80471,1.6489-13.2358,1.1841-30.6094,7.6587-16.9087,13.1875,11.0127,4.4439,31.813,3.1729,46.1426,3.1729,16.0391,0,31.5273-.4092,47.8311-.4092l6.833-.4092c5.7749.461,13.5971.3457,17.6904,2.4453-7.709,4.3487-33.1279,3.8345-45.0225,4.1031-15.1328.3418-31.82419-.5293-46.8774-1.2183C228.03533,274.807,211.45673,274.04036,199.55343,270.80936Z" transform="translate(-27.16083 2.14134)"/><path class="cls-10" d="M773.25654,261.49636c-23.7046.3179-48.31252,2.0078-71.72712,3.7857-24.76848,1.8808-48.4858,5.5258-73.5317,6.3559-36.2661,1.2017-72.6069-.8745-108.2442-2.3857-16.9228-.7178-34.5068-1.5801-51.7895-1.228-7.8462.1596-40.5278.5522-43.9995,4.4111a12.13483,12.13483,0,0,1-1.4605.9404c30.63092,6.4585,67.7471,10.3916,101.8365,11.0401,39.7275.7553,87.0171-3.9815,123.1831,3.2773,24.5205,4.9214,43.2729,8.6553,71.25832,6.5244,19.37838-1.4751,38.77877-4.0513,58.2402-5.6045v-8.0273c-15.5352.9819-31.55473,3.5552-46.49852,4.2514-20.2105.9424-38.2974-.875-58.3985-1.3007-.6894-4.9551,37.9302-6.8897,46.7076-8.2256,15.2104-2.3155,28.71822-6.1123,44.90229-7.2656,3.0962-.2207,8.54443-.8809,13.28713-.96v-5.5464C775.41084,261.50616,774.09294,261.48516,773.25654,261.49636Z" transform="translate(-27.16083 2.14134)"/><path class="cls-10" d="M770.568,308.15506c-18.4424.3892-37.168.0015-55.63669.0015-35.7866,0-68.2739-2.0464-103.4746-4.4004-38.4951-2.5747-74.1724-5.8335-113.0117-1.6255-46.854,5.0757-94.5684,1.0767-142.4659,3.6611-28.91649,1.5601-54.79639,2.9776-83.97409,1.2378-25.708-1.5327-51.3149-3.645-77.1396-4.7041-34.2539-1.4043-61.2207.7671-93.689,4.9112-12.24849,1.5629-24.7666,2.8657-37.4243,3.5869v5.2744c1.10981-.0571,2.1362-.1089,3.0215-.1636,11.9956-.7422,23.3154-1.8891,35.1118-2.8774,24.1308-2.0215,50.0547-.8091,75.18851-.8076,32.77629.0024,65.02629,1.3623,97.61419,2.0478,16.0913.3389,32.2403.8359,48.8071.8174,15.7154-.0181,29.09039,1.7803,44.90239,2.0464,39.2358.6596,79.8398.4887,118.1167-1.6162,38.7632-2.1314,78.6059-1.6582,118.34962-1.6582,16.668,0,32.91408-.1148,48.56688,1.2055,17.7959,1.5005,34.0049,3.7061,52.7153,3.7061,17.02982,0,33.376,1.1064,49.77982.4189,5.06787-.2129,13.07027-.9917,21.0962-1.4936v-9.687C774.58364,308.08086,772.38834,308.11646,770.568,308.15506Z" transform="translate(-27.16083 2.14134)"/><path class="cls-10" d="M63.75213,195.70436c6.1494-.2011,12.4722-.2119,15.4682-.0952,22.0611.8604,43.56161,2.3648,65.669,2.857,28.1582.6274,56.0332.0004,84.68261-.001,16.61909-.001,32.49269-.3223,49.021.4209,18.02389.8105,35.42729,2.3838,53.68749,2.4438,33.64989.1109,68.24709.8228,101.73579,2.0562,30.0762,1.1074,58.9688,2.4829,88.9263,4.3906,19.8233,1.2627,43.1162.52,62.0073,3.0371-.9126,5.4263-41.5756,8.1299-52.2895,9.0352-23.2236,1.9624-46.4185,2.3554-70.336,2.3554-42.1323,0-84.04438-2.5-126.11659-2.456-42.0474.0439-82.981,2.8652-125.0225,2.8652-33.793,0-65.5337-.0522-98.59029,2.9785-13.919,1.2764-31.99221,2.8106-48.84281,2.979V249.993c28.2451-2.8667,56.8764-3.6518,86.749-4.8667,31.626-1.2861,62.4829-3.1138,93.1675-5.0039,20.0386-1.2344,40.0986-3.0469,61.04-2.2739,23.2149.8569,46.59231,2.9233,69.78909,3.5913,44.582,1.2837,96.6611,3.9482,139.34522-1.9541,19.80368-2.7383,42.85688-2.9033,63.64008-3.6821,25.0801-.9405,51.792.3168,77.1656.3168,29.15432,0,57.958-.5668,86.88379.7974,12.1538.5733,23.4204,2.2129,35.48973,2.6875v-26.1777c-36.62893-.4395-73.90232.7929-109.93212,2.7392-35.4282,1.9136-65.1704,8.3623-98.5327,12.6773-36.38038,4.7051-73.02738,4.6396-110.4048,4.0019-36.9668-.6308-74.1099.7163-111.23-.0913-21.01119-.457-51.00539-2.6601-71.25829.0913l-1.9522,1.6372c-3.9472-.5302-8.8579-.0732-12.6396-.8398-10.5264-2.1348,1.5684-2.7256,8.7349-2.8442,8.1059-.1333,16.2905,0,24.4038,0h50.75919c35.6954,0,71.1338-2.4414,107.3531-1.6368,32.8281.729,69.24852,3.1705,99.5923-2.7514,15.2085-2.9683,31.248-6.1524,46.8515-8.5967,15.7071-2.4605,30.1382-3.7564,45.8819-5.8423,25.2431-3.3447,47.4116-5.8574,73.9384-6.9678,18.9585-.7934,38.897-1.9336,58.43462-1.5493v-6.7031c-2.1582.0186-3.8867.022-4.7192.0547-30.314,1.2075-61.17442,1.6181-91.55032,2.3862-37.9185.9585-75.2564,5.2896-113.24468,2.8662-17.72652-1.1303-35.00292-3.7202-52.59132-5.2202-23.0376-1.9643-45.916-1.6479-69.4004-1.6479-18.9262,0-37.8501-.0074-56.623.4077-11.1284.2461-24.3516.5566-35.1377-.4077l-37.09329.4091c-.5449-.3906-.7089-.8237-1.6381-1.166,11.1323.1978,21.4306-1.3027,32.875-1.2895q17.2821.0198,34.1645.4092c33.4517.7177,65.7432-2.2134,99.5664-1.6373,38.1216.649,73.2666,6.9581,112.0391,6.9581,18.82082,0,34.4302-2.1114,52.6631-3.2852,20.9951-1.3521,43.2783.0498,64.4233-.7983,19.0137-.7627,37.57419-1.2237,56.88379-1.6255,1.4785-.0308,5.15483-.252,9.38283-.4141v-5.9805h-713.27Z" transform="translate(-27.16083 2.14134)"/><path class="cls-10" d="M775.49924,320.43536c-22.62753-.0205-44.54642-.2588-66.67342-1.2266-14.103-.6167-28.2471-.5551-42.4878-.8198-15.4145-.2866-30.6382-1.6548-46.146-1.6372-31.9546.0361-64.0356-.3726-95.66208.9097-29.50582,1.1958-57.92532,2.4604-87.85252,1.955-37.0772-.6254-73.7456-1.6372-111.01269-1.6372-33.4863,0-67.4219,1.1338-100.75979.419-17.12691-.3672-33.87211-2.145-50.97311-2.8745-16.7925-.7168-32.8858-.1709-49.5694.5097-21.14549.8628-40.5991,2.7007-60.6103,4.8672v4.6265h713.27v-5.0933Q776.264,320.43611,775.49924,320.43536Z" transform="translate(-27.16083 2.14134)"/><rect class="cls-9" x="36.5913" y="323.356" width="713.27001" height="138.7563"/><path class="cls-10" d="M772.52024,374.20486c-9.74913-1.393-32.38583-2.5659-38.16362-6.1499,4.0141-1.6616,26.65089,1.5698,42.66552,2.5029v4.15C775.30094,374.52866,773.68764,374.37186,772.52024,374.20486Z" transform="translate(-27.16083 2.14134)"/><path class="cls-10" d="M63.75213,446.13356v-22.685c6.17481-.0948,12.0947-.2305,16.6841-.1382,15.3994.3086,29.0595,1.8164,43.9262,2.8877,32.6582,2.3525,65.0093,2.0444,98.5904,2.0239,34.3549-.0215,68.4555,3.7222,103.4707,3.6836,35.476-.0391,69.66059-1.8896,105.206-3.1836,21.8887-.7969,44.2495-.5,66.378-.5,10.4609,0,43.79542.3638,47.9228,4.8399-15.9136.8691-32.2573,1.7441-48.44238,2.1391-27.97072.6821-55.73442,1.3194-83.42872,2.4116-33.8335,1.335-68.2461.6734-102.27779,1.251-27.9053.4736-55.39749,3.1304-83.189,3.2744-19.3159.0996-37.8594-1.6455-57.1582-1.6377-16.1977.0074-32.3037.1875-48.2407.8282C103.44643,442.12336,82.87423,443.68976,63.75213,446.13356Z" transform="translate(-27.16083 2.14134)"/><path class="cls-10" d="M63.75213,370.70826v23.9825c10.6421.1347,20.6113.6938,31.3349,1.3086,25.9502,1.4882,52.7481.2124,79.0083,1.6279,36.0928,1.9458,70.69,6.0298,107.3755,6.7627,42.001.8393,82.86919-3.0386,124.70611-3.1929,22.79148-.084,45.59858-.7368,68.42578-.418,21.0107.2935,41.6025,2.5059,62.3965,3.6231,43.1225,2.3169,85.1054.3906,128.1645-.6568,33.3735-.8115,67.3179-.0683,100.76322-.0815,3.35447-.0015,7.1142-.042,11.0952-.0786v-13.5957c-21.897.647-43.417-.5127-65.05082-1.9697-34.1181-2.2984-67.9082-6.8838-102.1992-8.6167-34.8525-1.7613-70.2983,2.2578-104.7109,3.8076-33.1241,1.4917-62.022-1.1997-93.001-5.8433a386.07816,386.07816,0,0,0-52.1524-4.4023c39.1534-1.9932,74.5362-7.3863,113.20812-11.9693,29.04678-3.4423,57.20158-3.9917,87.36418-3.9917,29.667,0,54.67682-1.2612,83.1616-4.81,26.3091-3.2783,55.5596-5.6729,82.7827-4.605,12.76179.5005,24.87209,1.3838,37.57279,2.4687,4.0674.3472,8.52493.9766,13.02493,1.5113v-7.3291c-3.3281-.3477-6.68463-.7075-10.11913-1.0396-24.5049-2.3696-47.28519-.1465-71.54839.2876-17.1772.3072-35.5366.1216-52.6611.8296-39.1133,1.6162-73.9609,8.1177-114.2085,6.5376-33.5855-1.3183-63.99808-5.9004-98.5903-5.3115-35.86478.6108-72.6553.5698-107.37549-1.6157-66.7251-4.2007-128.7198,13.1118-194.0386,5.2099-17.2822-2.0908-34.6343-5.2002-52.9253-6.0512-3.4023-.1587-7.5557-.0694-11.8032.0122v17.1845c14.8442.3243,29.6675.6807,44.7505.4043,29.36331-.5376,56.9521,1.0664,86.0952,1.6358,33.418.6528,67.4145-2.2769,100.395-3.7032,26.4009-1.142,53.98239-.3139,80.21879-1.9248,8.208-.5044,60.8935-5.9477,61.3686-.5688-13.9277,1.8579-31.1225.9502-45.7309,2.084-17.7417,1.3774-35.11138,2.1972-53.71049,2.477-39.646.5967-78.4116,6.3067-118.0625,6.958-13.6255.2237-27.3862,0-41.0259,0-17.33249,0-34.5859-1.8535-51.7636-1.1367C105.66813,367.369,84.775,370.67116,63.75213,370.70826Zm185.6069,17.8116c-7.9634-1.6138-9.8096-4.9341-1.0268-6.958l2.92871-.4092c15.29-1.6114,28.47459-1.398,44.90229-.8184,15.6074.5503,36.6528-.9023,50.81349,1.6143,7.5151,1.3359,13.6655,3.8008,4.8267,5.7622-5.7759,1.2817-17.79639.3999-24.40339.3999-17.5459,0-34.5776.8642-51.7358,1.228C267.75653,389.50616,256.255,389.91776,249.359,388.51986Zm-7.8818-17.1997c15.05271-.689,31.7441-1.5601,46.8769-1.2183,11.8946.2685,37.3135-.2456,45.0225,4.103-4.0933,2.0991-11.9155,1.9844-17.6904,2.4453l-6.833-.4091c-16.3038,0-31.792-.4092-47.8311-.4092-14.3296,0-35.1299-1.271-46.1426,3.1728-13.7007,5.5288,3.6729,12.0034,16.9092,13.187,14.3501,1.2837,32.1641,1.3438,46.80421,1.649,7.88179.1645,16.54539.2905,24.40329,0,7.022-.2593,15.2515-1.7862,22.4512-1.2276,13.7607,1.0674.3149,2.8267-6.833,3.2744-7.5396.4717-16.315.5806-23.64449.7276-29.87111.5976-68.08061.4165-93.71291-6.3574-15.2618-4.0332-17.5264-10.0293-1.7036-14.3248C211.45723,372.702,228.03583,371.93536,241.47723,371.32016Z" transform="translate(-27.16083 2.14134)"/><path class="cls-10" d="M773.25654,385.24536c-23.7046-.3173-48.31252-2.0078-71.72712-3.7856-24.76848-1.8804-48.4858-5.5254-73.5317-6.3555-36.2661-1.2021-72.6069.8745-108.2442,2.3858-16.9228.7178-34.5063,1.5801-51.7895,1.228-7.8462-.1597-40.5278-.5522-43.999-4.4111a12.1967,12.1967,0,0,0-1.461-.9405c30.63092-6.4585,67.7471-10.3916,101.8365-11.04,39.7275-.7559,87.0171,3.9814,123.1831-3.2773,24.5205-4.9214,43.2729-8.6553,71.25832-6.5245,19.37838,1.4751,38.77877,4.0513,58.2402,5.6045v8.0274c-15.5352-.9824-31.55473-3.5552-46.49852-4.2515-20.2105-.9424-38.2974.875-58.3985,1.3003-.6894,4.9556,37.9302,6.8901,46.7076,8.2261,15.2104,2.3149,28.71822,6.1118,44.90229,7.2656,3.0967.2207,8.54443.8809,13.28713.96v5.5464C775.41084,385.23566,774.09294,385.25666,773.25654,385.24536Z" transform="translate(-27.16083 2.14134)"/><path class="cls-10" d="M770.568,338.58716c-18.4424-.3891-37.168-.0014-55.63669-.0014-35.7861,0-68.2739,2.0459-103.4741,4.4004-38.4956,2.5747-74.1724,5.833-113.0122,1.6255-46.854-5.0762-94.5684-1.0772-142.4659-3.6612-28.91649-1.56-54.79639-2.978-83.97409-1.2383-25.708,1.5332-51.3149,3.6456-77.1396,4.7041-34.2539,1.4048-61.2207-.7666-93.68849-4.9106-12.249-1.563-24.76711-2.8662-37.42481-3.5869v-5.2744c1.10981.0571,2.1367.1089,3.0215.1635,11.9956.7422,23.3154,1.8892,35.1118,2.8775,24.1308,2.0215,50.0552.8091,75.18851.8076,32.77629-.0024,65.02629-1.3623,97.61419-2.0478,16.0913-.3389,32.2403-.8365,48.8071-.8174,15.7154.018,29.09039-1.7808,44.90239-2.0464,39.2358-.6597,79.8398-.4888,118.1167,1.6162,38.7632,2.1313,78.6059,1.6582,118.34962,1.6582,16.668,0,32.91408.1147,48.56738-1.2056,17.7954-1.5005,34.0044-3.706,52.7148-3.706,17.02982,0,33.376-1.1065,49.77982-.419,5.06787.2124,13.07027.9917,21.0962,1.4937v9.687C774.58364,338.661,772.38834,338.62576,770.568,338.58716Z" transform="translate(-27.16083 2.14134)"/><path class="cls-10" d="M63.75213,451.03786c6.1494.2007,12.4722.2115,15.4682.0952,22.0611-.8603,43.56161-2.3647,65.669-2.8574,28.1582-.6269,56.0332-.0005,84.68261.0015,16.61959.001,32.49319.3223,49.021-.4209,18.02389-.8106,35.42729-2.3843,53.68749-2.4439,33.64989-.1108,68.24709-.8227,101.73579-2.0561,30.0762-1.1079,58.9688-2.4829,88.9263-4.3911,19.8233-1.2622,43.1162-.5196,62.0078-3.0366-.9131-5.4263-41.5761-8.1299-52.29-9.0352-23.2236-1.9629-46.4185-2.3555-70.3355-2.3555-42.1328,0-84.04488,2.5-126.11709,2.4561-42.0474-.0444-82.981-2.8653-125.0225-2.8653-33.793,0-65.5337.0523-98.59029-2.9785-13.919-1.2763-31.99221-2.8105-48.84281-2.9795v-21.4213c28.2451,2.8667,56.8764,3.6518,86.749,4.8667,31.626,1.2861,62.4829,3.1137,93.168,5.0039,20.0381,1.2343,40.0981,3.0468,61.0395,2.2739,23.2149-.8574,46.59231-2.9234,69.78909-3.5913,44.582-1.2837,96.6611-3.9483,139.34522,1.9541,19.80368,2.7383,42.85688,2.9028,63.64008,3.6821,25.0801.9404,51.792-.3169,77.1656-.3169,29.15432,0,57.958.5669,86.88379-.7973,12.1538-.5733,23.4204-2.2134,35.48973-2.6875v26.1777c-36.62843.4394-73.90232-.7935-109.93212-2.7393-35.4282-1.9135-65.1704-8.3623-98.5327-12.6772-36.38038-4.7051-73.02738-4.6397-110.4048-4.002-36.9668.6309-74.1099-.7163-111.23.0913-21.01119.4571-51.00539,2.6602-71.25829-.0913l-1.9522-1.6372c-3.9472.5298-8.8579.0733-12.63909.8399-10.52691,2.1342,1.56789,2.7256,8.73479,2.8437,8.1055.1338,16.2901,0,24.4034,0h50.75919c35.6954,0,71.1338,2.4419,107.3531,1.6372,32.8281-.729,69.24852-3.1704,99.5923,2.7515,15.2085,2.9682,31.248,6.1523,46.8515,8.5967,15.7071,2.4604,30.1382,3.7563,45.8819,5.8423,25.2431,3.3447,47.4116,5.8574,73.9384,6.9677,18.9585.7935,38.897,1.9336,58.43462,1.5493v6.7032c-2.1582-.0186-3.8867-.022-4.7192-.0552-30.314-1.207-61.17442-1.6177-91.55032-2.3858-37.9185-.9584-75.2564-5.2895-113.24468-2.8667-17.72652,1.1309-35.00292,3.7208-52.59132,5.2208-23.0371,1.9643-45.916,1.6479-69.4004,1.6479-18.9262,0-37.8501.0073-56.623-.4077-11.1284-.2461-24.3516-.5567-35.1377.4077l-37.09329-.4092c-.5449.3902-.7089.8238-1.6381,1.166,11.1323-.1977,21.4306,1.3028,32.875,1.2896q17.28285-.0198,34.1645-.4092c33.4517-.7178,65.7437,2.2129,99.5664,1.6372,38.1216-.6489,73.2666-6.958,112.0391-6.958,18.82082,0,34.4302,2.1108,52.6631,3.2852,20.9951,1.352,43.2783-.0503,64.4233.7983,19.0137.7627,37.57419,1.2231,56.88429,1.6255,1.478.0308,5.15433.2515,9.38233.4141v5.9799h-713.27Z" transform="translate(-27.16083 2.14134)"/><path class="cls-10" d="M775.49924,326.307c-22.62753.0205-44.54642.2583-66.67342,1.2265-14.1025.6167-28.2471.5552-42.4878.8199-15.4145.2866-30.6382,1.6547-46.146,1.6372-31.9546-.0362-64.0356.372-95.66208-.9097-29.50582-1.1958-57.92532-2.4605-87.85252-1.9556-37.0772.626-73.7456,1.6377-111.01269,1.6377-33.4859,0-67.4219-1.1338-100.75979-.4189-17.12691.3672-33.87211,2.1445-50.97311,2.8745-16.7925.7168-32.8858.1709-49.5694-.5098-21.14549-.8628-40.5991-2.7007-60.6103-4.8672v-4.6269h713.27v5.0932Q776.264,326.30651,775.49924,326.307Z" transform="translate(-27.16083 2.14134)"/><rect class="cls-9" x="36.5913" y="462.8125" width="713.27001" height="138.7564"/><path class="cls-10" d="M68.254,546.43776c9.7495,1.3926,32.3858,2.5655,38.1636,6.1494-4.0141,1.6622-26.6509-1.5698-42.6655-2.5029v-4.1494C65.47333,546.11356,67.08663,546.27076,68.254,546.43776Z" transform="translate(-27.16083 2.14134)"/><path class="cls-10" d="M777.02214,474.50906v22.6851c-6.1748.0942-12.09473.23-16.68413.1382-15.3994-.3086-29.05949-1.8164-43.92619-2.8877-32.6583-2.3531-65.0093-2.0445-98.5904-2.024-34.355.021-68.45548-3.7221-103.4707-3.6836-35.4761.0391-69.6606,1.8892-105.206,3.1832-21.8882.7968-44.2495.5004-66.378.5004-10.46089,0-43.79539-.3637-47.92278-4.8403,15.91359-.8691,32.25729-1.7441,48.44238-2.1387,27.9707-.6826,55.7343-1.3198,83.4287-2.4121,33.8335-1.3344,68.2461-.6728,102.2778-1.2505,27.9058-.4736,55.3975-3.1308,83.189-3.2744,19.3164-.1001,37.8598,1.6455,57.1582,1.6372,16.1977-.0068,32.3037-.187,48.2407-.8281C737.32832,478.51936,757.9,476.953,777.02214,474.50906Z" transform="translate(-27.16083 2.14134)"/><path class="cls-10" d="M777.02214,549.93436v-23.9829c-10.64213-.1343-20.61133-.6934-31.335-1.3086-25.95017-1.4883-52.748-.2119-79.00779-1.6274-36.0932-1.9458-70.69038-6.0298-107.3759-6.7632-42.001-.8389-82.8692,3.0386-124.7061,3.1929-22.791.0839-45.5986.7373-68.4258.4184-21.0107-.2939-41.60249-2.5063-62.39649-3.6235-43.1225-2.3169-85.1054-.3902-128.1645.6567-33.37359.8115-67.3179.0684-100.7632.082-3.354.001-7.1138.042-11.0952.0782v13.5962c21.897-.6475,43.417.5127,65.05081,1.9697,34.11859,2.2978,67.90819,6.8833,102.19919,8.6162,34.8525,1.7612,70.2983-2.2578,104.7114-3.8076,33.12349-1.4917,62.02149,1.2002,93.001,5.8432a386.04669,386.04669,0,0,0,52.1523,4.4024c-39.1538,1.9936-74.5366,7.3862-113.2085,11.9697-29.04679,3.4424-57.20159,3.9912-87.36419,3.9912-29.667,0-54.6763,1.2613-83.1616,4.8106-26.3091,3.2783-55.55959,5.6728-82.7828,4.605-12.7612-.5005-24.8715-1.3843-37.5727-2.4688-4.0674-.3477-8.5249-.9766-13.0249-1.5117v7.3291c3.3281.3481,6.6846.708,10.1191,1.04,24.5054,2.3692,47.2852.146,71.5484-.2876,17.1772-.3076,35.5371-.122,52.6611-.8296,39.1133-1.6167,73.9609-8.1176,114.2085-6.5376,33.58539,1.3184,63.998,5.9004,98.59029,5.3111,35.8648-.6104,72.6553-.5698,107.3755,1.6162,66.7251,4.2007,128.7202-13.1118,194.0386-5.21,17.2822,2.0904,34.63432,5.1997,52.92532,6.0513,3.40277.1582,7.5561.0688,11.8032-.0122v-17.1846c-14.8442-.3247-29.66753-.6806-44.75052-.4048-29.3628.5376-56.9521-1.0664-86.0952-1.6357-33.418-.6524-67.4141,2.2773-100.39448,3.7036-26.40092,1.1421-53.98252.3135-80.21932,1.9248-8.208.5039-60.8935,5.9478-61.3686.5689,13.9277-1.8584,31.1225-.9502,45.7314-2.0845,17.7412-1.3775,35.1114-2.1968,53.71-2.4771,39.646-.5966,78.4116-6.3066,118.063-6.958,13.62552-.2236,27.3862,0,41.0259,0,17.332,0,34.5854,1.8535,51.7631,1.1372C735.10662,553.27326,755.99921,549.971,777.02214,549.93436Zm-185.60692-17.812c7.9633,1.6143,9.8095,4.9341,1.0268,6.958l-2.9287.4092c-15.29,1.6113-28.4746,1.3979-44.9023.8188-15.6075-.5503-36.6524.9024-50.813-1.6147-7.5156-1.3355-13.666-3.8008-4.8272-5.7622,5.7759-1.2818,17.7964-.3999,24.4038-.3999,17.5455,0,34.5777-.8643,51.7354-1.2276C573.01772,531.13656,584.51922,530.72486,591.41522,532.12236Zm7.8823,17.2002c-15.0532.689-31.7441,1.5601-46.8774,1.2183-11.8946-.2686-37.3135.2456-45.0225-4.1031,4.09332-2.0996,11.9155-1.9843,17.6904-2.4458l6.833.4092c16.3037,0,31.7925.4097,47.8311.4097,14.3296,0,35.1299,1.271,46.1431-3.1734,13.7001-5.5283-3.6729-12.0034-16.9092-13.187-14.3506-1.2832-32.1646-1.3437-46.8047-1.6489-7.8819-.1645-16.5449-.29-24.4033,0-7.0215.2593-15.2515,1.7866-22.4512,1.228-13.7608-1.0678-.315-2.8271,6.833-3.2744,7.5395-.4717,16.3154-.581,23.6445-.7275,29.87162-.5977,68.08062-.417,93.7129,6.3574,15.26172,4.0332,17.5264,10.0293,1.7041,14.3242C629.317,547.94076,612.73894,548.70686,599.29752,549.32256Z" transform="translate(-27.16083 2.14134)"/><path class="cls-10" d="M67.51773,535.39676c23.7046.3179,48.3125,2.0078,71.7271,3.7857,24.7685,1.8808,48.4858,5.5258,73.5322,6.3559,36.2656,1.2017,72.6064-.8745,108.2436-2.3862,16.9234-.7178,34.50639-1.5796,51.78959-1.2276,7.8462.1597,40.5278.5523,43.999,4.4112a12.229,12.229,0,0,0,1.461.9399c-30.6304,6.4585-67.7471,10.3921-101.83649,11.0405-39.7275.7554-87.0171-3.9819-123.1831,3.2769-24.5205,4.9214-43.2729,8.6553-71.2583,6.5249-19.37839-1.4751-38.7788-4.0518-58.2402-5.6045v-8.0273c15.5351.9819,31.5547,3.5551,46.4985,4.2514,20.2105.9419,38.2974-.8755,58.3985-1.3007.6894-4.9556-37.93019-6.8902-46.7071-8.2261-15.2109-2.315-28.7187-6.1118-44.9028-7.2652-3.0962-.2207-8.5444-.8808-13.2871-.9604v-5.5459C65.36343,535.40656,66.68133,535.38556,67.51773,535.39676Z" transform="translate(-27.16083 2.14134)"/><path class="cls-10" d="M70.20623,582.055c18.4424.3897,37.168.0015,55.63671.0015,35.78659,0,68.27439-2.0459,103.47459-4.3999,38.4951-2.5747,74.17241-5.8335,113.0117-1.6255,46.854,5.0757,94.56839,1.0767,142.46629,3.6606,28.9161,1.5601,54.7959,2.9781,83.9742,1.2383,25.7075-1.5327,51.3149-3.645,77.1391-4.7041,34.2539-1.4043,61.2207.7671,93.689,4.9112,12.2485,1.5629,24.7666,2.8657,37.42433,3.5864v5.2744c-1.1094-.0567-2.1362-.1084-3.0215-.1631-11.99563-.7422-23.31543-1.8892-35.11133-2.8774-24.13089-2.022-50.05519-.8096-75.189-.8077-32.7763.002-65.0259,1.3624-97.6142,2.0479-16.0913.3384-32.2403.8359-48.80718.8169-15.71532-.0181-29.09032,1.7808-44.90232,2.0469-39.2354.6591-79.8398.4887-118.11668-1.6162-38.76321-2.1319-78.606-1.6582-118.34911-1.6582-16.6685,0-32.9141-.1148-48.5674,1.205-17.7959,1.501-34.0049,3.7066-52.7149,3.7066-17.0302,0-33.3764,1.1064-49.7802.4184-5.0679-.2124-13.0703-.9912-21.0962-1.4931v-9.687C66.191,581.98126,68.38594,582.01686,70.20623,582.055Z" transform="translate(-27.16083 2.14134)"/><path class="cls-10" d="M777.02214,469.60426c-6.1494-.2006-12.4722-.2114-15.46783-.0947-22.0615.8604-43.562,2.3648-65.66937,2.8569-28.15772.6275-56.03272.0005-84.68262-.0014-16.6192-.001-32.4927-.3218-49.021.4214-18.0239.81-35.4273,2.3838-53.6875,2.4438-33.64988.1109-68.2471.8228-101.73588,2.0562-30.07612,1.1074-58.96872,2.4824-88.92621,4.3906-19.8233,1.2627-43.1162.5195-62.0074,3.0371.91261,5.4258,41.5757,8.1299,52.28961,9.0352,23.22359,1.9624,46.41848,2.3549,70.33588,2.3549,42.1329,0,84.0445-2.5,126.1167-2.4555,42.04742.0439,82.981,2.8652,125.0225,2.8652,33.793,0,65.5337-.0522,98.5903,2.9785,13.919,1.2759,31.99219,2.8106,48.84282,2.979v21.4219c-28.24513-2.8672-56.87652-3.6519-86.749-4.8667-31.626-1.2866-62.4829-3.1143-93.168-5.0044-20.0381-1.2344-40.0976-3.0469-61.0395-2.2734-23.2149.8569-46.5923,2.9233-69.7891,3.5913-44.582,1.2837-96.6611,3.9477-139.34519-1.9541-19.8037-2.7383-42.857-2.9033-63.6402-3.6826-25.08-.94-51.7919.3169-77.1655.3169-29.1543,0-57.958-.5669-86.8833.7973-12.1543.5733-23.42039,2.2134-35.4902,2.688V487.328c36.6289-.4395,73.9023.7929,109.9321,2.7387,35.4282,1.9136,65.1709,8.3628,98.53271,12.6778,36.38039,4.7051,73.02738,4.6391,110.40478,4.0019,36.9668-.6308,74.1099.7163,111.23-.0913,21.01122-.457,51.0054-2.6606,71.2583.0913l1.9521,1.6367c3.9473-.5297,8.8584-.0727,12.6397-.8393,10.5264-2.1348-1.5684-2.7261-8.73488-2.8442-8.10592-.1334-16.29052,0-24.40382,0h-50.7593c-35.6953,0-71.1337-2.4415-107.353-1.6373-32.8281.729-69.24849,3.1709-99.59229-2.7514-15.2085-2.9683-31.2475-6.1519-46.8515-8.5967-15.70709-2.4605-30.1382-3.7563-45.8819-5.8423-25.2426-3.3447-47.4116-5.8569-73.938-6.9673-18.9589-.7939-38.8974-1.9336-58.435-1.5498v-6.7026c2.1582.0185,3.8872.0215,4.7192.0547,30.314,1.2075,61.1743,1.6181,91.5503,2.3857,37.9185.9585,75.2564,5.2896,113.2446,2.8667,17.7266-1.1308,35.003-3.7207,52.5918-5.2202,23.03719-1.9644,45.91559-1.6479,69.39991-1.6479,18.92628,0,37.85008-.0074,56.62308.4077,11.1284.2461,24.3516.5566,35.1377-.4077l37.09322.4091c.545-.3906.709-.8237,1.63818-1.166-11.1318.1978-21.4306-1.3032-32.8745-1.29q-17.2836.0204-34.165.4092c-33.4512.7182-65.7432-2.2129-99.5664-1.6368-38.12159.649-73.26659,6.958-112.03909,6.958-18.8203,0-34.43019-2.1113-52.6631-3.2856-20.99509-1.352-43.2778.0503-64.4233-.7979-19.0137-.7631-37.5742-1.2236-56.88379-1.6254-1.478-.0308-5.15431-.252-9.38281-.4141v-5.9805h713.27Z" transform="translate(-27.16083 2.14134)"/><path class="cls-10" d="M65.275,594.33576c22.6275-.021,44.5464-.2588,66.6734-1.2266,14.103-.6172,28.247-.5556,42.4878-.8203,15.4145-.2861,30.6381-1.6548,46.1465-1.6372,31.9541.0361,64.0351-.3721,95.6616.9097,29.50629,1.1963,57.92529,2.4604,87.853,1.9555,37.0767-.6259,73.7451-1.6372,111.0122-1.6372,33.4863,0,67.4219,1.1333,100.7598.419,17.1269-.3672,33.8725-2.145,50.9731-2.8745,16.793-.7168,32.8858-.1709,49.5694.5097,21.1455.8628,40.59912,2.7002,60.61032,4.8667v4.627h-713.27v-5.0933Q64.51023,594.33576,65.275,594.33576Z" transform="translate(-27.16083 2.14134)"/><path class="cls-11" d="M655.54512,327.05446c-33.3541-1.2837-68.4825-.2324-102.07518-.3554-32.38722-.1187-64.57522.3457-96.94732.3457-32.0503,0-63.9229.2983-95.8618-.2691-32.51759-.5776-65.40819.3433-97.63719-.4228-24.3604-.5791-48.1099-2.3008-72.3863-3.1055-25.94039-.8594-51.9585.4414-77.6421,1.4526-16.90029.6656-32.5395,1.7901-49.2431,1.1231v7.4624c4.44381.1562,8.874.376,13.2934.688,27.6685,1.9536,52.8116.1792,80.7442-.3736,36.8398-.729,73.7021-1.5175,110.7573-1.3657,17.9888.0733,35.5396,1.5723,53.4111,2.0845,27.06889.7764,54.396-.2437,81.48489-.7188,46.9561-.8237,92.7197,4.5586,139.355,3.399,24.5537-.6104,47.8745-3.625,72.60692-4.0552,16.38088-.2847,32.78608-.3565,49.01658-1.0747,32.3413-1.4312,66.022-.3267,98.50389-.3267q7.0452,0,14.09673.0459v-5.3691C736.58612,327.60186,695.48994,328.59206,655.54512,327.05446Z" transform="translate(-27.16083 2.14134)"/><path class="cls-11" d="M777.02214,457.76206c-5.9727-.1827-11.27293-.2745-14.1162-.3843-21.13773-.8189-44.82472.1235-65.90432.8755-52.21,1.8628-103.9214,1.6176-156.2549-.3965-33.3545-1.2837-71.0864,2.3344-104.6792,2.2114-32.3872-.1186-64.5757.3457-96.94729.3457-32.0502,0-63.9228.2983-95.8618-.269-32.51749-.5772-65.4082.3432-97.6372-.4229-24.3608-.5786-48.1098-2.3008-72.3862-3.1055q-4.7403-.1566-9.4829-.2211v10.1142c29.0664-.5596,58.1694-1.0259,87.3921-.9062,17.9892.0737,35.54,1.5722,53.4116,2.0844,27.0688.7769,54.396-.2436,81.4849-.7187,46.9555-.8233,92.71969,4.5586,139.35489,3.3994,24.5537-.6108,47.8746-3.6255,72.607-4.0557,16.3808-.2846,32.7861-.3564,49.0161-1.0747,32.3418-1.4311,66.0224-.3266,98.5044-.3266,25.7217,0,51.541.6191,77.0449-.7769,17.564-.9614,35.84719-2.0928,53.51612-2.7085.3125-.0107.6255-.0181.938-.0268Z" transform="translate(-27.16083 2.14134)"/><polygon class="cls-9" points="6.045 172.41 749.382 173.383 749.382 220.523 36.111 220.523 6.045 172.41"/><path class="cls-12" d="M43.22133,180.52866c6.1494-.1553,32.5235.2729,35.51961.3632,22.061.6641,43.56149,1.8257,65.66889,2.2061,28.1582.4844,56.0332.0005,84.6826-.001,16.6192-.001,32.4927-.249,49.021.3247,18.0239.626,35.4273,1.8413,53.68751,1.8877,33.64988.0855,68.24708.6353,101.73588,1.5874,30.07612.855,58.9687,1.917,88.9262,3.3906,19.8233.9747,43.1162.4014,62.0073,2.3448-.9126,4.1899-41.5756,6.2778-52.2895,6.977-23.2236,1.5156-46.4185,1.8189-70.33588,1.8189-42.13242,0-84.04452-1.9307-126.11671-1.8965-42.0474.0342-78.918-4.6279-120.9595-4.6279-33.793,0-69.5967,6.7998-102.6533,9.1401-13.919.9858-35.1153-3.5654-51.9659-3.4351l3.8575,8.0381c28.2451-2.2134,44.5215,4.1221,80.4448-2.2173,31.16011-5.4985,68.0527,10.294,98.7373,8.8345,20.0386-.9536,40.0986-2.353,61.04-1.7559,23.2149.6617,46.59229,2.2574,69.78909,2.773,44.582.9912,91.8813-.9707,139.3452-1.5088,19.9151-.2256,42.8569-2.2417,63.6401-2.8433,25.0801-.726,51.792.2447,77.1656.2447,29.1543,0,57.958-.438,86.88382.6157,12.15377.4424,23.42037,1.709,35.4897,2.0752v-20.2139c-36.62893-.3393-73.90232.6123-109.93212,2.1153-35.4282,1.4775-65.1704,6.457-98.5327,9.789-36.3804,3.6333-73.0274,3.5825-110.4048,3.0904-36.9668-.4874-74.1099.5532-111.23-.0704-21.01119-.353-51.00539-2.0542-71.25829.0704,0,0-90.0537-2.7032-83.32179-5.1631,21.65629-7.9131,94.75489-1.6661,102.86769-1.6661,16.9199,0,38.8872,1.6661,55.80709,1.6661,35.6953,0,65.0869,1.6972,101.30622,2.3183,32.82808.563,69.24848,2.4483,99.59228-2.1245,15.2085-2.292,31.248-4.751,46.8515-6.6382,15.7071-1.8999,30.13822-2.9008,45.8819-4.5112,25.2431-2.583,47.4116-4.523,73.9384-5.3804,18.9585-.6128,38.897-1.4931,58.43462-1.1963v-5.1762c-2.1582.0146-3.8867.0171-4.7192.0424-30.314.9322-61.17432,1.2496-91.55032,1.8423-37.9185.7403-75.2564,4.0845-113.2446,2.2134-17.72658-.873-35.003-2.8725-52.5918-4.0307-23.0372-1.5171-45.9156-1.273-69.3999-1.273-18.9263,0-37.8501-.0054-56.6231.3149-11.1284.19-24.3516.4302-35.1377-.3149l-37.09329.3164a5.29806,5.29806,0,0,0-1.6381-.9004c11.13231.1524,21.4306-1.0063,32.87449-.9961q17.28285.01545,34.165.3159c33.4517.5547,65.7432-1.7089,99.5664-1.2641,38.1216.5014,73.2666,5.373,112.0391,5.373,18.8208,0,34.4302-1.6303,52.6631-2.5366,20.9951-1.0444,43.2783.0386,64.4233-.6167,19.0137-.5889,37.57419-.9448,56.88379-1.2554,1.478-.0234,5.15483-.1943,9.38283-.3193v-4.6182l-740.59031-.9843Z" transform="translate(-27.16083 2.14134)"/><rect class="cls-13" x="36.1113" y="204.4961" width="714.36621" height="16.0269"/><polygon class="cls-9" points="38.16 556.13 751.431 556.13 751.431 603.27 0 603.455 38.16 556.13"/><path class="cls-12" d="M65.32143,563.71126c6.1494-.1548,12.4727-.1631,15.4683-.0733,22.061.6646,43.562,1.8262,65.6689,2.2066,28.1582.4843,56.0332.0005,84.6826-.001,16.61971-.001,32.4932-.249,49.021.3247,18.024.626,35.4273,1.8408,53.688,1.8872,33.64939.0855,68.24709.6353,101.73539,1.5879,30.0766.855,58.9687,1.917,88.9267,3.3906,19.8228.9746,43.1162.4009,62.0074,2.3447-.9131,4.19-41.5762,6.2779-52.2896,6.9771-23.2241,1.5156-46.4189,1.8184-70.3359,1.8184-42.1328,0-84.0449-1.9302-126.11719-1.896-42.0474.0337-78.918-4.6285-120.9595-4.6285-33.793,0-69.5967,6.8003-102.6533,9.1407-13.919.9853-48.9629-5.1714-65.8135-5.041l-8.8589,9.4238c28.24511-2.2139,71.0855,4.3423,107.0093-1.9971,31.1597-5.499,68.0523,10.294,98.7373,8.834,20.0381-.9531,40.0982-2.3525,61.0396-1.7554,23.2153.6616,46.59219,2.2574,69.789,2.773,44.5821.9912,91.8814-.9707,139.3452-1.5088,19.9151-.2256,42.857-2.2417,63.6402-2.8433,25.08052-.726,51.792.2447,77.16552.2447,29.15428,0,57.958-.438,86.88377.6157,12.1538.4424,23.4204,1.709,35.49023,2.0752v-20.2139c-36.62893-.3394-73.90282.6123-109.93262,2.1148-35.4277,1.478-65.17038,6.4575-98.5327,9.7895-36.3804,3.6333-73.0273,3.5825-110.4048,3.0903-36.9668-.4873-74.10988.5533-111.23-.0703-21.01119-.353-51.00529-2.0547-71.25779.0703,0,0-90.0542-2.7031-83.3222-5.1631,21.6567-7.913,94.7548-1.666,102.86811-1.666,16.91939,0,38.88669,1.666,55.80668,1.666,35.69532,0,65.0869,1.6973,101.3061,2.3184,32.8281.563,69.249,2.4482,99.5923-2.1245,15.2085-2.292,31.248-4.751,46.8516-6.6382,15.707-1.9004,30.1386-2.9009,45.8818-4.5112,25.2432-2.583,47.4116-4.523,73.93852-5.3804,18.95847-.6128,38.89737-1.4932,58.435-1.1963v-5.1762c-2.1587.0141-3.8872.017-4.7197.0424-30.314.9322-61.1743,1.2495-91.5503,1.8423-37.91842.7403-75.25632,4.0845-113.24462,2.2134-17.7266-.8731-35.003-2.8731-52.5913-4.0308-23.0376-1.5171-45.916-1.2729-69.4004-1.2729-18.9258,0-37.8501-.0054-56.6231.3149-11.1284.19-24.3515.4302-35.1377-.3149l-37.09319.3164a5.29927,5.29927,0,0,0-1.63769-.9004c11.13179.1523,21.43019-1.0063,32.87448-.9961q17.283.01545,34.16452.3159c33.45168.5542,65.74368-1.7085,99.56688-1.2641,38.12112.5009,73.2662,5.373,112.0386,5.373,18.8208,0,34.4302-1.6304,52.6631-2.5371,20.9956-1.0439,43.2783.0391,64.4233-.6162,19.0137-.5889,37.57429-.9448,56.88429-1.2554,1.478-.0234,5.15433-.1943,9.38283-.3193v-4.6182H65.32143Z" transform="translate(-27.16083 2.14134)"/><polygon class="cls-13" points="750.806 603.27 2.825 603.427 17.201 588.134 751.324 587.602 750.806 603.27"/><rect class="cls-1" x="46.26611" y="546.1021" width="706.2602" height="7.5078"/><rect class="cls-1" x="49.1474" y="216.5635" width="703.37891" height="9.0405"/><polygon class="cls-9" points="0 603.455 2.01 172.45 49.147 216.563 47.357 555.196 0 603.455"/><path class="cls-12" d="M36.75453,593.68286c-.1377-3.7143,0,0,.0987-1.811.726-13.3374,1.9482-26.3408,2.3906-39.7031.5639-17.02.1582-33.8589.2378-51.1709.0459-10.0425-.1573-19.6323.4629-29.625.6767-10.8975,1.9409-21.4258,2.0385-32.4605.1802-20.3339.8277-41.2451,1.8741-61.4907.9399-18.1826,2.083-35.6518,3.6406-53.7685,1.0308-11.9878.5229-26.0577,2.5195-37.4922,4.187.5107,6.1602,25.0615,6.8291,31.5283a393.41455,393.41455,0,0,1,1.6201,42.4839c-.1186,25.4595-2.167,50.8042-2.2514,76.2265-.0845,25.4078-4.85009,47.7334-4.9683,73.1373-.0952,20.4199,7.1738,59.1928,7.1738,59.1928s8.9439.7881,4.1529-16.8159c-5.1314-18.853,10.4843-41.2231,9.1113-59.7505-.8965-12.0991-2.2397-24.207-1.5835-36.8672.7271-14.0341,2.3882-28.1762,2.9692-42.1982,1.1167-26.9492-.7114-55.5108-1.1157-84.1865-.1699-12.0318-2.1211-25.875-2.664-38.4278-.6553-15.1479.3906-31.2988.4624-46.6308.04881-10.564,1.124-21.1006.0903-31.5249-.1943-1.96-7.6924-9.3262-7.6924-9.3262-4.2925,9.4839-8.4697,22.606-7.769,33.4844,1.3774,21.3935,6.27291,39.3169,9.5102,59.4438,3.5303,21.9478,3.3765,44.0928,2.7788,66.6836-.5908,22.3423.3443,44.7764-.3838,67.2129-.4121,12.7002-2.1977,30.8413-.13029,43.0586,0,0-2.95661,54.4429-5.397,50.3989-7.85111-13.0083-1.39891-57.2407-1.376-62.143.04789-10.2242,1.77539-23.5142,1.82279-33.7383.1006-21.5694,1.8808-39.3467,2.604-61.2388.6553-19.8423,2.643-41.8686-1.8443-60.1597-2.24849-9.167-4.6616-18.8349-6.5053-28.2451-1.8555-9.4726-2.815-18.1831-4.3814-27.6806a372.33986,372.33986,0,0,1-5.1714-44.6255c-.559-11.4502-5.101,4.5571-4.5937,22.9062.63331,22.9058,3.8721,45.4346,1.894,68.4082-.9228,10.7202-2.9712,21.1792-4.17869,31.8189-1.58151,13.9355-1.40181,27.7578-1.46821,41.9482-.0533,11.4365-.1119,22.8721.1557,34.2124.1582,6.7227.3609,14.711-.414,21.2359l.2114,22.4111c-.3032.332-.6377.4346-.9048.9985.1841-6.728-.9458-12.9399-.9033-19.855.0429-6.9628.1943-13.8447.4121-20.6479.6489-20.2192-1.5235-39.7095-.9834-60.1524.6084-23.04,5.5786-44.3251,5.688-67.7539.0532-11.3725-1.5327-20.789-2.3882-31.7978-.9844-12.6763.1606-26.1514-.4346-38.9224-.5356-11.4834-.8388-22.6958-1.09469-34.3608-.02-.8931-4.91071-5.6211-4.91071-5.6211L29.98553,601.286Z" transform="translate(-27.16083 2.14134)"/><polygon class="cls-13" points="48.915 221.084 47.362 554.203 31.26 570.871 32.96 206.252 48.915 221.084"/><polygon class="cls-1" points="0 603.455 47.382 549.856 51.511 551.636 2.825 603.427 0 603.455"/><polygon class="cls-1" points="2.01 172.45 49.147 225.603 49.147 216.563 6.045 172.41 2.01 172.45"/><polygon class="cls-9" points="751.431 603.27 753.334 173.527 705.787 217.199 704.418 555.834 751.431 603.27"/><path class="cls-12" d="M768.96251,594.67116c.17243-3.7129,0,0-.082-1.812-.60157-13.3432-1.70257-26.3579-2.0205-39.7236-.4048-17.0244.1577-33.8589.2397-51.1709.0479-10.0425.3404-19.6294-.187-29.6279-.5747-10.9034-1.7402-21.4429-1.7353-32.4781.0093-20.3344-.4429-41.2514-1.3003-61.5058-.7705-18.1905-1.7505-35.669-3.13917-53.7998-.91893-11.9971-.27983-26.0611-2.16993-37.5137-4.1914.4712-6.39307,25.0024-7.1226,31.4629a393.3908,393.3908,0,0,0-2.0161,42.4668c-.1186,25.4595,1.6929,50.8222,1.54063,76.2446-.15293,25.4072,4.40427,47.7759,4.28557,73.1802-.0952,20.4199-7.72557,59.1235-7.72557,59.1235s-8.95073.7041-3.99563-16.854c5.3067-18.8047-10.09959-41.3193-8.55369-59.833,1.00932-12.0903,2.4648-24.1846,1.9272-36.8506-.5961-14.0405-2.1254-28.1972-2.5756-42.2241-.8658-26.9585,1.229-55.5024,1.9008-84.1728.2818-12.0298,2.36229-25.8541,3.022-38.4009.7964-15.1416-.0986-31.3013-.0268-46.6333.0488-10.564-.92779-21.1104.2031-31.5244.2124-1.9581,7.7793-9.2544,7.7793-9.2544,4.2036,9.5239,8.25833,22.6845,7.4565,33.5556-1.5771,21.3799-6.6396,39.2569-10.0644,59.3526-3.7349,21.914-3.7876,44.0595-3.4004,66.6548.3823,22.3471-.7622,44.7714-.2432,67.2138.2935,12.7031,1.9102,30.8604-.271,43.0576,0,0,2.4483,54.4683,4.92683,50.4473,7.97167-12.9346,1.93207-57.2251,1.95507-62.1274.0478-10.2242-1.5557-23.5303-1.5083-33.7544.1005-21.5694-1.5132-39.3623-2.0323-61.2603-.4702-19.8476-2.2529-41.8911,2.4048-60.1391,2.3345-9.1465,4.8374-18.7911,6.7686-28.1836,1.9438-9.4551,2.9848-18.1563,4.6396-27.6387a372.195,372.195,0,0,0,5.5869-44.5757c.666-11.4443,5.05863,4.6045,4.3804,22.9482-.8472,22.899-4.2959,45.397-2.5322,68.3877.8227,10.7286,2.77343,21.2061,3.8818,31.8565,1.4517,13.9497,1.1431,27.7695,1.0767,41.9604-.0533,11.4366-.10107,22.8716-.4742,34.2095-.2211,6.7207-.4985,14.7065.2159,21.2383l-.4204,22.4082c.2998.335.6337.4409.8955,1.0068-.1216-6.729,1.06593-12.9301,1.08833-19.8457.022-6.9624-.0649-13.8457-.2197-20.6504-.4599-20.2241,1.8936-39.6938,1.5445-60.1406-.3936-23.0449-5.16513-44.375-5.05573-67.8042.05273-11.3725,1.7266-20.7739,2.6841-31.7739,1.103-12.6665.0835-26.1524.79783-38.917.6426-11.478,1.0503-22.687,1.4151-34.3491.0283-.8926,4.9629-5.5752,4.9629-5.5752l-2.0049,429.9819Z" transform="translate(-27.16083 2.14134)"/><polygon class="cls-13" points="705.976 221.722 704.423 554.841 720.369 571.659 722.069 207.039 705.976 221.722"/><polygon class="cls-1" points="751.431 603.27 704.443 550.494 700.298 552.235 747.605 603.455 751.431 603.27"/><polygon class="cls-1" points="753.334 173.527 705.702 226.238 705.787 217.199 749.299 173.45 753.334 173.527"/><polygon class="cls-1" points="48.915 218.698 48.022 552.899 55.341 553.61 55.341 220.523 48.915 218.698"/><polygon class="cls-1" points="705.787 217.199 704.507 553.408 700.298 552.235 700.298 221.084 705.787 217.199"/></svg>