<?xml version="1.0" encoding="utf-8"?>
<!-- Generator: Adobe Illustrator 24.1.2, SVG Export Plug-In . SVG Version: 6.00 Build 0)  -->
<svg version="1.1" id="Layer_1" xmlns="http://www.w3.org/2000/svg" xmlns:xlink="http://www.w3.org/1999/xlink" x="0px" y="0px"
	 viewBox="0 0 1600 180" style="enable-background:new 0 0 1600 180;" xml:space="preserve">
<style type="text/css">
	.st0{opacity:0.17;fill:#444459;}
	.st1{fill:#BF6F49;}
	.st2{fill:#CC764E;}
	.st3{fill:#B05428;}
	.st4{fill:#823E1E;}
	.st5{opacity:0.29;fill:#444459;}
</style>
<polygon class="st0" points="1587.3,105.6 1505.2,154.9 1374.5,183.9 0,183.9 117.2,106.3 "/>
<path class="st1" d="M853.1,75.4v24.6H1600V82.8c0-4-12.7-7.3-28.3-7.3"/>
<path class="st2" d="M126.1,75.4c-15.7,0-28.3,3.3-28.3,7.3v17.3h755.4V75.4H126.1z"/>
<path class="st3" d="M1575.9,106.3H121.8c-13.3,0-24.1-2.8-24.1-6.2l0,0H1600l0,0C1600,103.5,1589.2,106.3,1575.9,106.3z"/>
<rect x="97.7" y="87.8" class="st3" width="397.5" height="2.9"/>
<rect x="677.1" y="81.4" class="st3" width="755.7" height="3.1"/>
<rect x="1149" y="90.7" class="st3" width="451" height="3.1"/>
<path class="st3" d="M213.5,106.3v43c0,3.1,9.9,5.7,22.1,5.7h22c0.7,0,1.3,0,2,0v-48.6H213.5z"/>
<path class="st4" d="M259.6,106.3v48.6c11.3-0.3,20.1-2.7,20.1-5.7v-43H259.6z"/>
<path class="st3" d="M826.3,106.3v43c0,3.1,9.9,5.7,22.1,5.7h22c0.7,0,1.3,0,2,0v-48.6H826.3z"/>
<path class="st4" d="M872.3,106.3v48.6c11.3-0.3,20.1-2.7,20.1-5.7v-43H872.3z"/>
<path class="st3" d="M1439,106.3v43c0,3.1,9.9,5.7,22.1,5.7h22c0.7,0,1.3,0,2,0v-48.6H1439z"/>
<path class="st4" d="M1485.1,106.3v48.6c11.3-0.3,20.1-2.7,20.1-5.7v-43H1485.1z"/>
<path class="st0" d="M892.4,112.9H1412v31.9c0,0,3.4,8.4,37.3,9.3v-47.8H892.4V112.9z"/>
<path class="st0" d="M269.6,112.9h519.6v31.9c0,0,3.4,8.4,37.3,9.3v-47.8H269.6V112.9z"/>
<path class="st0" d="M213.5,106.3v40.4l10.2,7.4c0,0-25.2,0.1-32.1-3.8c-6.9-3.9-15.2-43.9-15.2-43.9L213.5,106.3z"/>
<path class="st0" d="M121.8,106.3c-4.6,0-78.1,48.7-78.1,48.7h927.1l524.1-0.9l65-47.8H121.8z"/>
<polygon class="st0" points="121.8,106.3 97.7,120 1541.3,120 1560,106.3 "/>
<path class="st5" d="M1592.8,106.3H104.9c-4,0-7.2-3.2-7.2-7.2v-8.4H1600v8.4C1600,103.1,1596.8,106.3,1592.8,106.3z"/>
<polygon class="st0" points="1587.3,105.6 1505.2,154.9 1374.5,183.9 0,183.9 117.2,106.3 "/>
<path class="st1" d="M853.1,75.4v24.6H1600V82.8c0-4-12.7-7.3-28.3-7.3"/>
<path class="st2" d="M126.1,75.4c-15.7,0-28.3,3.3-28.3,7.3v17.3h755.4V75.4H126.1z"/>
<path class="st3" d="M1575.9,106.3H121.8c-13.3,0-24.1-2.8-24.1-6.2l0,0H1600l0,0C1600,103.5,1589.2,106.3,1575.9,106.3z"/>
<rect x="97.7" y="87.8" class="st3" width="397.5" height="2.9"/>
<rect x="677.1" y="81.4" class="st3" width="755.7" height="3.1"/>
<rect x="1149" y="90.7" class="st3" width="451" height="3.1"/>
<path class="st3" d="M213.5,106.3v43c0,3.1,9.9,5.7,22.1,5.7h22c0.7,0,1.3,0,2,0v-48.6H213.5z"/>
<path class="st4" d="M259.6,106.3v48.6c11.3-0.3,20.1-2.7,20.1-5.7v-43H259.6z"/>
<path class="st3" d="M826.3,106.3v43c0,3.1,9.9,5.7,22.1,5.7h22c0.7,0,1.3,0,2,0v-48.6H826.3z"/>
<path class="st4" d="M872.3,106.3v48.6c11.3-0.3,20.1-2.7,20.1-5.7v-43H872.3z"/>
<path class="st3" d="M1439,106.3v43c0,3.1,9.9,5.7,22.1,5.7h22c0.7,0,1.3,0,2,0v-48.6H1439z"/>
<path class="st4" d="M1485.1,106.3v48.6c11.3-0.3,20.1-2.7,20.1-5.7v-43H1485.1z"/>
<path class="st0" d="M892.4,112.9H1412v31.9c0,0,3.4,8.4,37.3,9.3v-47.8H892.4V112.9z"/>
<path class="st0" d="M269.6,112.9h519.6v31.9c0,0,3.4,8.4,37.3,9.3v-47.8H269.6V112.9z"/>
<path class="st0" d="M213.5,106.3v40.4l10.2,7.4c0,0-25.2,0.1-32.1-3.8c-6.9-3.9-15.2-43.9-15.2-43.9L213.5,106.3z"/>
<path class="st0" d="M121.8,106.3c-4.6,0-78.1,48.7-78.1,48.7h927.1l524.1-0.9l65-47.8H121.8z"/>
<polygon class="st0" points="121.8,106.3 97.7,120 1541.3,120 1560,106.3 "/>
<path class="st5" d="M1592.8,106.3H104.9c-4,0-7.2-3.2-7.2-7.2v-8.4H1600v8.4C1600,103.1,1596.8,106.3,1592.8,106.3z"/>
</svg>
