<svg id="Layer_1" data-name="Layer 1" xmlns="http://www.w3.org/2000/svg" viewBox="0 0 231.23592 202.26419"><defs><style>.cls-1{fill:#d7dad9;}.cls-2{fill:#bbb;}.cls-3{fill:#fff;}.cls-4{fill:#7cafd7;}.cls-5{fill:#f18238;}.cls-6{fill:#ee7929;}.cls-7{fill:#ffae73;}.cls-8{fill:#eaedec;}.cls-9{fill:#f88c3d;}.cls-10{fill:#f5475d;}.cls-11{fill:#e73150;}.cls-12{fill:#ff647e;}.cls-13,.cls-17{fill:#515151;}.cls-13{opacity:0.4;}.cls-14{fill:#e9e9e9;}.cls-15{fill:silver;}.cls-16{fill:#636363;}</style></defs><polygon class="cls-1" points="0.078 35.186 0.078 96.915 48.097 124.545 48.097 61.787 0.078 35.186"/><polygon class="cls-1" points="96.621 33.897 48.097 61.787 48.097 124.545 96.621 96.631 96.621 33.897"/><polygon class="cls-2" points="13.664 58.917 11.648 57.753 11.648 93.307 37.64 108.313 37.64 106.093 13.664 92.251 13.664 58.917"/><polygon class="cls-3" points="14.56 59.434 13.664 58.917 13.664 92.251 37.64 106.093 37.64 104.924 14.56 91.599 14.56 59.434"/><polygon class="cls-4" points="14.56 59.434 14.56 91.599 37.64 104.924 37.64 72.759 14.56 59.434"/><polygon class="cls-3" points="21.982 95.986 21.086 95.986 21.086 63.202 21.982 63.719 21.982 95.986"/><polygon class="cls-3" points="30.536 101.361 29.64 101.361 29.64 68.141 30.536 68.658 30.536 101.361"/><polygon class="cls-3" points="37.608 81.572 14.141 68.023 14.141 66.873 37.608 80.422 37.608 81.572"/><polygon class="cls-5" points="0 27.8 0.078 36.666 48.097 64.387 48.097 55.69 0 27.8"/><polygon class="cls-6" points="96.621 27.8 48.097 55.69 48.097 64.387 96.621 36.473 96.621 27.8"/><polygon class="cls-5" points="0.078 39.733 0.078 43.761 48.097 71.669 48.097 67.623 0.078 39.733"/><polygon class="cls-6" points="96.621 39.733 48.097 67.623 48.097 71.669 96.621 43.754 96.621 39.733"/><polygon class="cls-7" points="48.338 0 0 27.8 48.098 55.701 96.621 27.8 48.338 0"/><polygon class="cls-6" points="88.217 30.087 92.171 27.8 48.715 2.647 4.536 28.21 8.459 30.478 48.736 7.173 88.217 30.087"/><polygon class="cls-5" points="88.217 30.087 48.736 7.173 8.459 30.478 48.097 53.295 88.217 30.087"/><polygon class="cls-8" points="35.292 44.281 35.292 130.006 40.679 133.114 42.339 131.911 120.661 177.039 120.663 179.263 123.588 180.951 123.588 94.073 35.292 44.281"/><polygon class="cls-1" points="183.988 59.531 123.588 94.105 123.588 180.951 183.988 146.352 183.988 59.531"/><polygon class="cls-9" points="35.292 38.31 35.292 47 123.575 97.835 123.575 89.137 35.292 38.31"/><polyline class="cls-6" points="184.001 54.433 123.575 89.137 123.575 97.835 184.001 63.107 184.001 54.433"/><polygon class="cls-9" points="35.292 50.011 35.292 54.073 123.575 105.116 123.575 101.07 35.292 50.011"/><polygon class="cls-6" points="184.001 66.366 123.575 101.07 123.575 105.116 184.001 70.388 184.001 66.366"/><polyline class="cls-7" points="184.001 54.433 95.755 3.546 35.292 38.31 123.575 89.137 184.001 54.433"/><polygon class="cls-6" points="174.736 56.88 179.347 54.212 95.805 6.024 40.079 38.406 44.277 40.833 95.632 11.149 174.736 56.88"/><polygon class="cls-9" points="175.411 56.489 95.632 11.149 44.277 40.833 123.525 86.474 175.411 56.489"/><polygon class="cls-8" points="134.693 112.905 134.693 174.634 182.712 202.264 182.712 139.506 134.693 112.905"/><polygon class="cls-1" points="231.236 111.616 182.712 139.506 182.712 202.264 231.236 174.35 231.236 111.616"/><polygon class="cls-2" points="148.279 136.636 146.263 135.472 146.263 171.026 172.254 186.032 172.254 183.812 148.279 169.97 148.279 136.636"/><polygon class="cls-3" points="149.174 137.153 148.279 136.636 148.279 169.97 172.254 183.812 172.254 182.643 149.174 169.318 149.174 137.153"/><polygon class="cls-4" points="149.174 137.153 149.174 169.318 172.254 182.643 172.254 150.478 149.174 137.153"/><polygon class="cls-3" points="156.597 173.705 155.701 173.705 155.701 140.921 156.597 141.438 156.597 173.705"/><polygon class="cls-3" points="165.151 179.08 164.255 179.08 164.255 145.86 165.151 146.377 165.151 179.08"/><polygon class="cls-3" points="172.223 159.291 148.756 145.742 148.756 144.592 172.223 158.141 172.223 159.291"/><polygon class="cls-9" points="134.615 105.519 134.693 114.385 182.712 142.106 182.712 133.409 134.615 105.519"/><polygon class="cls-6" points="231.236 105.519 182.712 133.409 182.712 142.106 231.236 114.192 231.236 105.519"/><polygon class="cls-9" points="134.693 117.452 134.693 121.48 182.712 149.388 182.712 145.342 134.693 117.452"/><polygon class="cls-6" points="231.236 117.452 182.712 145.342 182.712 149.388 231.236 121.473 231.236 117.452"/><polygon class="cls-7" points="182.953 77.719 134.615 105.519 182.712 133.42 231.236 105.519 182.953 77.719"/><polygon class="cls-6" points="222.832 107.806 226.786 105.519 183.33 80.366 139.151 105.929 143.074 108.197 183.35 84.892 222.832 107.806"/><polygon class="cls-9" points="222.832 107.806 183.35 84.892 143.074 108.197 182.712 131.014 222.832 107.806"/><polygon class="cls-10" points="118.431 124.674 40.437 79.644 40.437 63.925 118.431 108.955 118.431 124.674"/><path class="cls-3" d="M81.96441,97.04433v2.2163l2.4717,1.4267v1.8291l-2.4717-1.4267v4.0586l-1.3701-.791V94.411l1.3701.791,3.0811,1.77832v1.8428Z" transform="translate(-34.71158 -23.82813)"/><path class="cls-3" d="M90.21051,109.909l-1.3711-.791v-2.95118l-1.6601-.958V108.159l-1.3799-.79688v-7.2495a2.89614,2.89614,0,0,1,.1699-1.0503,1.47131,1.47131,0,0,1,.4707-.663,1.13224,1.13224,0,0,1,.7041-.2276,1.75923,1.75923,0,0,1,.8662.2666,3.37162,3.37162,0,0,1,.8604.7305,5.5575,5.5575,0,0,1,.7002,1.0381,5.9428,5.9428,0,0,1,.4697,1.206,4.78943,4.78943,0,0,1,.1699,1.2466V109.909Zm-1.3711-8.041a1.97227,1.97227,0,0,0-.2402-.92678,1.568,1.568,0,0,0-.5889-.6601.50265.50265,0,0,0-.5908-.0205.76617.76617,0,0,0-.2402.6489v2.4702l1.6601.958Z" transform="translate(-34.71158 -23.82813)"/><path class="cls-3" d="M96.55531,103.62583l1.3808.7969V114.37l-1.3808-.79788v-6.248l-1.3907,2.455-1.0996-.6357-1.3701-4.0215v6.2217l-1.3809-.7969v-9.9473l1.3702.7911,1.9414,5.7138Z" transform="translate(-34.71158 -23.82813)"/><path class="cls-3" d="M99.04061,105.06043l1.3408.7744v9.9463l-1.3408-.7734Z" transform="translate(-34.71158 -23.82813)"/><path class="cls-3" d="M105.89511,118.96473l-2.1816-1.2598a3.413,3.413,0,0,1-.8653-.73292,5.59752,5.59752,0,0,1-.7099-1.04438,5.94535,5.94535,0,0,1-.4795-1.2115,4.66682,4.66682,0,0,1-.1748-1.2495v-6.9961l1.3798.7969v6.9961a1.99983,1.99983,0,0,0,.2295.9072,1.59132,1.59132,0,0,0,.5606.65728l2.2412,1.29392Z" transform="translate(-34.71158 -23.82813)"/><path class="cls-3" d="M111.15881,112.05653v3.8721a3.18359,3.18359,0,0,1-.125.9291,1.84612,1.84612,0,0,1-.3457.6685,1.2722,1.2722,0,0,1-.5244.3779,1.23287,1.23287,0,0,1-.6758.0508v3.084l-1.3506-.7793v-3.0845a5.08753,5.08753,0,0,1-.6797-.8266,6.2464,6.2464,0,0,1-.8857-2.0664,4.93622,4.93622,0,0,1-.125-1.0738v-3.8715l1.4003.8085v3.8716a2.31692,2.31692,0,0,0,.2754,1.0669,1.79794,1.79794,0,0,0,.6758.7637.57525.57525,0,0,0,.6846.02148.89708.89708,0,0,0,.2754-.749v-3.87208Z" transform="translate(-34.71158 -23.82813)"/><path class="cls-3" d="M119.90581,117.10733l1.3809.7968v9.9473l-1.3809-.7978v-6.2481l-1.3896,2.4551-1.1006-.6358-1.3701-4.0214V124.825l-1.3809-.79678v-9.9473l1.3701.791,1.9415,5.7139Z" transform="translate(-34.71158 -23.82813)"/><path class="cls-3" d="M126.80331,131.036l-1.3711-.792v-2.95018l-1.6601-.959V129.286l-1.3799-.79688v-7.25a2.89076,2.89076,0,0,1,.1699-1.0498,1.47712,1.47712,0,0,1,.4697-.6636,1.13021,1.13021,0,0,1,.7051-.227,1.74059,1.74059,0,0,1,.8652.2661,3.37045,3.37045,0,0,1,.8604.73,5.4774,5.4774,0,0,1,.7002,1.0385,5.88378,5.88378,0,0,1,.4707,1.2066,4.78285,4.78285,0,0,1,.1699,1.24608v7.25Zm-1.3711-8.04148a1.98044,1.98044,0,0,0-.2402-.9263,1.57507,1.57507,0,0,0-.5899-.6611.50194.50194,0,0,0-.5898-.0205.76489.76489,0,0,0-.2402.64938v2.46972l1.6601.959Z" transform="translate(-34.71158 -23.82813)"/><path class="cls-3" d="M131.53281,124.05313a5.50582,5.50582,0,0,1,.7051,1.0346,5.97259,5.97259,0,0,1,.4756,1.2022,4.71009,4.71009,0,0,1,.1748,1.2495,2.9508,2.9508,0,0,1-.1602,1.0293,1.4865,1.4865,0,0,1-.4502.6606,6.12767,6.12767,0,0,1,.4404,1.169,4.722,4.722,0,0,1,.1592,1.2075v2.937l-1.3799-.7969v-2.937a2.03148,2.03148,0,0,0-.2353-.9302,1.5406,1.5406,0,0,0-.585-.665l-1.3711-.7915v4.0591l-1.3994-.8086v-9.9463l1.3906.8027,1.3702.7911A3.41263,3.41263,0,0,1,131.53281,124.05313Zm-.2598,3.3481a.77251.77251,0,0,0,.2442-.6533,1.92618,1.92618,0,0,0-.2442-.92192,1.61053,1.61053,0,0,0-.5957-.65768l-1.3711-.7915v2.2163l1.3711.7915A.50567.50567,0,0,0,131.273,127.40123Z" transform="translate(-34.71158 -23.82813)"/><path class="cls-3" d="M136.64311,130.88273a4.41887,4.41887,0,0,1,.7051.7739,5.477,5.477,0,0,1,.5606.9712,6.18569,6.18569,0,0,1,.3701,1.0815,4.65175,4.65175,0,0,1,.1348,1.0928v2.937l-1.3809-.7969v-2.9375a2.00969,2.00969,0,0,0-.2402-.9331,1.56468,1.56468,0,0,0-.5889-.6675.51483.51483,0,0,0-.5508-.0439.63952.63952,0,0,0-.2695.5185v3.1104l-1.3906-.8027v-9.9463l1.3906.8027v3.3379l1.4394-2.5068,1.5909.9189Z" transform="translate(-34.71158 -23.82813)"/><path class="cls-3" d="M140.898,137.33093l3.0713,1.7729v1.8423l-3.9014-2.2519-.5498-.3174v-9.9473l1.3702.791,3.081,1.7793v1.8423l-3.0713-1.7729v2.2163l2.4805,1.4321v1.8291l-2.4805-1.4321Z" transform="translate(-34.71158 -23.82813)"/><path class="cls-3" d="M147.74371,133.17863l1.6504.9531v1.8427l-1.6709-.9648v8.1045l-1.3408-.7744v-8.104l-1.6602-.9585v-1.8428l1.6407.9473Z" transform="translate(-34.71158 -23.82813)"/><polygon class="cls-11" points="120.907 123.224 118.431 124.653 118.431 108.955 120.907 107.525 120.907 123.224"/><polygon class="cls-12" points="40.437 63.925 43.04 62.477 120.907 107.525 118.431 108.955 40.437 63.925"/><polygon class="cls-4" points="42.267 92.373 42.267 132.135 120.589 177.263 120.589 137.5 42.267 92.373"/><polygon class="cls-3" points="69.293 147.762 65.734 145.741 65.734 113.359 69.293 115.398 69.293 147.762"/><polygon class="cls-3" points="81.214 122.314 80.398 121.847 80.398 154.229 81.214 154.693 81.214 122.314"/><polygon class="cls-3" points="97.107 163.816 93.548 161.795 93.548 129.413 97.107 131.452 97.107 163.816"/><polygon class="cls-3" points="104.963 168.339 104.067 167.821 104.067 135.594 104.963 136.111 104.963 168.339"/><polygon class="cls-3" points="113.516 173.296 112.621 172.778 112.621 134.225 113.516 134.742 113.516 173.296"/><polygon class="cls-3" points="120.589 153.964 97.122 140.415 97.122 139.265 120.589 152.814 120.589 153.964"/><polygon class="cls-3" points="50.108 136.755 49.212 136.238 49.212 104.011 50.108 104.528 50.108 136.755"/><polygon class="cls-3" points="58.661 141.712 57.766 141.195 57.766 108.949 58.661 109.467 58.661 141.712"/><polygon class="cls-3" points="65.734 122.38 42.267 108.831 42.267 107.682 65.734 121.231 65.734 122.38"/><polygon class="cls-3" points="79.26 140.276 78.471 139.82 78.471 132.873 79.26 133.329 79.26 140.276"/><polygon class="cls-3" points="83.33 142.627 82.54 142.171 82.54 135.225 83.33 135.681 83.33 142.627"/><polygon class="cls-2" points="42.267 106.597 40.679 106.798 40.679 133.043 42.267 132.133 42.267 106.597"/><path class="cls-12" d="M78.98031,114.25283l-19.2891,11.1366c.7274.35558,1.5355.7451,2.3862,1.1459l19.4287-11.2171C80.57071,114.92123,79.72371,114.56433,78.98031,114.25283Z" transform="translate(-34.71158 -23.82813)"/><path class="cls-12" d="M82.27221,115.64383l-19.4604,11.2354c.754.3506,1.5298.70378,2.3026,1.04478l19.5182-11.26878C83.808,116.29983,83.01641,115.96083,82.27221,115.64383Z" transform="translate(-34.71158 -23.82813)"/><path class="cls-12" d="M122.89161,137.25163l-20.0235,11.5605q1.1808.75975,2.4409,1.567l19.9894-11.5409Q124.08326,138.0354,122.89161,137.25163Z" transform="translate(-34.71158 -23.82813)"/><path class="cls-12" d="M125.91851,139.248l-19.9788,11.53482q1.0194.65235,2.0748,1.3257l19.9395-11.5121Q126.93251,139.91873,125.91851,139.248Z" transform="translate(-34.71158 -23.82813)"/><path class="cls-12" d="M75.75771,112.915,56.37828,123.73113s1.0376.53688,2.5942,1.3054l19.23663-11.1062C76.67791,113.29113,75.75771,112.915,75.75771,112.915Z" transform="translate(-34.71158 -23.82813)"/><path class="cls-12" d="M128.57281,141.007l-19.9264,11.50452q.96885.6177,1.9553,1.2453l19.8823-11.479Q129.52881,141.642,128.57281,141.007Z" transform="translate(-34.71158 -23.82813)"/><path class="cls-12" d="M133.74591,144.45383l-19.7966,11.4297q.938.595,1.8726,1.1871l19.7441-11.3992Q134.663,145.06678,133.74591,144.45383Z" transform="translate(-34.71158 -23.82813)"/><path class="cls-12" d="M131.10151,142.68923l-19.867,11.4701q1.0368.6594,2.0811,1.3221l19.8138-11.4395Q132.11991,143.36783,131.10151,142.68923Z" transform="translate(-34.71158 -23.82813)"/><path class="cls-12" d="M117.66381,133.83633l-20.0425,11.5716q.89985.5907,1.9297,1.26008l20.0467-11.574Q118.61146,134.45069,117.66381,133.83633Z" transform="translate(-34.71158 -23.82813)"/><path class="cls-12" d="M100.93551,124.06313l-19.6937,11.3702q1.1424.6222,2.3105,1.2768l19.8107-11.4377C102.58211,124.87533,101.77061,124.47143,100.93551,124.06313Z" transform="translate(-34.71158 -23.82813)"/><path class="cls-12" d="M112.46821,130.50843l-19.9721,11.5309q.94455.60045,1.8536,1.1982l19.9899-11.5412C113.69031,131.28173,113.06431,130.88423,112.46821,130.50843Z" transform="translate(-34.71158 -23.82813)"/><path class="cls-12" d="M104.06731,125.63363l-19.8425,11.4561q1.09335.61875,2.1925,1.2579l19.9286-11.5059C105.63021,126.45023,104.86851,126.04673,104.06731,125.63363Z" transform="translate(-34.71158 -23.82813)"/><path class="cls-12" d="M107.77151,127.63933c-.2393-.1382-.4919-.28-.7458-.4222l-19.9479,11.517q1.01715.597,2.0254,1.2048l19.9701-11.5298C108.60091,128.12473,108.16271,127.86513,107.77151,127.63933Z" transform="translate(-34.71158 -23.82813)"/><path class="cls-12" d="M120.22191,135.50153l-20.0449,11.5729q.9861.6393,2.0624,1.3329l20.0301-11.5644Q121.23121,136.161,120.22191,135.50153Z" transform="translate(-34.71158 -23.82813)"/><path class="cls-12" d="M97.82131,122.56963l-19.5415,11.2823q1.11285.5814,2.2763,1.2094l19.6577-11.3494C99.43121,123.33293,98.63171,122.95163,97.82131,122.56963Z" transform="translate(-34.71158 -23.82813)"/><path class="cls-12" d="M136.18171,146.08373l-19.7256,11.3886q1.0512.6657,2.0855,1.3196l19.6622-11.3521Q137.20691,146.77068,136.18171,146.08373Z" transform="translate(-34.71158 -23.82813)"/><path class="cls-12" d="M94.80671,121.168l-19.4166,11.21022q1.0557.5244,2.1894,1.1102L97.08821,122.225Q95.95526,121.69494,94.80671,121.168Z" transform="translate(-34.71158 -23.82813)"/><path class="cls-12" d="M114.97061,132.09983l-20.0018,11.548c.1355.0903.2726.1809.4065.2708.4804.323,1.0268.6862,1.6244,1.0803l20.0372-11.5685Q115.97236,132.74193,114.97061,132.09983Z" transform="translate(-34.71158 -23.82813)"/><path class="cls-12" d="M109.72221,128.80233l-19.9708,11.5301q1.068.65037,2.1106,1.3052l19.9696-11.5295Q110.69341,129.39473,109.72221,128.80233Z" transform="translate(-34.71158 -23.82813)"/><path class="cls-12" d="M85.39351,116.98373l-19.5216,11.2708c.8817.3806,1.7461.7372,2.5557,1.0481l19.4577-11.2339C87.03111,117.69433,86.19841,117.33183,85.39351,116.98373Z" transform="translate(-34.71158 -23.82813)"/><path class="cls-12" d="M143.96361,151.31583l-19.4639,11.2375c.694.4375,1.366.8608,2.01,1.2664l19.3917-11.1958C145.28151,152.20513,144.63351,151.76773,143.96361,151.31583Z" transform="translate(-34.71158 -23.82813)"/><path class="cls-12" d="M132.48031,167.57393c1.1998.7532,1.8921,1.18708,1.8921,1.18708l17.0721-9.52838c1.4617.9919,2.3073,1.5678,2.3073,1.5678v-2.8556s-.7704-.5246-2.1099-1.43382Z" transform="translate(-34.71158 -23.82813)"/><path class="cls-12" d="M91.61281,119.72063l-19.3407,11.1663c.7454.3404,1.5484.7208,2.4007,1.1377l19.3914-11.1957Q92.83481,120.26823,91.61281,119.72063Z" transform="translate(-34.71158 -23.82813)"/><path class="cls-12" d="M88.64041,118.40063l-19.4072,11.2047c.651.2413,1.4226.5602,2.2917.9452l19.3387-11.1652Q89.73726,118.88283,88.64041,118.40063Z" transform="translate(-34.71158 -23.82813)"/><path class="cls-12" d="M141.33281,149.54323l-19.5577,11.2916q1.0695.67515,2.0888,1.3177l19.4862-11.2504Q142.37061,150.24183,141.33281,149.54323Z" transform="translate(-34.71158 -23.82813)"/><path class="cls-12" d="M138.81871,147.85273l-19.6424,11.3406q.9957.6294,1.9636,1.2405l19.5787-11.3039Q139.78666,148.50293,138.81871,147.85273Z" transform="translate(-34.71158 -23.82813)"/><path class="cls-12" d="M146.514,153.038l-19.3681,11.18222q1.11225.70017,2.0917,1.316l19.2894-11.1367Q147.58561,153.76233,146.514,153.038Z" transform="translate(-34.71158 -23.82813)"/><path class="cls-12" d="M149.13911,154.814l-19.2649,11.12262c.7331.4609,1.3939.876,1.9691,1.2373l19.1873-11.0778Q150.192,155.52733,149.13911,154.814Z" transform="translate(-34.71158 -23.82813)"/><path class="cls-10" d="M78.20911,113.93033l-19.23663,11.1062q.3434.1695.71873.3529l19.2891-11.1366Q78.57216,114.08183,78.20911,113.93033Z" transform="translate(-34.71158 -23.82813)"/><path class="cls-10" d="M81.50611,115.31823l-19.4287,11.2171q.363.17115.7344.3439l19.4604-11.2354C82.00911,115.53173,81.75741,115.42483,81.50611,115.31823Z" transform="translate(-34.71158 -23.82813)"/><path class="cls-10" d="M84.63261,116.65523,65.11441,127.924q.37995.16773.7575.33052l19.5216-11.2708Q85.00876,116.81738,84.63261,116.65523Z" transform="translate(-34.71158 -23.82813)"/><path class="cls-10" d="M87.88531,118.06873l-19.4577,11.2339c.2329.0893.4627.1763.6853.25738.0383.014.0811.03082.1203.04532l19.4072-11.2047Q88.26091,118.23353,87.88531,118.06873Z" transform="translate(-34.71158 -23.82813)"/><path class="cls-10" d="M90.86361,119.38533l-19.3387,11.1652q.36255.1605.7472.3364l19.3407-11.1663Q91.23751,119.55233,90.86361,119.38533Z" transform="translate(-34.71158 -23.82813)"/><path class="cls-10" d="M94.06421,120.82893l-19.3914,11.1957q.3531.17265.7173.3536L94.80671,121.168Q94.43561,120.99779,94.06421,120.82893Z" transform="translate(-34.71158 -23.82813)"/><path class="cls-10" d="M97.08821,122.225l-19.5087,11.26342q.34755.17937.7003.3635l19.5415-11.2823C97.57751,122.45473,97.33381,122.33993,97.08821,122.225Z" transform="translate(-34.71158 -23.82813)"/><path class="cls-10" d="M100.21381,123.71193l-19.6577,11.3494q.34125.184.6857.372l19.6937-11.3702Q100.57731,123.88793,100.21381,123.71193Z" transform="translate(-34.71158 -23.82813)"/><path class="cls-10" d="M103.363,125.27243l-19.8107,11.4377q.3354.18825.6725.3796l19.8425-11.4561C103.83481,125.51373,103.60171,125.39373,103.363,125.27243Z" transform="translate(-34.71158 -23.82813)"/><path class="cls-10" d="M106.34591,126.84173l-19.9286,11.5059q.33045.1923.6605.3865l19.9479-11.517C106.805,127.09363,106.57691,126.968,106.34591,126.84173Z" transform="translate(-34.71158 -23.82813)"/><path class="cls-10" d="M109.07331,128.40913l-19.9701,11.5298q.32535.1962.6482.3935l19.9708-11.5301Q109.38636,128.59758,109.07331,128.40913Z" transform="translate(-34.71158 -23.82813)"/><path class="cls-10" d="M111.83161,130.10813,91.862,141.63763c.2129.1339.4235.2677.6341.4017l19.9721-11.5309C112.25261,130.37253,112.03951,130.23853,111.83161,130.10813Z" transform="translate(-34.71158 -23.82813)"/><path class="cls-10" d="M114.33961,131.69633l-19.9899,11.5412q.3126.2055.6191.4103l20.0018-11.548C114.75741,131.96323,114.54781,131.82923,114.33961,131.69633Z" transform="translate(-34.71158 -23.82813)"/><path class="cls-10" d="M117.03691,133.43043l-20.0372,11.5685q.302.199.6216.409l20.0425-11.5716Q117.34806,133.63158,117.03691,133.43043Z" transform="translate(-34.71158 -23.82813)"/><path class="cls-10" d="M119.59771,135.094,99.551,146.668q.3078.2.626.40642l20.0449-11.5729Q119.90781,135.29633,119.59771,135.094Z" transform="translate(-34.71158 -23.82813)"/><path class="cls-10" d="M122.26951,136.84293l-20.0301,11.5644q.3108.20025.6287.4048l20.0235-11.5605Q122.57916,137.04613,122.26951,136.84293Z" transform="translate(-34.71158 -23.82813)"/><path class="cls-10" d="M125.29841,138.83823l-19.9894,11.5409q.31365.2007.6307.4037l19.9788-11.53482Q125.60786,139.04251,125.29841,138.83823Z" transform="translate(-34.71158 -23.82813)"/><path class="cls-10" d="M127.954,140.59643l-19.9395,11.5121.6319.403,19.9264-11.50452Q128.26321,140.80139,127.954,140.59643Z" transform="translate(-34.71158 -23.82813)"/><path class="cls-10" d="M130.484,142.27783l-19.8823,11.479q.31575.201.6328.4025l19.867-11.4701Q130.79281,142.48358,130.484,142.27783Z" transform="translate(-34.71158 -23.82813)"/><path class="cls-10" d="M133.12941,144.04193l-19.8138,11.4395q.31695.201.6337.4021l19.7966-11.4297Q133.43826,144.24833,133.12941,144.04193Z" transform="translate(-34.71158 -23.82813)"/><path class="cls-10" d="M135.566,145.67143l-19.7441,11.3992q.31755.2013.6342.4017l19.7256-11.3886Q135.875,145.87808,135.566,145.67143Z" transform="translate(-34.71158 -23.82813)"/><path class="cls-10" d="M138.20381,147.43983l-19.6622,11.3521q.31845.2013.6347.4014l19.6424-11.3406C138.61421,147.71553,138.41031,147.57843,138.20381,147.43983Z" transform="translate(-34.71158 -23.82813)"/><path class="cls-10" d="M140.71861,149.12993l-19.5787,11.3039q.31965.2019.6352.401l19.5577-11.2916C141.12921,149.40623,140.92511,149.26883,140.71861,149.12993Z" transform="translate(-34.71158 -23.82813)"/><path class="cls-10" d="M143.35011,150.90213l-19.4862,11.2504q.3207.2022.6358.4008l19.4639-11.2375C143.76081,151.179,143.55721,151.04173,143.35011,150.90213Z" transform="translate(-34.71158 -23.82813)"/><path class="cls-10" d="M145.90141,152.62393l-19.3917,11.1958q.32265.2031.6362.4005L146.514,153.038C146.31321,152.90223,146.10841,152.76383,145.90141,152.62393Z" transform="translate(-34.71158 -23.82813)"/><path class="cls-10" d="M148.527,154.39953l-19.2894,11.1367q.32655.2055.6366.4004l19.2649-11.12262Q148.84076,154.612,148.527,154.39953Z" transform="translate(-34.71158 -23.82813)"/><path class="cls-10" d="M151.03061,156.09613l-19.1873,11.0778q.339.21285.637.4l19.1616-11.06292Q151.35361,156.31544,151.03061,156.09613Z" transform="translate(-34.71158 -23.82813)"/><path class="cls-10" d="M134.37231,171.61653s-36.231-24.6768-45.9802-30.3056-32.01383-14.7243-32.01383-14.7243v-2.8555s22.26453,9.0956,32.01383,14.7243,45.9802,30.30558,45.9802,30.30558Z" transform="translate(-34.71158 -23.82813)"/><polygon class="cls-11" points="119.04 134.117 99.661 144.933 99.661 147.788 119.04 136.972 119.04 134.117"/><polygon class="cls-13" points="222.466 138.217 222.466 146.809 212.631 152.512 212.631 143.902 222.466 138.217"/><polygon class="cls-14" points="227.817 133.842 227.817 142.434 217.982 148.137 217.982 139.527 227.817 133.842"/><polygon class="cls-15" points="217.982 139.527 217.982 148.137 212.631 145.089 212.631 136.515 217.982 139.527"/><polygon class="cls-3" points="227.817 133.842 217.982 139.527 212.631 136.515 222.549 130.778 227.817 133.842"/><path class="cls-16" d="M258.518,164.97283a4.73806,4.73806,0,0,1-2.4414,4.0776c-1.3039.5245-2.3246-.4506-2.2801-2.178a4.73787,4.73787,0,0,1,2.4414-4.0776C257.54191,162.27023,258.56251,163.24543,258.518,164.97283Z" transform="translate(-34.71158 -23.82813)"/><path class="cls-17" d="M257.7,165.30193a3.09626,3.09626,0,0,1-1.5955,2.6647c-.852.3428-1.5191-.2944-1.49-1.4234a3.0963,3.0963,0,0,1,1.5955-2.6646C257.062,163.53583,257.72911,164.173,257.7,165.30193Z" transform="translate(-34.71158 -23.82813)"/><polygon class="cls-13" points="209.468 145.655 209.468 154.247 199.632 159.95 199.632 151.34 209.468 145.655"/><polygon class="cls-14" points="214.819 141.281 214.819 149.873 204.984 155.576 204.984 146.966 214.819 141.281"/><polygon class="cls-15" points="204.984 146.966 204.984 155.576 199.632 152.528 199.632 143.954 204.984 146.966"/><polygon class="cls-3" points="214.819 141.281 204.984 146.966 199.632 143.954 209.55 138.217 214.819 141.281"/><path class="cls-16" d="M245.51921,172.41163a4.73763,4.73763,0,0,1-2.4413,4.0775c-1.304.5246-2.3246-.4506-2.2801-2.178a4.73813,4.73813,0,0,1,2.4414-4.0776C244.54311,169.709,245.56381,170.68413,245.51921,172.41163Z" transform="translate(-34.71158 -23.82813)"/><path class="cls-17" d="M244.70131,172.74073a3.0964,3.0964,0,0,1-1.5955,2.6647c-.852.3427-1.5191-.2945-1.49-1.42342a3.09646,3.09646,0,0,1,1.5955-2.66468C244.06331,170.97453,244.73041,171.61173,244.70131,172.74073Z" transform="translate(-34.71158 -23.82813)"/><polygon class="cls-13" points="195.965 153.702 195.965 162.294 186.13 167.997 186.13 159.387 195.965 153.702"/><polygon class="cls-14" points="201.316 149.328 201.316 157.92 191.481 163.623 191.481 155.013 201.316 149.328"/><polygon class="cls-15" points="191.481 155.013 191.481 163.623 186.13 160.575 186.13 152.001 191.481 155.013"/><polygon class="cls-3" points="201.316 149.328 191.481 155.013 186.13 152.001 196.048 146.263 201.316 149.328"/><path class="cls-16" d="M232.01691,180.45843a4.73759,4.73759,0,0,1-2.4414,4.07758c-1.3039.52452-2.3245-.45058-2.28-2.178a4.73766,4.73766,0,0,1,2.4414-4.07758C231.04081,177.75593,232.06141,178.731,232.01691,180.45843Z" transform="translate(-34.71158 -23.82813)"/><path class="cls-17" d="M231.19891,180.78753a3.09593,3.09593,0,0,1-1.5955,2.6647c-.852.34278-1.5191-.2944-1.49-1.4234a3.09648,3.09648,0,0,1,1.5955-2.6646C230.56091,179.02143,231.228,179.65863,231.19891,180.78753Z" transform="translate(-34.71158 -23.82813)"/><polygon class="cls-3" points="115.109 70.763 125.554 76.794 132.041 73.049 121.596 67.018 115.109 70.763"/><polygon class="cls-6" points="125.554 81.118 132.041 77.334 132.041 73.01 125.554 76.794 125.554 81.118"/><polygon class="cls-7" points="125.554 81.118 115.109 75.087 115.109 70.763 125.554 76.794 125.554 81.118"/><polygon class="cls-3" points="127.395 63.713 137.84 69.744 144.327 65.998 133.881 59.968 127.395 63.713"/><polygon class="cls-6" points="137.84 74.068 144.327 70.284 144.327 65.96 137.84 69.744 137.84 74.068"/><polygon class="cls-7" points="137.84 74.068 127.395 68.037 127.395 63.713 137.84 69.744 137.84 74.068"/><polygon class="cls-6" points="88.8 22.354 100.38 29.137 108.164 24.766 96.492 17.925 88.8 22.354"/><polygon class="cls-16" points="100.38 25.74 99.854 25.74 99.854 27.845 100.38 28.163 100.38 25.74"/><polygon class="cls-17" points="100.392 25.733 106.434 22.812 106.434 24.761 100.392 28.156 100.392 25.733"/><polygon class="cls-16" points="91.031 20.389 90.504 20.389 90.504 22.494 91.031 22.812 91.031 20.389"/><polygon class="cls-17" points="91.031 20.303 97.073 17.382 97.073 19.487 91.031 22.812 91.031 20.303"/><polygon class="cls-14" points="90.031 11.02 90.031 20.515 100.9 26.818 100.9 17.303 90.031 11.02"/><polygon class="cls-15" points="100.9 17.303 100.9 26.818 106.814 23.45 106.814 13.974 100.9 17.303"/><polygon class="cls-3" points="90.031 11.02 100.9 17.303 106.814 13.974 95.853 7.633 90.031 11.02"/><path class="cls-16" d="M129.17531,42.91833a5.2351,5.2351,0,0,0,2.6979,4.5062c1.4411.5797,2.5692-.4979,2.52-2.4069a5.23577,5.23577,0,0,0-2.6983-4.5063C130.254,39.93163,129.126,41.00933,129.17531,42.91833Z" transform="translate(-34.71158 -23.82813)"/><path class="cls-17" d="M130.07921,43.28213a3.42112,3.42112,0,0,0,1.7632,2.9447c.9417.3789,1.6789-.3255,1.6469-1.5729a3.422,3.422,0,0,0-1.7633-2.9448C130.78421,41.33013,130.04711,42.03433,130.07921,43.28213Z" transform="translate(-34.71158 -23.82813)"/><polygon class="cls-6" points="75.555 30.243 87.136 37.026 94.919 32.654 83.248 25.814 75.555 30.243"/><polygon class="cls-16" points="87.136 33.628 86.609 33.628 86.609 35.734 87.136 36.051 87.136 33.628"/><polygon class="cls-17" points="87.147 33.622 93.189 30.7 93.189 32.65 87.147 36.045 87.147 33.622"/><polygon class="cls-16" points="77.786 28.277 77.26 28.277 77.26 30.383 77.786 30.7 77.786 28.277"/><polygon class="cls-17" points="77.786 28.192 83.828 25.271 83.828 27.376 77.786 30.7 77.786 28.192"/><polygon class="cls-14" points="76.787 18.908 76.787 28.404 87.656 34.706 87.656 25.191 76.787 18.908"/><polygon class="cls-15" points="87.656 25.191 87.656 34.706 93.57 31.338 93.57 21.862 87.656 25.191"/><polygon class="cls-3" points="76.787 18.908 87.656 25.191 93.57 21.862 82.609 15.522 76.787 18.908"/><path class="cls-16" d="M115.93091,50.80693a5.23524,5.23524,0,0,0,2.698,4.5062c1.4411.5797,2.5691-.4979,2.5199-2.4069a5.23539,5.23539,0,0,0-2.6983-4.5063C117.00971,47.82013,115.88161,48.89793,115.93091,50.80693Z" transform="translate(-34.71158 -23.82813)"/><path class="cls-17" d="M116.83491,51.17063a3.421,3.421,0,0,0,1.7631,2.9447c.9418.3789,1.6789-.3254,1.6469-1.5728a3.42194,3.42194,0,0,0-1.7633-2.9449C117.53981,49.21873,116.80271,49.92293,116.83491,51.17063Z" transform="translate(-34.71158 -23.82813)"/></svg>