<?xml version="1.0" encoding="utf-8"?>
<!-- Generator: Adobe Illustrator 24.1.2, SVG Export Plug-In . SVG Version: 6.00 Build 0)  -->
<svg version="1.1" id="Layer_1" xmlns="http://www.w3.org/2000/svg" xmlns:xlink="http://www.w3.org/1999/xlink" x="0px" y="0px"
	 viewBox="0 0 380 200" style="enable-background:new 0 0 380 200;" xml:space="preserve">
<style type="text/css">
	.st0{fill:#C68655;}
	.st1{fill:#DA9859;}
	.st2{opacity:0.7;fill:#7C5438;}
	.st3{fill:#F7A969;}
	.st4{opacity:0.5;fill:#7C5438;}
	.st5{fill:#7C5438;}
</style>
<g>
	<g>
		<g>
			<rect x="7.6" y="187.7" class="st0" width="381.6" height="25.2"/>
			<path class="st1" d="M7.6,192.9c3.3-0.1,6.7-0.1,8.3,0c11.8,0.4,23.3,1,35.1,1.2c15.1,0.3,30,0,45.3,0c8.9,0,17.4-0.1,26.2,0.2
				c9.6,0.3,19,1,28.7,1c18,0,36.5,0.3,54.4,0.8c16.1,0.5,31.5,1,47.6,1.8c10.6,0.5,23.1,0.2,33.2,1.3c-0.5,2.2-22.2,3.3-28,3.7
				c-12.4,0.8-24.8,1-37.6,1c-22.5,0-45-1-67.5-1c-22.5,0-42.2-2.5-64.7-2.5c-18.1,0-37.2,3.6-54.9,4.9c-7.4,0.5-16.3-2.2-25.3-2.1
				L8,207.7c15.1-1.2,23.8,2.2,43-1.2c16.7-2.9,36.4,5.5,52.8,4.7c10.7-0.5,21.5-1.3,32.7-0.9c12.4,0.4,24.9,1.2,37.3,1.5
				c23.8,0.5,49.2-0.5,74.5-0.8c10.7-0.1,22.9-1.2,34-1.5c13.4-0.4,27.7,0.1,41.3,0.1c15.6,0,31-0.2,46.5,0.3
				c6.5,0.2,12.5,0.9,19,1.1v-10.8c-19.6-0.2-39.5,0.3-58.8,1.1c-19,0.8-34.9,3.4-52.7,5.2c-19.5,1.9-39.1,1.9-59.1,1.6
				c-19.8-0.3-39.6,0.3-59.5,0c-11.2-0.2-27.3-1.1-38.1,0c0,0-48.2-1.4-44.6-2.8c11.6-4.2,50.7-0.9,55-0.9c9.1,0,20.8,0.9,29.9,0.9
				c19.1,0,34.8,0.9,54.2,1.2c17.6,0.3,37,1.3,53.3-1.1c8.1-1.2,16.7-2.5,25.1-3.5c8.4-1,16.1-1.5,24.5-2.4
				c13.5-1.4,25.4-2.4,39.6-2.9c10.1-0.3,20.8-0.8,31.3-0.6v-2.8c-1.2,0-2.1,0-2.5,0c-16.2,0.5-32.7,0.7-49,1
				c-20.3,0.4-40.3,2.2-60.6,1.2c-9.5-0.5-18.7-1.5-28.1-2.2c-12.3-0.8-24.6-0.7-37.1-0.7c-10.1,0-20.2,0-30.3,0.2
				c-6,0.1-13,0.2-18.8-0.2l-19.8,0.2c-0.3-0.2-0.4-0.3-0.9-0.5c6,0.1,11.5-0.5,17.6-0.5c6.2,0,12.3,0.1,18.3,0.2
				c17.9,0.3,35.2-0.9,53.3-0.7c20.4,0.3,39.2,2.9,59.9,2.9c10.1,0,18.4-0.9,28.2-1.4c11.2-0.6,23.2,0,34.5-0.3
				c10.2-0.3,20.1-0.5,30.4-0.7c0.8,0,2.8-0.1,5-0.2v-2.5H7.6V192.9z"/>
		</g>
		<g>
			<rect x="7.6" y="-8.2" class="st0" width="381.6" height="74"/>
			<g>
				<path class="st1" d="M386.7,37.6c-5.2,0.7-17.3,1.4-20.4,3.3c2.1,0.9,14.3-0.8,22.8-1.3v-2.2C388.2,37.4,387.4,37.5,386.7,37.6z
					"/>
				<path class="st1" d="M7.6-0.8v12.1c3.3,0.1,6.5,0.1,8.9,0.1c8.2-0.2,15.5-1,23.5-1.5c17.5-1.3,34.8-1.1,52.7-1.1
					c18.4,0,36.6-2,55.4-2c19,0,37.3,1,56.3,1.7c11.7,0.4,23.7,0.3,35.5,0.3c5.6,0,23.4-0.2,25.6-2.6C257,5.7,248.3,5.2,239.6,5
					c-15-0.4-29.8-0.7-44.6-1.3c-18.1-0.7-36.5-0.4-54.7-0.7c-14.9-0.3-29.6-1.7-44.5-1.7C85.4,1.3,75.5,2.2,65.2,2.2
					c-8.7,0-17.3-0.1-25.8-0.4C28.8,1.3,17.8,0.5,7.6-0.8z"/>
				<path class="st1" d="M41,41.7c9.2,0.4,18.4-0.6,27.7-0.6c7.3,0,14.7-0.1,21.9,0c21.2,0.3,41.9,3.4,63.2,3.7
					c9.9,0.1,19.2,0.6,28.7,1.3c7.8,0.6,17,0.1,24.5,1.1c-0.3,2.9-28.4,0-32.8-0.3c-14-0.9-28.8-0.4-42.9-1
					c-17.6-0.8-35.8-2.3-53.7-2c-15.6,0.3-30.3,1.2-46.1,0.9c-8.1-0.1-16,0-23.9,0.2v9.2c2.3,0,4.5,0.1,6.3,0
					c9.8-0.5,19.1-2.1,28.3-3.2c34.9-4.2,68.1,5,103.8,2.8c18.6-1.2,38.3-1.2,57.4-0.9c18.5,0.3,34.8-2.1,52.7-2.8
					c21.5-0.8,40.2,2.6,61.1,3.5c9.2,0.4,19,0.3,28.2,0.4c13,0.2,25.2,1.4,38.3,0.2c1.8-0.2,3.6-0.4,5.4-0.6v-3.9
					c-2.4,0.3-4.8,0.6-7,0.8c-6.8,0.6-13.3,1.1-20.1,1.3c-14.6,0.6-30.2-0.7-44.3-2.5c-15.2-1.9-28.6-2.6-44.5-2.6
					c-16.1,0-31.2-0.3-46.7-2.1c-20.7-2.4-39.6-5.3-60.6-6.4c9.8-0.2,18.5-0.9,27.9-2.3c16.6-2.5,32-3.9,49.8-3.1
					c18.4,0.8,37.4,3,56,2c18.3-0.9,36.4-3.4,54.7-4.6c11.6-0.8,23.1-1.4,34.8-1.1v-7.3c-2.1,0-4.1,0-5.9,0c-17.9,0-36.1,0.4-53.9,0
					c-23-0.6-45.5-1.6-68.6-0.4c-11.1,0.6-22.1,1.8-33.4,1.9c-12.2,0.2-24.4-0.2-36.6-0.2c-22.4-0.1-44.2-2.2-66.7-1.7
					c-19.6,0.4-38.1,2.6-57.4,3.6c-14,0.8-28.4,0.1-42.3,0.9c-5.7,0.3-11.1,0.6-16.8,0.7v12.8C18.8,39.5,30,41.2,41,41.7z
					 M120.9,29.5c9.2,0.2,18.3,0.7,27.7,0.7c3.5,0,10-0.5,13.1,0.2c4.7,1,1.4,2.4-2.6,3.1c-7.6,1.3-18.8,0.6-27.2,0.9
					c-8.8,0.3-15.8,0.4-24-0.4l-1.6-0.2c-4.7-1.1-3.7-2.9,0.5-3.7C110.6,29.2,116.7,29.4,120.9,29.5z M80.2,36.6
					c-8.5-2.3-7.3-5.5,0.9-7.6c13.7-3.6,34.2-3.7,50.1-3.4c3.9,0.1,8.6,0.1,12.6,0.4c3.8,0.2,11,1.2,3.7,1.7
					c-3.9,0.3-8.3-0.5-12-0.7c-4.2-0.2-8.8-0.1-13.1,0c-7.8,0.2-17.4,0.2-25,0.9c-7.1,0.6-16.4,4.1-9,7c5.9,2.4,17,1.7,24.7,1.7
					c8.6,0,16.9-0.2,25.6-0.2l3.7-0.2c3.1,0.2,7.3,0.2,9.5,1.3c-4.1,2.3-17.7,2-24.1,2.2c-8.1,0.2-17-0.3-25.1-0.7
					C95.5,38.8,86.6,38.4,80.2,36.6z"/>
				<path class="st1" d="M387.1,31.7c-12.7,0.2-25.8,1.1-38.4,2c-13.3,1-25.9,2.9-39.3,3.4c-19.4,0.6-38.8-0.5-57.9-1.3
					c-9.1-0.4-18.5-0.8-27.7-0.7c-4.2,0.1-21.7,0.3-23.5,2.4c-0.1,0.1-0.6,0.4-0.8,0.5c16.4,3.4,36.2,5.5,54.5,5.9
					c21.3,0.4,46.6-2.1,65.9,1.7c13.1,2.6,23.1,4.6,38.1,3.5c10.4-0.8,20.7-2.2,31.2-3v-4.3c-8.3,0.5-16.9,1.9-24.9,2.3
					c-10.8,0.5-20.5-0.5-31.2-0.7c-0.4-2.6,20.3-3.7,25-4.4c8.1-1.2,15.4-3.3,24-3.9c1.7-0.1,4.6-0.5,7.1-0.5v-3
					C388.3,31.7,387.6,31.7,387.1,31.7z"/>
				<path class="st1" d="M385.7,56.6c-9.9,0.2-19.9,0-29.8,0c-19.1,0-36.5-1.1-55.4-2.3c-20.6-1.4-39.7-3.1-60.5-0.9
					c-25.1,2.7-50.6,0.6-76.2,2c-15.5,0.8-29.3,1.6-44.9,0.7c-13.8-0.8-27.5-1.9-41.3-2.5c-18.3-0.7-32.8,0.4-50.1,2.6
					c-6.6,0.8-13.2,1.5-20,1.9v2.8c0.6,0,1.1-0.1,1.6-0.1c6.4-0.4,12.5-1,18.8-1.5c12.9-1.1,26.8-0.4,40.2-0.4
					c17.5,0,34.8,0.7,52.2,1.1c8.6,0.2,17.2,0.4,26.1,0.4c8.4,0,15.6,0.9,24,1.1c21,0.4,42.7,0.3,63.2-0.9
					c20.7-1.1,42.1-0.9,63.3-0.9c8.9,0,17.6-0.1,26,0.6c9.5,0.8,18.2,2,28.2,2c9.1,0,17.9,0.6,26.6,0.2c2.7-0.1,7-0.5,11.3-0.8v-5.2
					C387.8,56.5,386.7,56.6,385.7,56.6z"/>
				<path class="st1" d="M7.6-3.4c3.3-0.1,6.7-0.1,8.3-0.1C27.7-3,39.2-2.2,51-2C66-1.6,81-2,96.3-2c8.9,0,17.4-0.2,26.2,0.2
					c9.6,0.4,19,1.3,28.7,1.3c18,0.1,36.5,0.4,54.4,1.1C221.7,1.3,237.2,2,253.2,3c10.6,0.7,23.1,0.3,33.2,1.6
					c-0.5,2.9-22.2,4.3-28,4.8c-12.4,1-24.8,1.3-37.6,1.3c-22.5,0-45-1.3-67.5-1.3c-22.5,0-44.4,1.5-66.9,1.5
					c-18.1,0-35.1,0-52.7,1.6c-7.4,0.7-17.1,1.5-26.1,1.6v11.4C22.7,24,38,23.6,54,22.9c16.9-0.7,33.4-1.7,49.8-2.7
					c10.7-0.7,21.5-1.6,32.7-1.2c12.4,0.5,24.9,1.6,37.3,1.9c23.8,0.7,51.7,2.1,74.5-1c10.6-1.5,22.9-1.5,34-2
					c13.4-0.5,27.7,0.2,41.3,0.2c15.6,0,31-0.3,46.5,0.4c6.5,0.3,12.5,1.2,19,1.4V6c-19.6-0.2-39.5,0.4-58.8,1.5
					c-19,1-34.9,4.5-52.7,6.8c-19.5,2.5-39.1,2.5-59.1,2.1c-19.8-0.3-39.6,0.4-59.5,0c-11.2-0.2-27.3-1.4-38.1,0l-1,0.9
					c-2.1-0.3-4.7,0-6.8-0.4c-5.6-1.1,0.8-1.5,4.7-1.5c4.3-0.1,8.7,0,13.1,0c9.1,0,18.1,0,27.2,0c19.1,0,38.1-1.3,57.4-0.9
					c17.6,0.4,37,1.7,53.3-1.5c8.1-1.6,16.7-3.3,25.1-4.6c8.4-1.3,16.1-2,24.5-3.1c13.5-1.8,25.4-3.1,39.6-3.7
					c10.1-0.4,20.8-1,31.3-0.8v-3.6c-1.2,0-2.1,0-2.5,0c-16.2,0.6-32.7,0.9-49,1.3c-20.3,0.5-40.3,2.8-60.6,1.5
					c-9.5-0.6-18.7-2-28.1-2.8c-12.3-1-24.6-0.9-37.1-0.9c-10.1,0-20.2,0-30.3,0.2c-6,0.1-13,0.3-18.8-0.2l-19.8,0.2
					c-0.3-0.2-0.4-0.4-0.9-0.6c6,0.1,11.5-0.7,17.6-0.7c6.2,0,12.3,0.1,18.3,0.2c17.9,0.4,35.2-1.2,53.3-0.9
					c20.4,0.3,39.2,3.7,59.9,3.7c10.1,0,18.4-1.1,28.2-1.8c11.2-0.7,23.2,0,34.5-0.4c10.2-0.4,20.1-0.7,30.4-0.9
					c0.8,0,2.8-0.1,5-0.2v-3.2H7.6V-3.4z"/>
				<path class="st1" d="M388.3,63.1c-12.1,0-23.8-0.1-35.7-0.7c-7.5-0.3-15.1-0.3-22.7-0.4c-8.2-0.2-16.4-0.9-24.7-0.9
					c-17.1,0-34.3-0.2-51.2,0.5c-15.8,0.6-31,1.3-47,1c-19.8-0.3-39.5-0.9-59.4-0.9c-17.9,0-36.1,0.6-53.9,0.2
					c-9.2-0.2-18.1-1.1-27.3-1.5c-9-0.4-17.6-0.1-26.5,0.3c-11.3,0.5-21.7,1.4-32.4,2.6v2.5h381.6v-2.7
					C388.9,63.1,388.6,63.1,388.3,63.1z"/>
			</g>
		</g>
		<g>
			<rect x="7.6" y="63.5" class="st0" width="381.6" height="74"/>
			<g>
				<path class="st1" d="M386.7,91.8c-5.2-0.7-17.3-1.4-20.4-3.3c2.1-0.9,14.3,0.8,22.8,1.3v2.2C388.2,92,387.4,91.9,386.7,91.8z"/>
				<path class="st1" d="M7.6,130.2v-12.1c3.3-0.1,6.5-0.1,8.9-0.1c8.2,0.2,15.5,1,23.5,1.5c17.5,1.3,34.8,1.1,52.7,1.1
					c18.4,0,36.6,2,55.4,2c19,0,37.3-1,56.3-1.7c11.7-0.4,23.7-0.3,35.5-0.3c5.6,0,23.4,0.2,25.6,2.6c-8.5,0.5-17.3,0.9-25.9,1.1
					c-15,0.4-29.8,0.7-44.6,1.3c-18.1,0.7-36.5,0.4-54.7,0.7c-14.9,0.3-29.6,1.7-44.5,1.7c-10.3,0.1-20.3-0.9-30.6-0.9
					c-8.7,0-17.3,0.1-25.8,0.4C28.8,128.1,17.8,128.9,7.6,130.2z"/>
				<path class="st1" d="M7.6,90v12.8c5.7,0.1,11,0.4,16.8,0.7c13.9,0.8,28.2,0.1,42.3,0.9c19.3,1,37.8,3.2,57.4,3.6
					c22.5,0.4,44.3-1.6,66.7-1.7c12.2,0,24.4-0.4,36.6-0.2c11.2,0.2,22.3,1.3,33.4,1.9c23.1,1.2,45.5,0.2,68.6-0.4
					c17.9-0.4,36,0,53.9,0c1.8,0,3.8,0,5.9,0v-7.3c-11.7,0.3-23.2-0.3-34.8-1.1c-18.3-1.2-36.3-3.7-54.7-4.6
					c-18.6-0.9-37.6,1.2-56,2c-17.7,0.8-33.2-0.6-49.8-3.1c-9.4-1.4-18.1-2.2-27.9-2.3c20.9-1.1,39.9-3.9,60.6-6.4
					c15.5-1.8,30.6-2.1,46.7-2.1c15.9,0,29.2-0.7,44.5-2.6c14.1-1.7,29.7-3,44.3-2.5c6.8,0.3,13.3,0.7,20.1,1.3
					c2.2,0.2,4.6,0.5,7,0.8v-3.9c-1.8-0.2-3.6-0.4-5.4-0.6c-13.1-1.3-25.3-0.1-38.3,0.2c-9.2,0.2-19,0.1-28.2,0.4
					c-20.9,0.9-39.6,4.3-61.1,3.5c-18-0.7-34.2-3.1-52.7-2.8c-19.2,0.3-38.9,0.3-57.4-0.9c-35.7-2.2-68.9,7-103.8,2.8
					c-9.2-1.1-18.5-2.8-28.3-3.2c-1.8-0.1-4,0-6.3,0v9.2c7.9,0.2,15.9,0.4,23.9,0.2c15.7-0.3,30.5,0.6,46.1,0.9
					c17.9,0.3,36.1-1.2,53.7-2c14.1-0.6,28.9-0.2,42.9-1c4.4-0.3,32.6-3.2,32.8-0.3c-7.5,1-16.6,0.5-24.5,1.1
					c-9.5,0.7-18.8,1.2-28.7,1.3c-21.2,0.3-41.9,3.4-63.2,3.7c-7.3,0.1-14.7,0-21.9,0c-9.3,0-18.5-1-27.7-0.6
					C30,88.2,18.8,89.9,7.6,90z M106.9,99.5c-4.3-0.9-5.2-2.6-0.5-3.7l1.6-0.2c8.2-0.9,15.2-0.7,24-0.4c8.3,0.3,19.6-0.5,27.2,0.9
					c4,0.7,7.3,2,2.6,3.1c-3.1,0.7-9.5,0.2-13.1,0.2c-9.4,0-18.5,0.5-27.7,0.7C116.7,100,110.6,100.2,106.9,99.5z M102.6,90.3
					c8.1-0.4,17-0.8,25.1-0.7c6.4,0.1,20-0.1,24.1,2.2c-2.2,1.1-6.4,1.1-9.5,1.3l-3.7-0.2c-8.7,0-17-0.2-25.6-0.2
					c-7.7,0-18.8-0.7-24.7,1.7c-7.3,3,2,6.4,9,7c7.7,0.7,17.2,0.7,25,0.9c4.2,0.1,8.9,0.2,13.1,0c3.8-0.1,8.2-1,12-0.7
					c7.4,0.6,0.2,1.5-3.7,1.7c-4,0.3-8.7,0.3-12.6,0.4c-16,0.3-36.4,0.2-50.1-3.4c-8.2-2.2-9.4-5.4-0.9-7.6
					C86.6,91,95.5,90.6,102.6,90.3z"/>
				<path class="st1" d="M387.1,97.7c-12.7-0.2-25.8-1.1-38.4-2c-13.3-1-25.9-2.9-39.3-3.4c-19.4-0.6-38.8,0.5-57.9,1.3
					c-9.1,0.4-18.5,0.8-27.7,0.7c-4.2-0.1-21.7-0.3-23.5-2.4c-0.1-0.1-0.6-0.4-0.8-0.5c16.4-3.4,36.2-5.5,54.5-5.9
					c21.3-0.4,46.6,2.1,65.9-1.7c13.1-2.6,23.1-4.6,38.1-3.5c10.4,0.8,20.7,2.2,31.2,3v4.3c-8.3-0.5-16.9-1.9-24.9-2.3
					c-10.8-0.5-20.5,0.5-31.2,0.7c-0.4,2.6,20.3,3.7,25,4.4c8.1,1.2,15.4,3.3,24,3.9c1.7,0.1,4.6,0.5,7.1,0.5v3
					C388.3,97.7,387.6,97.7,387.1,97.7z"/>
				<path class="st1" d="M385.7,72.8c-9.9-0.2-19.9,0-29.8,0c-19.1,0-36.5,1.1-55.4,2.3c-20.6,1.4-39.7,3.1-60.5,0.9
					c-25.1-2.7-50.6-0.6-76.2-2c-15.5-0.8-29.3-1.6-44.9-0.7c-13.8,0.8-27.5,1.9-41.3,2.5c-18.3,0.7-32.8-0.4-50.1-2.6
					c-6.6-0.8-13.2-1.5-20-1.9v-2.8c0.6,0,1.1,0.1,1.6,0.1c6.4,0.4,12.5,1,18.8,1.5c12.9,1.1,26.8,0.4,40.2,0.4
					c17.5,0,34.8-0.7,52.2-1.1c8.6-0.2,17.2-0.4,26.1-0.4c8.4,0,15.6-1,24-1.1c21-0.4,42.7-0.3,63.2,0.9c20.7,1.1,42.1,0.9,63.3,0.9
					c8.9,0,17.6,0.1,26-0.6c9.5-0.8,18.2-2,28.2-2c9.1,0,17.9-0.6,26.6-0.2c2.7,0.1,7,0.5,11.3,0.8v5.2
					C387.8,72.9,386.7,72.8,385.7,72.8z"/>
				<path class="st1" d="M7.6,132.8c3.3,0.1,6.7,0.1,8.3,0.1c11.8-0.5,23.3-1.3,35.1-1.5c15.1-0.3,30,0,45.3,0
					c8.9,0,17.4,0.2,26.2-0.2c9.6-0.4,19-1.3,28.7-1.3c18-0.1,36.5-0.4,54.4-1.1c16.1-0.6,31.5-1.3,47.6-2.3
					c10.6-0.7,23.1-0.3,33.2-1.6c-0.5-2.9-22.2-4.3-28-4.8c-12.4-1-24.8-1.3-37.6-1.3c-22.5,0-45,1.3-67.5,1.3
					c-22.5,0-44.4-1.5-66.9-1.5c-18.1,0-35.1,0-52.7-1.6c-7.4-0.7-17.1-1.5-26.1-1.6v-11.4c15.1,1.5,30.4,1.9,46.4,2.6
					c16.9,0.7,33.4,1.7,49.8,2.7c10.7,0.7,21.5,1.6,32.7,1.2c12.4-0.5,24.9-1.6,37.3-1.9c23.8-0.7,51.7-2.1,74.5,1
					c10.6,1.5,22.9,1.5,34,2c13.4,0.5,27.7-0.2,41.3-0.2c15.6,0,31,0.3,46.5-0.4c6.5-0.3,12.5-1.2,19-1.4v14
					c-19.6,0.2-39.5-0.4-58.8-1.5c-19-1-34.9-4.5-52.7-6.8c-19.5-2.5-39.1-2.5-59.1-2.1c-19.8,0.3-39.6-0.4-59.5,0
					c-11.2,0.2-27.3,1.4-38.1,0l-1-0.9c-2.1,0.3-4.7,0-6.8,0.4c-5.6,1.1,0.8,1.5,4.7,1.5c4.3,0.1,8.7,0,13.1,0c9.1,0,18.1,0,27.2,0
					c19.1,0,38.1,1.3,57.4,0.9c17.6-0.4,37-1.7,53.3,1.5c8.1,1.6,16.7,3.3,25.1,4.6c8.4,1.3,16.1,2,24.5,3.1
					c13.5,1.8,25.4,3.1,39.6,3.7c10.1,0.4,20.8,1,31.3,0.8v3.6c-1.2,0-2.1,0-2.5,0c-16.2-0.6-32.7-0.9-49-1.3
					c-20.3-0.5-40.3-2.8-60.6-1.5c-9.5,0.6-18.7,2-28.1,2.8c-12.3,1-24.6,0.9-37.1,0.9c-10.1,0-20.2,0-30.3-0.2
					c-6-0.1-13-0.3-18.8,0.2l-19.8-0.2c-0.3,0.2-0.4,0.4-0.9,0.6c6-0.1,11.5,0.7,17.6,0.7c6.2,0,12.3-0.1,18.3-0.2
					c17.9-0.4,35.2,1.2,53.3,0.9c20.4-0.3,39.2-3.7,59.9-3.7c10.1,0,18.4,1.1,28.2,1.8c11.2,0.7,23.2,0,34.5,0.4
					c10.2,0.4,20.1,0.7,30.4,0.9c0.8,0,2.8,0.1,5,0.2v3.2H7.6V132.8z"/>
				<path class="st1" d="M388.3,66.3c-12.1,0-23.8,0.1-35.7,0.7c-7.5,0.3-15.1,0.3-22.7,0.4c-8.2,0.2-16.4,0.9-24.7,0.9
					c-17.1,0-34.3,0.2-51.2-0.5c-15.8-0.6-31-1.3-47-1c-19.8,0.3-39.5,0.9-59.4,0.9c-17.9,0-36.1-0.6-53.9-0.2
					c-9.2,0.2-18.1,1.1-27.3,1.5c-9,0.4-17.6,0.1-26.5-0.3C28.7,68.1,18.3,67.2,7.6,66v-2.5h381.6v2.7
					C388.9,66.3,388.6,66.3,388.3,66.3z"/>
			</g>
		</g>
		<g>
			<rect x="7.6" y="138" class="st0" width="381.6" height="74"/>
			<g>
				<path class="st1" d="M10,183.7c5.2,0.7,17.3,1.4,20.4,3.3c-2.1,0.9-14.3-0.8-22.8-1.3v-2.2C8.5,183.5,9.4,183.6,10,183.7z"/>
				<path class="st1" d="M389.1,145.3v12.1c-3.3,0.1-6.5,0.1-8.9,0.1c-8.2-0.2-15.5-1-23.5-1.5c-17.5-1.3-34.8-1.1-52.7-1.1
					c-18.4,0-36.6-2-55.4-2c-19,0-37.3,1-56.3,1.7c-11.7,0.4-23.7,0.3-35.5,0.3c-5.6,0-23.4-0.2-25.6-2.6c8.5-0.5,17.3-0.9,25.9-1.1
					c15-0.4,29.8-0.7,44.6-1.3c18.1-0.7,36.5-0.4,54.7-0.7c14.9-0.3,29.6-1.7,44.5-1.7c10.3-0.1,20.3,0.9,30.6,0.9
					c8.7,0,17.3-0.1,25.8-0.4C367.9,147.5,378.9,146.6,389.1,145.3z"/>
				<path class="st1" d="M389.1,185.6v-12.8c-5.7-0.1-11-0.4-16.8-0.7c-13.9-0.8-28.2-0.1-42.3-0.9c-19.3-1-37.8-3.2-57.4-3.6
					c-22.5-0.4-44.3,1.6-66.7,1.7c-12.2,0-24.4,0.4-36.6,0.2c-11.2-0.2-22.3-1.3-33.4-1.9c-23.1-1.2-45.5-0.2-68.6,0.4
					c-17.9,0.4-36,0-53.9,0c-1.8,0-3.8,0-5.9,0v7.3c11.7-0.3,23.2,0.3,34.8,1.1c18.3,1.2,36.3,3.7,54.7,4.6c18.6,0.9,37.6-1.2,56-2
					c17.7-0.8,33.2,0.6,49.8,3.1c9.4,1.4,18.1,2.2,27.9,2.3c-20.9,1.1-39.9,3.9-60.6,6.4c-15.5,1.8-30.6,2.1-46.7,2.1
					c-15.9,0-29.2,0.7-44.5,2.6c-14.1,1.7-29.7,3-44.3,2.5c-6.8-0.3-13.3-0.7-20.1-1.3c-2.2-0.2-4.6-0.5-7-0.8v3.9
					c1.8,0.2,3.6,0.4,5.4,0.6c13.1,1.3,25.3,0.1,38.3-0.2c9.2-0.2,19-0.1,28.2-0.4c20.9-0.9,39.6-4.3,61.1-3.5
					c18,0.7,34.2,3.1,52.7,2.8c19.2-0.3,38.9-0.3,57.4,0.9c35.7,2.2,68.9-7,103.8-2.8c9.2,1.1,18.5,2.8,28.3,3.2c1.8,0.1,4,0,6.3,0
					v-9.2c-7.9-0.2-15.9-0.4-23.9-0.2c-15.7,0.3-30.5-0.6-46.1-0.9c-17.9-0.3-36.1,1.2-53.7,2c-14.1,0.6-28.9,0.2-42.9,1
					c-4.4,0.3-32.6,3.2-32.8,0.3c7.5-1,16.6-0.5,24.5-1.1c9.5-0.7,18.8-1.2,28.7-1.3c21.2-0.3,41.9-3.4,63.2-3.7
					c7.3-0.1,14.7,0,21.9,0c9.3,0,18.5,1,27.7,0.6C366.7,187.4,377.9,185.6,389.1,185.6z M289.9,176.1c4.3,0.9,5.2,2.6,0.5,3.7
					l-1.6,0.2c-8.2,0.9-15.2,0.7-24,0.4c-8.3-0.3-19.6,0.5-27.2-0.9c-4-0.7-7.3-2-2.6-3.1c3.1-0.7,9.5-0.2,13.1-0.2
					c9.4,0,18.5-0.5,27.7-0.7C280,175.6,286.2,175.3,289.9,176.1z M294.1,185.3c-8.1,0.4-17,0.8-25.1,0.7c-6.4-0.1-20,0.1-24.1-2.2
					c2.2-1.1,6.4-1.1,9.5-1.3l3.7,0.2c8.7,0,17,0.2,25.6,0.2c7.7,0,18.8,0.7,24.7-1.7c7.3-2.9-2-6.4-9-7c-7.7-0.7-17.2-0.7-25-0.9
					c-4.2-0.1-8.9-0.2-13.1,0c-3.8,0.1-8.2,1-12,0.7c-7.4-0.6-0.2-1.5,3.7-1.7c4-0.3,8.7-0.3,12.6-0.4c16-0.3,36.4-0.2,50.1,3.4
					c8.2,2.2,9.4,5.4,0.9,7.6C310.1,184.5,301.3,184.9,294.1,185.3z"/>
				<path class="st1" d="M9.6,177.8c12.7,0.2,25.8,1.1,38.4,2c13.3,1,25.9,2.9,39.3,3.4c19.4,0.6,38.8-0.5,57.9-1.3
					c9.1-0.4,18.5-0.8,27.7-0.7c4.2,0.1,21.7,0.3,23.5,2.4c0.1,0.1,0.6,0.4,0.8,0.5c-16.4,3.4-36.2,5.5-54.5,5.9
					c-21.3,0.4-46.6-2.1-65.9,1.7c-13.1,2.6-23.1,4.6-38.1,3.5c-10.4-0.8-20.7-2.2-31.2-3V188c8.3,0.5,16.9,1.9,24.9,2.3
					c10.8,0.5,20.5-0.5,31.2-0.7c0.4-2.6-20.3-3.7-25-4.4c-8.1-1.2-15.4-3.3-24-3.9c-1.7-0.1-4.6-0.5-7.1-0.5v-3
					C8.4,177.8,9.1,177.8,9.6,177.8z"/>
				<path class="st1" d="M11,202.7c9.9,0.2,19.9,0,29.8,0c19.1,0,36.5-1.1,55.4-2.3c20.6-1.4,39.7-3.1,60.5-0.9
					c25.1,2.7,50.6,0.6,76.2,2c15.5,0.8,29.3,1.6,44.9,0.7c13.8-0.8,27.5-1.9,41.3-2.5c18.3-0.7,32.8,0.4,50.1,2.6
					c6.6,0.8,13.2,1.5,20,1.9v2.8c-0.6,0-1.1-0.1-1.6-0.1c-6.4-0.4-12.5-1-18.8-1.5c-12.9-1.1-26.8-0.4-40.2-0.4
					c-17.5,0-34.8,0.7-52.2,1.1c-8.6,0.2-17.2,0.4-26.1,0.4c-8.4,0-15.6,1-24,1.1c-21,0.4-42.7,0.3-63.2-0.9
					c-20.7-1.1-42.1-0.9-63.3-0.9c-8.9,0-17.6-0.1-26,0.6c-9.5,0.8-18.2,2-28.2,2c-9.1,0-17.9,0.6-26.6,0.2c-2.7-0.1-7-0.5-11.3-0.8
					v-5.2C8.9,202.7,10.1,202.7,11,202.7z"/>
				<path class="st1" d="M389.1,142.7c-3.3-0.1-6.7-0.1-8.3-0.1c-11.8,0.5-23.3,1.3-35.1,1.5c-15.1,0.3-30,0-45.3,0
					c-8.9,0-17.4-0.2-26.2,0.2c-9.6,0.4-19,1.3-28.7,1.3c-18,0.1-36.5,0.4-54.4,1.1c-16.1,0.6-31.5,1.3-47.6,2.3
					c-10.6,0.7-23.1,0.3-33.2,1.6c0.5,2.9,22.2,4.3,28,4.8c12.4,1,24.8,1.3,37.6,1.3c22.5,0,45-1.3,67.5-1.3
					c22.5,0,44.4,1.5,66.9,1.5c18.1,0,35.1,0,52.7,1.6c7.4,0.7,17.1,1.5,26.1,1.6v11.4c-15.1-1.5-30.4-1.9-46.4-2.6
					c-16.9-0.7-33.4-1.7-49.8-2.7c-10.7-0.7-21.5-1.6-32.7-1.2c-12.4,0.5-24.9,1.6-37.3,1.9c-23.8,0.7-51.7,2.1-74.5-1
					c-10.6-1.5-22.9-1.5-34-2c-13.4-0.5-27.7,0.2-41.3,0.2c-15.6,0-31-0.3-46.5,0.4c-6.5,0.3-12.5,1.2-19,1.4v-14
					c19.6-0.2,39.5,0.4,58.8,1.5c19,1,34.9,4.5,52.7,6.8c19.5,2.5,39.1,2.5,59.1,2.1c19.8-0.3,39.6,0.4,59.5,0
					c11.2-0.2,27.3-1.4,38.1,0l1,0.9c2.1-0.3,4.7,0,6.8-0.4c5.6-1.1-0.8-1.5-4.7-1.5c-4.3-0.1-8.7,0-13.1,0c-9.1,0-18.1,0-27.2,0
					c-19.1,0-38.1-1.3-57.4-0.9c-17.6,0.4-37,1.7-53.3-1.5c-8.1-1.6-16.7-3.3-25.1-4.6c-8.4-1.3-16.1-2-24.5-3.1
					c-13.5-1.8-25.4-3.1-39.6-3.7c-10.1-0.4-20.8-1-31.3-0.8v-3.6c1.2,0,2.1,0,2.5,0c16.2,0.6,32.7,0.9,49,1.3
					c20.3,0.5,40.3,2.8,60.6,1.5c9.5-0.6,18.7-2,28.1-2.8c12.3-1,24.6-0.9,37.1-0.9c10.1,0,20.2,0,30.3,0.2c6,0.1,13,0.3,18.8-0.2
					l19.8,0.2c0.3-0.2,0.4-0.4,0.9-0.6c-6,0.1-11.5-0.7-17.6-0.7c-6.2,0-12.3,0.1-18.3,0.2c-17.9,0.4-35.2-1.2-53.3-0.9
					c-20.4,0.3-39.2,3.7-59.9,3.7c-10.1,0-18.4-1.1-28.2-1.8c-11.2-0.7-23.2,0-34.5-0.4c-10.2-0.4-20.1-0.7-30.4-0.9
					c-0.8,0-2.8-0.1-5-0.2V138h381.6V142.7z"/>
				<path class="st1" d="M8.4,209.3c12.1,0,23.8-0.1,35.7-0.7c7.5-0.3,15.1-0.3,22.7-0.4c8.2-0.2,16.4-0.9,24.7-0.9
					c17.1,0,34.3-0.2,51.2,0.5c15.8,0.6,31,1.3,47,1c19.8-0.3,39.5-0.9,59.4-0.9c17.9,0,36.1,0.6,53.9,0.2
					c9.2-0.2,18.1-1.1,27.3-1.5c9-0.4,17.6-0.1,26.5,0.3c11.3,0.5,21.7,1.4,32.4,2.6v2.5H7.6v-2.7C7.8,209.3,8.1,209.3,8.4,209.3z"
					/>
			</g>
		</g>
		<path class="st2" d="M324.2,66.7c-17.8-0.7-36.6-0.1-54.6-0.2c-17.3-0.1-34.5,0.2-51.9,0.2c-17.1,0-34.2,0.2-51.3-0.1
			c-17.4-0.3-35,0.2-52.2-0.2c-13-0.3-25.7-1.2-38.7-1.7c-13.9-0.5-27.8,0.2-41.5,0.8c-9,0.4-17.4,1-26.3,0.6v4
			c2.4,0.1,4.7,0.2,7.1,0.4c14.8,1,28.3,0.1,43.2-0.2c19.7-0.4,39.4-0.8,59.3-0.7c9.6,0,19,0.8,28.6,1.1c14.5,0.4,29.1-0.1,43.6-0.4
			c25.1-0.4,49.6,2.4,74.5,1.8c13.1-0.3,25.6-1.9,38.8-2.2c8.8-0.2,17.5-0.2,26.2-0.6c17.3-0.8,35.3-0.2,52.7-0.2c2.5,0,5,0,7.5,0
			v-2.9C367.5,67,345.5,67.5,324.2,66.7z"/>
		<path class="st2" d="M389.1,136.4c-3.2-0.1-6-0.1-7.6-0.2c-11.3-0.4-24,0.1-35.3,0.5c-27.9,1-55.6,0.9-83.6-0.2
			c-17.8-0.7-38,1.2-56,1.2c-17.3-0.1-34.5,0.2-51.9,0.2c-17.1,0-34.2,0.2-51.3-0.1c-17.4-0.3-35,0.2-52.2-0.2
			c-13-0.3-25.7-1.2-38.7-1.7c-1.7-0.1-3.4-0.1-5.1-0.1v5.4c15.5-0.3,31.1-0.5,46.8-0.5c9.6,0,19,0.8,28.6,1.1
			c14.5,0.4,29.1-0.1,43.6-0.4c25.1-0.4,49.6,2.4,74.5,1.8c13.1-0.3,25.6-1.9,38.8-2.2c8.8-0.2,17.5-0.2,26.2-0.6
			c17.3-0.8,35.3-0.2,52.7-0.2c13.8,0,27.6,0.3,41.2-0.4c9.4-0.5,19.2-1.1,28.6-1.4c0.2,0,0.3,0,0.5,0V136.4z"/>
		<g>
			<g>
				<polygon class="st0" points="-8.8,-17 388.9,-16.5 388.9,8.7 7.3,8.7 				"/>
				<path class="st3" d="M-3.4-11.5c3.3-0.1,17.4,0.1,19,0.2c11.8,0.4,23.3,1,35.1,1.2c15.1,0.3,30,0,45.3,0
					c8.9,0,17.4-0.1,26.2,0.2c9.6,0.3,19,1,28.7,1c18,0,36.5,0.3,54.4,0.8c16.1,0.5,31.5,1,47.6,1.8c10.6,0.5,23.1,0.2,33.2,1.3
					c-0.5,2.2-22.2,3.3-28,3.7c-12.4,0.8-24.8,1-37.6,1c-22.5,0-45-1-67.5-1c-22.5,0-42.2-2.5-64.7-2.5C70.3-3.9,51.1-0.2,33.4,1
					C26,1.5,14.7-0.9,5.6-0.8l2.1,4.3c15.1-1.2,23.8,2.2,43-1.2C67.4-0.6,87.2,7.8,103.6,7c10.7-0.5,21.5-1.3,32.7-0.9
					c12.4,0.4,24.9,1.2,37.3,1.5c23.8,0.5,49.2-0.5,74.5-0.8c10.7-0.1,22.9-1.2,34-1.5c13.4-0.4,27.7,0.1,41.3,0.1
					c15.6,0,31-0.2,46.5,0.3c6.5,0.2,12.5,0.9,19,1.1V-4c-19.6-0.2-39.5,0.3-58.8,1.1c-19,0.8-34.9,3.4-52.7,5.2
					c-19.5,1.9-39.1,1.9-59.1,1.6c-19.8-0.3-39.6,0.3-59.5,0c-11.2-0.2-27.3-1.1-38.1,0c0,0-48.2-1.4-44.6-2.8
					c11.6-4.2,50.7-0.9,55-0.9c9.1,0,20.8,0.9,29.9,0.9c19.1,0,34.8,0.9,54.2,1.2c17.6,0.3,37,1.3,53.3-1.1
					c8.1-1.2,16.7-2.5,25.1-3.5c8.4-1,16.1-1.5,24.5-2.4C331.6-6,343.4-7,357.6-7.5c10.1-0.3,20.8-0.8,31.3-0.6v-2.8
					c-1.2,0-2.1,0-2.5,0c-16.2,0.5-32.7,0.7-49,1c-20.3,0.4-40.3,2.2-60.6,1.2c-9.5-0.5-18.7-1.5-28.1-2.2
					c-12.3-0.8-24.6-0.7-37.1-0.7c-10.1,0-20.2,0-30.3,0.2c-6,0.1-13,0.2-18.8-0.2l-19.8,0.2c-0.3-0.2-0.4-0.3-0.9-0.5
					c6,0.1,11.5-0.5,17.6-0.5c6.2,0,12.3,0.1,18.3,0.2c17.9,0.3,35.2-0.9,53.3-0.7c20.4,0.3,39.2,2.9,59.9,2.9
					c10.1,0,18.4-0.9,28.2-1.4c11.2-0.6,23.2,0,34.5-0.3c10.2-0.3,20.1-0.5,30.4-0.7c0.8,0,2.8-0.1,5-0.2V-15L-7.3-15.5L-3.4-11.5z"
					/>
			</g>
			<rect x="7.3" y="0.1" class="st4" width="382.2" height="8.6"/>
		</g>
		<g>
			<g>
				<polygon class="st0" points="8.4,187.7 390,187.7 390,212.9 -12,213 				"/>
				<path class="st3" d="M8.4,192.9c3.3-0.1,6.7-0.1,8.3,0c11.8,0.4,23.3,1,35.1,1.2c15.1,0.3,30,0,45.3,0c8.9,0,17.4-0.1,26.2,0.2
					c9.6,0.3,19,1,28.7,1c18,0,36.5,0.3,54.4,0.8c16.1,0.5,31.5,1,47.6,1.8c10.6,0.5,23.1,0.2,33.2,1.3c-0.5,2.2-22.2,3.3-28,3.7
					c-12.4,0.8-24.8,1-37.6,1c-22.5,0-45-1-67.5-1c-22.5,0-42.2-2.5-64.7-2.5c-18.1,0-37.2,3.6-54.9,4.9c-7.4,0.5-26.2-2.8-35.2-2.7
					l-4.7,5c15.1-1.2,38,2.3,57.2-1.1c16.7-2.9,36.4,5.5,52.8,4.7c10.7-0.5,21.5-1.3,32.7-0.9c12.4,0.4,24.9,1.2,37.3,1.5
					c23.8,0.5,49.2-0.5,74.5-0.8c10.7-0.1,22.9-1.2,34-1.5c13.4-0.4,27.7,0.1,41.3,0.1c15.6,0,31-0.2,46.5,0.3
					c6.5,0.2,12.5,0.9,19,1.1v-10.8c-19.6-0.2-39.5,0.3-58.8,1.1c-19,0.8-34.9,3.4-52.7,5.2c-19.5,1.9-39.1,1.9-59.1,1.6
					c-19.8-0.3-39.6,0.3-59.5,0c-11.2-0.2-27.3-1.1-38.1,0c0,0-48.2-1.4-44.6-2.8c11.6-4.2,50.7-0.9,55-0.9c9.1,0,20.8,0.9,29.9,0.9
					c19.1,0,34.8,0.9,54.2,1.2c17.6,0.3,37,1.3,53.3-1.1c8.1-1.2,16.7-2.5,25.1-3.5c8.4-1,16.1-1.5,24.5-2.4
					c13.5-1.4,25.4-2.4,39.6-2.9c10.1-0.3,20.8-0.8,31.3-0.6v-2.8c-1.2,0-2.1,0-2.5,0c-16.2,0.5-32.7,0.7-49,1
					c-20.3,0.4-40.3,2.2-60.6,1.2c-9.5-0.5-18.7-1.5-28.1-2.2c-12.3-0.8-24.6-0.7-37.1-0.7c-10.1,0-20.2,0-30.3,0.2
					c-6,0.1-13,0.2-18.8-0.2l-19.8,0.2c-0.3-0.2-0.4-0.3-0.9-0.5c6,0.1,11.5-0.5,17.6-0.5c6.2,0,12.3,0.1,18.3,0.2
					c17.9,0.3,35.2-0.9,53.3-0.7c20.4,0.3,39.2,2.9,59.9,2.9c10.1,0,18.4-0.9,28.2-1.4c11.2-0.6,23.2,0,34.5-0.3
					c10.2-0.3,20.1-0.5,30.4-0.7c0.8,0,2.8-0.1,5-0.2v-2.5H8.4V192.9z"/>
			</g>
			<polygon class="st4" points="389.6,212.9 -10.5,213 -2.8,204.8 389.9,204.5 			"/>
		</g>
		<rect x="12.8" y="182.4" class="st5" width="377.8" height="4"/>
		<rect x="14.3" y="6.6" class="st5" width="376.3" height="4.8"/>
		<g>
			<g>
				<polygon class="st0" points="-12,213 -10.9,-17 14.3,6.6 13.3,187.2 				"/>
				<path class="st3" d="M-6.9,208.9c-0.1-2,0,0,0.1-1c0.4-7.1,1-14.1,1.3-21.2c0.3-9.1,0.1-18.1,0.1-27.3c0-5.4-0.1-10.5,0.2-15.8
					c0.4-5.8,1-11.4,1.1-17.3c0.1-10.8,0.4-22,1-32.8c0.5-9.7,1.1-19,1.9-28.7c0.6-6.4,0.3-13.9,1.3-20c2.2,0.3,3.3,13.4,3.7,16.8
					c0.8,7.5,0.9,15,0.9,22.7C4.7,97.9,3.6,111.4,3.5,125c0,13.6-2.6,25.5-2.7,39c-0.1,10.9,3.8,31.6,3.8,31.6s4.8,0.4,2.2-9
					c-2.7-10.1,5.6-22,4.9-31.9c-0.5-6.5-1.2-12.9-0.8-19.7c0.4-7.5,1.3-15,1.6-22.5C13.2,98.2,12.2,83,12,67.6
					c-0.1-6.4-1.1-13.8-1.4-20.5c-0.4-8.1,0.2-16.7,0.2-24.9c0-5.6,0.6-11.3,0-16.8c-0.1-1-4.1-5-4.1-5C4.4,5.5,2.2,12.5,2.6,18.3
					c0.7,11.4,3.4,21,5.1,31.7c1.9,11.7,1.8,23.5,1.5,35.6c-0.3,11.9,0.2,23.9-0.2,35.9c-0.2,6.8-1.2,16.5-0.1,23
					c0,0-1.6,29.1-2.9,26.9c-4.2-6.9-0.7-30.5-0.7-33.2c0-5.5,0.9-12.5,1-18c0.1-11.5,1-21,1.4-32.7C8,76.9,9,65.2,6.6,55.4
					c-1.2-4.9-2.5-10.1-3.5-15.1c-1-5.1-1.5-9.7-2.3-14.8C-0.5,17.5-1.6,10.3-2,1.8C-2.3-4.3-4.7,4.2-4.4,14
					c0.3,12.2,2.1,24.2,1,36.5c-0.5,5.7-1.6,11.3-2.2,17c-0.8,7.4-0.7,14.8-0.8,22.4c0,6.1-0.1,12.2,0.1,18.3
					c0.1,3.6,0.2,7.8-0.2,11.3l0.1,12c-0.2,0.2-0.3,0.2-0.5,0.5c0.1-3.6-0.5-6.9-0.5-10.6c0-3.7,0.1-7.4,0.2-11
					C-6.9,99.5-8,89.1-7.7,78.2c0.3-12.3,3-23.7,3-36.2c0-6.1-0.8-11.1-1.3-17c-0.5-6.8,0.1-14-0.2-20.8C-6.5-1.8-6.6-7.8-6.8-14
					c0-0.5-2.6-3-2.6-3l-1.1,230L-6.9,208.9z"/>
			</g>
			<polygon class="st4" points="14.2,9 13.3,186.7 4.7,195.6 5.6,1.1 			"/>
		</g>
		<polygon class="st5" points="-12,213 13.3,184.4 15.6,185.4 -10.5,213 		"/>
		<polygon class="st5" points="-10.9,-17 14.3,11.4 14.3,6.6 -8.8,-17 		"/>
		<g>
			<g>
				<g>
					<polygon class="st0" points="390,212.9 391,-16.4 365.6,6.9 364.8,187.6 					"/>
					<path class="st3" d="M384.8,209.5c0.1-2,0,0,0-1c-0.3-7.1-0.9-14.1-1.1-21.2c-0.2-9.1,0.1-18.1,0.1-27.3
						c0-5.4,0.2-10.5-0.1-15.8c-0.3-5.8-0.9-11.4-0.9-17.3c0-10.9-0.2-22-0.7-32.8c-0.4-9.7-0.9-19-1.7-28.7
						c-0.5-6.4-0.1-13.9-1.2-20c-2.2,0.3-3.4,13.3-3.8,16.8c-0.8,7.5-1,14.9-1.1,22.7c-0.1,13.6,0.9,27.1,0.8,40.7
						c-0.1,13.6,2.4,25.5,2.3,39c-0.1,10.9-4.1,31.5-4.1,31.5s-4.8,0.4-2.1-9c2.8-10-5.4-22-4.6-31.9c0.5-6.5,1.3-12.9,1-19.7
						c-0.3-7.5-1.1-15-1.4-22.5c-0.5-14.4,0.7-29.6,1-44.9c0.2-6.4,1.3-13.8,1.6-20.5c0.4-8.1-0.1-16.7,0-24.9
						c0-5.6-0.5-11.3,0.1-16.8c0.1-1,4.2-4.9,4.2-4.9c2.2,5.1,4.4,12.1,4,17.9c-0.8,11.4-3.6,20.9-5.4,31.7c-2,11.7-2,23.5-1.8,35.6
						c0.2,11.9-0.4,23.9-0.1,35.9c0.2,6.8,1,16.5-0.1,23c0,0,1.3,29.1,2.6,26.9c4.3-6.9,1-30.5,1-33.2c0-5.5-0.8-12.6-0.8-18
						c0.1-11.5-0.8-21-1.1-32.7c-0.3-10.6-1.2-22.4,1.3-32.1c1.2-4.9,2.6-10,3.6-15c1-5,1.6-9.7,2.5-14.7c1.4-8.1,2.5-15.2,3-23.8
						c0.4-6.1,2.7,2.5,2.3,12.2c-0.5,12.2-2.3,24.2-1.4,36.5c0.4,5.7,1.5,11.3,2.1,17c0.8,7.4,0.6,14.8,0.6,22.4
						c0,6.1-0.1,12.2-0.3,18.3c-0.1,3.6-0.3,7.8,0.1,11.3l-0.2,12c0.2,0.2,0.3,0.2,0.5,0.5c-0.1-3.6,0.6-6.9,0.6-10.6
						c0-3.7,0-7.4-0.1-11c-0.2-10.8,1-21.2,0.8-32.1c-0.2-12.3-2.8-23.7-2.7-36.2c0-6.1,0.9-11.1,1.4-17c0.6-6.8,0-14,0.4-20.8
						c0.3-6.1,0.6-12.1,0.8-18.3c0-0.5,2.7-3,2.7-3L388.4,213L384.8,209.5z"/>
				</g>
				<polygon class="st4" points="365.7,9.3 364.8,187.1 373.4,196 374.3,1.5 				"/>
			</g>
			<polygon class="st5" points="390,212.9 364.8,184.7 362.6,185.7 387.9,213 			"/>
			<polygon class="st5" points="391,-16.4 365.5,11.7 365.6,6.9 388.8,-16.4 			"/>
		</g>
		<polygon class="st5" points="14.2,7.7 13.7,186 17.6,186.4 17.6,8.7 		"/>
		<polygon class="st5" points="365.6,6.9 364.9,186.3 362.6,185.7 362.6,9 		"/>
	</g>
</g>
</svg>
