<?xml version="1.0" encoding="utf-8"?>
<!-- Generator: Adobe Illustrator 24.1.2, SVG Export Plug-In . SVG Version: 6.00 Build 0)  -->
<svg version="1.1" id="Layer_1" xmlns="http://www.w3.org/2000/svg" xmlns:xlink="http://www.w3.org/1999/xlink" x="0px" y="0px"
	 viewBox="0 0 300 300" style="enable-background:new 0 0 300 300;" xml:space="preserve">
<style type="text/css">
	.st0{fill:#BB9753;}
	.st1{fill:#404040;}
	.st2{fill:#F4836F;}
	.st3{fill:#FFFFFF;}
	.st4{fill:#FBD8D1;}
</style>
<g>
	<g>
		<line class="st0" x1="-249.7" y1="-253.5" x2="550.3" y2="-253.5"/>
		<line class="st0" x1="550.3" y1="546.5" x2="-249.7" y2="546.5"/>
	</g>
	<g>
		<path class="st1" d="M186.7,262c0,22.3-21.2,29-47.4,29c-26.2,0-47.4-6.7-47.4-29c0-22.3,17.8-51.7,50.3-51.7
			C168.4,210.3,186.7,239.7,186.7,262z"/>
		<g>
			<path class="st1" d="M105.3,107.1C94.9,113.9,71.8,97,53.8,69.4C35.8,41.8,29.6,13.8,40.1,7c10.4-6.8,33.5,10.1,51.5,37.8
				C109.6,72.4,115.7,100.4,105.3,107.1z"/>
			<path class="st2" d="M102,102.1c-6.1,4-21.3-8.5-34-27.9c-12.7-19.4-18-38.4-11.8-42.4c6.1-4,21.3,8.5,34,27.9
				C102.9,79.2,108.2,98.2,102,102.1z"/>
		</g>
		<g>
			<path class="st1" d="M188,107.1c10.4,6.8,33.5-10.1,51.5-37.8c18-27.6,24.2-55.6,13.7-62.4c-10.4-6.8-33.5,10.1-51.5,37.8
				C183.7,72.4,177.5,100.4,188,107.1z"/>
			<path class="st2" d="M190.3,102.1c6.1,4,21.3-8.5,34-27.9c12.7-19.4,18-38.4,11.8-42.4c-6.1-4-21.3,8.5-34,27.9
				C189.5,79.2,184.2,98.2,190.3,102.1z"/>
		</g>
		<path class="st1" d="M235.8,161.8c0,33.5-39.3,53.1-87.9,53.1C99.3,215,60,195.3,60,161.8c0-33.5,39.3-80.2,87.9-80.2
			C196.4,81.6,235.8,128.4,235.8,161.8z"/>
		<g>
			<path class="st3" d="M127.3,174.5c-3.3,0-6-2.7-6-6c0-7.5-6.1-13.5-13.5-13.5c-7.5,0-13.5,6.1-13.5,13.5c0,3.3-2.7,6-6,6
				s-6-2.7-6-6c0-14.1,11.5-25.5,25.5-25.5c14.1,0,25.5,11.5,25.5,25.5C133.3,171.8,130.6,174.5,127.3,174.5z"/>
		</g>
		<g>
			<path class="st3" d="M207.7,174.5c-3.3,0-6-2.7-6-6c0-7.5-6.1-13.5-13.5-13.5c-7.5,0-13.5,6.1-13.5,13.5c0,3.3-2.7,6-6,6
				c-3.3,0-6-2.7-6-6c0-14.1,11.5-25.5,25.5-25.5s25.5,11.5,25.5,25.5C213.7,171.8,211.1,174.5,207.7,174.5z"/>
		</g>
		<path class="st1" d="M63.4,171.9c0,0-3.6,12.9-9.4,8.1c-4.2-3.5,0.6-12.9,7.4-19c-6.8-6.1-11.7-15.5-7.4-19
			c5.8-4.9,9.4,8.1,9.4,8.1"/>
		<path class="st1" d="M233.2,171.9c0,0,3.6,12.9,9.4,8.1c4.2-3.5-0.6-12.9-7.4-19c6.8-6.1,11.7-15.5,7.4-19
			c-5.8-4.9-9.4,8.1-9.4,8.1"/>
		<path class="st1" d="M95.9,260.5c0,6.9-5.6,12.5-12.5,12.5c-6.9,0-12.5-5.6-12.5-12.5c0-6.9,5.6-12.5,12.5-12.5
			C90.3,248,95.9,253.6,95.9,260.5z"/>
		<path class="st4" d="M45.8,193.8c0,3.4,12.8,6.2,28.5,6.2c15.8,0,28.5-2.8,28.5-6.2c0-3.4-12.8-6.2-28.5-6.2
			C58.6,187.5,45.8,190.3,45.8,193.8z"/>
		<path class="st4" d="M195.4,193.8c0,3.4,12.8,6.2,28.5,6.2c15.8,0,28.5-2.8,28.5-6.2c0-3.4-12.8-6.2-28.5-6.2
			C208.1,187.5,195.4,190.3,195.4,193.8z"/>
	</g>
</g>
</svg>
